%TF.GenerationSoftware,KiCad,Pcbnew,(6.0.11)*%
%TF.CreationDate,2023-04-19T21:38:18+02:00*%
%TF.ProjectId,FringeLocker,4672696e-6765-44c6-9f63-6b65722e6b69,0.1*%
%TF.SameCoordinates,Original*%
%TF.FileFunction,Legend,Top*%
%TF.FilePolarity,Positive*%
%FSLAX46Y46*%
G04 Gerber Fmt 4.6, Leading zero omitted, Abs format (unit mm)*
G04 Created by KiCad (PCBNEW (6.0.11)) date 2023-04-19 21:38:18*
%MOMM*%
%LPD*%
G01*
G04 APERTURE LIST*
%ADD10C,0.300000*%
%ADD11C,0.150000*%
%ADD12C,0.200000*%
%ADD13C,0.120000*%
G04 APERTURE END LIST*
D10*
X154928285Y-71774857D02*
X155142571Y-71846285D01*
X155214000Y-71917714D01*
X155285428Y-72060571D01*
X155285428Y-72274857D01*
X155214000Y-72417714D01*
X155142571Y-72489142D01*
X154999714Y-72560571D01*
X154428285Y-72560571D01*
X154428285Y-71060571D01*
X154928285Y-71060571D01*
X155071142Y-71132000D01*
X155142571Y-71203428D01*
X155214000Y-71346285D01*
X155214000Y-71489142D01*
X155142571Y-71632000D01*
X155071142Y-71703428D01*
X154928285Y-71774857D01*
X154428285Y-71774857D01*
X155928285Y-72560571D02*
X155928285Y-71560571D01*
X155928285Y-71060571D02*
X155856857Y-71132000D01*
X155928285Y-71203428D01*
X155999714Y-71132000D01*
X155928285Y-71060571D01*
X155928285Y-71203428D01*
X157285428Y-72560571D02*
X157285428Y-71774857D01*
X157214000Y-71632000D01*
X157071142Y-71560571D01*
X156785428Y-71560571D01*
X156642571Y-71632000D01*
X157285428Y-72489142D02*
X157142571Y-72560571D01*
X156785428Y-72560571D01*
X156642571Y-72489142D01*
X156571142Y-72346285D01*
X156571142Y-72203428D01*
X156642571Y-72060571D01*
X156785428Y-71989142D01*
X157142571Y-71989142D01*
X157285428Y-71917714D01*
X157928285Y-72489142D02*
X158071142Y-72560571D01*
X158356857Y-72560571D01*
X158499714Y-72489142D01*
X158571142Y-72346285D01*
X158571142Y-72274857D01*
X158499714Y-72132000D01*
X158356857Y-72060571D01*
X158142571Y-72060571D01*
X157999714Y-71989142D01*
X157928285Y-71846285D01*
X157928285Y-71774857D01*
X157999714Y-71632000D01*
X158142571Y-71560571D01*
X158356857Y-71560571D01*
X158499714Y-71632000D01*
X154099142Y-102278571D02*
X153384857Y-102278571D01*
X153384857Y-100778571D01*
X154813428Y-102278571D02*
X154670571Y-102207142D01*
X154599142Y-102135714D01*
X154527714Y-101992857D01*
X154527714Y-101564285D01*
X154599142Y-101421428D01*
X154670571Y-101350000D01*
X154813428Y-101278571D01*
X155027714Y-101278571D01*
X155170571Y-101350000D01*
X155242000Y-101421428D01*
X155313428Y-101564285D01*
X155313428Y-101992857D01*
X155242000Y-102135714D01*
X155170571Y-102207142D01*
X155027714Y-102278571D01*
X154813428Y-102278571D01*
X155813428Y-101278571D02*
X156099142Y-102278571D01*
X156384857Y-101564285D01*
X156670571Y-102278571D01*
X156956285Y-101278571D01*
X158670571Y-101278571D02*
X158670571Y-102778571D01*
X158670571Y-101350000D02*
X158813428Y-101278571D01*
X159099142Y-101278571D01*
X159242000Y-101350000D01*
X159313428Y-101421428D01*
X159384857Y-101564285D01*
X159384857Y-101992857D01*
X159313428Y-102135714D01*
X159242000Y-102207142D01*
X159099142Y-102278571D01*
X158813428Y-102278571D01*
X158670571Y-102207142D01*
X160670571Y-102278571D02*
X160670571Y-101492857D01*
X160599142Y-101350000D01*
X160456285Y-101278571D01*
X160170571Y-101278571D01*
X160027714Y-101350000D01*
X160670571Y-102207142D02*
X160527714Y-102278571D01*
X160170571Y-102278571D01*
X160027714Y-102207142D01*
X159956285Y-102064285D01*
X159956285Y-101921428D01*
X160027714Y-101778571D01*
X160170571Y-101707142D01*
X160527714Y-101707142D01*
X160670571Y-101635714D01*
X161313428Y-102207142D02*
X161456285Y-102278571D01*
X161742000Y-102278571D01*
X161884857Y-102207142D01*
X161956285Y-102064285D01*
X161956285Y-101992857D01*
X161884857Y-101850000D01*
X161742000Y-101778571D01*
X161527714Y-101778571D01*
X161384857Y-101707142D01*
X161313428Y-101564285D01*
X161313428Y-101492857D01*
X161384857Y-101350000D01*
X161527714Y-101278571D01*
X161742000Y-101278571D01*
X161884857Y-101350000D01*
X162527714Y-102207142D02*
X162670571Y-102278571D01*
X162956285Y-102278571D01*
X163099142Y-102207142D01*
X163170571Y-102064285D01*
X163170571Y-101992857D01*
X163099142Y-101850000D01*
X162956285Y-101778571D01*
X162742000Y-101778571D01*
X162599142Y-101707142D01*
X162527714Y-101564285D01*
X162527714Y-101492857D01*
X162599142Y-101350000D01*
X162742000Y-101278571D01*
X162956285Y-101278571D01*
X163099142Y-101350000D01*
D11*
X108204000Y-93980000D02*
X123952000Y-93980000D01*
X123952000Y-93980000D02*
X123952000Y-100330000D01*
X123952000Y-100330000D02*
X108204000Y-100330000D01*
X108204000Y-100330000D02*
X108204000Y-93980000D01*
X109574000Y-96221357D02*
X109074000Y-96221357D01*
X109074000Y-97007071D02*
X109074000Y-95507071D01*
X109788285Y-95507071D01*
X110359714Y-97007071D02*
X110359714Y-96007071D01*
X110359714Y-96292785D02*
X110431142Y-96149928D01*
X110502571Y-96078500D01*
X110645428Y-96007071D01*
X110788285Y-96007071D01*
X111288285Y-97007071D02*
X111288285Y-96007071D01*
X111288285Y-95507071D02*
X111216857Y-95578500D01*
X111288285Y-95649928D01*
X111359714Y-95578500D01*
X111288285Y-95507071D01*
X111288285Y-95649928D01*
X112002571Y-96007071D02*
X112002571Y-97007071D01*
X112002571Y-96149928D02*
X112074000Y-96078500D01*
X112216857Y-96007071D01*
X112431142Y-96007071D01*
X112574000Y-96078500D01*
X112645428Y-96221357D01*
X112645428Y-97007071D01*
X114002571Y-96007071D02*
X114002571Y-97221357D01*
X113931142Y-97364214D01*
X113859714Y-97435642D01*
X113716857Y-97507071D01*
X113502571Y-97507071D01*
X113359714Y-97435642D01*
X114002571Y-96935642D02*
X113859714Y-97007071D01*
X113574000Y-97007071D01*
X113431142Y-96935642D01*
X113359714Y-96864214D01*
X113288285Y-96721357D01*
X113288285Y-96292785D01*
X113359714Y-96149928D01*
X113431142Y-96078500D01*
X113574000Y-96007071D01*
X113859714Y-96007071D01*
X114002571Y-96078500D01*
X115288285Y-96935642D02*
X115145428Y-97007071D01*
X114859714Y-97007071D01*
X114716857Y-96935642D01*
X114645428Y-96792785D01*
X114645428Y-96221357D01*
X114716857Y-96078500D01*
X114859714Y-96007071D01*
X115145428Y-96007071D01*
X115288285Y-96078500D01*
X115359714Y-96221357D01*
X115359714Y-96364214D01*
X114645428Y-96507071D01*
X116716857Y-97007071D02*
X116002571Y-97007071D01*
X116002571Y-95507071D01*
X117431142Y-97007071D02*
X117288285Y-96935642D01*
X117216857Y-96864214D01*
X117145428Y-96721357D01*
X117145428Y-96292785D01*
X117216857Y-96149928D01*
X117288285Y-96078500D01*
X117431142Y-96007071D01*
X117645428Y-96007071D01*
X117788285Y-96078500D01*
X117859714Y-96149928D01*
X117931142Y-96292785D01*
X117931142Y-96721357D01*
X117859714Y-96864214D01*
X117788285Y-96935642D01*
X117645428Y-97007071D01*
X117431142Y-97007071D01*
X119216857Y-96935642D02*
X119074000Y-97007071D01*
X118788285Y-97007071D01*
X118645428Y-96935642D01*
X118574000Y-96864214D01*
X118502571Y-96721357D01*
X118502571Y-96292785D01*
X118574000Y-96149928D01*
X118645428Y-96078500D01*
X118788285Y-96007071D01*
X119074000Y-96007071D01*
X119216857Y-96078500D01*
X119859714Y-97007071D02*
X119859714Y-95507071D01*
X120002571Y-96435642D02*
X120431142Y-97007071D01*
X120431142Y-96007071D02*
X119859714Y-96578500D01*
X121645428Y-96935642D02*
X121502571Y-97007071D01*
X121216857Y-97007071D01*
X121074000Y-96935642D01*
X121002571Y-96792785D01*
X121002571Y-96221357D01*
X121074000Y-96078500D01*
X121216857Y-96007071D01*
X121502571Y-96007071D01*
X121645428Y-96078500D01*
X121716857Y-96221357D01*
X121716857Y-96364214D01*
X121002571Y-96507071D01*
X122359714Y-97007071D02*
X122359714Y-96007071D01*
X122359714Y-96292785D02*
X122431142Y-96149928D01*
X122502571Y-96078500D01*
X122645428Y-96007071D01*
X122788285Y-96007071D01*
X113538285Y-97922071D02*
X114038285Y-99422071D01*
X114538285Y-97922071D01*
X114895428Y-97922071D02*
X115824000Y-97922071D01*
X115324000Y-98493500D01*
X115538285Y-98493500D01*
X115681142Y-98564928D01*
X115752571Y-98636357D01*
X115824000Y-98779214D01*
X115824000Y-99136357D01*
X115752571Y-99279214D01*
X115681142Y-99350642D01*
X115538285Y-99422071D01*
X115109714Y-99422071D01*
X114966857Y-99350642D01*
X114895428Y-99279214D01*
X116466857Y-99279214D02*
X116538285Y-99350642D01*
X116466857Y-99422071D01*
X116395428Y-99350642D01*
X116466857Y-99279214D01*
X116466857Y-99422071D01*
X117466857Y-97922071D02*
X117609714Y-97922071D01*
X117752571Y-97993500D01*
X117824000Y-98064928D01*
X117895428Y-98207785D01*
X117966857Y-98493500D01*
X117966857Y-98850642D01*
X117895428Y-99136357D01*
X117824000Y-99279214D01*
X117752571Y-99350642D01*
X117609714Y-99422071D01*
X117466857Y-99422071D01*
X117324000Y-99350642D01*
X117252571Y-99279214D01*
X117181142Y-99136357D01*
X117109714Y-98850642D01*
X117109714Y-98493500D01*
X117181142Y-98207785D01*
X117252571Y-98064928D01*
X117324000Y-97993500D01*
X117466857Y-97922071D01*
X131889619Y-106386380D02*
X132080095Y-106386380D01*
X132175333Y-106434000D01*
X132270571Y-106529238D01*
X132318190Y-106719714D01*
X132318190Y-107053047D01*
X132270571Y-107243523D01*
X132175333Y-107338761D01*
X132080095Y-107386380D01*
X131889619Y-107386380D01*
X131794380Y-107338761D01*
X131699142Y-107243523D01*
X131651523Y-107053047D01*
X131651523Y-106719714D01*
X131699142Y-106529238D01*
X131794380Y-106434000D01*
X131889619Y-106386380D01*
X133080095Y-106862571D02*
X132746761Y-106862571D01*
X132746761Y-107386380D02*
X132746761Y-106386380D01*
X133222952Y-106386380D01*
X133937238Y-106862571D02*
X133603904Y-106862571D01*
X133603904Y-107386380D02*
X133603904Y-106386380D01*
X134080095Y-106386380D01*
X127142952Y-106386380D02*
X127333428Y-106386380D01*
X127428666Y-106434000D01*
X127523904Y-106529238D01*
X127571523Y-106719714D01*
X127571523Y-107053047D01*
X127523904Y-107243523D01*
X127428666Y-107338761D01*
X127333428Y-107386380D01*
X127142952Y-107386380D01*
X127047714Y-107338761D01*
X126952476Y-107243523D01*
X126904857Y-107053047D01*
X126904857Y-106719714D01*
X126952476Y-106529238D01*
X127047714Y-106434000D01*
X127142952Y-106386380D01*
X128000095Y-107386380D02*
X128000095Y-106386380D01*
X128571523Y-107386380D01*
X128571523Y-106386380D01*
X154463904Y-107132380D02*
X154463904Y-106132380D01*
X154844857Y-106132380D01*
X154940095Y-106180000D01*
X154987714Y-106227619D01*
X155035333Y-106322857D01*
X155035333Y-106465714D01*
X154987714Y-106560952D01*
X154940095Y-106608571D01*
X154844857Y-106656190D01*
X154463904Y-106656190D01*
X155606761Y-107132380D02*
X155511523Y-107084761D01*
X155463904Y-107037142D01*
X155416285Y-106941904D01*
X155416285Y-106656190D01*
X155463904Y-106560952D01*
X155511523Y-106513333D01*
X155606761Y-106465714D01*
X155749619Y-106465714D01*
X155844857Y-106513333D01*
X155892476Y-106560952D01*
X155940095Y-106656190D01*
X155940095Y-106941904D01*
X155892476Y-107037142D01*
X155844857Y-107084761D01*
X155749619Y-107132380D01*
X155606761Y-107132380D01*
X156273428Y-106465714D02*
X156463904Y-107132380D01*
X156654380Y-106656190D01*
X156844857Y-107132380D01*
X157035333Y-106465714D01*
D10*
X113626000Y-71798571D02*
X114411714Y-70798571D01*
X113626000Y-70798571D02*
X114411714Y-71798571D01*
X114911714Y-70441428D02*
X114983142Y-70370000D01*
X115126000Y-70298571D01*
X115483142Y-70298571D01*
X115626000Y-70370000D01*
X115697428Y-70441428D01*
X115768857Y-70584285D01*
X115768857Y-70727142D01*
X115697428Y-70941428D01*
X114840285Y-71798571D01*
X115768857Y-71798571D01*
X117126000Y-70298571D02*
X116411714Y-70298571D01*
X116340285Y-71012857D01*
X116411714Y-70941428D01*
X116554571Y-70870000D01*
X116911714Y-70870000D01*
X117054571Y-70941428D01*
X117126000Y-71012857D01*
X117197428Y-71155714D01*
X117197428Y-71512857D01*
X117126000Y-71655714D01*
X117054571Y-71727142D01*
X116911714Y-71798571D01*
X116554571Y-71798571D01*
X116411714Y-71727142D01*
X116340285Y-71655714D01*
X118126000Y-70298571D02*
X118268857Y-70298571D01*
X118411714Y-70370000D01*
X118483142Y-70441428D01*
X118554571Y-70584285D01*
X118626000Y-70870000D01*
X118626000Y-71227142D01*
X118554571Y-71512857D01*
X118483142Y-71655714D01*
X118411714Y-71727142D01*
X118268857Y-71798571D01*
X118126000Y-71798571D01*
X117983142Y-71727142D01*
X117911714Y-71655714D01*
X117840285Y-71512857D01*
X117768857Y-71227142D01*
X117768857Y-70870000D01*
X117840285Y-70584285D01*
X117911714Y-70441428D01*
X117983142Y-70370000D01*
X118126000Y-70298571D01*
X121054571Y-70798571D02*
X121054571Y-72012857D01*
X120983142Y-72155714D01*
X120911714Y-72227142D01*
X120768857Y-72298571D01*
X120554571Y-72298571D01*
X120411714Y-72227142D01*
X121054571Y-71727142D02*
X120911714Y-71798571D01*
X120626000Y-71798571D01*
X120483142Y-71727142D01*
X120411714Y-71655714D01*
X120340285Y-71512857D01*
X120340285Y-71084285D01*
X120411714Y-70941428D01*
X120483142Y-70870000D01*
X120626000Y-70798571D01*
X120911714Y-70798571D01*
X121054571Y-70870000D01*
X122411714Y-71798571D02*
X122411714Y-71012857D01*
X122340285Y-70870000D01*
X122197428Y-70798571D01*
X121911714Y-70798571D01*
X121768857Y-70870000D01*
X122411714Y-71727142D02*
X122268857Y-71798571D01*
X121911714Y-71798571D01*
X121768857Y-71727142D01*
X121697428Y-71584285D01*
X121697428Y-71441428D01*
X121768857Y-71298571D01*
X121911714Y-71227142D01*
X122268857Y-71227142D01*
X122411714Y-71155714D01*
X123126000Y-71798571D02*
X123126000Y-70798571D01*
X123126000Y-70298571D02*
X123054571Y-70370000D01*
X123126000Y-70441428D01*
X123197428Y-70370000D01*
X123126000Y-70298571D01*
X123126000Y-70441428D01*
X123840285Y-70798571D02*
X123840285Y-71798571D01*
X123840285Y-70941428D02*
X123911714Y-70870000D01*
X124054571Y-70798571D01*
X124268857Y-70798571D01*
X124411714Y-70870000D01*
X124483142Y-71012857D01*
X124483142Y-71798571D01*
X111800285Y-87038571D02*
X112586000Y-86038571D01*
X111800285Y-86038571D02*
X112586000Y-87038571D01*
X113943142Y-87038571D02*
X113086000Y-87038571D01*
X113514571Y-87038571D02*
X113514571Y-85538571D01*
X113371714Y-85752857D01*
X113228857Y-85895714D01*
X113086000Y-85967142D01*
X114871714Y-85538571D02*
X115014571Y-85538571D01*
X115157428Y-85610000D01*
X115228857Y-85681428D01*
X115300285Y-85824285D01*
X115371714Y-86110000D01*
X115371714Y-86467142D01*
X115300285Y-86752857D01*
X115228857Y-86895714D01*
X115157428Y-86967142D01*
X115014571Y-87038571D01*
X114871714Y-87038571D01*
X114728857Y-86967142D01*
X114657428Y-86895714D01*
X114586000Y-86752857D01*
X114514571Y-86467142D01*
X114514571Y-86110000D01*
X114586000Y-85824285D01*
X114657428Y-85681428D01*
X114728857Y-85610000D01*
X114871714Y-85538571D01*
X117800285Y-86038571D02*
X117800285Y-87252857D01*
X117728857Y-87395714D01*
X117657428Y-87467142D01*
X117514571Y-87538571D01*
X117300285Y-87538571D01*
X117157428Y-87467142D01*
X117800285Y-86967142D02*
X117657428Y-87038571D01*
X117371714Y-87038571D01*
X117228857Y-86967142D01*
X117157428Y-86895714D01*
X117086000Y-86752857D01*
X117086000Y-86324285D01*
X117157428Y-86181428D01*
X117228857Y-86110000D01*
X117371714Y-86038571D01*
X117657428Y-86038571D01*
X117800285Y-86110000D01*
X119157428Y-87038571D02*
X119157428Y-86252857D01*
X119086000Y-86110000D01*
X118943142Y-86038571D01*
X118657428Y-86038571D01*
X118514571Y-86110000D01*
X119157428Y-86967142D02*
X119014571Y-87038571D01*
X118657428Y-87038571D01*
X118514571Y-86967142D01*
X118443142Y-86824285D01*
X118443142Y-86681428D01*
X118514571Y-86538571D01*
X118657428Y-86467142D01*
X119014571Y-86467142D01*
X119157428Y-86395714D01*
X119871714Y-87038571D02*
X119871714Y-86038571D01*
X119871714Y-85538571D02*
X119800285Y-85610000D01*
X119871714Y-85681428D01*
X119943142Y-85610000D01*
X119871714Y-85538571D01*
X119871714Y-85681428D01*
X120586000Y-86038571D02*
X120586000Y-87038571D01*
X120586000Y-86181428D02*
X120657428Y-86110000D01*
X120800285Y-86038571D01*
X121014571Y-86038571D01*
X121157428Y-86110000D01*
X121228857Y-86252857D01*
X121228857Y-87038571D01*
X109029619Y-79680571D02*
X110934380Y-79680571D01*
X121983619Y-79680571D02*
X123888380Y-79680571D01*
X122936000Y-80632952D02*
X122936000Y-78728190D01*
D12*
X121158000Y-80010000D02*
G75*
G03*
X111958071Y-80514893I-4627929J257107D01*
G01*
X163684161Y-99439281D02*
G75*
G03*
X152654001Y-99821999I-5696160J5027481D01*
G01*
D10*
X164973142Y-99274285D02*
X167258857Y-99274285D01*
X166116000Y-100417142D02*
X166116000Y-98131428D01*
X148971142Y-99274285D02*
X151256857Y-99274285D01*
X109347142Y-67778285D02*
X111632857Y-67778285D01*
X126873142Y-67524285D02*
X129158857Y-67524285D01*
X128016000Y-68667142D02*
X128016000Y-66381428D01*
D12*
X125076161Y-68705281D02*
G75*
G03*
X114046001Y-69087999I-5696160J5027481D01*
G01*
X144272095Y-100846000D02*
X144176857Y-100798380D01*
X144034000Y-100798380D01*
X143891142Y-100846000D01*
X143795904Y-100941238D01*
X143748285Y-101036476D01*
X143700666Y-101226952D01*
X143700666Y-101369809D01*
X143748285Y-101560285D01*
X143795904Y-101655523D01*
X143891142Y-101750761D01*
X144034000Y-101798380D01*
X144129238Y-101798380D01*
X144272095Y-101750761D01*
X144319714Y-101703142D01*
X144319714Y-101369809D01*
X144129238Y-101369809D01*
X144748285Y-101798380D02*
X144748285Y-100798380D01*
X145319714Y-101798380D01*
X145319714Y-100798380D01*
X145795904Y-101798380D02*
X145795904Y-100798380D01*
X146034000Y-100798380D01*
X146176857Y-100846000D01*
X146272095Y-100941238D01*
X146319714Y-101036476D01*
X146367333Y-101226952D01*
X146367333Y-101369809D01*
X146319714Y-101560285D01*
X146272095Y-101655523D01*
X146176857Y-101750761D01*
X146034000Y-101798380D01*
X145795904Y-101798380D01*
X143272095Y-103957428D02*
X144034000Y-103957428D01*
X145034000Y-104338380D02*
X144462571Y-104338380D01*
X144748285Y-104338380D02*
X144748285Y-103338380D01*
X144653047Y-103481238D01*
X144557809Y-103576476D01*
X144462571Y-103624095D01*
X145605428Y-103766952D02*
X145510190Y-103719333D01*
X145462571Y-103671714D01*
X145414952Y-103576476D01*
X145414952Y-103528857D01*
X145462571Y-103433619D01*
X145510190Y-103386000D01*
X145605428Y-103338380D01*
X145795904Y-103338380D01*
X145891142Y-103386000D01*
X145938761Y-103433619D01*
X145986380Y-103528857D01*
X145986380Y-103576476D01*
X145938761Y-103671714D01*
X145891142Y-103719333D01*
X145795904Y-103766952D01*
X145605428Y-103766952D01*
X145510190Y-103814571D01*
X145462571Y-103862190D01*
X145414952Y-103957428D01*
X145414952Y-104147904D01*
X145462571Y-104243142D01*
X145510190Y-104290761D01*
X145605428Y-104338380D01*
X145795904Y-104338380D01*
X145891142Y-104290761D01*
X145938761Y-104243142D01*
X145986380Y-104147904D01*
X145986380Y-103957428D01*
X145938761Y-103862190D01*
X145891142Y-103814571D01*
X145795904Y-103766952D01*
X146272095Y-103338380D02*
X146605428Y-104338380D01*
X146938761Y-103338380D01*
X143018095Y-98623428D02*
X143780000Y-98623428D01*
X143399047Y-99004380D02*
X143399047Y-98242476D01*
X144780000Y-99004380D02*
X144208571Y-99004380D01*
X144494285Y-99004380D02*
X144494285Y-98004380D01*
X144399047Y-98147238D01*
X144303809Y-98242476D01*
X144208571Y-98290095D01*
X145351428Y-98432952D02*
X145256190Y-98385333D01*
X145208571Y-98337714D01*
X145160952Y-98242476D01*
X145160952Y-98194857D01*
X145208571Y-98099619D01*
X145256190Y-98052000D01*
X145351428Y-98004380D01*
X145541904Y-98004380D01*
X145637142Y-98052000D01*
X145684761Y-98099619D01*
X145732380Y-98194857D01*
X145732380Y-98242476D01*
X145684761Y-98337714D01*
X145637142Y-98385333D01*
X145541904Y-98432952D01*
X145351428Y-98432952D01*
X145256190Y-98480571D01*
X145208571Y-98528190D01*
X145160952Y-98623428D01*
X145160952Y-98813904D01*
X145208571Y-98909142D01*
X145256190Y-98956761D01*
X145351428Y-99004380D01*
X145541904Y-99004380D01*
X145637142Y-98956761D01*
X145684761Y-98909142D01*
X145732380Y-98813904D01*
X145732380Y-98623428D01*
X145684761Y-98528190D01*
X145637142Y-98480571D01*
X145541904Y-98432952D01*
X146018095Y-98004380D02*
X146351428Y-99004380D01*
X146684761Y-98004380D01*
D11*
X115738095Y-58642857D02*
X117261904Y-58642857D01*
%TO.C,C3*%
X159093142Y-81408166D02*
X159140761Y-81455785D01*
X159188380Y-81598642D01*
X159188380Y-81693880D01*
X159140761Y-81836738D01*
X159045523Y-81931976D01*
X158950285Y-81979595D01*
X158759809Y-82027214D01*
X158616952Y-82027214D01*
X158426476Y-81979595D01*
X158331238Y-81931976D01*
X158236000Y-81836738D01*
X158188380Y-81693880D01*
X158188380Y-81598642D01*
X158236000Y-81455785D01*
X158283619Y-81408166D01*
X158188380Y-81074833D02*
X158188380Y-80455785D01*
X158569333Y-80789119D01*
X158569333Y-80646261D01*
X158616952Y-80551023D01*
X158664571Y-80503404D01*
X158759809Y-80455785D01*
X158997904Y-80455785D01*
X159093142Y-80503404D01*
X159140761Y-80551023D01*
X159188380Y-80646261D01*
X159188380Y-80931976D01*
X159140761Y-81027214D01*
X159093142Y-81074833D01*
%TO.C,C2*%
X146352833Y-92319142D02*
X146305214Y-92366761D01*
X146162357Y-92414380D01*
X146067119Y-92414380D01*
X145924261Y-92366761D01*
X145829023Y-92271523D01*
X145781404Y-92176285D01*
X145733785Y-91985809D01*
X145733785Y-91842952D01*
X145781404Y-91652476D01*
X145829023Y-91557238D01*
X145924261Y-91462000D01*
X146067119Y-91414380D01*
X146162357Y-91414380D01*
X146305214Y-91462000D01*
X146352833Y-91509619D01*
X146733785Y-91509619D02*
X146781404Y-91462000D01*
X146876642Y-91414380D01*
X147114738Y-91414380D01*
X147209976Y-91462000D01*
X147257595Y-91509619D01*
X147305214Y-91604857D01*
X147305214Y-91700095D01*
X147257595Y-91842952D01*
X146686166Y-92414380D01*
X147305214Y-92414380D01*
%TO.C,D3*%
X153740380Y-105894095D02*
X152740380Y-105894095D01*
X152740380Y-105656000D01*
X152788000Y-105513142D01*
X152883238Y-105417904D01*
X152978476Y-105370285D01*
X153168952Y-105322666D01*
X153311809Y-105322666D01*
X153502285Y-105370285D01*
X153597523Y-105417904D01*
X153692761Y-105513142D01*
X153740380Y-105656000D01*
X153740380Y-105894095D01*
X152740380Y-104989333D02*
X152740380Y-104370285D01*
X153121333Y-104703619D01*
X153121333Y-104560761D01*
X153168952Y-104465523D01*
X153216571Y-104417904D01*
X153311809Y-104370285D01*
X153549904Y-104370285D01*
X153645142Y-104417904D01*
X153692761Y-104465523D01*
X153740380Y-104560761D01*
X153740380Y-104846476D01*
X153692761Y-104941714D01*
X153645142Y-104989333D01*
%TO.C,TP1*%
X139454095Y-85380380D02*
X140025523Y-85380380D01*
X139739809Y-86380380D02*
X139739809Y-85380380D01*
X140358857Y-86380380D02*
X140358857Y-85380380D01*
X140739809Y-85380380D01*
X140835047Y-85428000D01*
X140882666Y-85475619D01*
X140930285Y-85570857D01*
X140930285Y-85713714D01*
X140882666Y-85808952D01*
X140835047Y-85856571D01*
X140739809Y-85904190D01*
X140358857Y-85904190D01*
X141882666Y-86380380D02*
X141311238Y-86380380D01*
X141596952Y-86380380D02*
X141596952Y-85380380D01*
X141501714Y-85523238D01*
X141406476Y-85618476D01*
X141311238Y-85666095D01*
%TO.C,TP3*%
X146058095Y-61504380D02*
X146629523Y-61504380D01*
X146343809Y-62504380D02*
X146343809Y-61504380D01*
X146962857Y-62504380D02*
X146962857Y-61504380D01*
X147343809Y-61504380D01*
X147439047Y-61552000D01*
X147486666Y-61599619D01*
X147534285Y-61694857D01*
X147534285Y-61837714D01*
X147486666Y-61932952D01*
X147439047Y-61980571D01*
X147343809Y-62028190D01*
X146962857Y-62028190D01*
X147867619Y-61504380D02*
X148486666Y-61504380D01*
X148153333Y-61885333D01*
X148296190Y-61885333D01*
X148391428Y-61932952D01*
X148439047Y-61980571D01*
X148486666Y-62075809D01*
X148486666Y-62313904D01*
X148439047Y-62409142D01*
X148391428Y-62456761D01*
X148296190Y-62504380D01*
X148010476Y-62504380D01*
X147915238Y-62456761D01*
X147867619Y-62409142D01*
%TO.C,RV3*%
X157646761Y-89352380D02*
X157313428Y-88876190D01*
X157075333Y-89352380D02*
X157075333Y-88352380D01*
X157456285Y-88352380D01*
X157551523Y-88400000D01*
X157599142Y-88447619D01*
X157646761Y-88542857D01*
X157646761Y-88685714D01*
X157599142Y-88780952D01*
X157551523Y-88828571D01*
X157456285Y-88876190D01*
X157075333Y-88876190D01*
X157932476Y-88352380D02*
X158265809Y-89352380D01*
X158599142Y-88352380D01*
X158837238Y-88352380D02*
X159456285Y-88352380D01*
X159122952Y-88733333D01*
X159265809Y-88733333D01*
X159361047Y-88780952D01*
X159408666Y-88828571D01*
X159456285Y-88923809D01*
X159456285Y-89161904D01*
X159408666Y-89257142D01*
X159361047Y-89304761D01*
X159265809Y-89352380D01*
X158980095Y-89352380D01*
X158884857Y-89304761D01*
X158837238Y-89257142D01*
%TO.C,J2*%
X152066666Y-58082380D02*
X152066666Y-58796666D01*
X152019047Y-58939523D01*
X151923809Y-59034761D01*
X151780952Y-59082380D01*
X151685714Y-59082380D01*
X152495238Y-58177619D02*
X152542857Y-58130000D01*
X152638095Y-58082380D01*
X152876190Y-58082380D01*
X152971428Y-58130000D01*
X153019047Y-58177619D01*
X153066666Y-58272857D01*
X153066666Y-58368095D01*
X153019047Y-58510952D01*
X152447619Y-59082380D01*
X153066666Y-59082380D01*
%TO.C,RV2*%
X149264761Y-68782380D02*
X148931428Y-68306190D01*
X148693333Y-68782380D02*
X148693333Y-67782380D01*
X149074285Y-67782380D01*
X149169523Y-67830000D01*
X149217142Y-67877619D01*
X149264761Y-67972857D01*
X149264761Y-68115714D01*
X149217142Y-68210952D01*
X149169523Y-68258571D01*
X149074285Y-68306190D01*
X148693333Y-68306190D01*
X149550476Y-67782380D02*
X149883809Y-68782380D01*
X150217142Y-67782380D01*
X150502857Y-67877619D02*
X150550476Y-67830000D01*
X150645714Y-67782380D01*
X150883809Y-67782380D01*
X150979047Y-67830000D01*
X151026666Y-67877619D01*
X151074285Y-67972857D01*
X151074285Y-68068095D01*
X151026666Y-68210952D01*
X150455238Y-68782380D01*
X151074285Y-68782380D01*
%TO.C,U1*%
X136398095Y-64522380D02*
X136398095Y-65331904D01*
X136445714Y-65427142D01*
X136493333Y-65474761D01*
X136588571Y-65522380D01*
X136779047Y-65522380D01*
X136874285Y-65474761D01*
X136921904Y-65427142D01*
X136969523Y-65331904D01*
X136969523Y-64522380D01*
X137969523Y-65522380D02*
X137398095Y-65522380D01*
X137683809Y-65522380D02*
X137683809Y-64522380D01*
X137588571Y-64665238D01*
X137493333Y-64760476D01*
X137398095Y-64808095D01*
%TO.C,J1*%
X140877380Y-81493333D02*
X141591666Y-81493333D01*
X141734523Y-81540952D01*
X141829761Y-81636190D01*
X141877380Y-81779047D01*
X141877380Y-81874285D01*
X141877380Y-80493333D02*
X141877380Y-81064761D01*
X141877380Y-80779047D02*
X140877380Y-80779047D01*
X141020238Y-80874285D01*
X141115476Y-80969523D01*
X141163095Y-81064761D01*
%TO.C,SW1*%
X135551761Y-100393333D02*
X135599380Y-100250476D01*
X135599380Y-100012380D01*
X135551761Y-99917142D01*
X135504142Y-99869523D01*
X135408904Y-99821904D01*
X135313666Y-99821904D01*
X135218428Y-99869523D01*
X135170809Y-99917142D01*
X135123190Y-100012380D01*
X135075571Y-100202857D01*
X135027952Y-100298095D01*
X134980333Y-100345714D01*
X134885095Y-100393333D01*
X134789857Y-100393333D01*
X134694619Y-100345714D01*
X134647000Y-100298095D01*
X134599380Y-100202857D01*
X134599380Y-99964761D01*
X134647000Y-99821904D01*
X134599380Y-99488571D02*
X135599380Y-99250476D01*
X134885095Y-99060000D01*
X135599380Y-98869523D01*
X134599380Y-98631428D01*
X135599380Y-97726666D02*
X135599380Y-98298095D01*
X135599380Y-98012380D02*
X134599380Y-98012380D01*
X134742238Y-98107619D01*
X134837476Y-98202857D01*
X134885095Y-98298095D01*
%TO.C,U2*%
X149098095Y-74682380D02*
X149098095Y-75491904D01*
X149145714Y-75587142D01*
X149193333Y-75634761D01*
X149288571Y-75682380D01*
X149479047Y-75682380D01*
X149574285Y-75634761D01*
X149621904Y-75587142D01*
X149669523Y-75491904D01*
X149669523Y-74682380D01*
X150098095Y-74777619D02*
X150145714Y-74730000D01*
X150240952Y-74682380D01*
X150479047Y-74682380D01*
X150574285Y-74730000D01*
X150621904Y-74777619D01*
X150669523Y-74872857D01*
X150669523Y-74968095D01*
X150621904Y-75110952D01*
X150050476Y-75682380D01*
X150669523Y-75682380D01*
%TO.C,RV4*%
X120578380Y-81113238D02*
X120102190Y-81446571D01*
X120578380Y-81684666D02*
X119578380Y-81684666D01*
X119578380Y-81303714D01*
X119626000Y-81208476D01*
X119673619Y-81160857D01*
X119768857Y-81113238D01*
X119911714Y-81113238D01*
X120006952Y-81160857D01*
X120054571Y-81208476D01*
X120102190Y-81303714D01*
X120102190Y-81684666D01*
X119578380Y-80827523D02*
X120578380Y-80494190D01*
X119578380Y-80160857D01*
X119911714Y-79398952D02*
X120578380Y-79398952D01*
X119530761Y-79637047D02*
X120245047Y-79875142D01*
X120245047Y-79256095D01*
%TO.C,RV1*%
X118784761Y-58110380D02*
X118451428Y-57634190D01*
X118213333Y-58110380D02*
X118213333Y-57110380D01*
X118594285Y-57110380D01*
X118689523Y-57158000D01*
X118737142Y-57205619D01*
X118784761Y-57300857D01*
X118784761Y-57443714D01*
X118737142Y-57538952D01*
X118689523Y-57586571D01*
X118594285Y-57634190D01*
X118213333Y-57634190D01*
X119070476Y-57110380D02*
X119403809Y-58110380D01*
X119737142Y-57110380D01*
X120594285Y-58110380D02*
X120022857Y-58110380D01*
X120308571Y-58110380D02*
X120308571Y-57110380D01*
X120213333Y-57253238D01*
X120118095Y-57348476D01*
X120022857Y-57396095D01*
%TO.C,TP2*%
X133866095Y-85380380D02*
X134437523Y-85380380D01*
X134151809Y-86380380D02*
X134151809Y-85380380D01*
X134770857Y-86380380D02*
X134770857Y-85380380D01*
X135151809Y-85380380D01*
X135247047Y-85428000D01*
X135294666Y-85475619D01*
X135342285Y-85570857D01*
X135342285Y-85713714D01*
X135294666Y-85808952D01*
X135247047Y-85856571D01*
X135151809Y-85904190D01*
X134770857Y-85904190D01*
X135723238Y-85475619D02*
X135770857Y-85428000D01*
X135866095Y-85380380D01*
X136104190Y-85380380D01*
X136199428Y-85428000D01*
X136247047Y-85475619D01*
X136294666Y-85570857D01*
X136294666Y-85666095D01*
X136247047Y-85808952D01*
X135675619Y-86380380D01*
X136294666Y-86380380D01*
%TO.C,J3*%
X140636666Y-95928380D02*
X140636666Y-96642666D01*
X140589047Y-96785523D01*
X140493809Y-96880761D01*
X140350952Y-96928380D01*
X140255714Y-96928380D01*
X141017619Y-95928380D02*
X141636666Y-95928380D01*
X141303333Y-96309333D01*
X141446190Y-96309333D01*
X141541428Y-96356952D01*
X141589047Y-96404571D01*
X141636666Y-96499809D01*
X141636666Y-96737904D01*
X141589047Y-96833142D01*
X141541428Y-96880761D01*
X141446190Y-96928380D01*
X141160476Y-96928380D01*
X141065238Y-96880761D01*
X141017619Y-96833142D01*
D13*
%TO.C,C3*%
X159676000Y-81952752D02*
X159676000Y-80530248D01*
X162396000Y-81952752D02*
X162396000Y-80530248D01*
%TO.C,C2*%
X147230752Y-91022000D02*
X145808248Y-91022000D01*
X147230752Y-88302000D02*
X145808248Y-88302000D01*
%TO.C,D3*%
X150678000Y-103296000D02*
X150678000Y-106156000D01*
X152598000Y-106156000D02*
X152598000Y-103296000D01*
X152598000Y-103296000D02*
X150678000Y-103296000D01*
%TO.C,TP1*%
X141416000Y-87376000D02*
G75*
G03*
X141416000Y-87376000I-700000J0D01*
G01*
%TO.C,TP3*%
X148020000Y-63500000D02*
G75*
G03*
X148020000Y-63500000I-700000J0D01*
G01*
%TO.C,RV3*%
X163385500Y-100266500D02*
X153225500Y-100266500D01*
X153225500Y-100266500D02*
X153225500Y-90233500D01*
X153225500Y-90233500D02*
X163385500Y-90233500D01*
X163385500Y-90233500D02*
X163385500Y-100266500D01*
%TO.C,J2*%
X151070000Y-64830000D02*
X153730000Y-64830000D01*
X153730000Y-62230000D02*
X153730000Y-64830000D01*
X151070000Y-60960000D02*
X151070000Y-59630000D01*
X151070000Y-62230000D02*
X151070000Y-64830000D01*
X151070000Y-59630000D02*
X152400000Y-59630000D01*
X151070000Y-62230000D02*
X153730000Y-62230000D01*
%TO.C,RV2*%
X146385000Y-71095000D02*
X146385000Y-74200000D01*
X146385000Y-69460000D02*
X146385000Y-70105000D01*
X146385000Y-74200000D02*
X153335000Y-74200000D01*
X146385000Y-69460000D02*
X153335000Y-69460000D01*
X153335000Y-71095000D02*
X153335000Y-74200000D01*
X153335000Y-69460000D02*
X153335000Y-70105000D01*
%TO.C,U1*%
X134400000Y-66750000D02*
X132710000Y-66750000D01*
X137160000Y-65910000D02*
X134400000Y-65910000D01*
X139920000Y-65910000D02*
X139920000Y-66750000D01*
X137160000Y-76330000D02*
X139920000Y-76330000D01*
X134400000Y-76330000D02*
X134400000Y-75490000D01*
X139920000Y-76330000D02*
X139920000Y-75490000D01*
X137160000Y-65910000D02*
X139920000Y-65910000D01*
X134400000Y-65910000D02*
X134400000Y-66750000D01*
X137160000Y-76330000D02*
X134400000Y-76330000D01*
%TO.C,J1*%
X137825000Y-82490000D02*
X135225000Y-82490000D01*
X139095000Y-79830000D02*
X140425000Y-79830000D01*
X135225000Y-79830000D02*
X135225000Y-82490000D01*
X137825000Y-79830000D02*
X135225000Y-79830000D01*
X140425000Y-79830000D02*
X140425000Y-81160000D01*
X137825000Y-79830000D02*
X137825000Y-82490000D01*
%TO.C,SW1*%
X127062000Y-95590000D02*
X126542000Y-95590000D01*
X134362000Y-102530000D02*
X134362000Y-95560000D01*
X133602000Y-102530000D02*
X134362000Y-102530000D01*
X134362000Y-95560000D02*
X134342000Y-95560000D01*
X126542000Y-102530000D02*
X127062000Y-102530000D01*
X134342000Y-95560000D02*
X134342000Y-94060000D01*
X126542000Y-95590000D02*
X126542000Y-102530000D01*
%TO.C,U2*%
X149860000Y-86490000D02*
X147100000Y-86490000D01*
X149860000Y-86490000D02*
X152620000Y-86490000D01*
X149860000Y-76070000D02*
X147100000Y-76070000D01*
X149860000Y-76070000D02*
X152620000Y-76070000D01*
X147100000Y-86490000D02*
X147100000Y-85650000D01*
X147100000Y-76070000D02*
X147100000Y-76910000D01*
X147100000Y-76910000D02*
X145410000Y-76910000D01*
X152620000Y-76070000D02*
X152620000Y-76910000D01*
X152620000Y-86490000D02*
X152620000Y-85650000D01*
%TO.C,RV4*%
X118996000Y-83993000D02*
X118351000Y-83993000D01*
X117361000Y-77043000D02*
X114256000Y-77043000D01*
X118996000Y-77043000D02*
X118996000Y-83993000D01*
X118996000Y-77043000D02*
X118351000Y-77043000D01*
X114256000Y-77043000D02*
X114256000Y-83993000D01*
X117361000Y-83993000D02*
X114256000Y-83993000D01*
%TO.C,RV1*%
X114706400Y-59080400D02*
X124053600Y-59080400D01*
X124053600Y-59080400D02*
X124053600Y-68326000D01*
X124053600Y-68326000D02*
X114706400Y-68326000D01*
X114706400Y-68326000D02*
X114706400Y-59080400D01*
%TO.C,TP2*%
X135828000Y-87376000D02*
G75*
G03*
X135828000Y-87376000I-700000J0D01*
G01*
%TO.C,J3*%
X139640000Y-100076000D02*
X142300000Y-100076000D01*
X139640000Y-98806000D02*
X139640000Y-97476000D01*
X142300000Y-100076000D02*
X142300000Y-105216000D01*
X139640000Y-100076000D02*
X139640000Y-105216000D01*
X139640000Y-105216000D02*
X142300000Y-105216000D01*
X139640000Y-97476000D02*
X140970000Y-97476000D01*
%TD*%
M02*
