%TF.GenerationSoftware,KiCad,Pcbnew,(6.0.11)*%
%TF.CreationDate,2023-04-19T21:38:18+02:00*%
%TF.ProjectId,FringeLocker,4672696e-6765-44c6-9f63-6b65722e6b69,0.1*%
%TF.SameCoordinates,Original*%
%TF.FileFunction,Soldermask,Bot*%
%TF.FilePolarity,Negative*%
%FSLAX46Y46*%
G04 Gerber Fmt 4.6, Leading zero omitted, Abs format (unit mm)*
G04 Created by KiCad (PCBNEW (6.0.11)) date 2023-04-19 21:38:18*
%MOMM*%
%LPD*%
G01*
G04 APERTURE LIST*
G04 Aperture macros list*
%AMRoundRect*
0 Rectangle with rounded corners*
0 $1 Rounding radius*
0 $2 $3 $4 $5 $6 $7 $8 $9 X,Y pos of 4 corners*
0 Add a 4 corners polygon primitive as box body*
4,1,4,$2,$3,$4,$5,$6,$7,$8,$9,$2,$3,0*
0 Add four circle primitives for the rounded corners*
1,1,$1+$1,$2,$3*
1,1,$1+$1,$4,$5*
1,1,$1+$1,$6,$7*
1,1,$1+$1,$8,$9*
0 Add four rect primitives between the rounded corners*
20,1,$1+$1,$2,$3,$4,$5,0*
20,1,$1+$1,$4,$5,$6,$7,0*
20,1,$1+$1,$6,$7,$8,$9,0*
20,1,$1+$1,$8,$9,$2,$3,0*%
G04 Aperture macros list end*
%ADD10C,1.000000*%
%ADD11RoundRect,0.250000X-0.450000X0.350000X-0.450000X-0.350000X0.450000X-0.350000X0.450000X0.350000X0*%
%ADD12C,3.800000*%
%ADD13RoundRect,0.250000X0.450000X-0.350000X0.450000X0.350000X-0.450000X0.350000X-0.450000X-0.350000X0*%
%ADD14RoundRect,0.237500X-0.237500X0.300000X-0.237500X-0.300000X0.237500X-0.300000X0.237500X0.300000X0*%
%ADD15C,1.524000*%
%ADD16RoundRect,0.237500X0.300000X0.237500X-0.300000X0.237500X-0.300000X-0.237500X0.300000X-0.237500X0*%
%ADD17R,1.700000X1.700000*%
%ADD18O,1.700000X1.700000*%
%ADD19C,1.440000*%
%ADD20RoundRect,0.250000X-0.350000X-0.450000X0.350000X-0.450000X0.350000X0.450000X-0.350000X0.450000X0*%
%ADD21RoundRect,0.250000X0.350000X0.450000X-0.350000X0.450000X-0.350000X-0.450000X0.350000X-0.450000X0*%
%ADD22RoundRect,0.249200X0.600800X0.450800X-0.600800X0.450800X-0.600800X-0.450800X0.600800X-0.450800X0*%
%ADD23O,1.700000X1.400000*%
G04 APERTURE END LIST*
D10*
%TO.C,TP1*%
X140716000Y-87376000D03*
%TD*%
D11*
%TO.C,R1*%
X149860000Y-80280000D03*
X149860000Y-82280000D03*
%TD*%
%TO.C,R3*%
X137160000Y-73438000D03*
X137160000Y-75438000D03*
%TD*%
%TO.C,R9*%
X127000000Y-87190000D03*
X127000000Y-89190000D03*
%TD*%
D10*
%TO.C,TP3*%
X147320000Y-63500000D03*
%TD*%
D11*
%TO.C,R2*%
X127000000Y-75200000D03*
X127000000Y-77200000D03*
%TD*%
%TO.C,R8*%
X145638800Y-93935000D03*
X145638800Y-95935000D03*
%TD*%
D12*
%TO.C,REF3*%
X164500000Y-104500000D03*
%TD*%
D13*
%TO.C,R5*%
X144780000Y-74422000D03*
X144780000Y-72422000D03*
%TD*%
D14*
%TO.C,C1*%
X142240000Y-67717500D03*
X142240000Y-69442500D03*
%TD*%
D15*
%TO.C,RV3*%
X154495500Y-97853500D03*
X154495500Y-95313500D03*
X154495500Y-92773500D03*
X162115500Y-97853500D03*
X162115500Y-95313500D03*
X162115500Y-92773500D03*
%TD*%
D16*
%TO.C,C6*%
X130204500Y-101280000D03*
X128479500Y-101280000D03*
%TD*%
D17*
%TO.C,J2*%
X152400000Y-60960000D03*
D18*
X152400000Y-63500000D03*
%TD*%
D19*
%TO.C,RV2*%
X152400000Y-70600000D03*
X149860000Y-73140000D03*
X147320000Y-70600000D03*
%TD*%
D17*
%TO.C,J1*%
X139095000Y-81160000D03*
D18*
X136555000Y-81160000D03*
%TD*%
D12*
%TO.C,REF2*%
X164500000Y-56500000D03*
%TD*%
D13*
%TO.C,R6*%
X136800000Y-69182100D03*
X136800000Y-67182100D03*
%TD*%
D12*
%TO.C,REF1*%
X109500000Y-56500000D03*
%TD*%
D19*
%TO.C,RV4*%
X117856000Y-83058000D03*
X115316000Y-80518000D03*
X117856000Y-77978000D03*
%TD*%
D20*
%TO.C,R10*%
X130882000Y-99060000D03*
X132882000Y-99060000D03*
%TD*%
D12*
%TO.C,REF4*%
X109500000Y-104500000D03*
%TD*%
D16*
%TO.C,C5*%
X130204500Y-96520000D03*
X128479500Y-96520000D03*
%TD*%
D11*
%TO.C,R11*%
X127305000Y-81684700D03*
X127305000Y-83684700D03*
%TD*%
D15*
%TO.C,RV1*%
X116840000Y-66040000D03*
X119380000Y-60960000D03*
X121920000Y-66040000D03*
%TD*%
D21*
%TO.C,R7*%
X159242000Y-93218000D03*
X157242000Y-93218000D03*
%TD*%
D10*
%TO.C,TP2*%
X135128000Y-87376000D03*
%TD*%
D11*
%TO.C,R4*%
X127250000Y-70120000D03*
X127250000Y-72120000D03*
%TD*%
D17*
%TO.C,J3*%
X140970000Y-98806000D03*
D18*
X140970000Y-101346000D03*
X140970000Y-103886000D03*
%TD*%
D22*
%TO.C,D1*%
X136790000Y-57830000D03*
D23*
X131710000Y-57830000D03*
%TD*%
D22*
%TO.C,D2*%
X144410000Y-57830000D03*
D23*
X139330000Y-57830000D03*
%TD*%
M02*
