%TF.GenerationSoftware,KiCad,Pcbnew,(6.0.11)*%
%TF.CreationDate,2023-04-19T21:38:36+02:00*%
%TF.ProjectId,FringeLocker,4672696e-6765-44c6-9f63-6b65722e6b69,0.1*%
%TF.SameCoordinates,Original*%
%TF.FileFunction,Drillmap*%
%TF.FilePolarity,Positive*%
%FSLAX45Y45*%
G04 Gerber Fmt 4.5, Leading zero omitted, Abs format (unit mm)*
G04 Created by KiCad (PCBNEW (6.0.11)) date 2023-04-19 21:38:36*
%MOMM*%
%LPD*%
G01*
G04 APERTURE LIST*
%ADD10C,0.100000*%
%ADD11C,0.200000*%
%ADD12C,0.040000*%
%ADD13C,0.050000*%
%ADD14C,0.070000*%
%ADD15C,0.076200*%
%ADD16C,0.080000*%
%ADD17C,0.220000*%
G04 APERTURE END LIST*
D10*
X10600000Y-5315000D02*
X16825000Y-5315000D01*
X16825000Y-5315000D02*
X16825000Y-10810000D01*
X16825000Y-10810000D02*
X10600000Y-10810000D01*
X10600000Y-10810000D02*
X10600000Y-5315000D01*
D11*
D12*
X12716800Y-7347260D02*
X12756800Y-7387260D01*
X12756800Y-7347260D02*
X12716800Y-7387260D01*
X12976100Y-10220800D02*
X13016100Y-10260800D01*
X13016100Y-10220800D02*
X12976100Y-10260800D01*
X13060000Y-9747740D02*
X13100000Y-9787740D01*
X13100000Y-9747740D02*
X13060000Y-9787740D01*
X13162600Y-8412800D02*
X13202600Y-8452800D01*
X13202600Y-8412800D02*
X13162600Y-8452800D01*
X13365800Y-6330000D02*
X13405800Y-6370000D01*
X13405800Y-6330000D02*
X13365800Y-6370000D01*
X13479000Y-9939870D02*
X13519000Y-9979870D01*
X13519000Y-9939870D02*
X13479000Y-9979870D01*
X13744400Y-7129680D02*
X13784400Y-7169680D01*
X13784400Y-7129680D02*
X13744400Y-7169680D01*
X13837700Y-6979230D02*
X13877700Y-7019230D01*
X13877700Y-6979230D02*
X13837700Y-7019230D01*
X13839700Y-7346000D02*
X13879700Y-7386000D01*
X13879700Y-7346000D02*
X13839700Y-7386000D01*
X13899200Y-6380800D02*
X13939200Y-6420800D01*
X13939200Y-6380800D02*
X13899200Y-6420800D01*
X14791000Y-7891850D02*
X14831000Y-7931850D01*
X14831000Y-7891850D02*
X14791000Y-7931850D01*
X15601000Y-9530400D02*
X15641000Y-9570400D01*
X15641000Y-9530400D02*
X15601000Y-9570400D01*
D13*
X13537800Y-8737600D02*
G75*
G03*
X13537800Y-8737600I-25000J0D01*
G01*
X14096600Y-8737600D02*
G75*
G03*
X14096600Y-8737600I-25000J0D01*
G01*
X14757000Y-6350000D02*
G75*
G03*
X14757000Y-6350000I-25000J0D01*
G01*
D14*
X13171000Y-5748000D02*
X13171000Y-5818000D01*
X13136000Y-5783000D02*
X13206000Y-5783000D01*
X13679000Y-5748000D02*
X13679000Y-5818000D01*
X13644000Y-5783000D02*
X13714000Y-5783000D01*
X13933000Y-5748000D02*
X13933000Y-5818000D01*
X13898000Y-5783000D02*
X13968000Y-5783000D01*
X14441000Y-5748000D02*
X14441000Y-5818000D01*
X14406000Y-5783000D02*
X14476000Y-5783000D01*
D15*
X11710941Y-6630941D02*
X11710941Y-6577059D01*
X11657059Y-6577059D01*
X11657059Y-6630941D01*
X11710941Y-6630941D01*
X11964941Y-6122941D02*
X11964941Y-6069059D01*
X11911059Y-6069059D01*
X11911059Y-6122941D01*
X11964941Y-6122941D01*
X12218941Y-6630941D02*
X12218941Y-6577059D01*
X12165059Y-6577059D01*
X12165059Y-6630941D01*
X12218941Y-6630941D01*
X15476491Y-9304291D02*
X15476491Y-9250409D01*
X15422609Y-9250409D01*
X15422609Y-9304291D01*
X15476491Y-9304291D01*
X15476491Y-9558291D02*
X15476491Y-9504409D01*
X15422609Y-9504409D01*
X15422609Y-9558291D01*
X15476491Y-9558291D01*
X15476491Y-9812291D02*
X15476491Y-9758409D01*
X15422609Y-9758409D01*
X15422609Y-9812291D01*
X15476491Y-9812291D01*
X16238491Y-9304291D02*
X16238491Y-9250409D01*
X16184609Y-9250409D01*
X16184609Y-9304291D01*
X16238491Y-9304291D01*
X16238491Y-9558291D02*
X16238491Y-9504409D01*
X16184609Y-9504409D01*
X16184609Y-9558291D01*
X16238491Y-9558291D01*
X16238491Y-9812291D02*
X16238491Y-9758409D01*
X16184609Y-9758409D01*
X16184609Y-9812291D01*
X16238491Y-9812291D01*
D16*
X11531600Y-8091800D02*
X11571600Y-8051800D01*
X11531600Y-8011800D01*
X11491600Y-8051800D01*
X11531600Y-8091800D01*
X11785600Y-7837800D02*
X11825600Y-7797800D01*
X11785600Y-7757800D01*
X11745600Y-7797800D01*
X11785600Y-7837800D01*
X11785600Y-8345800D02*
X11825600Y-8305800D01*
X11785600Y-8265800D01*
X11745600Y-8305800D01*
X11785600Y-8345800D01*
X14732000Y-7100000D02*
X14772000Y-7060000D01*
X14732000Y-7020000D01*
X14692000Y-7060000D01*
X14732000Y-7100000D01*
X14986000Y-7354000D02*
X15026000Y-7314000D01*
X14986000Y-7274000D01*
X14946000Y-7314000D01*
X14986000Y-7354000D01*
X15240000Y-7100000D02*
X15280000Y-7060000D01*
X15240000Y-7020000D01*
X15200000Y-7060000D01*
X15240000Y-7100000D01*
D10*
X13605500Y-8066000D02*
X13705500Y-8166000D01*
X13705500Y-8066000D02*
X13605500Y-8166000D01*
X13705500Y-8116000D02*
G75*
G03*
X13705500Y-8116000I-50000J0D01*
G01*
X13859500Y-8066000D02*
X13959500Y-8166000D01*
X13959500Y-8066000D02*
X13859500Y-8166000D01*
X13959500Y-8116000D02*
G75*
G03*
X13959500Y-8116000I-50000J0D01*
G01*
X14047000Y-9830600D02*
X14147000Y-9930600D01*
X14147000Y-9830600D02*
X14047000Y-9930600D01*
X14147000Y-9880600D02*
G75*
G03*
X14147000Y-9880600I-50000J0D01*
G01*
X14047000Y-10084600D02*
X14147000Y-10184600D01*
X14147000Y-10084600D02*
X14047000Y-10184600D01*
X14147000Y-10134600D02*
G75*
G03*
X14147000Y-10134600I-50000J0D01*
G01*
X14047000Y-10338600D02*
X14147000Y-10438600D01*
X14147000Y-10338600D02*
X14047000Y-10438600D01*
X14147000Y-10388600D02*
G75*
G03*
X14147000Y-10388600I-50000J0D01*
G01*
X15190000Y-6046000D02*
X15290000Y-6146000D01*
X15290000Y-6046000D02*
X15190000Y-6146000D01*
X15290000Y-6096000D02*
G75*
G03*
X15290000Y-6096000I-50000J0D01*
G01*
X15190000Y-6300000D02*
X15290000Y-6400000D01*
X15290000Y-6300000D02*
X15190000Y-6400000D01*
X15290000Y-6350000D02*
G75*
G03*
X15290000Y-6350000I-50000J0D01*
G01*
D17*
X10840000Y-5540000D02*
X11060000Y-5760000D01*
X11060000Y-5540000D02*
X10840000Y-5760000D01*
X10950000Y-5540000D02*
X10950000Y-5760000D01*
X10840000Y-5650000D02*
X11060000Y-5650000D01*
X10840000Y-10340000D02*
X11060000Y-10560000D01*
X11060000Y-10340000D02*
X10840000Y-10560000D01*
X10950000Y-10340000D02*
X10950000Y-10560000D01*
X10840000Y-10450000D02*
X11060000Y-10450000D01*
X16340000Y-5540000D02*
X16560000Y-5760000D01*
X16560000Y-5540000D02*
X16340000Y-5760000D01*
X16450000Y-5540000D02*
X16450000Y-5760000D01*
X16340000Y-5650000D02*
X16560000Y-5650000D01*
X16340000Y-10340000D02*
X16560000Y-10560000D01*
X16560000Y-10340000D02*
X16340000Y-10560000D01*
X16450000Y-10340000D02*
X16450000Y-10560000D01*
X16340000Y-10450000D02*
X16560000Y-10450000D01*
D11*
X10852619Y-11125476D02*
X10852619Y-10925476D01*
X10900238Y-10925476D01*
X10928810Y-10935000D01*
X10947857Y-10954048D01*
X10957381Y-10973095D01*
X10966905Y-11011190D01*
X10966905Y-11039762D01*
X10957381Y-11077857D01*
X10947857Y-11096905D01*
X10928810Y-11115952D01*
X10900238Y-11125476D01*
X10852619Y-11125476D01*
X11052619Y-11125476D02*
X11052619Y-10992143D01*
X11052619Y-11030238D02*
X11062143Y-11011190D01*
X11071667Y-11001667D01*
X11090714Y-10992143D01*
X11109762Y-10992143D01*
X11176429Y-11125476D02*
X11176429Y-10992143D01*
X11176429Y-10925476D02*
X11166905Y-10935000D01*
X11176429Y-10944524D01*
X11185952Y-10935000D01*
X11176429Y-10925476D01*
X11176429Y-10944524D01*
X11300238Y-11125476D02*
X11281190Y-11115952D01*
X11271667Y-11096905D01*
X11271667Y-10925476D01*
X11405000Y-11125476D02*
X11385952Y-11115952D01*
X11376428Y-11096905D01*
X11376428Y-10925476D01*
X11633571Y-11125476D02*
X11633571Y-10925476D01*
X11700238Y-11068333D01*
X11766905Y-10925476D01*
X11766905Y-11125476D01*
X11947857Y-11125476D02*
X11947857Y-11020714D01*
X11938333Y-11001667D01*
X11919286Y-10992143D01*
X11881190Y-10992143D01*
X11862143Y-11001667D01*
X11947857Y-11115952D02*
X11928809Y-11125476D01*
X11881190Y-11125476D01*
X11862143Y-11115952D01*
X11852619Y-11096905D01*
X11852619Y-11077857D01*
X11862143Y-11058810D01*
X11881190Y-11049286D01*
X11928809Y-11049286D01*
X11947857Y-11039762D01*
X12043095Y-10992143D02*
X12043095Y-11192143D01*
X12043095Y-11001667D02*
X12062143Y-10992143D01*
X12100238Y-10992143D01*
X12119286Y-11001667D01*
X12128809Y-11011190D01*
X12138333Y-11030238D01*
X12138333Y-11087381D01*
X12128809Y-11106429D01*
X12119286Y-11115952D01*
X12100238Y-11125476D01*
X12062143Y-11125476D01*
X12043095Y-11115952D01*
X12224048Y-11106429D02*
X12233571Y-11115952D01*
X12224048Y-11125476D01*
X12214524Y-11115952D01*
X12224048Y-11106429D01*
X12224048Y-11125476D01*
X12224048Y-11001667D02*
X12233571Y-11011190D01*
X12224048Y-11020714D01*
X12214524Y-11011190D01*
X12224048Y-11001667D01*
X12224048Y-11020714D01*
D12*
X10555000Y-11435000D02*
X10595000Y-11475000D01*
X10595000Y-11435000D02*
X10555000Y-11475000D01*
D11*
X10890714Y-11345476D02*
X10909762Y-11345476D01*
X10928810Y-11355000D01*
X10938333Y-11364524D01*
X10947857Y-11383571D01*
X10957381Y-11421667D01*
X10957381Y-11469286D01*
X10947857Y-11507381D01*
X10938333Y-11526428D01*
X10928810Y-11535952D01*
X10909762Y-11545476D01*
X10890714Y-11545476D01*
X10871667Y-11535952D01*
X10862143Y-11526428D01*
X10852619Y-11507381D01*
X10843095Y-11469286D01*
X10843095Y-11421667D01*
X10852619Y-11383571D01*
X10862143Y-11364524D01*
X10871667Y-11355000D01*
X10890714Y-11345476D01*
X11043095Y-11526428D02*
X11052619Y-11535952D01*
X11043095Y-11545476D01*
X11033571Y-11535952D01*
X11043095Y-11526428D01*
X11043095Y-11545476D01*
X11224048Y-11412143D02*
X11224048Y-11545476D01*
X11176429Y-11335952D02*
X11128810Y-11478809D01*
X11252619Y-11478809D01*
X11366905Y-11345476D02*
X11385952Y-11345476D01*
X11405000Y-11355000D01*
X11414524Y-11364524D01*
X11424048Y-11383571D01*
X11433571Y-11421667D01*
X11433571Y-11469286D01*
X11424048Y-11507381D01*
X11414524Y-11526428D01*
X11405000Y-11535952D01*
X11385952Y-11545476D01*
X11366905Y-11545476D01*
X11347857Y-11535952D01*
X11338333Y-11526428D01*
X11328809Y-11507381D01*
X11319286Y-11469286D01*
X11319286Y-11421667D01*
X11328809Y-11383571D01*
X11338333Y-11364524D01*
X11347857Y-11355000D01*
X11366905Y-11345476D01*
X11557381Y-11345476D02*
X11576428Y-11345476D01*
X11595476Y-11355000D01*
X11605000Y-11364524D01*
X11614524Y-11383571D01*
X11624048Y-11421667D01*
X11624048Y-11469286D01*
X11614524Y-11507381D01*
X11605000Y-11526428D01*
X11595476Y-11535952D01*
X11576428Y-11545476D01*
X11557381Y-11545476D01*
X11538333Y-11535952D01*
X11528809Y-11526428D01*
X11519286Y-11507381D01*
X11509762Y-11469286D01*
X11509762Y-11421667D01*
X11519286Y-11383571D01*
X11528809Y-11364524D01*
X11538333Y-11355000D01*
X11557381Y-11345476D01*
X11709762Y-11545476D02*
X11709762Y-11412143D01*
X11709762Y-11431190D02*
X11719286Y-11421667D01*
X11738333Y-11412143D01*
X11766905Y-11412143D01*
X11785952Y-11421667D01*
X11795476Y-11440714D01*
X11795476Y-11545476D01*
X11795476Y-11440714D02*
X11805000Y-11421667D01*
X11824048Y-11412143D01*
X11852619Y-11412143D01*
X11871667Y-11421667D01*
X11881190Y-11440714D01*
X11881190Y-11545476D01*
X11976428Y-11545476D02*
X11976428Y-11412143D01*
X11976428Y-11431190D02*
X11985952Y-11421667D01*
X12005000Y-11412143D01*
X12033571Y-11412143D01*
X12052619Y-11421667D01*
X12062143Y-11440714D01*
X12062143Y-11545476D01*
X12062143Y-11440714D02*
X12071667Y-11421667D01*
X12090714Y-11412143D01*
X12119286Y-11412143D01*
X12138333Y-11421667D01*
X12147857Y-11440714D01*
X12147857Y-11545476D01*
X12538333Y-11335952D02*
X12366905Y-11593095D01*
X12795476Y-11345476D02*
X12814524Y-11345476D01*
X12833571Y-11355000D01*
X12843095Y-11364524D01*
X12852619Y-11383571D01*
X12862143Y-11421667D01*
X12862143Y-11469286D01*
X12852619Y-11507381D01*
X12843095Y-11526428D01*
X12833571Y-11535952D01*
X12814524Y-11545476D01*
X12795476Y-11545476D01*
X12776428Y-11535952D01*
X12766905Y-11526428D01*
X12757381Y-11507381D01*
X12747857Y-11469286D01*
X12747857Y-11421667D01*
X12757381Y-11383571D01*
X12766905Y-11364524D01*
X12776428Y-11355000D01*
X12795476Y-11345476D01*
X12947857Y-11526428D02*
X12957381Y-11535952D01*
X12947857Y-11545476D01*
X12938333Y-11535952D01*
X12947857Y-11526428D01*
X12947857Y-11545476D01*
X13081190Y-11345476D02*
X13100238Y-11345476D01*
X13119286Y-11355000D01*
X13128809Y-11364524D01*
X13138333Y-11383571D01*
X13147857Y-11421667D01*
X13147857Y-11469286D01*
X13138333Y-11507381D01*
X13128809Y-11526428D01*
X13119286Y-11535952D01*
X13100238Y-11545476D01*
X13081190Y-11545476D01*
X13062143Y-11535952D01*
X13052619Y-11526428D01*
X13043095Y-11507381D01*
X13033571Y-11469286D01*
X13033571Y-11421667D01*
X13043095Y-11383571D01*
X13052619Y-11364524D01*
X13062143Y-11355000D01*
X13081190Y-11345476D01*
X13338333Y-11545476D02*
X13224048Y-11545476D01*
X13281190Y-11545476D02*
X13281190Y-11345476D01*
X13262143Y-11374048D01*
X13243095Y-11393095D01*
X13224048Y-11402619D01*
X13519286Y-11345476D02*
X13424048Y-11345476D01*
X13414524Y-11440714D01*
X13424048Y-11431190D01*
X13443095Y-11421667D01*
X13490714Y-11421667D01*
X13509762Y-11431190D01*
X13519286Y-11440714D01*
X13528809Y-11459762D01*
X13528809Y-11507381D01*
X13519286Y-11526428D01*
X13509762Y-11535952D01*
X13490714Y-11545476D01*
X13443095Y-11545476D01*
X13424048Y-11535952D01*
X13414524Y-11526428D01*
X13595476Y-11345476D02*
X13728809Y-11345476D01*
X13643095Y-11545476D01*
X13795476Y-11345476D02*
X13795476Y-11383571D01*
X13871667Y-11345476D02*
X13871667Y-11383571D01*
X14166905Y-11621667D02*
X14157381Y-11612143D01*
X14138333Y-11583571D01*
X14128809Y-11564524D01*
X14119286Y-11535952D01*
X14109762Y-11488333D01*
X14109762Y-11450238D01*
X14119286Y-11402619D01*
X14128809Y-11374048D01*
X14138333Y-11355000D01*
X14157381Y-11326428D01*
X14166905Y-11316905D01*
X14347857Y-11545476D02*
X14233571Y-11545476D01*
X14290714Y-11545476D02*
X14290714Y-11345476D01*
X14271667Y-11374048D01*
X14252619Y-11393095D01*
X14233571Y-11402619D01*
X14424048Y-11364524D02*
X14433571Y-11355000D01*
X14452619Y-11345476D01*
X14500238Y-11345476D01*
X14519286Y-11355000D01*
X14528809Y-11364524D01*
X14538333Y-11383571D01*
X14538333Y-11402619D01*
X14528809Y-11431190D01*
X14414524Y-11545476D01*
X14538333Y-11545476D01*
X14776428Y-11545476D02*
X14776428Y-11345476D01*
X14862143Y-11545476D02*
X14862143Y-11440714D01*
X14852619Y-11421667D01*
X14833571Y-11412143D01*
X14805000Y-11412143D01*
X14785952Y-11421667D01*
X14776428Y-11431190D01*
X14985952Y-11545476D02*
X14966905Y-11535952D01*
X14957381Y-11526428D01*
X14947857Y-11507381D01*
X14947857Y-11450238D01*
X14957381Y-11431190D01*
X14966905Y-11421667D01*
X14985952Y-11412143D01*
X15014524Y-11412143D01*
X15033571Y-11421667D01*
X15043095Y-11431190D01*
X15052619Y-11450238D01*
X15052619Y-11507381D01*
X15043095Y-11526428D01*
X15033571Y-11535952D01*
X15014524Y-11545476D01*
X14985952Y-11545476D01*
X15166905Y-11545476D02*
X15147857Y-11535952D01*
X15138333Y-11516905D01*
X15138333Y-11345476D01*
X15319286Y-11535952D02*
X15300238Y-11545476D01*
X15262143Y-11545476D01*
X15243095Y-11535952D01*
X15233571Y-11516905D01*
X15233571Y-11440714D01*
X15243095Y-11421667D01*
X15262143Y-11412143D01*
X15300238Y-11412143D01*
X15319286Y-11421667D01*
X15328809Y-11440714D01*
X15328809Y-11459762D01*
X15233571Y-11478809D01*
X15405000Y-11535952D02*
X15424048Y-11545476D01*
X15462143Y-11545476D01*
X15481190Y-11535952D01*
X15490714Y-11516905D01*
X15490714Y-11507381D01*
X15481190Y-11488333D01*
X15462143Y-11478809D01*
X15433571Y-11478809D01*
X15414524Y-11469286D01*
X15405000Y-11450238D01*
X15405000Y-11440714D01*
X15414524Y-11421667D01*
X15433571Y-11412143D01*
X15462143Y-11412143D01*
X15481190Y-11421667D01*
X15557381Y-11621667D02*
X15566905Y-11612143D01*
X15585952Y-11583571D01*
X15595476Y-11564524D01*
X15605000Y-11535952D01*
X15614524Y-11488333D01*
X15614524Y-11450238D01*
X15605000Y-11402619D01*
X15595476Y-11374048D01*
X15585952Y-11355000D01*
X15566905Y-11326428D01*
X15557381Y-11316905D01*
D13*
X10595000Y-11719000D02*
G75*
G03*
X10595000Y-11719000I-25000J0D01*
G01*
D11*
X10890714Y-11609476D02*
X10909762Y-11609476D01*
X10928810Y-11619000D01*
X10938333Y-11628524D01*
X10947857Y-11647571D01*
X10957381Y-11685667D01*
X10957381Y-11733286D01*
X10947857Y-11771381D01*
X10938333Y-11790428D01*
X10928810Y-11799952D01*
X10909762Y-11809476D01*
X10890714Y-11809476D01*
X10871667Y-11799952D01*
X10862143Y-11790428D01*
X10852619Y-11771381D01*
X10843095Y-11733286D01*
X10843095Y-11685667D01*
X10852619Y-11647571D01*
X10862143Y-11628524D01*
X10871667Y-11619000D01*
X10890714Y-11609476D01*
X11043095Y-11790428D02*
X11052619Y-11799952D01*
X11043095Y-11809476D01*
X11033571Y-11799952D01*
X11043095Y-11790428D01*
X11043095Y-11809476D01*
X11233571Y-11609476D02*
X11138333Y-11609476D01*
X11128810Y-11704714D01*
X11138333Y-11695190D01*
X11157381Y-11685667D01*
X11205000Y-11685667D01*
X11224048Y-11695190D01*
X11233571Y-11704714D01*
X11243095Y-11723762D01*
X11243095Y-11771381D01*
X11233571Y-11790428D01*
X11224048Y-11799952D01*
X11205000Y-11809476D01*
X11157381Y-11809476D01*
X11138333Y-11799952D01*
X11128810Y-11790428D01*
X11366905Y-11609476D02*
X11385952Y-11609476D01*
X11405000Y-11619000D01*
X11414524Y-11628524D01*
X11424048Y-11647571D01*
X11433571Y-11685667D01*
X11433571Y-11733286D01*
X11424048Y-11771381D01*
X11414524Y-11790428D01*
X11405000Y-11799952D01*
X11385952Y-11809476D01*
X11366905Y-11809476D01*
X11347857Y-11799952D01*
X11338333Y-11790428D01*
X11328809Y-11771381D01*
X11319286Y-11733286D01*
X11319286Y-11685667D01*
X11328809Y-11647571D01*
X11338333Y-11628524D01*
X11347857Y-11619000D01*
X11366905Y-11609476D01*
X11557381Y-11609476D02*
X11576428Y-11609476D01*
X11595476Y-11619000D01*
X11605000Y-11628524D01*
X11614524Y-11647571D01*
X11624048Y-11685667D01*
X11624048Y-11733286D01*
X11614524Y-11771381D01*
X11605000Y-11790428D01*
X11595476Y-11799952D01*
X11576428Y-11809476D01*
X11557381Y-11809476D01*
X11538333Y-11799952D01*
X11528809Y-11790428D01*
X11519286Y-11771381D01*
X11509762Y-11733286D01*
X11509762Y-11685667D01*
X11519286Y-11647571D01*
X11528809Y-11628524D01*
X11538333Y-11619000D01*
X11557381Y-11609476D01*
X11709762Y-11809476D02*
X11709762Y-11676143D01*
X11709762Y-11695190D02*
X11719286Y-11685667D01*
X11738333Y-11676143D01*
X11766905Y-11676143D01*
X11785952Y-11685667D01*
X11795476Y-11704714D01*
X11795476Y-11809476D01*
X11795476Y-11704714D02*
X11805000Y-11685667D01*
X11824048Y-11676143D01*
X11852619Y-11676143D01*
X11871667Y-11685667D01*
X11881190Y-11704714D01*
X11881190Y-11809476D01*
X11976428Y-11809476D02*
X11976428Y-11676143D01*
X11976428Y-11695190D02*
X11985952Y-11685667D01*
X12005000Y-11676143D01*
X12033571Y-11676143D01*
X12052619Y-11685667D01*
X12062143Y-11704714D01*
X12062143Y-11809476D01*
X12062143Y-11704714D02*
X12071667Y-11685667D01*
X12090714Y-11676143D01*
X12119286Y-11676143D01*
X12138333Y-11685667D01*
X12147857Y-11704714D01*
X12147857Y-11809476D01*
X12538333Y-11599952D02*
X12366905Y-11857095D01*
X12795476Y-11609476D02*
X12814524Y-11609476D01*
X12833571Y-11619000D01*
X12843095Y-11628524D01*
X12852619Y-11647571D01*
X12862143Y-11685667D01*
X12862143Y-11733286D01*
X12852619Y-11771381D01*
X12843095Y-11790428D01*
X12833571Y-11799952D01*
X12814524Y-11809476D01*
X12795476Y-11809476D01*
X12776428Y-11799952D01*
X12766905Y-11790428D01*
X12757381Y-11771381D01*
X12747857Y-11733286D01*
X12747857Y-11685667D01*
X12757381Y-11647571D01*
X12766905Y-11628524D01*
X12776428Y-11619000D01*
X12795476Y-11609476D01*
X12947857Y-11790428D02*
X12957381Y-11799952D01*
X12947857Y-11809476D01*
X12938333Y-11799952D01*
X12947857Y-11790428D01*
X12947857Y-11809476D01*
X13081190Y-11609476D02*
X13100238Y-11609476D01*
X13119286Y-11619000D01*
X13128809Y-11628524D01*
X13138333Y-11647571D01*
X13147857Y-11685667D01*
X13147857Y-11733286D01*
X13138333Y-11771381D01*
X13128809Y-11790428D01*
X13119286Y-11799952D01*
X13100238Y-11809476D01*
X13081190Y-11809476D01*
X13062143Y-11799952D01*
X13052619Y-11790428D01*
X13043095Y-11771381D01*
X13033571Y-11733286D01*
X13033571Y-11685667D01*
X13043095Y-11647571D01*
X13052619Y-11628524D01*
X13062143Y-11619000D01*
X13081190Y-11609476D01*
X13338333Y-11809476D02*
X13224048Y-11809476D01*
X13281190Y-11809476D02*
X13281190Y-11609476D01*
X13262143Y-11638048D01*
X13243095Y-11657095D01*
X13224048Y-11666619D01*
X13433571Y-11809476D02*
X13471667Y-11809476D01*
X13490714Y-11799952D01*
X13500238Y-11790428D01*
X13519286Y-11761857D01*
X13528809Y-11723762D01*
X13528809Y-11647571D01*
X13519286Y-11628524D01*
X13509762Y-11619000D01*
X13490714Y-11609476D01*
X13452619Y-11609476D01*
X13433571Y-11619000D01*
X13424048Y-11628524D01*
X13414524Y-11647571D01*
X13414524Y-11695190D01*
X13424048Y-11714238D01*
X13433571Y-11723762D01*
X13452619Y-11733286D01*
X13490714Y-11733286D01*
X13509762Y-11723762D01*
X13519286Y-11714238D01*
X13528809Y-11695190D01*
X13595476Y-11609476D02*
X13728809Y-11609476D01*
X13643095Y-11809476D01*
X13795476Y-11609476D02*
X13795476Y-11647571D01*
X13871667Y-11609476D02*
X13871667Y-11647571D01*
X14166905Y-11885667D02*
X14157381Y-11876143D01*
X14138333Y-11847571D01*
X14128809Y-11828524D01*
X14119286Y-11799952D01*
X14109762Y-11752333D01*
X14109762Y-11714238D01*
X14119286Y-11666619D01*
X14128809Y-11638048D01*
X14138333Y-11619000D01*
X14157381Y-11590428D01*
X14166905Y-11580905D01*
X14224048Y-11609476D02*
X14347857Y-11609476D01*
X14281190Y-11685667D01*
X14309762Y-11685667D01*
X14328809Y-11695190D01*
X14338333Y-11704714D01*
X14347857Y-11723762D01*
X14347857Y-11771381D01*
X14338333Y-11790428D01*
X14328809Y-11799952D01*
X14309762Y-11809476D01*
X14252619Y-11809476D01*
X14233571Y-11799952D01*
X14224048Y-11790428D01*
X14585952Y-11809476D02*
X14585952Y-11609476D01*
X14671667Y-11809476D02*
X14671667Y-11704714D01*
X14662143Y-11685667D01*
X14643095Y-11676143D01*
X14614524Y-11676143D01*
X14595476Y-11685667D01*
X14585952Y-11695190D01*
X14795476Y-11809476D02*
X14776428Y-11799952D01*
X14766905Y-11790428D01*
X14757381Y-11771381D01*
X14757381Y-11714238D01*
X14766905Y-11695190D01*
X14776428Y-11685667D01*
X14795476Y-11676143D01*
X14824048Y-11676143D01*
X14843095Y-11685667D01*
X14852619Y-11695190D01*
X14862143Y-11714238D01*
X14862143Y-11771381D01*
X14852619Y-11790428D01*
X14843095Y-11799952D01*
X14824048Y-11809476D01*
X14795476Y-11809476D01*
X14976428Y-11809476D02*
X14957381Y-11799952D01*
X14947857Y-11780905D01*
X14947857Y-11609476D01*
X15128809Y-11799952D02*
X15109762Y-11809476D01*
X15071667Y-11809476D01*
X15052619Y-11799952D01*
X15043095Y-11780905D01*
X15043095Y-11704714D01*
X15052619Y-11685667D01*
X15071667Y-11676143D01*
X15109762Y-11676143D01*
X15128809Y-11685667D01*
X15138333Y-11704714D01*
X15138333Y-11723762D01*
X15043095Y-11742809D01*
X15214524Y-11799952D02*
X15233571Y-11809476D01*
X15271667Y-11809476D01*
X15290714Y-11799952D01*
X15300238Y-11780905D01*
X15300238Y-11771381D01*
X15290714Y-11752333D01*
X15271667Y-11742809D01*
X15243095Y-11742809D01*
X15224048Y-11733286D01*
X15214524Y-11714238D01*
X15214524Y-11704714D01*
X15224048Y-11685667D01*
X15243095Y-11676143D01*
X15271667Y-11676143D01*
X15290714Y-11685667D01*
X15366905Y-11885667D02*
X15376428Y-11876143D01*
X15395476Y-11847571D01*
X15405000Y-11828524D01*
X15414524Y-11799952D01*
X15424048Y-11752333D01*
X15424048Y-11714238D01*
X15414524Y-11666619D01*
X15405000Y-11638048D01*
X15395476Y-11619000D01*
X15376428Y-11590428D01*
X15366905Y-11580905D01*
D14*
X10560000Y-11948000D02*
X10560000Y-12018000D01*
X10525000Y-11983000D02*
X10595000Y-11983000D01*
D11*
X10890714Y-11873476D02*
X10909762Y-11873476D01*
X10928810Y-11883000D01*
X10938333Y-11892524D01*
X10947857Y-11911571D01*
X10957381Y-11949667D01*
X10957381Y-11997286D01*
X10947857Y-12035381D01*
X10938333Y-12054428D01*
X10928810Y-12063952D01*
X10909762Y-12073476D01*
X10890714Y-12073476D01*
X10871667Y-12063952D01*
X10862143Y-12054428D01*
X10852619Y-12035381D01*
X10843095Y-11997286D01*
X10843095Y-11949667D01*
X10852619Y-11911571D01*
X10862143Y-11892524D01*
X10871667Y-11883000D01*
X10890714Y-11873476D01*
X11043095Y-12054428D02*
X11052619Y-12063952D01*
X11043095Y-12073476D01*
X11033571Y-12063952D01*
X11043095Y-12054428D01*
X11043095Y-12073476D01*
X11119286Y-11873476D02*
X11252619Y-11873476D01*
X11166905Y-12073476D01*
X11366905Y-11873476D02*
X11385952Y-11873476D01*
X11405000Y-11883000D01*
X11414524Y-11892524D01*
X11424048Y-11911571D01*
X11433571Y-11949667D01*
X11433571Y-11997286D01*
X11424048Y-12035381D01*
X11414524Y-12054428D01*
X11405000Y-12063952D01*
X11385952Y-12073476D01*
X11366905Y-12073476D01*
X11347857Y-12063952D01*
X11338333Y-12054428D01*
X11328809Y-12035381D01*
X11319286Y-11997286D01*
X11319286Y-11949667D01*
X11328809Y-11911571D01*
X11338333Y-11892524D01*
X11347857Y-11883000D01*
X11366905Y-11873476D01*
X11557381Y-11873476D02*
X11576428Y-11873476D01*
X11595476Y-11883000D01*
X11605000Y-11892524D01*
X11614524Y-11911571D01*
X11624048Y-11949667D01*
X11624048Y-11997286D01*
X11614524Y-12035381D01*
X11605000Y-12054428D01*
X11595476Y-12063952D01*
X11576428Y-12073476D01*
X11557381Y-12073476D01*
X11538333Y-12063952D01*
X11528809Y-12054428D01*
X11519286Y-12035381D01*
X11509762Y-11997286D01*
X11509762Y-11949667D01*
X11519286Y-11911571D01*
X11528809Y-11892524D01*
X11538333Y-11883000D01*
X11557381Y-11873476D01*
X11709762Y-12073476D02*
X11709762Y-11940143D01*
X11709762Y-11959190D02*
X11719286Y-11949667D01*
X11738333Y-11940143D01*
X11766905Y-11940143D01*
X11785952Y-11949667D01*
X11795476Y-11968714D01*
X11795476Y-12073476D01*
X11795476Y-11968714D02*
X11805000Y-11949667D01*
X11824048Y-11940143D01*
X11852619Y-11940143D01*
X11871667Y-11949667D01*
X11881190Y-11968714D01*
X11881190Y-12073476D01*
X11976428Y-12073476D02*
X11976428Y-11940143D01*
X11976428Y-11959190D02*
X11985952Y-11949667D01*
X12005000Y-11940143D01*
X12033571Y-11940143D01*
X12052619Y-11949667D01*
X12062143Y-11968714D01*
X12062143Y-12073476D01*
X12062143Y-11968714D02*
X12071667Y-11949667D01*
X12090714Y-11940143D01*
X12119286Y-11940143D01*
X12138333Y-11949667D01*
X12147857Y-11968714D01*
X12147857Y-12073476D01*
X12538333Y-11863952D02*
X12366905Y-12121095D01*
X12795476Y-11873476D02*
X12814524Y-11873476D01*
X12833571Y-11883000D01*
X12843095Y-11892524D01*
X12852619Y-11911571D01*
X12862143Y-11949667D01*
X12862143Y-11997286D01*
X12852619Y-12035381D01*
X12843095Y-12054428D01*
X12833571Y-12063952D01*
X12814524Y-12073476D01*
X12795476Y-12073476D01*
X12776428Y-12063952D01*
X12766905Y-12054428D01*
X12757381Y-12035381D01*
X12747857Y-11997286D01*
X12747857Y-11949667D01*
X12757381Y-11911571D01*
X12766905Y-11892524D01*
X12776428Y-11883000D01*
X12795476Y-11873476D01*
X12947857Y-12054428D02*
X12957381Y-12063952D01*
X12947857Y-12073476D01*
X12938333Y-12063952D01*
X12947857Y-12054428D01*
X12947857Y-12073476D01*
X13081190Y-11873476D02*
X13100238Y-11873476D01*
X13119286Y-11883000D01*
X13128809Y-11892524D01*
X13138333Y-11911571D01*
X13147857Y-11949667D01*
X13147857Y-11997286D01*
X13138333Y-12035381D01*
X13128809Y-12054428D01*
X13119286Y-12063952D01*
X13100238Y-12073476D01*
X13081190Y-12073476D01*
X13062143Y-12063952D01*
X13052619Y-12054428D01*
X13043095Y-12035381D01*
X13033571Y-11997286D01*
X13033571Y-11949667D01*
X13043095Y-11911571D01*
X13052619Y-11892524D01*
X13062143Y-11883000D01*
X13081190Y-11873476D01*
X13224048Y-11892524D02*
X13233571Y-11883000D01*
X13252619Y-11873476D01*
X13300238Y-11873476D01*
X13319286Y-11883000D01*
X13328809Y-11892524D01*
X13338333Y-11911571D01*
X13338333Y-11930619D01*
X13328809Y-11959190D01*
X13214524Y-12073476D01*
X13338333Y-12073476D01*
X13405000Y-11873476D02*
X13538333Y-11873476D01*
X13452619Y-12073476D01*
X13700238Y-11873476D02*
X13662143Y-11873476D01*
X13643095Y-11883000D01*
X13633571Y-11892524D01*
X13614524Y-11921095D01*
X13605000Y-11959190D01*
X13605000Y-12035381D01*
X13614524Y-12054428D01*
X13624048Y-12063952D01*
X13643095Y-12073476D01*
X13681190Y-12073476D01*
X13700238Y-12063952D01*
X13709762Y-12054428D01*
X13719286Y-12035381D01*
X13719286Y-11987762D01*
X13709762Y-11968714D01*
X13700238Y-11959190D01*
X13681190Y-11949667D01*
X13643095Y-11949667D01*
X13624048Y-11959190D01*
X13614524Y-11968714D01*
X13605000Y-11987762D01*
X13795476Y-11873476D02*
X13795476Y-11911571D01*
X13871667Y-11873476D02*
X13871667Y-11911571D01*
X14166905Y-12149667D02*
X14157381Y-12140143D01*
X14138333Y-12111571D01*
X14128809Y-12092524D01*
X14119286Y-12063952D01*
X14109762Y-12016333D01*
X14109762Y-11978238D01*
X14119286Y-11930619D01*
X14128809Y-11902048D01*
X14138333Y-11883000D01*
X14157381Y-11854428D01*
X14166905Y-11844905D01*
X14328809Y-11940143D02*
X14328809Y-12073476D01*
X14281190Y-11863952D02*
X14233571Y-12006809D01*
X14357381Y-12006809D01*
X14585952Y-12073476D02*
X14585952Y-11873476D01*
X14671667Y-12073476D02*
X14671667Y-11968714D01*
X14662143Y-11949667D01*
X14643095Y-11940143D01*
X14614524Y-11940143D01*
X14595476Y-11949667D01*
X14585952Y-11959190D01*
X14795476Y-12073476D02*
X14776428Y-12063952D01*
X14766905Y-12054428D01*
X14757381Y-12035381D01*
X14757381Y-11978238D01*
X14766905Y-11959190D01*
X14776428Y-11949667D01*
X14795476Y-11940143D01*
X14824048Y-11940143D01*
X14843095Y-11949667D01*
X14852619Y-11959190D01*
X14862143Y-11978238D01*
X14862143Y-12035381D01*
X14852619Y-12054428D01*
X14843095Y-12063952D01*
X14824048Y-12073476D01*
X14795476Y-12073476D01*
X14976428Y-12073476D02*
X14957381Y-12063952D01*
X14947857Y-12044905D01*
X14947857Y-11873476D01*
X15128809Y-12063952D02*
X15109762Y-12073476D01*
X15071667Y-12073476D01*
X15052619Y-12063952D01*
X15043095Y-12044905D01*
X15043095Y-11968714D01*
X15052619Y-11949667D01*
X15071667Y-11940143D01*
X15109762Y-11940143D01*
X15128809Y-11949667D01*
X15138333Y-11968714D01*
X15138333Y-11987762D01*
X15043095Y-12006809D01*
X15214524Y-12063952D02*
X15233571Y-12073476D01*
X15271667Y-12073476D01*
X15290714Y-12063952D01*
X15300238Y-12044905D01*
X15300238Y-12035381D01*
X15290714Y-12016333D01*
X15271667Y-12006809D01*
X15243095Y-12006809D01*
X15224048Y-11997286D01*
X15214524Y-11978238D01*
X15214524Y-11968714D01*
X15224048Y-11949667D01*
X15243095Y-11940143D01*
X15271667Y-11940143D01*
X15290714Y-11949667D01*
X15366905Y-12149667D02*
X15376428Y-12140143D01*
X15395476Y-12111571D01*
X15405000Y-12092524D01*
X15414524Y-12063952D01*
X15424048Y-12016333D01*
X15424048Y-11978238D01*
X15414524Y-11930619D01*
X15405000Y-11902048D01*
X15395476Y-11883000D01*
X15376428Y-11854428D01*
X15366905Y-11844905D01*
D15*
X10583841Y-12273941D02*
X10583841Y-12220059D01*
X10529959Y-12220059D01*
X10529959Y-12273941D01*
X10583841Y-12273941D01*
D11*
X10890714Y-12137476D02*
X10909762Y-12137476D01*
X10928810Y-12147000D01*
X10938333Y-12156524D01*
X10947857Y-12175571D01*
X10957381Y-12213667D01*
X10957381Y-12261286D01*
X10947857Y-12299381D01*
X10938333Y-12318428D01*
X10928810Y-12327952D01*
X10909762Y-12337476D01*
X10890714Y-12337476D01*
X10871667Y-12327952D01*
X10862143Y-12318428D01*
X10852619Y-12299381D01*
X10843095Y-12261286D01*
X10843095Y-12213667D01*
X10852619Y-12175571D01*
X10862143Y-12156524D01*
X10871667Y-12147000D01*
X10890714Y-12137476D01*
X11043095Y-12318428D02*
X11052619Y-12327952D01*
X11043095Y-12337476D01*
X11033571Y-12327952D01*
X11043095Y-12318428D01*
X11043095Y-12337476D01*
X11119286Y-12137476D02*
X11252619Y-12137476D01*
X11166905Y-12337476D01*
X11414524Y-12137476D02*
X11376428Y-12137476D01*
X11357381Y-12147000D01*
X11347857Y-12156524D01*
X11328809Y-12185095D01*
X11319286Y-12223190D01*
X11319286Y-12299381D01*
X11328809Y-12318428D01*
X11338333Y-12327952D01*
X11357381Y-12337476D01*
X11395476Y-12337476D01*
X11414524Y-12327952D01*
X11424048Y-12318428D01*
X11433571Y-12299381D01*
X11433571Y-12251762D01*
X11424048Y-12232714D01*
X11414524Y-12223190D01*
X11395476Y-12213667D01*
X11357381Y-12213667D01*
X11338333Y-12223190D01*
X11328809Y-12232714D01*
X11319286Y-12251762D01*
X11509762Y-12156524D02*
X11519286Y-12147000D01*
X11538333Y-12137476D01*
X11585952Y-12137476D01*
X11605000Y-12147000D01*
X11614524Y-12156524D01*
X11624048Y-12175571D01*
X11624048Y-12194619D01*
X11614524Y-12223190D01*
X11500238Y-12337476D01*
X11624048Y-12337476D01*
X11709762Y-12337476D02*
X11709762Y-12204143D01*
X11709762Y-12223190D02*
X11719286Y-12213667D01*
X11738333Y-12204143D01*
X11766905Y-12204143D01*
X11785952Y-12213667D01*
X11795476Y-12232714D01*
X11795476Y-12337476D01*
X11795476Y-12232714D02*
X11805000Y-12213667D01*
X11824048Y-12204143D01*
X11852619Y-12204143D01*
X11871667Y-12213667D01*
X11881190Y-12232714D01*
X11881190Y-12337476D01*
X11976428Y-12337476D02*
X11976428Y-12204143D01*
X11976428Y-12223190D02*
X11985952Y-12213667D01*
X12005000Y-12204143D01*
X12033571Y-12204143D01*
X12052619Y-12213667D01*
X12062143Y-12232714D01*
X12062143Y-12337476D01*
X12062143Y-12232714D02*
X12071667Y-12213667D01*
X12090714Y-12204143D01*
X12119286Y-12204143D01*
X12138333Y-12213667D01*
X12147857Y-12232714D01*
X12147857Y-12337476D01*
X12538333Y-12127952D02*
X12366905Y-12385095D01*
X12795476Y-12137476D02*
X12814524Y-12137476D01*
X12833571Y-12147000D01*
X12843095Y-12156524D01*
X12852619Y-12175571D01*
X12862143Y-12213667D01*
X12862143Y-12261286D01*
X12852619Y-12299381D01*
X12843095Y-12318428D01*
X12833571Y-12327952D01*
X12814524Y-12337476D01*
X12795476Y-12337476D01*
X12776428Y-12327952D01*
X12766905Y-12318428D01*
X12757381Y-12299381D01*
X12747857Y-12261286D01*
X12747857Y-12213667D01*
X12757381Y-12175571D01*
X12766905Y-12156524D01*
X12776428Y-12147000D01*
X12795476Y-12137476D01*
X12947857Y-12318428D02*
X12957381Y-12327952D01*
X12947857Y-12337476D01*
X12938333Y-12327952D01*
X12947857Y-12318428D01*
X12947857Y-12337476D01*
X13081190Y-12137476D02*
X13100238Y-12137476D01*
X13119286Y-12147000D01*
X13128809Y-12156524D01*
X13138333Y-12175571D01*
X13147857Y-12213667D01*
X13147857Y-12261286D01*
X13138333Y-12299381D01*
X13128809Y-12318428D01*
X13119286Y-12327952D01*
X13100238Y-12337476D01*
X13081190Y-12337476D01*
X13062143Y-12327952D01*
X13052619Y-12318428D01*
X13043095Y-12299381D01*
X13033571Y-12261286D01*
X13033571Y-12213667D01*
X13043095Y-12175571D01*
X13052619Y-12156524D01*
X13062143Y-12147000D01*
X13081190Y-12137476D01*
X13214524Y-12137476D02*
X13338333Y-12137476D01*
X13271667Y-12213667D01*
X13300238Y-12213667D01*
X13319286Y-12223190D01*
X13328809Y-12232714D01*
X13338333Y-12251762D01*
X13338333Y-12299381D01*
X13328809Y-12318428D01*
X13319286Y-12327952D01*
X13300238Y-12337476D01*
X13243095Y-12337476D01*
X13224048Y-12327952D01*
X13214524Y-12318428D01*
X13462143Y-12137476D02*
X13481190Y-12137476D01*
X13500238Y-12147000D01*
X13509762Y-12156524D01*
X13519286Y-12175571D01*
X13528809Y-12213667D01*
X13528809Y-12261286D01*
X13519286Y-12299381D01*
X13509762Y-12318428D01*
X13500238Y-12327952D01*
X13481190Y-12337476D01*
X13462143Y-12337476D01*
X13443095Y-12327952D01*
X13433571Y-12318428D01*
X13424048Y-12299381D01*
X13414524Y-12261286D01*
X13414524Y-12213667D01*
X13424048Y-12175571D01*
X13433571Y-12156524D01*
X13443095Y-12147000D01*
X13462143Y-12137476D01*
X13652619Y-12137476D02*
X13671667Y-12137476D01*
X13690714Y-12147000D01*
X13700238Y-12156524D01*
X13709762Y-12175571D01*
X13719286Y-12213667D01*
X13719286Y-12261286D01*
X13709762Y-12299381D01*
X13700238Y-12318428D01*
X13690714Y-12327952D01*
X13671667Y-12337476D01*
X13652619Y-12337476D01*
X13633571Y-12327952D01*
X13624048Y-12318428D01*
X13614524Y-12299381D01*
X13605000Y-12261286D01*
X13605000Y-12213667D01*
X13614524Y-12175571D01*
X13624048Y-12156524D01*
X13633571Y-12147000D01*
X13652619Y-12137476D01*
X13795476Y-12137476D02*
X13795476Y-12175571D01*
X13871667Y-12137476D02*
X13871667Y-12175571D01*
X14166905Y-12413667D02*
X14157381Y-12404143D01*
X14138333Y-12375571D01*
X14128809Y-12356524D01*
X14119286Y-12327952D01*
X14109762Y-12280333D01*
X14109762Y-12242238D01*
X14119286Y-12194619D01*
X14128809Y-12166048D01*
X14138333Y-12147000D01*
X14157381Y-12118428D01*
X14166905Y-12108905D01*
X14252619Y-12337476D02*
X14290714Y-12337476D01*
X14309762Y-12327952D01*
X14319286Y-12318428D01*
X14338333Y-12289857D01*
X14347857Y-12251762D01*
X14347857Y-12175571D01*
X14338333Y-12156524D01*
X14328809Y-12147000D01*
X14309762Y-12137476D01*
X14271667Y-12137476D01*
X14252619Y-12147000D01*
X14243095Y-12156524D01*
X14233571Y-12175571D01*
X14233571Y-12223190D01*
X14243095Y-12242238D01*
X14252619Y-12251762D01*
X14271667Y-12261286D01*
X14309762Y-12261286D01*
X14328809Y-12251762D01*
X14338333Y-12242238D01*
X14347857Y-12223190D01*
X14585952Y-12337476D02*
X14585952Y-12137476D01*
X14671667Y-12337476D02*
X14671667Y-12232714D01*
X14662143Y-12213667D01*
X14643095Y-12204143D01*
X14614524Y-12204143D01*
X14595476Y-12213667D01*
X14585952Y-12223190D01*
X14795476Y-12337476D02*
X14776428Y-12327952D01*
X14766905Y-12318428D01*
X14757381Y-12299381D01*
X14757381Y-12242238D01*
X14766905Y-12223190D01*
X14776428Y-12213667D01*
X14795476Y-12204143D01*
X14824048Y-12204143D01*
X14843095Y-12213667D01*
X14852619Y-12223190D01*
X14862143Y-12242238D01*
X14862143Y-12299381D01*
X14852619Y-12318428D01*
X14843095Y-12327952D01*
X14824048Y-12337476D01*
X14795476Y-12337476D01*
X14976428Y-12337476D02*
X14957381Y-12327952D01*
X14947857Y-12308905D01*
X14947857Y-12137476D01*
X15128809Y-12327952D02*
X15109762Y-12337476D01*
X15071667Y-12337476D01*
X15052619Y-12327952D01*
X15043095Y-12308905D01*
X15043095Y-12232714D01*
X15052619Y-12213667D01*
X15071667Y-12204143D01*
X15109762Y-12204143D01*
X15128809Y-12213667D01*
X15138333Y-12232714D01*
X15138333Y-12251762D01*
X15043095Y-12270809D01*
X15214524Y-12327952D02*
X15233571Y-12337476D01*
X15271667Y-12337476D01*
X15290714Y-12327952D01*
X15300238Y-12308905D01*
X15300238Y-12299381D01*
X15290714Y-12280333D01*
X15271667Y-12270809D01*
X15243095Y-12270809D01*
X15224048Y-12261286D01*
X15214524Y-12242238D01*
X15214524Y-12232714D01*
X15224048Y-12213667D01*
X15243095Y-12204143D01*
X15271667Y-12204143D01*
X15290714Y-12213667D01*
X15366905Y-12413667D02*
X15376428Y-12404143D01*
X15395476Y-12375571D01*
X15405000Y-12356524D01*
X15414524Y-12327952D01*
X15424048Y-12280333D01*
X15424048Y-12242238D01*
X15414524Y-12194619D01*
X15405000Y-12166048D01*
X15395476Y-12147000D01*
X15376428Y-12118428D01*
X15366905Y-12108905D01*
D16*
X10555000Y-12551000D02*
X10595000Y-12511000D01*
X10555000Y-12471000D01*
X10515000Y-12511000D01*
X10555000Y-12551000D01*
D11*
X10890714Y-12401476D02*
X10909762Y-12401476D01*
X10928810Y-12411000D01*
X10938333Y-12420524D01*
X10947857Y-12439571D01*
X10957381Y-12477667D01*
X10957381Y-12525286D01*
X10947857Y-12563381D01*
X10938333Y-12582428D01*
X10928810Y-12591952D01*
X10909762Y-12601476D01*
X10890714Y-12601476D01*
X10871667Y-12591952D01*
X10862143Y-12582428D01*
X10852619Y-12563381D01*
X10843095Y-12525286D01*
X10843095Y-12477667D01*
X10852619Y-12439571D01*
X10862143Y-12420524D01*
X10871667Y-12411000D01*
X10890714Y-12401476D01*
X11043095Y-12582428D02*
X11052619Y-12591952D01*
X11043095Y-12601476D01*
X11033571Y-12591952D01*
X11043095Y-12582428D01*
X11043095Y-12601476D01*
X11166905Y-12487190D02*
X11147857Y-12477667D01*
X11138333Y-12468143D01*
X11128810Y-12449095D01*
X11128810Y-12439571D01*
X11138333Y-12420524D01*
X11147857Y-12411000D01*
X11166905Y-12401476D01*
X11205000Y-12401476D01*
X11224048Y-12411000D01*
X11233571Y-12420524D01*
X11243095Y-12439571D01*
X11243095Y-12449095D01*
X11233571Y-12468143D01*
X11224048Y-12477667D01*
X11205000Y-12487190D01*
X11166905Y-12487190D01*
X11147857Y-12496714D01*
X11138333Y-12506238D01*
X11128810Y-12525286D01*
X11128810Y-12563381D01*
X11138333Y-12582428D01*
X11147857Y-12591952D01*
X11166905Y-12601476D01*
X11205000Y-12601476D01*
X11224048Y-12591952D01*
X11233571Y-12582428D01*
X11243095Y-12563381D01*
X11243095Y-12525286D01*
X11233571Y-12506238D01*
X11224048Y-12496714D01*
X11205000Y-12487190D01*
X11366905Y-12401476D02*
X11385952Y-12401476D01*
X11405000Y-12411000D01*
X11414524Y-12420524D01*
X11424048Y-12439571D01*
X11433571Y-12477667D01*
X11433571Y-12525286D01*
X11424048Y-12563381D01*
X11414524Y-12582428D01*
X11405000Y-12591952D01*
X11385952Y-12601476D01*
X11366905Y-12601476D01*
X11347857Y-12591952D01*
X11338333Y-12582428D01*
X11328809Y-12563381D01*
X11319286Y-12525286D01*
X11319286Y-12477667D01*
X11328809Y-12439571D01*
X11338333Y-12420524D01*
X11347857Y-12411000D01*
X11366905Y-12401476D01*
X11557381Y-12401476D02*
X11576428Y-12401476D01*
X11595476Y-12411000D01*
X11605000Y-12420524D01*
X11614524Y-12439571D01*
X11624048Y-12477667D01*
X11624048Y-12525286D01*
X11614524Y-12563381D01*
X11605000Y-12582428D01*
X11595476Y-12591952D01*
X11576428Y-12601476D01*
X11557381Y-12601476D01*
X11538333Y-12591952D01*
X11528809Y-12582428D01*
X11519286Y-12563381D01*
X11509762Y-12525286D01*
X11509762Y-12477667D01*
X11519286Y-12439571D01*
X11528809Y-12420524D01*
X11538333Y-12411000D01*
X11557381Y-12401476D01*
X11709762Y-12601476D02*
X11709762Y-12468143D01*
X11709762Y-12487190D02*
X11719286Y-12477667D01*
X11738333Y-12468143D01*
X11766905Y-12468143D01*
X11785952Y-12477667D01*
X11795476Y-12496714D01*
X11795476Y-12601476D01*
X11795476Y-12496714D02*
X11805000Y-12477667D01*
X11824048Y-12468143D01*
X11852619Y-12468143D01*
X11871667Y-12477667D01*
X11881190Y-12496714D01*
X11881190Y-12601476D01*
X11976428Y-12601476D02*
X11976428Y-12468143D01*
X11976428Y-12487190D02*
X11985952Y-12477667D01*
X12005000Y-12468143D01*
X12033571Y-12468143D01*
X12052619Y-12477667D01*
X12062143Y-12496714D01*
X12062143Y-12601476D01*
X12062143Y-12496714D02*
X12071667Y-12477667D01*
X12090714Y-12468143D01*
X12119286Y-12468143D01*
X12138333Y-12477667D01*
X12147857Y-12496714D01*
X12147857Y-12601476D01*
X12538333Y-12391952D02*
X12366905Y-12649095D01*
X12795476Y-12401476D02*
X12814524Y-12401476D01*
X12833571Y-12411000D01*
X12843095Y-12420524D01*
X12852619Y-12439571D01*
X12862143Y-12477667D01*
X12862143Y-12525286D01*
X12852619Y-12563381D01*
X12843095Y-12582428D01*
X12833571Y-12591952D01*
X12814524Y-12601476D01*
X12795476Y-12601476D01*
X12776428Y-12591952D01*
X12766905Y-12582428D01*
X12757381Y-12563381D01*
X12747857Y-12525286D01*
X12747857Y-12477667D01*
X12757381Y-12439571D01*
X12766905Y-12420524D01*
X12776428Y-12411000D01*
X12795476Y-12401476D01*
X12947857Y-12582428D02*
X12957381Y-12591952D01*
X12947857Y-12601476D01*
X12938333Y-12591952D01*
X12947857Y-12582428D01*
X12947857Y-12601476D01*
X13081190Y-12401476D02*
X13100238Y-12401476D01*
X13119286Y-12411000D01*
X13128809Y-12420524D01*
X13138333Y-12439571D01*
X13147857Y-12477667D01*
X13147857Y-12525286D01*
X13138333Y-12563381D01*
X13128809Y-12582428D01*
X13119286Y-12591952D01*
X13100238Y-12601476D01*
X13081190Y-12601476D01*
X13062143Y-12591952D01*
X13052619Y-12582428D01*
X13043095Y-12563381D01*
X13033571Y-12525286D01*
X13033571Y-12477667D01*
X13043095Y-12439571D01*
X13052619Y-12420524D01*
X13062143Y-12411000D01*
X13081190Y-12401476D01*
X13214524Y-12401476D02*
X13338333Y-12401476D01*
X13271667Y-12477667D01*
X13300238Y-12477667D01*
X13319286Y-12487190D01*
X13328809Y-12496714D01*
X13338333Y-12515762D01*
X13338333Y-12563381D01*
X13328809Y-12582428D01*
X13319286Y-12591952D01*
X13300238Y-12601476D01*
X13243095Y-12601476D01*
X13224048Y-12591952D01*
X13214524Y-12582428D01*
X13528809Y-12601476D02*
X13414524Y-12601476D01*
X13471667Y-12601476D02*
X13471667Y-12401476D01*
X13452619Y-12430048D01*
X13433571Y-12449095D01*
X13414524Y-12458619D01*
X13709762Y-12401476D02*
X13614524Y-12401476D01*
X13605000Y-12496714D01*
X13614524Y-12487190D01*
X13633571Y-12477667D01*
X13681190Y-12477667D01*
X13700238Y-12487190D01*
X13709762Y-12496714D01*
X13719286Y-12515762D01*
X13719286Y-12563381D01*
X13709762Y-12582428D01*
X13700238Y-12591952D01*
X13681190Y-12601476D01*
X13633571Y-12601476D01*
X13614524Y-12591952D01*
X13605000Y-12582428D01*
X13795476Y-12401476D02*
X13795476Y-12439571D01*
X13871667Y-12401476D02*
X13871667Y-12439571D01*
X14166905Y-12677667D02*
X14157381Y-12668143D01*
X14138333Y-12639571D01*
X14128809Y-12620524D01*
X14119286Y-12591952D01*
X14109762Y-12544333D01*
X14109762Y-12506238D01*
X14119286Y-12458619D01*
X14128809Y-12430048D01*
X14138333Y-12411000D01*
X14157381Y-12382428D01*
X14166905Y-12372905D01*
X14328809Y-12401476D02*
X14290714Y-12401476D01*
X14271667Y-12411000D01*
X14262143Y-12420524D01*
X14243095Y-12449095D01*
X14233571Y-12487190D01*
X14233571Y-12563381D01*
X14243095Y-12582428D01*
X14252619Y-12591952D01*
X14271667Y-12601476D01*
X14309762Y-12601476D01*
X14328809Y-12591952D01*
X14338333Y-12582428D01*
X14347857Y-12563381D01*
X14347857Y-12515762D01*
X14338333Y-12496714D01*
X14328809Y-12487190D01*
X14309762Y-12477667D01*
X14271667Y-12477667D01*
X14252619Y-12487190D01*
X14243095Y-12496714D01*
X14233571Y-12515762D01*
X14585952Y-12601476D02*
X14585952Y-12401476D01*
X14671667Y-12601476D02*
X14671667Y-12496714D01*
X14662143Y-12477667D01*
X14643095Y-12468143D01*
X14614524Y-12468143D01*
X14595476Y-12477667D01*
X14585952Y-12487190D01*
X14795476Y-12601476D02*
X14776428Y-12591952D01*
X14766905Y-12582428D01*
X14757381Y-12563381D01*
X14757381Y-12506238D01*
X14766905Y-12487190D01*
X14776428Y-12477667D01*
X14795476Y-12468143D01*
X14824048Y-12468143D01*
X14843095Y-12477667D01*
X14852619Y-12487190D01*
X14862143Y-12506238D01*
X14862143Y-12563381D01*
X14852619Y-12582428D01*
X14843095Y-12591952D01*
X14824048Y-12601476D01*
X14795476Y-12601476D01*
X14976428Y-12601476D02*
X14957381Y-12591952D01*
X14947857Y-12572905D01*
X14947857Y-12401476D01*
X15128809Y-12591952D02*
X15109762Y-12601476D01*
X15071667Y-12601476D01*
X15052619Y-12591952D01*
X15043095Y-12572905D01*
X15043095Y-12496714D01*
X15052619Y-12477667D01*
X15071667Y-12468143D01*
X15109762Y-12468143D01*
X15128809Y-12477667D01*
X15138333Y-12496714D01*
X15138333Y-12515762D01*
X15043095Y-12534809D01*
X15214524Y-12591952D02*
X15233571Y-12601476D01*
X15271667Y-12601476D01*
X15290714Y-12591952D01*
X15300238Y-12572905D01*
X15300238Y-12563381D01*
X15290714Y-12544333D01*
X15271667Y-12534809D01*
X15243095Y-12534809D01*
X15224048Y-12525286D01*
X15214524Y-12506238D01*
X15214524Y-12496714D01*
X15224048Y-12477667D01*
X15243095Y-12468143D01*
X15271667Y-12468143D01*
X15290714Y-12477667D01*
X15366905Y-12677667D02*
X15376428Y-12668143D01*
X15395476Y-12639571D01*
X15405000Y-12620524D01*
X15414524Y-12591952D01*
X15424048Y-12544333D01*
X15424048Y-12506238D01*
X15414524Y-12458619D01*
X15405000Y-12430048D01*
X15395476Y-12411000D01*
X15376428Y-12382428D01*
X15366905Y-12372905D01*
D10*
X10495000Y-12725000D02*
X10595000Y-12825000D01*
X10595000Y-12725000D02*
X10495000Y-12825000D01*
X10595000Y-12775000D02*
G75*
G03*
X10595000Y-12775000I-50000J0D01*
G01*
D11*
X10957381Y-12865476D02*
X10843095Y-12865476D01*
X10900238Y-12865476D02*
X10900238Y-12665476D01*
X10881190Y-12694048D01*
X10862143Y-12713095D01*
X10843095Y-12722619D01*
X11043095Y-12846428D02*
X11052619Y-12855952D01*
X11043095Y-12865476D01*
X11033571Y-12855952D01*
X11043095Y-12846428D01*
X11043095Y-12865476D01*
X11176429Y-12665476D02*
X11195476Y-12665476D01*
X11214524Y-12675000D01*
X11224048Y-12684524D01*
X11233571Y-12703571D01*
X11243095Y-12741667D01*
X11243095Y-12789286D01*
X11233571Y-12827381D01*
X11224048Y-12846428D01*
X11214524Y-12855952D01*
X11195476Y-12865476D01*
X11176429Y-12865476D01*
X11157381Y-12855952D01*
X11147857Y-12846428D01*
X11138333Y-12827381D01*
X11128810Y-12789286D01*
X11128810Y-12741667D01*
X11138333Y-12703571D01*
X11147857Y-12684524D01*
X11157381Y-12675000D01*
X11176429Y-12665476D01*
X11366905Y-12665476D02*
X11385952Y-12665476D01*
X11405000Y-12675000D01*
X11414524Y-12684524D01*
X11424048Y-12703571D01*
X11433571Y-12741667D01*
X11433571Y-12789286D01*
X11424048Y-12827381D01*
X11414524Y-12846428D01*
X11405000Y-12855952D01*
X11385952Y-12865476D01*
X11366905Y-12865476D01*
X11347857Y-12855952D01*
X11338333Y-12846428D01*
X11328809Y-12827381D01*
X11319286Y-12789286D01*
X11319286Y-12741667D01*
X11328809Y-12703571D01*
X11338333Y-12684524D01*
X11347857Y-12675000D01*
X11366905Y-12665476D01*
X11557381Y-12665476D02*
X11576428Y-12665476D01*
X11595476Y-12675000D01*
X11605000Y-12684524D01*
X11614524Y-12703571D01*
X11624048Y-12741667D01*
X11624048Y-12789286D01*
X11614524Y-12827381D01*
X11605000Y-12846428D01*
X11595476Y-12855952D01*
X11576428Y-12865476D01*
X11557381Y-12865476D01*
X11538333Y-12855952D01*
X11528809Y-12846428D01*
X11519286Y-12827381D01*
X11509762Y-12789286D01*
X11509762Y-12741667D01*
X11519286Y-12703571D01*
X11528809Y-12684524D01*
X11538333Y-12675000D01*
X11557381Y-12665476D01*
X11709762Y-12865476D02*
X11709762Y-12732143D01*
X11709762Y-12751190D02*
X11719286Y-12741667D01*
X11738333Y-12732143D01*
X11766905Y-12732143D01*
X11785952Y-12741667D01*
X11795476Y-12760714D01*
X11795476Y-12865476D01*
X11795476Y-12760714D02*
X11805000Y-12741667D01*
X11824048Y-12732143D01*
X11852619Y-12732143D01*
X11871667Y-12741667D01*
X11881190Y-12760714D01*
X11881190Y-12865476D01*
X11976428Y-12865476D02*
X11976428Y-12732143D01*
X11976428Y-12751190D02*
X11985952Y-12741667D01*
X12005000Y-12732143D01*
X12033571Y-12732143D01*
X12052619Y-12741667D01*
X12062143Y-12760714D01*
X12062143Y-12865476D01*
X12062143Y-12760714D02*
X12071667Y-12741667D01*
X12090714Y-12732143D01*
X12119286Y-12732143D01*
X12138333Y-12741667D01*
X12147857Y-12760714D01*
X12147857Y-12865476D01*
X12538333Y-12655952D02*
X12366905Y-12913095D01*
X12795476Y-12665476D02*
X12814524Y-12665476D01*
X12833571Y-12675000D01*
X12843095Y-12684524D01*
X12852619Y-12703571D01*
X12862143Y-12741667D01*
X12862143Y-12789286D01*
X12852619Y-12827381D01*
X12843095Y-12846428D01*
X12833571Y-12855952D01*
X12814524Y-12865476D01*
X12795476Y-12865476D01*
X12776428Y-12855952D01*
X12766905Y-12846428D01*
X12757381Y-12827381D01*
X12747857Y-12789286D01*
X12747857Y-12741667D01*
X12757381Y-12703571D01*
X12766905Y-12684524D01*
X12776428Y-12675000D01*
X12795476Y-12665476D01*
X12947857Y-12846428D02*
X12957381Y-12855952D01*
X12947857Y-12865476D01*
X12938333Y-12855952D01*
X12947857Y-12846428D01*
X12947857Y-12865476D01*
X13081190Y-12665476D02*
X13100238Y-12665476D01*
X13119286Y-12675000D01*
X13128809Y-12684524D01*
X13138333Y-12703571D01*
X13147857Y-12741667D01*
X13147857Y-12789286D01*
X13138333Y-12827381D01*
X13128809Y-12846428D01*
X13119286Y-12855952D01*
X13100238Y-12865476D01*
X13081190Y-12865476D01*
X13062143Y-12855952D01*
X13052619Y-12846428D01*
X13043095Y-12827381D01*
X13033571Y-12789286D01*
X13033571Y-12741667D01*
X13043095Y-12703571D01*
X13052619Y-12684524D01*
X13062143Y-12675000D01*
X13081190Y-12665476D01*
X13214524Y-12665476D02*
X13338333Y-12665476D01*
X13271667Y-12741667D01*
X13300238Y-12741667D01*
X13319286Y-12751190D01*
X13328809Y-12760714D01*
X13338333Y-12779762D01*
X13338333Y-12827381D01*
X13328809Y-12846428D01*
X13319286Y-12855952D01*
X13300238Y-12865476D01*
X13243095Y-12865476D01*
X13224048Y-12855952D01*
X13214524Y-12846428D01*
X13433571Y-12865476D02*
X13471667Y-12865476D01*
X13490714Y-12855952D01*
X13500238Y-12846428D01*
X13519286Y-12817857D01*
X13528809Y-12779762D01*
X13528809Y-12703571D01*
X13519286Y-12684524D01*
X13509762Y-12675000D01*
X13490714Y-12665476D01*
X13452619Y-12665476D01*
X13433571Y-12675000D01*
X13424048Y-12684524D01*
X13414524Y-12703571D01*
X13414524Y-12751190D01*
X13424048Y-12770238D01*
X13433571Y-12779762D01*
X13452619Y-12789286D01*
X13490714Y-12789286D01*
X13509762Y-12779762D01*
X13519286Y-12770238D01*
X13528809Y-12751190D01*
X13700238Y-12732143D02*
X13700238Y-12865476D01*
X13652619Y-12655952D02*
X13605000Y-12798809D01*
X13728809Y-12798809D01*
X13795476Y-12665476D02*
X13795476Y-12703571D01*
X13871667Y-12665476D02*
X13871667Y-12703571D01*
X14166905Y-12941667D02*
X14157381Y-12932143D01*
X14138333Y-12903571D01*
X14128809Y-12884524D01*
X14119286Y-12855952D01*
X14109762Y-12808333D01*
X14109762Y-12770238D01*
X14119286Y-12722619D01*
X14128809Y-12694048D01*
X14138333Y-12675000D01*
X14157381Y-12646428D01*
X14166905Y-12636905D01*
X14224048Y-12665476D02*
X14357381Y-12665476D01*
X14271667Y-12865476D01*
X14585952Y-12865476D02*
X14585952Y-12665476D01*
X14671667Y-12865476D02*
X14671667Y-12760714D01*
X14662143Y-12741667D01*
X14643095Y-12732143D01*
X14614524Y-12732143D01*
X14595476Y-12741667D01*
X14585952Y-12751190D01*
X14795476Y-12865476D02*
X14776428Y-12855952D01*
X14766905Y-12846428D01*
X14757381Y-12827381D01*
X14757381Y-12770238D01*
X14766905Y-12751190D01*
X14776428Y-12741667D01*
X14795476Y-12732143D01*
X14824048Y-12732143D01*
X14843095Y-12741667D01*
X14852619Y-12751190D01*
X14862143Y-12770238D01*
X14862143Y-12827381D01*
X14852619Y-12846428D01*
X14843095Y-12855952D01*
X14824048Y-12865476D01*
X14795476Y-12865476D01*
X14976428Y-12865476D02*
X14957381Y-12855952D01*
X14947857Y-12836905D01*
X14947857Y-12665476D01*
X15128809Y-12855952D02*
X15109762Y-12865476D01*
X15071667Y-12865476D01*
X15052619Y-12855952D01*
X15043095Y-12836905D01*
X15043095Y-12760714D01*
X15052619Y-12741667D01*
X15071667Y-12732143D01*
X15109762Y-12732143D01*
X15128809Y-12741667D01*
X15138333Y-12760714D01*
X15138333Y-12779762D01*
X15043095Y-12798809D01*
X15214524Y-12855952D02*
X15233571Y-12865476D01*
X15271667Y-12865476D01*
X15290714Y-12855952D01*
X15300238Y-12836905D01*
X15300238Y-12827381D01*
X15290714Y-12808333D01*
X15271667Y-12798809D01*
X15243095Y-12798809D01*
X15224048Y-12789286D01*
X15214524Y-12770238D01*
X15214524Y-12760714D01*
X15224048Y-12741667D01*
X15243095Y-12732143D01*
X15271667Y-12732143D01*
X15290714Y-12741667D01*
X15366905Y-12941667D02*
X15376428Y-12932143D01*
X15395476Y-12903571D01*
X15405000Y-12884524D01*
X15414524Y-12855952D01*
X15424048Y-12808333D01*
X15424048Y-12770238D01*
X15414524Y-12722619D01*
X15405000Y-12694048D01*
X15395476Y-12675000D01*
X15376428Y-12646428D01*
X15366905Y-12636905D01*
X10395000Y-12939000D02*
X10595000Y-13139000D01*
X10595000Y-12939000D02*
X10395000Y-13139000D01*
X10495000Y-12939000D02*
X10495000Y-13139000D01*
X10395000Y-13039000D02*
X10595000Y-13039000D01*
X10843095Y-12948524D02*
X10852619Y-12939000D01*
X10871667Y-12929476D01*
X10919286Y-12929476D01*
X10938333Y-12939000D01*
X10947857Y-12948524D01*
X10957381Y-12967571D01*
X10957381Y-12986619D01*
X10947857Y-13015190D01*
X10833571Y-13129476D01*
X10957381Y-13129476D01*
X11043095Y-13110428D02*
X11052619Y-13119952D01*
X11043095Y-13129476D01*
X11033571Y-13119952D01*
X11043095Y-13110428D01*
X11043095Y-13129476D01*
X11128810Y-12948524D02*
X11138333Y-12939000D01*
X11157381Y-12929476D01*
X11205000Y-12929476D01*
X11224048Y-12939000D01*
X11233571Y-12948524D01*
X11243095Y-12967571D01*
X11243095Y-12986619D01*
X11233571Y-13015190D01*
X11119286Y-13129476D01*
X11243095Y-13129476D01*
X11366905Y-12929476D02*
X11385952Y-12929476D01*
X11405000Y-12939000D01*
X11414524Y-12948524D01*
X11424048Y-12967571D01*
X11433571Y-13005667D01*
X11433571Y-13053286D01*
X11424048Y-13091381D01*
X11414524Y-13110428D01*
X11405000Y-13119952D01*
X11385952Y-13129476D01*
X11366905Y-13129476D01*
X11347857Y-13119952D01*
X11338333Y-13110428D01*
X11328809Y-13091381D01*
X11319286Y-13053286D01*
X11319286Y-13005667D01*
X11328809Y-12967571D01*
X11338333Y-12948524D01*
X11347857Y-12939000D01*
X11366905Y-12929476D01*
X11557381Y-12929476D02*
X11576428Y-12929476D01*
X11595476Y-12939000D01*
X11605000Y-12948524D01*
X11614524Y-12967571D01*
X11624048Y-13005667D01*
X11624048Y-13053286D01*
X11614524Y-13091381D01*
X11605000Y-13110428D01*
X11595476Y-13119952D01*
X11576428Y-13129476D01*
X11557381Y-13129476D01*
X11538333Y-13119952D01*
X11528809Y-13110428D01*
X11519286Y-13091381D01*
X11509762Y-13053286D01*
X11509762Y-13005667D01*
X11519286Y-12967571D01*
X11528809Y-12948524D01*
X11538333Y-12939000D01*
X11557381Y-12929476D01*
X11709762Y-13129476D02*
X11709762Y-12996143D01*
X11709762Y-13015190D02*
X11719286Y-13005667D01*
X11738333Y-12996143D01*
X11766905Y-12996143D01*
X11785952Y-13005667D01*
X11795476Y-13024714D01*
X11795476Y-13129476D01*
X11795476Y-13024714D02*
X11805000Y-13005667D01*
X11824048Y-12996143D01*
X11852619Y-12996143D01*
X11871667Y-13005667D01*
X11881190Y-13024714D01*
X11881190Y-13129476D01*
X11976428Y-13129476D02*
X11976428Y-12996143D01*
X11976428Y-13015190D02*
X11985952Y-13005667D01*
X12005000Y-12996143D01*
X12033571Y-12996143D01*
X12052619Y-13005667D01*
X12062143Y-13024714D01*
X12062143Y-13129476D01*
X12062143Y-13024714D02*
X12071667Y-13005667D01*
X12090714Y-12996143D01*
X12119286Y-12996143D01*
X12138333Y-13005667D01*
X12147857Y-13024714D01*
X12147857Y-13129476D01*
X12538333Y-12919952D02*
X12366905Y-13177095D01*
X12795476Y-12929476D02*
X12814524Y-12929476D01*
X12833571Y-12939000D01*
X12843095Y-12948524D01*
X12852619Y-12967571D01*
X12862143Y-13005667D01*
X12862143Y-13053286D01*
X12852619Y-13091381D01*
X12843095Y-13110428D01*
X12833571Y-13119952D01*
X12814524Y-13129476D01*
X12795476Y-13129476D01*
X12776428Y-13119952D01*
X12766905Y-13110428D01*
X12757381Y-13091381D01*
X12747857Y-13053286D01*
X12747857Y-13005667D01*
X12757381Y-12967571D01*
X12766905Y-12948524D01*
X12776428Y-12939000D01*
X12795476Y-12929476D01*
X12947857Y-13110428D02*
X12957381Y-13119952D01*
X12947857Y-13129476D01*
X12938333Y-13119952D01*
X12947857Y-13110428D01*
X12947857Y-13129476D01*
X13081190Y-12929476D02*
X13100238Y-12929476D01*
X13119286Y-12939000D01*
X13128809Y-12948524D01*
X13138333Y-12967571D01*
X13147857Y-13005667D01*
X13147857Y-13053286D01*
X13138333Y-13091381D01*
X13128809Y-13110428D01*
X13119286Y-13119952D01*
X13100238Y-13129476D01*
X13081190Y-13129476D01*
X13062143Y-13119952D01*
X13052619Y-13110428D01*
X13043095Y-13091381D01*
X13033571Y-13053286D01*
X13033571Y-13005667D01*
X13043095Y-12967571D01*
X13052619Y-12948524D01*
X13062143Y-12939000D01*
X13081190Y-12929476D01*
X13262143Y-13015190D02*
X13243095Y-13005667D01*
X13233571Y-12996143D01*
X13224048Y-12977095D01*
X13224048Y-12967571D01*
X13233571Y-12948524D01*
X13243095Y-12939000D01*
X13262143Y-12929476D01*
X13300238Y-12929476D01*
X13319286Y-12939000D01*
X13328809Y-12948524D01*
X13338333Y-12967571D01*
X13338333Y-12977095D01*
X13328809Y-12996143D01*
X13319286Y-13005667D01*
X13300238Y-13015190D01*
X13262143Y-13015190D01*
X13243095Y-13024714D01*
X13233571Y-13034238D01*
X13224048Y-13053286D01*
X13224048Y-13091381D01*
X13233571Y-13110428D01*
X13243095Y-13119952D01*
X13262143Y-13129476D01*
X13300238Y-13129476D01*
X13319286Y-13119952D01*
X13328809Y-13110428D01*
X13338333Y-13091381D01*
X13338333Y-13053286D01*
X13328809Y-13034238D01*
X13319286Y-13024714D01*
X13300238Y-13015190D01*
X13509762Y-12929476D02*
X13471667Y-12929476D01*
X13452619Y-12939000D01*
X13443095Y-12948524D01*
X13424048Y-12977095D01*
X13414524Y-13015190D01*
X13414524Y-13091381D01*
X13424048Y-13110428D01*
X13433571Y-13119952D01*
X13452619Y-13129476D01*
X13490714Y-13129476D01*
X13509762Y-13119952D01*
X13519286Y-13110428D01*
X13528809Y-13091381D01*
X13528809Y-13043762D01*
X13519286Y-13024714D01*
X13509762Y-13015190D01*
X13490714Y-13005667D01*
X13452619Y-13005667D01*
X13433571Y-13015190D01*
X13424048Y-13024714D01*
X13414524Y-13043762D01*
X13700238Y-12929476D02*
X13662143Y-12929476D01*
X13643095Y-12939000D01*
X13633571Y-12948524D01*
X13614524Y-12977095D01*
X13605000Y-13015190D01*
X13605000Y-13091381D01*
X13614524Y-13110428D01*
X13624048Y-13119952D01*
X13643095Y-13129476D01*
X13681190Y-13129476D01*
X13700238Y-13119952D01*
X13709762Y-13110428D01*
X13719286Y-13091381D01*
X13719286Y-13043762D01*
X13709762Y-13024714D01*
X13700238Y-13015190D01*
X13681190Y-13005667D01*
X13643095Y-13005667D01*
X13624048Y-13015190D01*
X13614524Y-13024714D01*
X13605000Y-13043762D01*
X13795476Y-12929476D02*
X13795476Y-12967571D01*
X13871667Y-12929476D02*
X13871667Y-12967571D01*
X14166905Y-13205667D02*
X14157381Y-13196143D01*
X14138333Y-13167571D01*
X14128809Y-13148524D01*
X14119286Y-13119952D01*
X14109762Y-13072333D01*
X14109762Y-13034238D01*
X14119286Y-12986619D01*
X14128809Y-12958048D01*
X14138333Y-12939000D01*
X14157381Y-12910428D01*
X14166905Y-12900905D01*
X14328809Y-12996143D02*
X14328809Y-13129476D01*
X14281190Y-12919952D02*
X14233571Y-13062809D01*
X14357381Y-13062809D01*
X14585952Y-13129476D02*
X14585952Y-12929476D01*
X14671667Y-13129476D02*
X14671667Y-13024714D01*
X14662143Y-13005667D01*
X14643095Y-12996143D01*
X14614524Y-12996143D01*
X14595476Y-13005667D01*
X14585952Y-13015190D01*
X14795476Y-13129476D02*
X14776428Y-13119952D01*
X14766905Y-13110428D01*
X14757381Y-13091381D01*
X14757381Y-13034238D01*
X14766905Y-13015190D01*
X14776428Y-13005667D01*
X14795476Y-12996143D01*
X14824048Y-12996143D01*
X14843095Y-13005667D01*
X14852619Y-13015190D01*
X14862143Y-13034238D01*
X14862143Y-13091381D01*
X14852619Y-13110428D01*
X14843095Y-13119952D01*
X14824048Y-13129476D01*
X14795476Y-13129476D01*
X14976428Y-13129476D02*
X14957381Y-13119952D01*
X14947857Y-13100905D01*
X14947857Y-12929476D01*
X15128809Y-13119952D02*
X15109762Y-13129476D01*
X15071667Y-13129476D01*
X15052619Y-13119952D01*
X15043095Y-13100905D01*
X15043095Y-13024714D01*
X15052619Y-13005667D01*
X15071667Y-12996143D01*
X15109762Y-12996143D01*
X15128809Y-13005667D01*
X15138333Y-13024714D01*
X15138333Y-13043762D01*
X15043095Y-13062809D01*
X15214524Y-13119952D02*
X15233571Y-13129476D01*
X15271667Y-13129476D01*
X15290714Y-13119952D01*
X15300238Y-13100905D01*
X15300238Y-13091381D01*
X15290714Y-13072333D01*
X15271667Y-13062809D01*
X15243095Y-13062809D01*
X15224048Y-13053286D01*
X15214524Y-13034238D01*
X15214524Y-13024714D01*
X15224048Y-13005667D01*
X15243095Y-12996143D01*
X15271667Y-12996143D01*
X15290714Y-13005667D01*
X15366905Y-13205667D02*
X15376428Y-13196143D01*
X15395476Y-13167571D01*
X15405000Y-13148524D01*
X15414524Y-13119952D01*
X15424048Y-13072333D01*
X15424048Y-13034238D01*
X15414524Y-12986619D01*
X15405000Y-12958048D01*
X15395476Y-12939000D01*
X15376428Y-12910428D01*
X15366905Y-12900905D01*
M02*
