%TF.GenerationSoftware,KiCad,Pcbnew,(6.0.11)*%
%TF.CreationDate,2023-04-19T21:38:18+02:00*%
%TF.ProjectId,FringeLocker,4672696e-6765-44c6-9f63-6b65722e6b69,0.1*%
%TF.SameCoordinates,Original*%
%TF.FileFunction,Copper,L1,Top*%
%TF.FilePolarity,Positive*%
%FSLAX46Y46*%
G04 Gerber Fmt 4.6, Leading zero omitted, Abs format (unit mm)*
G04 Created by KiCad (PCBNEW (6.0.11)) date 2023-04-19 21:38:18*
%MOMM*%
%LPD*%
G01*
G04 APERTURE LIST*
G04 Aperture macros list*
%AMRoundRect*
0 Rectangle with rounded corners*
0 $1 Rounding radius*
0 $2 $3 $4 $5 $6 $7 $8 $9 X,Y pos of 4 corners*
0 Add a 4 corners polygon primitive as box body*
4,1,4,$2,$3,$4,$5,$6,$7,$8,$9,$2,$3,0*
0 Add four circle primitives for the rounded corners*
1,1,$1+$1,$2,$3*
1,1,$1+$1,$4,$5*
1,1,$1+$1,$6,$7*
1,1,$1+$1,$8,$9*
0 Add four rect primitives between the rounded corners*
20,1,$1+$1,$2,$3,$4,$5,0*
20,1,$1+$1,$4,$5,$6,$7,0*
20,1,$1+$1,$6,$7,$8,$9,0*
20,1,$1+$1,$8,$9,$2,$3,0*%
G04 Aperture macros list end*
%TA.AperFunction,SMDPad,CuDef*%
%ADD10RoundRect,0.250000X1.100000X-0.412500X1.100000X0.412500X-1.100000X0.412500X-1.100000X-0.412500X0*%
%TD*%
%TA.AperFunction,SMDPad,CuDef*%
%ADD11RoundRect,0.250000X0.412500X1.100000X-0.412500X1.100000X-0.412500X-1.100000X0.412500X-1.100000X0*%
%TD*%
%TA.AperFunction,SMDPad,CuDef*%
%ADD12RoundRect,0.250000X-0.450000X0.325000X-0.450000X-0.325000X0.450000X-0.325000X0.450000X0.325000X0*%
%TD*%
%TA.AperFunction,ComponentPad*%
%ADD13C,1.000000*%
%TD*%
%TA.AperFunction,ComponentPad*%
%ADD14C,3.800000*%
%TD*%
%TA.AperFunction,ComponentPad*%
%ADD15C,1.524000*%
%TD*%
%TA.AperFunction,ComponentPad*%
%ADD16R,1.700000X1.700000*%
%TD*%
%TA.AperFunction,ComponentPad*%
%ADD17O,1.700000X1.700000*%
%TD*%
%TA.AperFunction,ComponentPad*%
%ADD18C,1.440000*%
%TD*%
%TA.AperFunction,SMDPad,CuDef*%
%ADD19RoundRect,0.150000X-0.837500X-0.150000X0.837500X-0.150000X0.837500X0.150000X-0.837500X0.150000X0*%
%TD*%
%TA.AperFunction,SMDPad,CuDef*%
%ADD20R,1.780000X2.000000*%
%TD*%
%TA.AperFunction,SMDPad,CuDef*%
%ADD21R,1.750000X2.000000*%
%TD*%
%TA.AperFunction,SMDPad,CuDef*%
%ADD22R,1.620000X2.000000*%
%TD*%
%TA.AperFunction,SMDPad,CuDef*%
%ADD23R,1.700000X2.000000*%
%TD*%
%TA.AperFunction,ComponentPad*%
%ADD24RoundRect,0.249200X0.600800X0.450800X-0.600800X0.450800X-0.600800X-0.450800X0.600800X-0.450800X0*%
%TD*%
%TA.AperFunction,ComponentPad*%
%ADD25O,1.700000X1.400000*%
%TD*%
%TA.AperFunction,ViaPad*%
%ADD26C,0.800000*%
%TD*%
%TA.AperFunction,Conductor*%
%ADD27C,0.250000*%
%TD*%
G04 APERTURE END LIST*
D10*
%TO.P,C3,1*%
%TO.N,Net-(C3-Pad1)*%
X161036000Y-82804000D03*
%TO.P,C3,2*%
%TO.N,Net-(C3-Pad2)*%
X161036000Y-79679000D03*
%TD*%
D11*
%TO.P,C2,1*%
%TO.N,Net-(C2-Pad1)*%
X148082000Y-89662000D03*
%TO.P,C2,2*%
%TO.N,GND*%
X144957000Y-89662000D03*
%TD*%
D12*
%TO.P,D3,1,K*%
%TO.N,GND*%
X151638000Y-104131000D03*
%TO.P,D3,2,A*%
%TO.N,Net-(D3-Pad2)*%
X151638000Y-106181000D03*
%TD*%
D13*
%TO.P,TP1,1,1*%
%TO.N,Net-(J1-Pad1)*%
X140716000Y-87376000D03*
%TD*%
%TO.P,TP3,1,1*%
%TO.N,Net-(C1-Pad2)*%
X147320000Y-63500000D03*
%TD*%
D14*
%TO.P,REF3,1*%
%TO.N,GND*%
X164500000Y-104500000D03*
%TD*%
D15*
%TO.P,RV3,1,A*%
%TO.N,Net-(C2-Pad1)*%
X154495500Y-97853500D03*
%TO.P,RV3,2,B*%
X154495500Y-95313500D03*
%TO.P,RV3,3,C*%
%TO.N,Net-(R7-Pad2)*%
X154495500Y-92773500D03*
%TO.P,RV3,4,D*%
%TO.N,Net-(R8-Pad2)*%
X162115500Y-97853500D03*
%TO.P,RV3,5,E*%
X162115500Y-95313500D03*
%TO.P,RV3,6,F*%
%TO.N,Net-(C3-Pad1)*%
X162115500Y-92773500D03*
%TD*%
D16*
%TO.P,J2,1,Pin_1*%
%TO.N,Net-(C1-Pad1)*%
X152400000Y-60960000D03*
D17*
%TO.P,J2,2,Pin_2*%
%TO.N,GND*%
X152400000Y-63500000D03*
%TD*%
D18*
%TO.P,RV2,1,1*%
%TO.N,-15V*%
X152400000Y-70600000D03*
%TO.P,RV2,2,2*%
%TO.N,Net-(R5-Pad1)*%
X149860000Y-73140000D03*
%TO.P,RV2,3,3*%
%TO.N,+15V*%
X147320000Y-70600000D03*
%TD*%
D19*
%TO.P,U1,1*%
%TO.N,Net-(C1-Pad1)*%
X133697500Y-67310000D03*
%TO.P,U1,2,-*%
%TO.N,Net-(C1-Pad2)*%
X133697500Y-68580000D03*
%TO.P,U1,3,+*%
%TO.N,GND*%
X133697500Y-69850000D03*
%TO.P,U1,4,V+*%
%TO.N,+15V*%
X133697500Y-71120000D03*
%TO.P,U1,5,+*%
%TO.N,GND*%
X133697500Y-72390000D03*
%TO.P,U1,6,-*%
%TO.N,Net-(R2-Pad1)*%
X133697500Y-73660000D03*
%TO.P,U1,7*%
%TO.N,Net-(R2-Pad2)*%
X133697500Y-74930000D03*
%TO.P,U1,8*%
%TO.N,Net-(J1-Pad2)*%
X140622500Y-74930000D03*
%TO.P,U1,9,-*%
%TO.N,Net-(R3-Pad1)*%
X140622500Y-73660000D03*
%TO.P,U1,10,+*%
%TO.N,GND*%
X140622500Y-72390000D03*
%TO.P,U1,11,V-*%
%TO.N,-15V*%
X140622500Y-71120000D03*
%TO.P,U1,12,+*%
%TO.N,GND*%
X140622500Y-69850000D03*
%TO.P,U1,13,-*%
%TO.N,Net-(R11-Pad2)*%
X140622500Y-68580000D03*
%TO.P,U1,14*%
%TO.N,Net-(R8-Pad1)*%
X140622500Y-67310000D03*
%TD*%
D16*
%TO.P,J1,1,Pin_1*%
%TO.N,Net-(J1-Pad1)*%
X139095000Y-81160000D03*
D17*
%TO.P,J1,2,Pin_2*%
%TO.N,Net-(J1-Pad2)*%
X136555000Y-81160000D03*
%TD*%
D20*
%TO.P,SW1,1,A*%
%TO.N,unconnected-(SW1-Pad1)*%
X132842000Y-94060000D03*
D21*
%TO.P,SW1,2,B*%
%TO.N,Net-(J3-Pad1)*%
X130342000Y-94060000D03*
D22*
%TO.P,SW1,3,C*%
%TO.N,+15V*%
X127842000Y-94060000D03*
D23*
%TO.P,SW1,4,A*%
%TO.N,unconnected-(SW1-Pad4)*%
X132842000Y-104060000D03*
D20*
%TO.P,SW1,5,B*%
%TO.N,Net-(J3-Pad3)*%
X130342000Y-104060000D03*
%TO.P,SW1,6,C*%
%TO.N,-15V*%
X127842000Y-104060000D03*
%TD*%
D14*
%TO.P,REF2,1*%
%TO.N,GND*%
X164500000Y-56500000D03*
%TD*%
D19*
%TO.P,U2,1*%
%TO.N,Net-(C3-Pad2)*%
X146397500Y-77470000D03*
%TO.P,U2,2,-*%
X146397500Y-78740000D03*
%TO.P,U2,3,+*%
%TO.N,Net-(C2-Pad1)*%
X146397500Y-80010000D03*
%TO.P,U2,4,V+*%
%TO.N,+15V*%
X146397500Y-81280000D03*
%TO.P,U2,5,+*%
%TO.N,unconnected-(U2-Pad5)*%
X146397500Y-82550000D03*
%TO.P,U2,6,-*%
%TO.N,unconnected-(U2-Pad6)*%
X146397500Y-83820000D03*
%TO.P,U2,7*%
%TO.N,unconnected-(U2-Pad7)*%
X146397500Y-85090000D03*
%TO.P,U2,8*%
%TO.N,unconnected-(U2-Pad8)*%
X153322500Y-85090000D03*
%TO.P,U2,9,-*%
%TO.N,unconnected-(U2-Pad9)*%
X153322500Y-83820000D03*
%TO.P,U2,10,+*%
%TO.N,unconnected-(U2-Pad10)*%
X153322500Y-82550000D03*
%TO.P,U2,11,V-*%
%TO.N,-15V*%
X153322500Y-81280000D03*
%TO.P,U2,12,+*%
%TO.N,unconnected-(U2-Pad12)*%
X153322500Y-80010000D03*
%TO.P,U2,13,-*%
%TO.N,unconnected-(U2-Pad13)*%
X153322500Y-78740000D03*
%TO.P,U2,14*%
%TO.N,unconnected-(U2-Pad14)*%
X153322500Y-77470000D03*
%TD*%
D14*
%TO.P,REF1,1*%
%TO.N,GND*%
X109500000Y-56500000D03*
%TD*%
D18*
%TO.P,RV4,1,1*%
%TO.N,Net-(R11-Pad1)*%
X117856000Y-83058000D03*
%TO.P,RV4,2,2*%
X115316000Y-80518000D03*
%TO.P,RV4,3,3*%
%TO.N,Net-(R2-Pad2)*%
X117856000Y-77978000D03*
%TD*%
D14*
%TO.P,REF4,1*%
%TO.N,GND*%
X109500000Y-104500000D03*
%TD*%
D15*
%TO.P,RV1,1,1*%
%TO.N,Net-(C1-Pad1)*%
X116840000Y-66040000D03*
%TO.P,RV1,2,2*%
X119380000Y-60960000D03*
%TO.P,RV1,3,3*%
%TO.N,Net-(R4-Pad1)*%
X121920000Y-66040000D03*
%TD*%
D13*
%TO.P,TP2,1,1*%
%TO.N,Net-(J1-Pad2)*%
X135128000Y-87376000D03*
%TD*%
D16*
%TO.P,J3,1,Pin_1*%
%TO.N,Net-(J3-Pad1)*%
X140970000Y-98806000D03*
D17*
%TO.P,J3,2,Pin_2*%
%TO.N,GND*%
X140970000Y-101346000D03*
%TO.P,J3,3,Pin_3*%
%TO.N,Net-(J3-Pad3)*%
X140970000Y-103886000D03*
%TD*%
D24*
%TO.P,D1,1,K*%
%TO.N,+15V*%
X136790000Y-57830000D03*
D25*
%TO.P,D1,2,A*%
%TO.N,Net-(C1-Pad2)*%
X131710000Y-57830000D03*
%TD*%
D24*
%TO.P,D2,1,K*%
%TO.N,Net-(C1-Pad2)*%
X144410000Y-57830000D03*
D25*
%TO.P,D2,2,A*%
%TO.N,-15V*%
X139330000Y-57830000D03*
%TD*%
D26*
%TO.N,Net-(D3-Pad2)*%
X134990000Y-99598700D03*
%TO.N,Net-(R11-Pad2)*%
X138577000Y-69992300D03*
%TO.N,Net-(R8-Pad1)*%
X137644000Y-71496800D03*
%TO.N,-15V*%
X129961000Y-102408000D03*
%TO.N,+15V*%
X130800000Y-97677400D03*
%TO.N,Net-(C3-Pad2)*%
X148110000Y-79118500D03*
%TO.N,Net-(R3-Pad1)*%
X138597000Y-73660000D03*
%TO.N,Net-(R2-Pad1)*%
X127368000Y-73672600D03*
%TO.N,GND*%
X156210000Y-95504000D03*
X139192000Y-64008000D03*
X133858000Y-63500000D03*
X131826000Y-84328000D03*
%TD*%
D27*
%TO.N,Net-(J3-Pad3)*%
X131607300Y-102873800D02*
X131607300Y-104060000D01*
X131796500Y-102684600D02*
X131607300Y-102873800D01*
X138543300Y-102684600D02*
X131796500Y-102684600D01*
X139744700Y-103886000D02*
X138543300Y-102684600D01*
X140970000Y-103886000D02*
X139744700Y-103886000D01*
X130342000Y-104060000D02*
X131607300Y-104060000D01*
%TO.N,Net-(J3-Pad1)*%
X135088000Y-98806000D02*
X130342000Y-94060000D01*
X140970000Y-98806000D02*
X135088000Y-98806000D01*
%TO.N,Net-(D3-Pad2)*%
X145488400Y-100031400D02*
X151638000Y-106181000D01*
X135422700Y-100031400D02*
X145488400Y-100031400D01*
X134990000Y-99598700D02*
X135422700Y-100031400D01*
%TO.N,Net-(C2-Pad1)*%
X148082000Y-81214200D02*
X148082000Y-89662000D01*
X146877800Y-80010000D02*
X148082000Y-81214200D01*
X146397500Y-80010000D02*
X146877800Y-80010000D01*
X154495500Y-95313500D02*
X154495500Y-97853500D01*
X153733500Y-95313500D02*
X148082000Y-89662000D01*
X154495500Y-95313500D02*
X153733500Y-95313500D01*
%TO.N,Net-(R11-Pad1)*%
X115316000Y-80518000D02*
X117856000Y-83058000D01*
%TO.N,Net-(R11-Pad2)*%
X139989300Y-68580000D02*
X140622500Y-68580000D01*
X138577000Y-69992300D02*
X139989300Y-68580000D01*
%TO.N,Net-(R8-Pad1)*%
X140099700Y-67310000D02*
X140622500Y-67310000D01*
X137644000Y-69765700D02*
X140099700Y-67310000D01*
X137644000Y-71496800D02*
X137644000Y-69765700D01*
%TO.N,Net-(C3-Pad1)*%
X162115500Y-83883500D02*
X161036000Y-82804000D01*
X162115500Y-92773500D02*
X162115500Y-83883500D01*
%TO.N,Net-(C1-Pad1)*%
X152400000Y-60960000D02*
X151174700Y-60960000D01*
X146422000Y-56207300D02*
X151174700Y-60960000D01*
X131524700Y-56207300D02*
X146422000Y-56207300D01*
X127347500Y-60384500D02*
X131524700Y-56207300D01*
X127347500Y-60960000D02*
X127347500Y-60384500D01*
X119380000Y-60960000D02*
X127347500Y-60960000D01*
X127347500Y-60960000D02*
X133697500Y-67310000D01*
%TO.N,-15V*%
X139330000Y-57830000D02*
X139330000Y-58905300D01*
X143360700Y-62936000D02*
X139330000Y-58905300D01*
X143360700Y-68908300D02*
X143360700Y-62936000D01*
X141149000Y-71120000D02*
X140622500Y-71120000D01*
X143360700Y-68908300D02*
X141149000Y-71120000D01*
X126656600Y-99570600D02*
X129494000Y-102408000D01*
X126656600Y-84434600D02*
X126656600Y-99570600D01*
X139971200Y-71120000D02*
X126656600Y-84434600D01*
X140622500Y-71120000D02*
X139971200Y-71120000D01*
X129961000Y-102408000D02*
X129494000Y-102408000D01*
X129494000Y-102408000D02*
X127842000Y-104060000D01*
X152774800Y-81280000D02*
X153322500Y-81280000D01*
X151924200Y-80429400D02*
X152774800Y-81280000D01*
X151924200Y-70600000D02*
X151924200Y-80429400D01*
X152400000Y-70600000D02*
X151924200Y-70600000D01*
X150232500Y-68908300D02*
X143360700Y-68908300D01*
X151924200Y-70600000D02*
X150232500Y-68908300D01*
%TO.N,+15V*%
X144989200Y-72930800D02*
X147320000Y-70600000D01*
X144989200Y-81280000D02*
X144989200Y-72930800D01*
X137566000Y-88703200D02*
X144989200Y-81280000D01*
X133272900Y-88703200D02*
X137566000Y-88703200D01*
X129027300Y-92948800D02*
X133272900Y-88703200D01*
X129027300Y-94060000D02*
X129027300Y-92948800D01*
X144989200Y-81280000D02*
X146397500Y-81280000D01*
X127842000Y-94060000D02*
X129027300Y-94060000D01*
X129027300Y-95904700D02*
X129027300Y-94060000D01*
X130800000Y-97677400D02*
X129027300Y-95904700D01*
X134226900Y-71120000D02*
X133697500Y-71120000D01*
X136790000Y-68556900D02*
X134226900Y-71120000D01*
X136790000Y-57830000D02*
X136790000Y-68556900D01*
%TO.N,Net-(C1-Pad2)*%
X143331400Y-56751400D02*
X144410000Y-57830000D01*
X131713300Y-56751400D02*
X143331400Y-56751400D01*
X131710000Y-56754700D02*
X131713300Y-56751400D01*
X131710000Y-57830000D02*
X131710000Y-57292300D01*
X131710000Y-57292300D02*
X131710000Y-56754700D01*
X134185300Y-68580000D02*
X133697500Y-68580000D01*
X135114600Y-67650700D02*
X134185300Y-68580000D01*
X135114600Y-60696900D02*
X135114600Y-67650700D01*
X131710000Y-57292300D02*
X135114600Y-60696900D01*
%TO.N,Net-(J1-Pad2)*%
X136555000Y-78997500D02*
X136555000Y-81160000D01*
X140622500Y-74930000D02*
X136555000Y-78997500D01*
%TO.N,Net-(C3-Pad2)*%
X146397500Y-77470000D02*
X146397500Y-78740000D01*
X146776000Y-79118500D02*
X148110000Y-79118500D01*
X146397500Y-78740000D02*
X146776000Y-79118500D01*
X154942800Y-85772200D02*
X161036000Y-79679000D01*
X152258500Y-85772200D02*
X154942800Y-85772200D01*
X151078300Y-84592000D02*
X152258500Y-85772200D01*
X151078300Y-82086800D02*
X151078300Y-84592000D01*
X148110000Y-79118500D02*
X151078300Y-82086800D01*
%TO.N,Net-(R3-Pad1)*%
X138597000Y-73660000D02*
X140622500Y-73660000D01*
%TO.N,Net-(R2-Pad1)*%
X127380600Y-73660000D02*
X127368000Y-73672600D01*
X133697500Y-73660000D02*
X127380600Y-73660000D01*
%TO.N,Net-(R2-Pad2)*%
X130649500Y-77978000D02*
X133697500Y-74930000D01*
X117856000Y-77978000D02*
X130649500Y-77978000D01*
%TD*%
%TA.AperFunction,Conductor*%
%TO.N,GND*%
G36*
X167683621Y-53678502D02*
G01*
X167730114Y-53732158D01*
X167741500Y-53784500D01*
X167741500Y-107465500D01*
X167721498Y-107533621D01*
X167667842Y-107580114D01*
X167615500Y-107591500D01*
X106634500Y-107591500D01*
X106566379Y-107571498D01*
X106519886Y-107517842D01*
X106508500Y-107465500D01*
X106508500Y-106374394D01*
X107990314Y-106374394D01*
X107999143Y-106386014D01*
X108203970Y-106534830D01*
X108210650Y-106539070D01*
X108469234Y-106681228D01*
X108476369Y-106684585D01*
X108750746Y-106793219D01*
X108758237Y-106795653D01*
X109044059Y-106869039D01*
X109051830Y-106870521D01*
X109344570Y-106907503D01*
X109352460Y-106908000D01*
X109647540Y-106908000D01*
X109655430Y-106907503D01*
X109948170Y-106870521D01*
X109955941Y-106869039D01*
X110241763Y-106795653D01*
X110249254Y-106793219D01*
X110523631Y-106684585D01*
X110530766Y-106681228D01*
X110789350Y-106539070D01*
X110796030Y-106534830D01*
X111001230Y-106385744D01*
X111009653Y-106374821D01*
X111002749Y-106361960D01*
X109512810Y-104872020D01*
X109498869Y-104864408D01*
X109497034Y-104864539D01*
X109490420Y-104868790D01*
X107996927Y-106362284D01*
X107990314Y-106374394D01*
X106508500Y-106374394D01*
X106508500Y-104503958D01*
X107087488Y-104503958D01*
X107106015Y-104798436D01*
X107107008Y-104806297D01*
X107162296Y-105096128D01*
X107164267Y-105103805D01*
X107255446Y-105384424D01*
X107258361Y-105391787D01*
X107383993Y-105658770D01*
X107387805Y-105665703D01*
X107545909Y-105914835D01*
X107550563Y-105921241D01*
X107615521Y-105999761D01*
X107628040Y-106008217D01*
X107638778Y-106002011D01*
X109127980Y-104512810D01*
X109134357Y-104501131D01*
X109864408Y-104501131D01*
X109864539Y-104502966D01*
X109868790Y-104509580D01*
X111360119Y-106000908D01*
X111373381Y-106008150D01*
X111383485Y-106000962D01*
X111449437Y-105921241D01*
X111454091Y-105914835D01*
X111612195Y-105665703D01*
X111616007Y-105658770D01*
X111741639Y-105391787D01*
X111744554Y-105384424D01*
X111835733Y-105103805D01*
X111837704Y-105096128D01*
X111892992Y-104806297D01*
X111893985Y-104798436D01*
X111912512Y-104503958D01*
X111912512Y-104496042D01*
X111893985Y-104201564D01*
X111892992Y-104193703D01*
X111837704Y-103903872D01*
X111835733Y-103896195D01*
X111744554Y-103615576D01*
X111741639Y-103608213D01*
X111616007Y-103341230D01*
X111612195Y-103334297D01*
X111454091Y-103085165D01*
X111449437Y-103078759D01*
X111384479Y-103000239D01*
X111371960Y-102991783D01*
X111361222Y-102997989D01*
X109872020Y-104487190D01*
X109864408Y-104501131D01*
X109134357Y-104501131D01*
X109135592Y-104498869D01*
X109135461Y-104497034D01*
X109131210Y-104490420D01*
X107639881Y-102999092D01*
X107626619Y-102991850D01*
X107616515Y-102999038D01*
X107550563Y-103078759D01*
X107545909Y-103085165D01*
X107387805Y-103334297D01*
X107383993Y-103341230D01*
X107258361Y-103608213D01*
X107255446Y-103615576D01*
X107164267Y-103896195D01*
X107162296Y-103903872D01*
X107107008Y-104193703D01*
X107106015Y-104201564D01*
X107087488Y-104496042D01*
X107087488Y-104503958D01*
X106508500Y-104503958D01*
X106508500Y-102625179D01*
X107990347Y-102625179D01*
X107997251Y-102638040D01*
X109487190Y-104127980D01*
X109501131Y-104135592D01*
X109502966Y-104135461D01*
X109509580Y-104131210D01*
X111003073Y-102637716D01*
X111009686Y-102625606D01*
X111000857Y-102613986D01*
X110796030Y-102465170D01*
X110789350Y-102460930D01*
X110530766Y-102318772D01*
X110523631Y-102315415D01*
X110249254Y-102206781D01*
X110241763Y-102204347D01*
X109955941Y-102130961D01*
X109948170Y-102129479D01*
X109655430Y-102092497D01*
X109647540Y-102092000D01*
X109352460Y-102092000D01*
X109344570Y-102092497D01*
X109051830Y-102129479D01*
X109044059Y-102130961D01*
X108758237Y-102204347D01*
X108750746Y-102206781D01*
X108476369Y-102315415D01*
X108469234Y-102318772D01*
X108210650Y-102460930D01*
X108203970Y-102465170D01*
X107998770Y-102614256D01*
X107990347Y-102625179D01*
X106508500Y-102625179D01*
X106508500Y-80518000D01*
X114082807Y-80518000D01*
X114101542Y-80732142D01*
X114102966Y-80737455D01*
X114102966Y-80737457D01*
X114148284Y-80906583D01*
X114157178Y-80939777D01*
X114159500Y-80944757D01*
X114159501Y-80944759D01*
X114244340Y-81126695D01*
X114248024Y-81134596D01*
X114371319Y-81310681D01*
X114523319Y-81462681D01*
X114699403Y-81585976D01*
X114704381Y-81588297D01*
X114704384Y-81588299D01*
X114849797Y-81656106D01*
X114894223Y-81676822D01*
X114899531Y-81678244D01*
X114899533Y-81678245D01*
X115096543Y-81731034D01*
X115096545Y-81731034D01*
X115101858Y-81732458D01*
X115316000Y-81751193D01*
X115530142Y-81732458D01*
X115536004Y-81730887D01*
X115542224Y-81729221D01*
X115613200Y-81730911D01*
X115663929Y-81761833D01*
X116612167Y-82710071D01*
X116646193Y-82772383D01*
X116644779Y-82831776D01*
X116641542Y-82843858D01*
X116622807Y-83058000D01*
X116641542Y-83272142D01*
X116642966Y-83277455D01*
X116642966Y-83277457D01*
X116668478Y-83372666D01*
X116697178Y-83479777D01*
X116699500Y-83484757D01*
X116699501Y-83484759D01*
X116728374Y-83546676D01*
X116788024Y-83674596D01*
X116911319Y-83850681D01*
X117063319Y-84002681D01*
X117239403Y-84125976D01*
X117244381Y-84128297D01*
X117244384Y-84128299D01*
X117413623Y-84207216D01*
X117434223Y-84216822D01*
X117439531Y-84218244D01*
X117439533Y-84218245D01*
X117636543Y-84271034D01*
X117636545Y-84271034D01*
X117641858Y-84272458D01*
X117856000Y-84291193D01*
X118070142Y-84272458D01*
X118075455Y-84271034D01*
X118075457Y-84271034D01*
X118272467Y-84218245D01*
X118272469Y-84218244D01*
X118277777Y-84216822D01*
X118298377Y-84207216D01*
X118467616Y-84128299D01*
X118467619Y-84128297D01*
X118472597Y-84125976D01*
X118648681Y-84002681D01*
X118800681Y-83850681D01*
X118923976Y-83674596D01*
X118983627Y-83546676D01*
X119012499Y-83484759D01*
X119012500Y-83484757D01*
X119014822Y-83479777D01*
X119043523Y-83372666D01*
X119069034Y-83277457D01*
X119069034Y-83277455D01*
X119070458Y-83272142D01*
X119089193Y-83058000D01*
X119070458Y-82843858D01*
X119051306Y-82772383D01*
X119016245Y-82641533D01*
X119016244Y-82641531D01*
X119014822Y-82636223D01*
X119004680Y-82614474D01*
X118926299Y-82446385D01*
X118926297Y-82446382D01*
X118923976Y-82441404D01*
X118800681Y-82265319D01*
X118648681Y-82113319D01*
X118472597Y-81990024D01*
X118467619Y-81987703D01*
X118467616Y-81987701D01*
X118282759Y-81901501D01*
X118282758Y-81901500D01*
X118277777Y-81899178D01*
X118272469Y-81897756D01*
X118272467Y-81897755D01*
X118075457Y-81844966D01*
X118075455Y-81844966D01*
X118070142Y-81843542D01*
X117856000Y-81824807D01*
X117641858Y-81843542D01*
X117632818Y-81845964D01*
X117629773Y-81846780D01*
X117558797Y-81845087D01*
X117508072Y-81814167D01*
X116559833Y-80865928D01*
X116525807Y-80803616D01*
X116527220Y-80744227D01*
X116529033Y-80737459D01*
X116530458Y-80732142D01*
X116549193Y-80518000D01*
X116530458Y-80303858D01*
X116519733Y-80263831D01*
X116476245Y-80101533D01*
X116476244Y-80101531D01*
X116474822Y-80096223D01*
X116463388Y-80071703D01*
X116386299Y-79906385D01*
X116386297Y-79906382D01*
X116383976Y-79901404D01*
X116260681Y-79725319D01*
X116108681Y-79573319D01*
X115932597Y-79450024D01*
X115927619Y-79447703D01*
X115927616Y-79447701D01*
X115742759Y-79361501D01*
X115742758Y-79361500D01*
X115737777Y-79359178D01*
X115732469Y-79357756D01*
X115732467Y-79357755D01*
X115535457Y-79304966D01*
X115535455Y-79304966D01*
X115530142Y-79303542D01*
X115316000Y-79284807D01*
X115101858Y-79303542D01*
X115096545Y-79304966D01*
X115096543Y-79304966D01*
X114899533Y-79357755D01*
X114899531Y-79357756D01*
X114894223Y-79359178D01*
X114889243Y-79361500D01*
X114889241Y-79361501D01*
X114704385Y-79447701D01*
X114704382Y-79447703D01*
X114699404Y-79450024D01*
X114523319Y-79573319D01*
X114371319Y-79725319D01*
X114248024Y-79901404D01*
X114245703Y-79906382D01*
X114245701Y-79906385D01*
X114168612Y-80071703D01*
X114157178Y-80096223D01*
X114155756Y-80101531D01*
X114155755Y-80101533D01*
X114112267Y-80263831D01*
X114101542Y-80303858D01*
X114082807Y-80518000D01*
X106508500Y-80518000D01*
X106508500Y-77978000D01*
X116622807Y-77978000D01*
X116641542Y-78192142D01*
X116642966Y-78197455D01*
X116642966Y-78197457D01*
X116678820Y-78331263D01*
X116697178Y-78399777D01*
X116699500Y-78404757D01*
X116699501Y-78404759D01*
X116784610Y-78587274D01*
X116788024Y-78594596D01*
X116911319Y-78770681D01*
X117063319Y-78922681D01*
X117239403Y-79045976D01*
X117244381Y-79048297D01*
X117244384Y-79048299D01*
X117429241Y-79134499D01*
X117434223Y-79136822D01*
X117439531Y-79138244D01*
X117439533Y-79138245D01*
X117636543Y-79191034D01*
X117636545Y-79191034D01*
X117641858Y-79192458D01*
X117856000Y-79211193D01*
X118070142Y-79192458D01*
X118075455Y-79191034D01*
X118075457Y-79191034D01*
X118272467Y-79138245D01*
X118272469Y-79138244D01*
X118277777Y-79136822D01*
X118282759Y-79134499D01*
X118467616Y-79048299D01*
X118467619Y-79048297D01*
X118472597Y-79045976D01*
X118648681Y-78922681D01*
X118800681Y-78770681D01*
X118874518Y-78665230D01*
X118929975Y-78620901D01*
X118977731Y-78611500D01*
X130570733Y-78611500D01*
X130581916Y-78612027D01*
X130589409Y-78613702D01*
X130597335Y-78613453D01*
X130597336Y-78613453D01*
X130657486Y-78611562D01*
X130661445Y-78611500D01*
X130689356Y-78611500D01*
X130693291Y-78611003D01*
X130693356Y-78610995D01*
X130705193Y-78610062D01*
X130737451Y-78609048D01*
X130741470Y-78608922D01*
X130749389Y-78608673D01*
X130768843Y-78603021D01*
X130788200Y-78599013D01*
X130800430Y-78597468D01*
X130800431Y-78597468D01*
X130808297Y-78596474D01*
X130815668Y-78593555D01*
X130815670Y-78593555D01*
X130849412Y-78580196D01*
X130860642Y-78576351D01*
X130895483Y-78566229D01*
X130895484Y-78566229D01*
X130903093Y-78564018D01*
X130909912Y-78559985D01*
X130909917Y-78559983D01*
X130920528Y-78553707D01*
X130938276Y-78545012D01*
X130957117Y-78537552D01*
X130979842Y-78521042D01*
X130992887Y-78511564D01*
X131002807Y-78505048D01*
X131034035Y-78486580D01*
X131034038Y-78486578D01*
X131040862Y-78482542D01*
X131055183Y-78468221D01*
X131070217Y-78455380D01*
X131080194Y-78448131D01*
X131086607Y-78443472D01*
X131114798Y-78409395D01*
X131122788Y-78400616D01*
X133748000Y-75775405D01*
X133810312Y-75741379D01*
X133837095Y-75738500D01*
X134152606Y-75738500D01*
X134220727Y-75758502D01*
X134267220Y-75812158D01*
X134277324Y-75882432D01*
X134247830Y-75947012D01*
X134241701Y-75953595D01*
X130251905Y-79943390D01*
X126264347Y-83930948D01*
X126256061Y-83938488D01*
X126249582Y-83942600D01*
X126244157Y-83948377D01*
X126202957Y-83992251D01*
X126200202Y-83995093D01*
X126180465Y-84014830D01*
X126177985Y-84018027D01*
X126170282Y-84027047D01*
X126140014Y-84059279D01*
X126136195Y-84066225D01*
X126136193Y-84066228D01*
X126130252Y-84077034D01*
X126119401Y-84093553D01*
X126106986Y-84109559D01*
X126103841Y-84116828D01*
X126103838Y-84116832D01*
X126089426Y-84150137D01*
X126084209Y-84160787D01*
X126062905Y-84199540D01*
X126060934Y-84207215D01*
X126060934Y-84207216D01*
X126057867Y-84219162D01*
X126051463Y-84237866D01*
X126043419Y-84256455D01*
X126042180Y-84264278D01*
X126042177Y-84264288D01*
X126036501Y-84300124D01*
X126034095Y-84311744D01*
X126023100Y-84354570D01*
X126023100Y-84374824D01*
X126021549Y-84394534D01*
X126018380Y-84414543D01*
X126019126Y-84422435D01*
X126022541Y-84458561D01*
X126023100Y-84470419D01*
X126023100Y-99491833D01*
X126022573Y-99503016D01*
X126020898Y-99510509D01*
X126021147Y-99518435D01*
X126021147Y-99518436D01*
X126023038Y-99578586D01*
X126023100Y-99582545D01*
X126023100Y-99610456D01*
X126023597Y-99614390D01*
X126023597Y-99614391D01*
X126023605Y-99614456D01*
X126024538Y-99626293D01*
X126025927Y-99670489D01*
X126031578Y-99689939D01*
X126035587Y-99709300D01*
X126038126Y-99729397D01*
X126041045Y-99736768D01*
X126041045Y-99736770D01*
X126054404Y-99770512D01*
X126058249Y-99781742D01*
X126068371Y-99816583D01*
X126070582Y-99824193D01*
X126074615Y-99831012D01*
X126074617Y-99831017D01*
X126080893Y-99841628D01*
X126089588Y-99859376D01*
X126097048Y-99878217D01*
X126101710Y-99884633D01*
X126101710Y-99884634D01*
X126123036Y-99913987D01*
X126129552Y-99923907D01*
X126152058Y-99961962D01*
X126166379Y-99976283D01*
X126179219Y-99991316D01*
X126191128Y-100007707D01*
X126197234Y-100012758D01*
X126225205Y-100035898D01*
X126233984Y-100043888D01*
X128509001Y-102318905D01*
X128543027Y-102381217D01*
X128537962Y-102452032D01*
X128509001Y-102497095D01*
X128491501Y-102514595D01*
X128429189Y-102548621D01*
X128402406Y-102551500D01*
X126903866Y-102551500D01*
X126841684Y-102558255D01*
X126705295Y-102609385D01*
X126588739Y-102696739D01*
X126501385Y-102813295D01*
X126450255Y-102949684D01*
X126443500Y-103011866D01*
X126443500Y-105108134D01*
X126450255Y-105170316D01*
X126501385Y-105306705D01*
X126588739Y-105423261D01*
X126705295Y-105510615D01*
X126841684Y-105561745D01*
X126903866Y-105568500D01*
X128780134Y-105568500D01*
X128842316Y-105561745D01*
X128978705Y-105510615D01*
X129016435Y-105482338D01*
X129082942Y-105457490D01*
X129152324Y-105472543D01*
X129167565Y-105482338D01*
X129205295Y-105510615D01*
X129341684Y-105561745D01*
X129403866Y-105568500D01*
X131280134Y-105568500D01*
X131342316Y-105561745D01*
X131478705Y-105510615D01*
X131529505Y-105472543D01*
X131536435Y-105467349D01*
X131602942Y-105442501D01*
X131672324Y-105457554D01*
X131687565Y-105467349D01*
X131694496Y-105472543D01*
X131745295Y-105510615D01*
X131881684Y-105561745D01*
X131943866Y-105568500D01*
X133740134Y-105568500D01*
X133802316Y-105561745D01*
X133938705Y-105510615D01*
X134055261Y-105423261D01*
X134142615Y-105306705D01*
X134193745Y-105170316D01*
X134200500Y-105108134D01*
X134200500Y-103444100D01*
X134220502Y-103375979D01*
X134274158Y-103329486D01*
X134326500Y-103318100D01*
X138228706Y-103318100D01*
X138296827Y-103338102D01*
X138317801Y-103355005D01*
X139241043Y-104278247D01*
X139248587Y-104286537D01*
X139252700Y-104293018D01*
X139258477Y-104298443D01*
X139302367Y-104339658D01*
X139305209Y-104342413D01*
X139324930Y-104362134D01*
X139328125Y-104364612D01*
X139337147Y-104372318D01*
X139369379Y-104402586D01*
X139376328Y-104406406D01*
X139387132Y-104412346D01*
X139403656Y-104423199D01*
X139419659Y-104435613D01*
X139460243Y-104453176D01*
X139470873Y-104458383D01*
X139509640Y-104479695D01*
X139517317Y-104481666D01*
X139517322Y-104481668D01*
X139529258Y-104484732D01*
X139547966Y-104491137D01*
X139566555Y-104499181D01*
X139574383Y-104500421D01*
X139574390Y-104500423D01*
X139610224Y-104506099D01*
X139621844Y-104508505D01*
X139656989Y-104517528D01*
X139664670Y-104519500D01*
X139684924Y-104519500D01*
X139704634Y-104521051D01*
X139714989Y-104522691D01*
X139779142Y-104553103D01*
X139802712Y-104581305D01*
X139869987Y-104691088D01*
X140016250Y-104859938D01*
X140188126Y-105002632D01*
X140381000Y-105115338D01*
X140589692Y-105195030D01*
X140594760Y-105196061D01*
X140594763Y-105196062D01*
X140702017Y-105217883D01*
X140808597Y-105239567D01*
X140813772Y-105239757D01*
X140813774Y-105239757D01*
X141026673Y-105247564D01*
X141026677Y-105247564D01*
X141031837Y-105247753D01*
X141036957Y-105247097D01*
X141036959Y-105247097D01*
X141248288Y-105220025D01*
X141248289Y-105220025D01*
X141253416Y-105219368D01*
X141258366Y-105217883D01*
X141462429Y-105156661D01*
X141462434Y-105156659D01*
X141467384Y-105155174D01*
X141667994Y-105056896D01*
X141849860Y-104927173D01*
X141854289Y-104922760D01*
X141979048Y-104798436D01*
X142008096Y-104769489D01*
X142138453Y-104588077D01*
X142173321Y-104517528D01*
X142235136Y-104392453D01*
X142235137Y-104392451D01*
X142237430Y-104387811D01*
X142302370Y-104174069D01*
X142331529Y-103952590D01*
X142331611Y-103949240D01*
X142333074Y-103889365D01*
X142333074Y-103889361D01*
X142333156Y-103886000D01*
X142314852Y-103663361D01*
X142260431Y-103446702D01*
X142171354Y-103241840D01*
X142082287Y-103104163D01*
X142052822Y-103058617D01*
X142052820Y-103058614D01*
X142050014Y-103054277D01*
X141899670Y-102889051D01*
X141895619Y-102885852D01*
X141895615Y-102885848D01*
X141728414Y-102753800D01*
X141728410Y-102753798D01*
X141724359Y-102750598D01*
X141682569Y-102727529D01*
X141632598Y-102677097D01*
X141617826Y-102607654D01*
X141642942Y-102541248D01*
X141670294Y-102514641D01*
X141845328Y-102389792D01*
X141853200Y-102383139D01*
X142004052Y-102232812D01*
X142010730Y-102224965D01*
X142135003Y-102052020D01*
X142140313Y-102043183D01*
X142234670Y-101852267D01*
X142238469Y-101842672D01*
X142300377Y-101638910D01*
X142302555Y-101628837D01*
X142303986Y-101617962D01*
X142301775Y-101603778D01*
X142288617Y-101600000D01*
X139653225Y-101600000D01*
X139639694Y-101603973D01*
X139638257Y-101613966D01*
X139668565Y-101748446D01*
X139671645Y-101758275D01*
X139751770Y-101955603D01*
X139756413Y-101964794D01*
X139867694Y-102146388D01*
X139873777Y-102154699D01*
X140013213Y-102315667D01*
X140020580Y-102322883D01*
X140184434Y-102458916D01*
X140192881Y-102464831D01*
X140261969Y-102505203D01*
X140310693Y-102556842D01*
X140323764Y-102626625D01*
X140297033Y-102692396D01*
X140256584Y-102725752D01*
X140243607Y-102732507D01*
X140239474Y-102735610D01*
X140239471Y-102735612D01*
X140069100Y-102863530D01*
X140064965Y-102866635D01*
X139985602Y-102949684D01*
X139937186Y-103000348D01*
X139875662Y-103035778D01*
X139804749Y-103032321D01*
X139756997Y-103002392D01*
X139046952Y-102292347D01*
X139039412Y-102284061D01*
X139035300Y-102277582D01*
X138985648Y-102230956D01*
X138982807Y-102228202D01*
X138963070Y-102208465D01*
X138959873Y-102205985D01*
X138950851Y-102198280D01*
X138937416Y-102185664D01*
X138918621Y-102168014D01*
X138911675Y-102164195D01*
X138911672Y-102164193D01*
X138900866Y-102158252D01*
X138884347Y-102147401D01*
X138883041Y-102146388D01*
X138868341Y-102134986D01*
X138861072Y-102131841D01*
X138861068Y-102131838D01*
X138827763Y-102117426D01*
X138817113Y-102112209D01*
X138778360Y-102090905D01*
X138758737Y-102085867D01*
X138740034Y-102079463D01*
X138728720Y-102074567D01*
X138728719Y-102074567D01*
X138721445Y-102071419D01*
X138713622Y-102070180D01*
X138713612Y-102070177D01*
X138677776Y-102064501D01*
X138666156Y-102062095D01*
X138631011Y-102053072D01*
X138631010Y-102053072D01*
X138623330Y-102051100D01*
X138603076Y-102051100D01*
X138583365Y-102049549D01*
X138571186Y-102047620D01*
X138563357Y-102046380D01*
X138534086Y-102049147D01*
X138519339Y-102050541D01*
X138507481Y-102051100D01*
X131875267Y-102051100D01*
X131864084Y-102050573D01*
X131856591Y-102048898D01*
X131848665Y-102049147D01*
X131848664Y-102049147D01*
X131788514Y-102051038D01*
X131784555Y-102051100D01*
X131756644Y-102051100D01*
X131752710Y-102051597D01*
X131752709Y-102051597D01*
X131752644Y-102051605D01*
X131740807Y-102052538D01*
X131708990Y-102053538D01*
X131704529Y-102053678D01*
X131696610Y-102053927D01*
X131678954Y-102059056D01*
X131677158Y-102059578D01*
X131657806Y-102063586D01*
X131650735Y-102064480D01*
X131637703Y-102066126D01*
X131630334Y-102069043D01*
X131630332Y-102069044D01*
X131596597Y-102082400D01*
X131585369Y-102086245D01*
X131542907Y-102098582D01*
X131536085Y-102102616D01*
X131536079Y-102102619D01*
X131525468Y-102108894D01*
X131507718Y-102117590D01*
X131496256Y-102122128D01*
X131496251Y-102122131D01*
X131488883Y-102125048D01*
X131471470Y-102137699D01*
X131453125Y-102151027D01*
X131443207Y-102157543D01*
X131431963Y-102164193D01*
X131405137Y-102180058D01*
X131390813Y-102194382D01*
X131375781Y-102207221D01*
X131359393Y-102219128D01*
X131348073Y-102232812D01*
X131331212Y-102253193D01*
X131323222Y-102261973D01*
X131215047Y-102370148D01*
X131206761Y-102377688D01*
X131200282Y-102381800D01*
X131194857Y-102387577D01*
X131153657Y-102431451D01*
X131150902Y-102434293D01*
X131131165Y-102454030D01*
X131128685Y-102457227D01*
X131120980Y-102466249D01*
X131091664Y-102497467D01*
X131030451Y-102533433D01*
X130959511Y-102530594D01*
X130901367Y-102489853D01*
X130874479Y-102424145D01*
X130873930Y-102413464D01*
X130874504Y-102408000D01*
X130860797Y-102277582D01*
X130855232Y-102224635D01*
X130855232Y-102224633D01*
X130854542Y-102218072D01*
X130795527Y-102036444D01*
X130700040Y-101871056D01*
X130572253Y-101729134D01*
X130417752Y-101616882D01*
X130411724Y-101614198D01*
X130411722Y-101614197D01*
X130249319Y-101541891D01*
X130249318Y-101541891D01*
X130243288Y-101539206D01*
X130149888Y-101519353D01*
X130062944Y-101500872D01*
X130062939Y-101500872D01*
X130056487Y-101499500D01*
X129865513Y-101499500D01*
X129859061Y-101500872D01*
X129859056Y-101500872D01*
X129772112Y-101519353D01*
X129678712Y-101539206D01*
X129672685Y-101541889D01*
X129672677Y-101541892D01*
X129648771Y-101552536D01*
X129578404Y-101561970D01*
X129514107Y-101531863D01*
X129508428Y-101526524D01*
X127327005Y-99345100D01*
X127292979Y-99282788D01*
X127290100Y-99256005D01*
X127290100Y-95694500D01*
X127310102Y-95626379D01*
X127363758Y-95579886D01*
X127416100Y-95568500D01*
X128267800Y-95568500D01*
X128335921Y-95588502D01*
X128382414Y-95642158D01*
X128393800Y-95694500D01*
X128393800Y-95825933D01*
X128393273Y-95837116D01*
X128391598Y-95844609D01*
X128391847Y-95852535D01*
X128391847Y-95852536D01*
X128393738Y-95912686D01*
X128393800Y-95916645D01*
X128393800Y-95944556D01*
X128394297Y-95948490D01*
X128394297Y-95948491D01*
X128394305Y-95948556D01*
X128395238Y-95960393D01*
X128396627Y-96004589D01*
X128402278Y-96024039D01*
X128406287Y-96043400D01*
X128408826Y-96063497D01*
X128411745Y-96070868D01*
X128411745Y-96070870D01*
X128425104Y-96104612D01*
X128428949Y-96115842D01*
X128435148Y-96137178D01*
X128441282Y-96158293D01*
X128445315Y-96165112D01*
X128445317Y-96165117D01*
X128451593Y-96175728D01*
X128460288Y-96193476D01*
X128467748Y-96212317D01*
X128472410Y-96218733D01*
X128472410Y-96218734D01*
X128493736Y-96248087D01*
X128500252Y-96258007D01*
X128522758Y-96296062D01*
X128537079Y-96310383D01*
X128549919Y-96325416D01*
X128561828Y-96341807D01*
X128567934Y-96346858D01*
X128595905Y-96369998D01*
X128604684Y-96377988D01*
X129852878Y-97626182D01*
X129886904Y-97688494D01*
X129889093Y-97702107D01*
X129905005Y-97853500D01*
X129906458Y-97867328D01*
X129965473Y-98048956D01*
X130060960Y-98214344D01*
X130188747Y-98356266D01*
X130343248Y-98468518D01*
X130349276Y-98471202D01*
X130349278Y-98471203D01*
X130404266Y-98495685D01*
X130517712Y-98546194D01*
X130611112Y-98566047D01*
X130698056Y-98584528D01*
X130698061Y-98584528D01*
X130704513Y-98585900D01*
X130895487Y-98585900D01*
X130901939Y-98584528D01*
X130901944Y-98584528D01*
X130988887Y-98566047D01*
X131082288Y-98546194D01*
X131195734Y-98495685D01*
X131250722Y-98471203D01*
X131250724Y-98471202D01*
X131256752Y-98468518D01*
X131411253Y-98356266D01*
X131539040Y-98214344D01*
X131634527Y-98048956D01*
X131693542Y-97867328D01*
X131694996Y-97853500D01*
X131712814Y-97683965D01*
X131713504Y-97677400D01*
X131695425Y-97505385D01*
X131694232Y-97494035D01*
X131694232Y-97494033D01*
X131693542Y-97487472D01*
X131634527Y-97305844D01*
X131539040Y-97140456D01*
X131446996Y-97038230D01*
X131415675Y-97003445D01*
X131415674Y-97003444D01*
X131411253Y-96998534D01*
X131256752Y-96886282D01*
X131250724Y-96883598D01*
X131250722Y-96883597D01*
X131088319Y-96811291D01*
X131088318Y-96811291D01*
X131082288Y-96808606D01*
X130988887Y-96788753D01*
X130901944Y-96770272D01*
X130901939Y-96770272D01*
X130895487Y-96768900D01*
X130839595Y-96768900D01*
X130771474Y-96748898D01*
X130750500Y-96731995D01*
X129802100Y-95783595D01*
X129768074Y-95721283D01*
X129773139Y-95650468D01*
X129815686Y-95593632D01*
X129882206Y-95568821D01*
X129891195Y-95568500D01*
X130902406Y-95568500D01*
X130970527Y-95588502D01*
X130991501Y-95605405D01*
X134259698Y-98873602D01*
X134293724Y-98935914D01*
X134288659Y-99006729D01*
X134264240Y-99047007D01*
X134250960Y-99061756D01*
X134155473Y-99227144D01*
X134096458Y-99408772D01*
X134095768Y-99415333D01*
X134095768Y-99415335D01*
X134086339Y-99505052D01*
X134076496Y-99598700D01*
X134077186Y-99605265D01*
X134091008Y-99736770D01*
X134096458Y-99788628D01*
X134155473Y-99970256D01*
X134158776Y-99975978D01*
X134158777Y-99975979D01*
X134173393Y-100001294D01*
X134250960Y-100135644D01*
X134378747Y-100277566D01*
X134533248Y-100389818D01*
X134539276Y-100392502D01*
X134539278Y-100392503D01*
X134701681Y-100464809D01*
X134707712Y-100467494D01*
X134801112Y-100487347D01*
X134888056Y-100505828D01*
X134888061Y-100505828D01*
X134894513Y-100507200D01*
X134954059Y-100507200D01*
X135022180Y-100527202D01*
X135040309Y-100541348D01*
X135041594Y-100542554D01*
X135041596Y-100542556D01*
X135047379Y-100547986D01*
X135054328Y-100551806D01*
X135065132Y-100557746D01*
X135081656Y-100568599D01*
X135097659Y-100581013D01*
X135138243Y-100598576D01*
X135148873Y-100603783D01*
X135187640Y-100625095D01*
X135195317Y-100627066D01*
X135195322Y-100627068D01*
X135207258Y-100630132D01*
X135225966Y-100636537D01*
X135244555Y-100644581D01*
X135252383Y-100645821D01*
X135252390Y-100645823D01*
X135288224Y-100651499D01*
X135299844Y-100653905D01*
X135334989Y-100662928D01*
X135342670Y-100664900D01*
X135362924Y-100664900D01*
X135382634Y-100666451D01*
X135402643Y-100669620D01*
X135410535Y-100668874D01*
X135446661Y-100665459D01*
X135458519Y-100664900D01*
X139591506Y-100664900D01*
X139659627Y-100684902D01*
X139706120Y-100738558D01*
X139716224Y-100808832D01*
X139705793Y-100843951D01*
X139693340Y-100870778D01*
X139689775Y-100880470D01*
X139634389Y-101080183D01*
X139635912Y-101088607D01*
X139648292Y-101092000D01*
X142288344Y-101092000D01*
X142301875Y-101088027D01*
X142303180Y-101078947D01*
X142261214Y-100911875D01*
X142257894Y-100902124D01*
X142231379Y-100841142D01*
X142222560Y-100770695D01*
X142253226Y-100706663D01*
X142313643Y-100669376D01*
X142346929Y-100664900D01*
X145173806Y-100664900D01*
X145241927Y-100684902D01*
X145262901Y-100701805D01*
X150392595Y-105831500D01*
X150426621Y-105893812D01*
X150429500Y-105920595D01*
X150429500Y-106556400D01*
X150440474Y-106662166D01*
X150442655Y-106668702D01*
X150442655Y-106668704D01*
X150484197Y-106793219D01*
X150496450Y-106829946D01*
X150589522Y-106980348D01*
X150714697Y-107105305D01*
X150720927Y-107109145D01*
X150720928Y-107109146D01*
X150858090Y-107193694D01*
X150865262Y-107198115D01*
X150945005Y-107224564D01*
X151026611Y-107251632D01*
X151026613Y-107251632D01*
X151033139Y-107253797D01*
X151039975Y-107254497D01*
X151039978Y-107254498D01*
X151083031Y-107258909D01*
X151137600Y-107264500D01*
X152138400Y-107264500D01*
X152141646Y-107264163D01*
X152141650Y-107264163D01*
X152237308Y-107254238D01*
X152237312Y-107254237D01*
X152244166Y-107253526D01*
X152250702Y-107251345D01*
X152250704Y-107251345D01*
X152382806Y-107207272D01*
X152411946Y-107197550D01*
X152562348Y-107104478D01*
X152687305Y-106979303D01*
X152731257Y-106908000D01*
X152776275Y-106834968D01*
X152776276Y-106834966D01*
X152780115Y-106828738D01*
X152835797Y-106660861D01*
X152846500Y-106556400D01*
X152846500Y-106374394D01*
X162990314Y-106374394D01*
X162999143Y-106386014D01*
X163203970Y-106534830D01*
X163210650Y-106539070D01*
X163469234Y-106681228D01*
X163476369Y-106684585D01*
X163750746Y-106793219D01*
X163758237Y-106795653D01*
X164044059Y-106869039D01*
X164051830Y-106870521D01*
X164344570Y-106907503D01*
X164352460Y-106908000D01*
X164647540Y-106908000D01*
X164655430Y-106907503D01*
X164948170Y-106870521D01*
X164955941Y-106869039D01*
X165241763Y-106795653D01*
X165249254Y-106793219D01*
X165523631Y-106684585D01*
X165530766Y-106681228D01*
X165789350Y-106539070D01*
X165796030Y-106534830D01*
X166001230Y-106385744D01*
X166009653Y-106374821D01*
X166002749Y-106361960D01*
X164512810Y-104872020D01*
X164498869Y-104864408D01*
X164497034Y-104864539D01*
X164490420Y-104868790D01*
X162996927Y-106362284D01*
X162990314Y-106374394D01*
X152846500Y-106374394D01*
X152846500Y-105805600D01*
X152835526Y-105699834D01*
X152779550Y-105532054D01*
X152686478Y-105381652D01*
X152561303Y-105256695D01*
X152556765Y-105253898D01*
X152516176Y-105196647D01*
X152512946Y-105125724D01*
X152548572Y-105064313D01*
X152557068Y-105056938D01*
X152567207Y-105048902D01*
X152681739Y-104934171D01*
X152690751Y-104922760D01*
X152775816Y-104784757D01*
X152781963Y-104771576D01*
X152833138Y-104617290D01*
X152836005Y-104603914D01*
X152845672Y-104509562D01*
X152845958Y-104503958D01*
X162087488Y-104503958D01*
X162106015Y-104798436D01*
X162107008Y-104806297D01*
X162162296Y-105096128D01*
X162164267Y-105103805D01*
X162255446Y-105384424D01*
X162258361Y-105391787D01*
X162383993Y-105658770D01*
X162387805Y-105665703D01*
X162545909Y-105914835D01*
X162550563Y-105921241D01*
X162615521Y-105999761D01*
X162628040Y-106008217D01*
X162638778Y-106002011D01*
X164127980Y-104512810D01*
X164134357Y-104501131D01*
X164864408Y-104501131D01*
X164864539Y-104502966D01*
X164868790Y-104509580D01*
X166360119Y-106000908D01*
X166373381Y-106008150D01*
X166383485Y-106000962D01*
X166449437Y-105921241D01*
X166454091Y-105914835D01*
X166612195Y-105665703D01*
X166616007Y-105658770D01*
X166741639Y-105391787D01*
X166744554Y-105384424D01*
X166835733Y-105103805D01*
X166837704Y-105096128D01*
X166892992Y-104806297D01*
X166893985Y-104798436D01*
X166912512Y-104503958D01*
X166912512Y-104496042D01*
X166893985Y-104201564D01*
X166892992Y-104193703D01*
X166837704Y-103903872D01*
X166835733Y-103896195D01*
X166744554Y-103615576D01*
X166741639Y-103608213D01*
X166616007Y-103341230D01*
X166612195Y-103334297D01*
X166454091Y-103085165D01*
X166449437Y-103078759D01*
X166384479Y-103000239D01*
X166371960Y-102991783D01*
X166361222Y-102997989D01*
X164872020Y-104487190D01*
X164864408Y-104501131D01*
X164134357Y-104501131D01*
X164135592Y-104498869D01*
X164135461Y-104497034D01*
X164131210Y-104490420D01*
X162639881Y-102999092D01*
X162626619Y-102991850D01*
X162616515Y-102999038D01*
X162550563Y-103078759D01*
X162545909Y-103085165D01*
X162387805Y-103334297D01*
X162383993Y-103341230D01*
X162258361Y-103608213D01*
X162255446Y-103615576D01*
X162164267Y-103896195D01*
X162162296Y-103903872D01*
X162107008Y-104193703D01*
X162106015Y-104201564D01*
X162087488Y-104496042D01*
X162087488Y-104503958D01*
X152845958Y-104503958D01*
X152846000Y-104503146D01*
X152846000Y-104403115D01*
X152841525Y-104387876D01*
X152840135Y-104386671D01*
X152832452Y-104385000D01*
X151510000Y-104385000D01*
X151441879Y-104364998D01*
X151395386Y-104311342D01*
X151384000Y-104259000D01*
X151384000Y-103858885D01*
X151892000Y-103858885D01*
X151896475Y-103874124D01*
X151897865Y-103875329D01*
X151905548Y-103877000D01*
X152827884Y-103877000D01*
X152843123Y-103872525D01*
X152844328Y-103871135D01*
X152845999Y-103863452D01*
X152845999Y-103758905D01*
X152845662Y-103752386D01*
X152835743Y-103656794D01*
X152832851Y-103643400D01*
X152781412Y-103489216D01*
X152775239Y-103476038D01*
X152689937Y-103338193D01*
X152680901Y-103326792D01*
X152566171Y-103212261D01*
X152554760Y-103203249D01*
X152416757Y-103118184D01*
X152403576Y-103112037D01*
X152249290Y-103060862D01*
X152235914Y-103057995D01*
X152141562Y-103048328D01*
X152135145Y-103048000D01*
X151910115Y-103048000D01*
X151894876Y-103052475D01*
X151893671Y-103053865D01*
X151892000Y-103061548D01*
X151892000Y-103858885D01*
X151384000Y-103858885D01*
X151384000Y-103066116D01*
X151379525Y-103050877D01*
X151378135Y-103049672D01*
X151370452Y-103048001D01*
X151140905Y-103048001D01*
X151134386Y-103048338D01*
X151038794Y-103058257D01*
X151025400Y-103061149D01*
X150871216Y-103112588D01*
X150858038Y-103118761D01*
X150720193Y-103204063D01*
X150708792Y-103213099D01*
X150594261Y-103327829D01*
X150585249Y-103339240D01*
X150500184Y-103477243D01*
X150494037Y-103490424D01*
X150442862Y-103644710D01*
X150439995Y-103658086D01*
X150430328Y-103752438D01*
X150430000Y-103758855D01*
X150430000Y-103772906D01*
X150409998Y-103841027D01*
X150356342Y-103887520D01*
X150286068Y-103897624D01*
X150221488Y-103868130D01*
X150214905Y-103862001D01*
X148978084Y-102625179D01*
X162990347Y-102625179D01*
X162997251Y-102638040D01*
X164487190Y-104127980D01*
X164501131Y-104135592D01*
X164502966Y-104135461D01*
X164509580Y-104131210D01*
X166003073Y-102637716D01*
X166009686Y-102625606D01*
X166000857Y-102613986D01*
X165796030Y-102465170D01*
X165789350Y-102460930D01*
X165530766Y-102318772D01*
X165523631Y-102315415D01*
X165249254Y-102206781D01*
X165241763Y-102204347D01*
X164955941Y-102130961D01*
X164948170Y-102129479D01*
X164655430Y-102092497D01*
X164647540Y-102092000D01*
X164352460Y-102092000D01*
X164344570Y-102092497D01*
X164051830Y-102129479D01*
X164044059Y-102130961D01*
X163758237Y-102204347D01*
X163750746Y-102206781D01*
X163476369Y-102315415D01*
X163469234Y-102318772D01*
X163210650Y-102460930D01*
X163203970Y-102465170D01*
X162998770Y-102614256D01*
X162990347Y-102625179D01*
X148978084Y-102625179D01*
X148675788Y-102322883D01*
X145992052Y-99639147D01*
X145984512Y-99630861D01*
X145980400Y-99624382D01*
X145930748Y-99577756D01*
X145927907Y-99575002D01*
X145908170Y-99555265D01*
X145904973Y-99552785D01*
X145895951Y-99545080D01*
X145869500Y-99520241D01*
X145863721Y-99514814D01*
X145856775Y-99510995D01*
X145856772Y-99510993D01*
X145845966Y-99505052D01*
X145829447Y-99494201D01*
X145826394Y-99491833D01*
X145813441Y-99481786D01*
X145806172Y-99478641D01*
X145806168Y-99478638D01*
X145772863Y-99464226D01*
X145762213Y-99459009D01*
X145723460Y-99437705D01*
X145703837Y-99432667D01*
X145685134Y-99426263D01*
X145673820Y-99421367D01*
X145673819Y-99421367D01*
X145666545Y-99418219D01*
X145658722Y-99416980D01*
X145658712Y-99416977D01*
X145622876Y-99411301D01*
X145611256Y-99408895D01*
X145576111Y-99399872D01*
X145576110Y-99399872D01*
X145568430Y-99397900D01*
X145548176Y-99397900D01*
X145528465Y-99396349D01*
X145516286Y-99394420D01*
X145508457Y-99393180D01*
X145500565Y-99393926D01*
X145464439Y-99397341D01*
X145452581Y-99397900D01*
X142454500Y-99397900D01*
X142386379Y-99377898D01*
X142339886Y-99324242D01*
X142328500Y-99271900D01*
X142328500Y-97907866D01*
X142321745Y-97845684D01*
X142270615Y-97709295D01*
X142255026Y-97688494D01*
X142188642Y-97599919D01*
X142183261Y-97592739D01*
X142066705Y-97505385D01*
X141930316Y-97454255D01*
X141868134Y-97447500D01*
X140071866Y-97447500D01*
X140009684Y-97454255D01*
X139873295Y-97505385D01*
X139756739Y-97592739D01*
X139751358Y-97599919D01*
X139684975Y-97688494D01*
X139669385Y-97709295D01*
X139618255Y-97845684D01*
X139611500Y-97907866D01*
X139611500Y-98046500D01*
X139591498Y-98114621D01*
X139537842Y-98161114D01*
X139485500Y-98172500D01*
X135402594Y-98172500D01*
X135334473Y-98152498D01*
X135313499Y-98135595D01*
X132961500Y-95783595D01*
X132927474Y-95721283D01*
X132932539Y-95650467D01*
X132975086Y-95593632D01*
X133041606Y-95568821D01*
X133050595Y-95568500D01*
X133780134Y-95568500D01*
X133842316Y-95561745D01*
X133978705Y-95510615D01*
X134095261Y-95423261D01*
X134182615Y-95306705D01*
X134233745Y-95170316D01*
X134240500Y-95108134D01*
X134240500Y-93011866D01*
X134233745Y-92949684D01*
X134182615Y-92813295D01*
X134095261Y-92696739D01*
X133978705Y-92609385D01*
X133842316Y-92558255D01*
X133780134Y-92551500D01*
X131903866Y-92551500D01*
X131841684Y-92558255D01*
X131705295Y-92609385D01*
X131664648Y-92639848D01*
X131660065Y-92643283D01*
X131593559Y-92668131D01*
X131524176Y-92653078D01*
X131508935Y-92643283D01*
X131504352Y-92639848D01*
X131463705Y-92609385D01*
X131327316Y-92558255D01*
X131265134Y-92551500D01*
X130624694Y-92551500D01*
X130556573Y-92531498D01*
X130510080Y-92477842D01*
X130499976Y-92407568D01*
X130529470Y-92342988D01*
X130535599Y-92336405D01*
X131947301Y-90924704D01*
X132062910Y-90809095D01*
X143786501Y-90809095D01*
X143786838Y-90815614D01*
X143796757Y-90911206D01*
X143799649Y-90924600D01*
X143851088Y-91078784D01*
X143857261Y-91091962D01*
X143942563Y-91229807D01*
X143951599Y-91241208D01*
X144066329Y-91355739D01*
X144077740Y-91364751D01*
X144215743Y-91449816D01*
X144228924Y-91455963D01*
X144383210Y-91507138D01*
X144396586Y-91510005D01*
X144490938Y-91519672D01*
X144497354Y-91520000D01*
X144684885Y-91520000D01*
X144700124Y-91515525D01*
X144701329Y-91514135D01*
X144703000Y-91506452D01*
X144703000Y-91501884D01*
X145211000Y-91501884D01*
X145215475Y-91517123D01*
X145216865Y-91518328D01*
X145224548Y-91519999D01*
X145416595Y-91519999D01*
X145423114Y-91519662D01*
X145518706Y-91509743D01*
X145532100Y-91506851D01*
X145686284Y-91455412D01*
X145699462Y-91449239D01*
X145837307Y-91363937D01*
X145848708Y-91354901D01*
X145963239Y-91240171D01*
X145972251Y-91228760D01*
X146057316Y-91090757D01*
X146063463Y-91077576D01*
X146114638Y-90923290D01*
X146117505Y-90909914D01*
X146127172Y-90815562D01*
X146127500Y-90809146D01*
X146127500Y-89934115D01*
X146123025Y-89918876D01*
X146121635Y-89917671D01*
X146113952Y-89916000D01*
X145229115Y-89916000D01*
X145213876Y-89920475D01*
X145212671Y-89921865D01*
X145211000Y-89929548D01*
X145211000Y-91501884D01*
X144703000Y-91501884D01*
X144703000Y-89934115D01*
X144698525Y-89918876D01*
X144697135Y-89917671D01*
X144689452Y-89916000D01*
X143804616Y-89916000D01*
X143789377Y-89920475D01*
X143788172Y-89921865D01*
X143786501Y-89929548D01*
X143786501Y-90809095D01*
X132062910Y-90809095D01*
X133482120Y-89389885D01*
X143786500Y-89389885D01*
X143790975Y-89405124D01*
X143792365Y-89406329D01*
X143800048Y-89408000D01*
X144684885Y-89408000D01*
X144700124Y-89403525D01*
X144701329Y-89402135D01*
X144703000Y-89394452D01*
X144703000Y-89389885D01*
X145211000Y-89389885D01*
X145215475Y-89405124D01*
X145216865Y-89406329D01*
X145224548Y-89408000D01*
X146109384Y-89408000D01*
X146124623Y-89403525D01*
X146125828Y-89402135D01*
X146127499Y-89394452D01*
X146127499Y-88514905D01*
X146127162Y-88508386D01*
X146117243Y-88412794D01*
X146114351Y-88399400D01*
X146062912Y-88245216D01*
X146056739Y-88232038D01*
X145971437Y-88094193D01*
X145962401Y-88082792D01*
X145847671Y-87968261D01*
X145836260Y-87959249D01*
X145698257Y-87874184D01*
X145685076Y-87868037D01*
X145530790Y-87816862D01*
X145517414Y-87813995D01*
X145423062Y-87804328D01*
X145416645Y-87804000D01*
X145229115Y-87804000D01*
X145213876Y-87808475D01*
X145212671Y-87809865D01*
X145211000Y-87817548D01*
X145211000Y-89389885D01*
X144703000Y-89389885D01*
X144703000Y-87822116D01*
X144698525Y-87806877D01*
X144697135Y-87805672D01*
X144689452Y-87804001D01*
X144497405Y-87804001D01*
X144490886Y-87804338D01*
X144395294Y-87814257D01*
X144381900Y-87817149D01*
X144227716Y-87868588D01*
X144214538Y-87874761D01*
X144076693Y-87960063D01*
X144065292Y-87969099D01*
X143950761Y-88083829D01*
X143941749Y-88095240D01*
X143856684Y-88233243D01*
X143850537Y-88246424D01*
X143799362Y-88400710D01*
X143796495Y-88414086D01*
X143786828Y-88508438D01*
X143786500Y-88514855D01*
X143786500Y-89389885D01*
X133482120Y-89389885D01*
X133498400Y-89373605D01*
X133560712Y-89339579D01*
X133587495Y-89336700D01*
X137487233Y-89336700D01*
X137498416Y-89337227D01*
X137505909Y-89338902D01*
X137513835Y-89338653D01*
X137513836Y-89338653D01*
X137573986Y-89336762D01*
X137577945Y-89336700D01*
X137605856Y-89336700D01*
X137609791Y-89336203D01*
X137609856Y-89336195D01*
X137621693Y-89335262D01*
X137653951Y-89334248D01*
X137657970Y-89334122D01*
X137665889Y-89333873D01*
X137685343Y-89328221D01*
X137704700Y-89324213D01*
X137716930Y-89322668D01*
X137716931Y-89322668D01*
X137724797Y-89321674D01*
X137732168Y-89318755D01*
X137732170Y-89318755D01*
X137765912Y-89305396D01*
X137777142Y-89301551D01*
X137811983Y-89291429D01*
X137811984Y-89291429D01*
X137819593Y-89289218D01*
X137826412Y-89285185D01*
X137826417Y-89285183D01*
X137837028Y-89278907D01*
X137854776Y-89270212D01*
X137873617Y-89262752D01*
X137909387Y-89236764D01*
X137919307Y-89230248D01*
X137950535Y-89211780D01*
X137950538Y-89211778D01*
X137957362Y-89207742D01*
X137971683Y-89193421D01*
X137986717Y-89180580D01*
X137996694Y-89173331D01*
X138003107Y-89168672D01*
X138031298Y-89134595D01*
X138039288Y-89125816D01*
X139542811Y-87622293D01*
X139605123Y-87588267D01*
X139675938Y-87593332D01*
X139732774Y-87635879D01*
X139753025Y-87676657D01*
X139773783Y-87749050D01*
X139776602Y-87754535D01*
X139838094Y-87874184D01*
X139864187Y-87924956D01*
X139987035Y-88079953D01*
X139991728Y-88083947D01*
X139991729Y-88083948D01*
X140121769Y-88194620D01*
X140137650Y-88208136D01*
X140310294Y-88304624D01*
X140498392Y-88365740D01*
X140694777Y-88389158D01*
X140700912Y-88388686D01*
X140700914Y-88388686D01*
X140885830Y-88374457D01*
X140885834Y-88374456D01*
X140891972Y-88373984D01*
X141082463Y-88320798D01*
X141087967Y-88318018D01*
X141087969Y-88318017D01*
X141253495Y-88234404D01*
X141253497Y-88234403D01*
X141258996Y-88231625D01*
X141414847Y-88109861D01*
X141536690Y-87968704D01*
X141540049Y-87964813D01*
X141540050Y-87964811D01*
X141544078Y-87960145D01*
X141641769Y-87788179D01*
X141704197Y-87600513D01*
X141728985Y-87404295D01*
X141729380Y-87376000D01*
X141710080Y-87179167D01*
X141652916Y-86989831D01*
X141560066Y-86815204D01*
X141489709Y-86728938D01*
X141438960Y-86666713D01*
X141438957Y-86666710D01*
X141435065Y-86661938D01*
X141428724Y-86656692D01*
X141287425Y-86539799D01*
X141287421Y-86539797D01*
X141282675Y-86535870D01*
X141108701Y-86441802D01*
X141013932Y-86412466D01*
X140954774Y-86373216D01*
X140926226Y-86308212D01*
X140937354Y-86238093D01*
X140962097Y-86203007D01*
X144686405Y-82478700D01*
X144748717Y-82444674D01*
X144819533Y-82449739D01*
X144876368Y-82492286D01*
X144901179Y-82558806D01*
X144901500Y-82567795D01*
X144901500Y-82766502D01*
X144904438Y-82803831D01*
X144950855Y-82963601D01*
X145035547Y-83106807D01*
X145038229Y-83109489D01*
X145063502Y-83173861D01*
X145049600Y-83243484D01*
X145039428Y-83259312D01*
X145035547Y-83263193D01*
X144950855Y-83406399D01*
X144904438Y-83566169D01*
X144901500Y-83603498D01*
X144901500Y-84036502D01*
X144901693Y-84038950D01*
X144901693Y-84038958D01*
X144903840Y-84066228D01*
X144904438Y-84073831D01*
X144920262Y-84128299D01*
X144943190Y-84207216D01*
X144950855Y-84233601D01*
X145035547Y-84376807D01*
X145038229Y-84379489D01*
X145063502Y-84443861D01*
X145049600Y-84513484D01*
X145039428Y-84529312D01*
X145035547Y-84533193D01*
X144950855Y-84676399D01*
X144904438Y-84836169D01*
X144903934Y-84842574D01*
X144903933Y-84842579D01*
X144903696Y-84845593D01*
X144901500Y-84873498D01*
X144901500Y-85306502D01*
X144904438Y-85343831D01*
X144950855Y-85503601D01*
X144954892Y-85510427D01*
X145031509Y-85639980D01*
X145031511Y-85639983D01*
X145035547Y-85646807D01*
X145153193Y-85764453D01*
X145160017Y-85768489D01*
X145160020Y-85768491D01*
X145267589Y-85832107D01*
X145296399Y-85849145D01*
X145304010Y-85851356D01*
X145304012Y-85851357D01*
X145356231Y-85866528D01*
X145456169Y-85895562D01*
X145462574Y-85896066D01*
X145462579Y-85896067D01*
X145491042Y-85898307D01*
X145491050Y-85898307D01*
X145493498Y-85898500D01*
X147301502Y-85898500D01*
X147303963Y-85898306D01*
X147303971Y-85898306D01*
X147312609Y-85897626D01*
X147382090Y-85912219D01*
X147432651Y-85962059D01*
X147448500Y-86023237D01*
X147448500Y-87745314D01*
X147428498Y-87813435D01*
X147374842Y-87859928D01*
X147362385Y-87864835D01*
X147345554Y-87870450D01*
X147339330Y-87874301D01*
X147339329Y-87874302D01*
X147249673Y-87929783D01*
X147195152Y-87963522D01*
X147070195Y-88088697D01*
X147066355Y-88094927D01*
X147066354Y-88094928D01*
X146982093Y-88231625D01*
X146977385Y-88239262D01*
X146966591Y-88271805D01*
X146927824Y-88388686D01*
X146921703Y-88407139D01*
X146911000Y-88511600D01*
X146911000Y-90812400D01*
X146911337Y-90815646D01*
X146911337Y-90815650D01*
X146921252Y-90911206D01*
X146921974Y-90918166D01*
X146977950Y-91085946D01*
X147071022Y-91236348D01*
X147196197Y-91361305D01*
X147202427Y-91365145D01*
X147202428Y-91365146D01*
X147339788Y-91449816D01*
X147346762Y-91454115D01*
X147426505Y-91480564D01*
X147508111Y-91507632D01*
X147508113Y-91507632D01*
X147514639Y-91509797D01*
X147521475Y-91510497D01*
X147521478Y-91510498D01*
X147564531Y-91514909D01*
X147619100Y-91520500D01*
X148544900Y-91520500D01*
X148548146Y-91520163D01*
X148548150Y-91520163D01*
X148643808Y-91510238D01*
X148643812Y-91510237D01*
X148650666Y-91509526D01*
X148657202Y-91507345D01*
X148657204Y-91507345D01*
X148789384Y-91463246D01*
X148818446Y-91453550D01*
X148831945Y-91445196D01*
X148900395Y-91426359D01*
X148968165Y-91447520D01*
X148987342Y-91463246D01*
X153229848Y-95705753D01*
X153237388Y-95714039D01*
X153241500Y-95720518D01*
X153247277Y-95725943D01*
X153291151Y-95767143D01*
X153293993Y-95769898D01*
X153301680Y-95777585D01*
X153326779Y-95813429D01*
X153341319Y-95844609D01*
X153388686Y-95946189D01*
X153388689Y-95946194D01*
X153391012Y-95951176D01*
X153394168Y-95955683D01*
X153394169Y-95955685D01*
X153498449Y-96104612D01*
X153518523Y-96133281D01*
X153675719Y-96290477D01*
X153680227Y-96293634D01*
X153680230Y-96293636D01*
X153725618Y-96325417D01*
X153800698Y-96377988D01*
X153808271Y-96383291D01*
X153852599Y-96438748D01*
X153862000Y-96486504D01*
X153862000Y-96680496D01*
X153841998Y-96748617D01*
X153808271Y-96783709D01*
X153680230Y-96873364D01*
X153680227Y-96873366D01*
X153675719Y-96876523D01*
X153518523Y-97033719D01*
X153515366Y-97038227D01*
X153515364Y-97038230D01*
X153443785Y-97140456D01*
X153391012Y-97215824D01*
X153388689Y-97220806D01*
X153388686Y-97220811D01*
X153346104Y-97312129D01*
X153297060Y-97417304D01*
X153239522Y-97632037D01*
X153220147Y-97853500D01*
X153239522Y-98074963D01*
X153297060Y-98289696D01*
X153299382Y-98294677D01*
X153299383Y-98294678D01*
X153388686Y-98486189D01*
X153388689Y-98486194D01*
X153391012Y-98491176D01*
X153394168Y-98495683D01*
X153394169Y-98495685D01*
X153456378Y-98584528D01*
X153518523Y-98673281D01*
X153675719Y-98830477D01*
X153680227Y-98833634D01*
X153680230Y-98833636D01*
X153737308Y-98873602D01*
X153857823Y-98957988D01*
X153862805Y-98960311D01*
X153862810Y-98960314D01*
X154048725Y-99047007D01*
X154059304Y-99051940D01*
X154064612Y-99053362D01*
X154064614Y-99053363D01*
X154117288Y-99067477D01*
X154274037Y-99109478D01*
X154495500Y-99128853D01*
X154716963Y-99109478D01*
X154873712Y-99067477D01*
X154926386Y-99053363D01*
X154926388Y-99053362D01*
X154931696Y-99051940D01*
X154942275Y-99047007D01*
X155128190Y-98960314D01*
X155128195Y-98960311D01*
X155133177Y-98957988D01*
X155253692Y-98873602D01*
X155310770Y-98833636D01*
X155310773Y-98833634D01*
X155315281Y-98830477D01*
X155472477Y-98673281D01*
X155534623Y-98584528D01*
X155596831Y-98495685D01*
X155596832Y-98495683D01*
X155599988Y-98491176D01*
X155602311Y-98486194D01*
X155602314Y-98486189D01*
X155691617Y-98294678D01*
X155691618Y-98294677D01*
X155693940Y-98289696D01*
X155751478Y-98074963D01*
X155770853Y-97853500D01*
X155751478Y-97632037D01*
X155693940Y-97417304D01*
X155644896Y-97312129D01*
X155602314Y-97220811D01*
X155602311Y-97220806D01*
X155599988Y-97215824D01*
X155547215Y-97140456D01*
X155475636Y-97038230D01*
X155475634Y-97038227D01*
X155472477Y-97033719D01*
X155315281Y-96876523D01*
X155310773Y-96873366D01*
X155310770Y-96873364D01*
X155182729Y-96783709D01*
X155138401Y-96728252D01*
X155129000Y-96680496D01*
X155129000Y-96486504D01*
X155149002Y-96418383D01*
X155182729Y-96383291D01*
X155190303Y-96377988D01*
X155265382Y-96325417D01*
X155310770Y-96293636D01*
X155310773Y-96293634D01*
X155315281Y-96290477D01*
X155472477Y-96133281D01*
X155492552Y-96104612D01*
X155596831Y-95955685D01*
X155596832Y-95955683D01*
X155599988Y-95951176D01*
X155602311Y-95946194D01*
X155602314Y-95946189D01*
X155691617Y-95754678D01*
X155691618Y-95754677D01*
X155693940Y-95749696D01*
X155751478Y-95534963D01*
X155770853Y-95313500D01*
X155751478Y-95092037D01*
X155693940Y-94877304D01*
X155691617Y-94872322D01*
X155602314Y-94680811D01*
X155602311Y-94680806D01*
X155599988Y-94675824D01*
X155472477Y-94493719D01*
X155315281Y-94336523D01*
X155310773Y-94333366D01*
X155310770Y-94333364D01*
X155222212Y-94271355D01*
X155133177Y-94209012D01*
X155128195Y-94206689D01*
X155128190Y-94206686D01*
X155023127Y-94157695D01*
X154969842Y-94110778D01*
X154950381Y-94042501D01*
X154970923Y-93974541D01*
X155023127Y-93929305D01*
X155128190Y-93880314D01*
X155128195Y-93880311D01*
X155133177Y-93877988D01*
X155235005Y-93806687D01*
X155310770Y-93753636D01*
X155310773Y-93753634D01*
X155315281Y-93750477D01*
X155472477Y-93593281D01*
X155599988Y-93411176D01*
X155602311Y-93406194D01*
X155602314Y-93406189D01*
X155691617Y-93214678D01*
X155691618Y-93214677D01*
X155693940Y-93209696D01*
X155751478Y-92994963D01*
X155770853Y-92773500D01*
X155751478Y-92552037D01*
X155693940Y-92337304D01*
X155691617Y-92332322D01*
X155602314Y-92140811D01*
X155602311Y-92140806D01*
X155599988Y-92135824D01*
X155472477Y-91953719D01*
X155315281Y-91796523D01*
X155310773Y-91793366D01*
X155310770Y-91793364D01*
X155182729Y-91703709D01*
X155133177Y-91669012D01*
X155128195Y-91666689D01*
X155128190Y-91666686D01*
X154936678Y-91577383D01*
X154936677Y-91577382D01*
X154931696Y-91575060D01*
X154926388Y-91573638D01*
X154926386Y-91573637D01*
X154860551Y-91555997D01*
X154716963Y-91517522D01*
X154495500Y-91498147D01*
X154274037Y-91517522D01*
X154130449Y-91555997D01*
X154064614Y-91573637D01*
X154064612Y-91573638D01*
X154059304Y-91575060D01*
X154054323Y-91577382D01*
X154054322Y-91577383D01*
X153862811Y-91666686D01*
X153862806Y-91666689D01*
X153857824Y-91669012D01*
X153853317Y-91672168D01*
X153853315Y-91672169D01*
X153680230Y-91793364D01*
X153680227Y-91793366D01*
X153675719Y-91796523D01*
X153518523Y-91953719D01*
X153391012Y-92135824D01*
X153388689Y-92140806D01*
X153388686Y-92140811D01*
X153299383Y-92332322D01*
X153297060Y-92337304D01*
X153239522Y-92552037D01*
X153220147Y-92773500D01*
X153239522Y-92994963D01*
X153297060Y-93209696D01*
X153299382Y-93214677D01*
X153299383Y-93214678D01*
X153388686Y-93406189D01*
X153388689Y-93406194D01*
X153391012Y-93411176D01*
X153518523Y-93593281D01*
X153675719Y-93750477D01*
X153680227Y-93753634D01*
X153680230Y-93753636D01*
X153755995Y-93806687D01*
X153857823Y-93877988D01*
X153862805Y-93880311D01*
X153862810Y-93880314D01*
X153967873Y-93929305D01*
X154021158Y-93976222D01*
X154040619Y-94044499D01*
X154020077Y-94112459D01*
X153967873Y-94157695D01*
X153862811Y-94206686D01*
X153862806Y-94206689D01*
X153857824Y-94209012D01*
X153786140Y-94259206D01*
X153748624Y-94285474D01*
X153681350Y-94308161D01*
X153612490Y-94290876D01*
X153587259Y-94271355D01*
X151456716Y-92140811D01*
X149289905Y-89974000D01*
X149255879Y-89911688D01*
X149253000Y-89884905D01*
X149253000Y-88511600D01*
X149252663Y-88508350D01*
X149242738Y-88412692D01*
X149242737Y-88412688D01*
X149242026Y-88405834D01*
X149236463Y-88389158D01*
X149188368Y-88245002D01*
X149186050Y-88238054D01*
X149092978Y-88087652D01*
X148967803Y-87962695D01*
X148907897Y-87925768D01*
X148823468Y-87873725D01*
X148823466Y-87873724D01*
X148817238Y-87869885D01*
X148810289Y-87867580D01*
X148801830Y-87864774D01*
X148743471Y-87824342D01*
X148716236Y-87758777D01*
X148715500Y-87745182D01*
X148715500Y-81292967D01*
X148716027Y-81281784D01*
X148717702Y-81274291D01*
X148715562Y-81206200D01*
X148715500Y-81202243D01*
X148715500Y-81174344D01*
X148714996Y-81170353D01*
X148714063Y-81158511D01*
X148713312Y-81134596D01*
X148712674Y-81114311D01*
X148710462Y-81106697D01*
X148710461Y-81106692D01*
X148707023Y-81094859D01*
X148703012Y-81075495D01*
X148701467Y-81063264D01*
X148700474Y-81055403D01*
X148697557Y-81048036D01*
X148697556Y-81048031D01*
X148684198Y-81014292D01*
X148680354Y-81003065D01*
X148670230Y-80968222D01*
X148668018Y-80960607D01*
X148663697Y-80953300D01*
X148657707Y-80943172D01*
X148649012Y-80925424D01*
X148641552Y-80906583D01*
X148624445Y-80883037D01*
X148600586Y-80816170D01*
X148616665Y-80747018D01*
X148667579Y-80697537D01*
X148737161Y-80683437D01*
X148803321Y-80709195D01*
X148815475Y-80719880D01*
X150407895Y-82312300D01*
X150441921Y-82374612D01*
X150444800Y-82401395D01*
X150444800Y-84513233D01*
X150444273Y-84524416D01*
X150442598Y-84531909D01*
X150442847Y-84539835D01*
X150442847Y-84539836D01*
X150444738Y-84599986D01*
X150444800Y-84603945D01*
X150444800Y-84631856D01*
X150445297Y-84635790D01*
X150445297Y-84635791D01*
X150445305Y-84635856D01*
X150446238Y-84647693D01*
X150447627Y-84691889D01*
X150453278Y-84711339D01*
X150457287Y-84730700D01*
X150459826Y-84750797D01*
X150462745Y-84758168D01*
X150462745Y-84758170D01*
X150476104Y-84791912D01*
X150479949Y-84803142D01*
X150489544Y-84836169D01*
X150492282Y-84845593D01*
X150496315Y-84852412D01*
X150496317Y-84852417D01*
X150502593Y-84863028D01*
X150511288Y-84880776D01*
X150518748Y-84899617D01*
X150523410Y-84906033D01*
X150523410Y-84906034D01*
X150544736Y-84935387D01*
X150551252Y-84945307D01*
X150573758Y-84983362D01*
X150588079Y-84997683D01*
X150600919Y-85012716D01*
X150612828Y-85029107D01*
X150618934Y-85034158D01*
X150646905Y-85057298D01*
X150655684Y-85065288D01*
X151754848Y-86164453D01*
X151762388Y-86172739D01*
X151766500Y-86179218D01*
X151772277Y-86184643D01*
X151816151Y-86225843D01*
X151818993Y-86228598D01*
X151838730Y-86248335D01*
X151841927Y-86250815D01*
X151850947Y-86258518D01*
X151883179Y-86288786D01*
X151890125Y-86292605D01*
X151890128Y-86292607D01*
X151900934Y-86298548D01*
X151917453Y-86309399D01*
X151933459Y-86321814D01*
X151940728Y-86324959D01*
X151940732Y-86324962D01*
X151974037Y-86339374D01*
X151984687Y-86344591D01*
X152023440Y-86365895D01*
X152031115Y-86367866D01*
X152031116Y-86367866D01*
X152043062Y-86370933D01*
X152061766Y-86377337D01*
X152067946Y-86380011D01*
X152080355Y-86385381D01*
X152088178Y-86386620D01*
X152088188Y-86386623D01*
X152124024Y-86392299D01*
X152135644Y-86394705D01*
X152167459Y-86402873D01*
X152178470Y-86405700D01*
X152198724Y-86405700D01*
X152218434Y-86407251D01*
X152238443Y-86410420D01*
X152246335Y-86409674D01*
X152265080Y-86407902D01*
X152282462Y-86406259D01*
X152294319Y-86405700D01*
X154864033Y-86405700D01*
X154875216Y-86406227D01*
X154882709Y-86407902D01*
X154890635Y-86407653D01*
X154890636Y-86407653D01*
X154950786Y-86405762D01*
X154954745Y-86405700D01*
X154982656Y-86405700D01*
X154986591Y-86405203D01*
X154986656Y-86405195D01*
X154998493Y-86404262D01*
X155030751Y-86403248D01*
X155034770Y-86403122D01*
X155042689Y-86402873D01*
X155062143Y-86397221D01*
X155081500Y-86393213D01*
X155093730Y-86391668D01*
X155093731Y-86391668D01*
X155101597Y-86390674D01*
X155108968Y-86387755D01*
X155108970Y-86387755D01*
X155142712Y-86374396D01*
X155153942Y-86370551D01*
X155188783Y-86360429D01*
X155188784Y-86360429D01*
X155196393Y-86358218D01*
X155203212Y-86354185D01*
X155203217Y-86354183D01*
X155213828Y-86347907D01*
X155231576Y-86339212D01*
X155250417Y-86331752D01*
X155286187Y-86305764D01*
X155296107Y-86299248D01*
X155327335Y-86280780D01*
X155327338Y-86280778D01*
X155334162Y-86276742D01*
X155348483Y-86262421D01*
X155363517Y-86249580D01*
X155373494Y-86242331D01*
X155379907Y-86237672D01*
X155408098Y-86203595D01*
X155416088Y-86194816D01*
X158962405Y-82648500D01*
X159024717Y-82614474D01*
X159095533Y-82619539D01*
X159152368Y-82662086D01*
X159177179Y-82728606D01*
X159177500Y-82737595D01*
X159177500Y-83266900D01*
X159188474Y-83372666D01*
X159244450Y-83540446D01*
X159337522Y-83690848D01*
X159462697Y-83815805D01*
X159468927Y-83819645D01*
X159468928Y-83819646D01*
X159501480Y-83839711D01*
X159613262Y-83908615D01*
X159680594Y-83930948D01*
X159774611Y-83962132D01*
X159774613Y-83962132D01*
X159781139Y-83964297D01*
X159787975Y-83964997D01*
X159787978Y-83964998D01*
X159831031Y-83969409D01*
X159885600Y-83975000D01*
X161258906Y-83975000D01*
X161327027Y-83995002D01*
X161348001Y-84011905D01*
X161445095Y-84108999D01*
X161479121Y-84171311D01*
X161482000Y-84198094D01*
X161482000Y-91600496D01*
X161461998Y-91668617D01*
X161428271Y-91703709D01*
X161300230Y-91793364D01*
X161300227Y-91793366D01*
X161295719Y-91796523D01*
X161138523Y-91953719D01*
X161011012Y-92135824D01*
X161008689Y-92140806D01*
X161008686Y-92140811D01*
X160919383Y-92332322D01*
X160917060Y-92337304D01*
X160859522Y-92552037D01*
X160840147Y-92773500D01*
X160859522Y-92994963D01*
X160917060Y-93209696D01*
X160919382Y-93214677D01*
X160919383Y-93214678D01*
X161008686Y-93406189D01*
X161008689Y-93406194D01*
X161011012Y-93411176D01*
X161138523Y-93593281D01*
X161295719Y-93750477D01*
X161300227Y-93753634D01*
X161300230Y-93753636D01*
X161375995Y-93806687D01*
X161477823Y-93877988D01*
X161482805Y-93880311D01*
X161482810Y-93880314D01*
X161587873Y-93929305D01*
X161641158Y-93976222D01*
X161660619Y-94044499D01*
X161640077Y-94112459D01*
X161587873Y-94157695D01*
X161482811Y-94206686D01*
X161482806Y-94206689D01*
X161477824Y-94209012D01*
X161473317Y-94212168D01*
X161473315Y-94212169D01*
X161300230Y-94333364D01*
X161300227Y-94333366D01*
X161295719Y-94336523D01*
X161138523Y-94493719D01*
X161011012Y-94675824D01*
X161008689Y-94680806D01*
X161008686Y-94680811D01*
X160919383Y-94872322D01*
X160917060Y-94877304D01*
X160859522Y-95092037D01*
X160840147Y-95313500D01*
X160859522Y-95534963D01*
X160917060Y-95749696D01*
X160919382Y-95754677D01*
X160919383Y-95754678D01*
X161008686Y-95946189D01*
X161008689Y-95946194D01*
X161011012Y-95951176D01*
X161014168Y-95955683D01*
X161014169Y-95955685D01*
X161118449Y-96104612D01*
X161138523Y-96133281D01*
X161295719Y-96290477D01*
X161300227Y-96293634D01*
X161300230Y-96293636D01*
X161345618Y-96325417D01*
X161477823Y-96417988D01*
X161482805Y-96420311D01*
X161482810Y-96420314D01*
X161587873Y-96469305D01*
X161641158Y-96516222D01*
X161660619Y-96584499D01*
X161640077Y-96652459D01*
X161587873Y-96697695D01*
X161482811Y-96746686D01*
X161482806Y-96746689D01*
X161477824Y-96749012D01*
X161473317Y-96752168D01*
X161473315Y-96752169D01*
X161300230Y-96873364D01*
X161300227Y-96873366D01*
X161295719Y-96876523D01*
X161138523Y-97033719D01*
X161135366Y-97038227D01*
X161135364Y-97038230D01*
X161063785Y-97140456D01*
X161011012Y-97215824D01*
X161008689Y-97220806D01*
X161008686Y-97220811D01*
X160966104Y-97312129D01*
X160917060Y-97417304D01*
X160859522Y-97632037D01*
X160840147Y-97853500D01*
X160859522Y-98074963D01*
X160917060Y-98289696D01*
X160919382Y-98294677D01*
X160919383Y-98294678D01*
X161008686Y-98486189D01*
X161008689Y-98486194D01*
X161011012Y-98491176D01*
X161014168Y-98495683D01*
X161014169Y-98495685D01*
X161076378Y-98584528D01*
X161138523Y-98673281D01*
X161295719Y-98830477D01*
X161300227Y-98833634D01*
X161300230Y-98833636D01*
X161357308Y-98873602D01*
X161477823Y-98957988D01*
X161482805Y-98960311D01*
X161482810Y-98960314D01*
X161668725Y-99047007D01*
X161679304Y-99051940D01*
X161684612Y-99053362D01*
X161684614Y-99053363D01*
X161737288Y-99067477D01*
X161894037Y-99109478D01*
X162115500Y-99128853D01*
X162336963Y-99109478D01*
X162493712Y-99067477D01*
X162546386Y-99053363D01*
X162546388Y-99053362D01*
X162551696Y-99051940D01*
X162562275Y-99047007D01*
X162748190Y-98960314D01*
X162748195Y-98960311D01*
X162753177Y-98957988D01*
X162873692Y-98873602D01*
X162930770Y-98833636D01*
X162930773Y-98833634D01*
X162935281Y-98830477D01*
X163092477Y-98673281D01*
X163154623Y-98584528D01*
X163216831Y-98495685D01*
X163216832Y-98495683D01*
X163219988Y-98491176D01*
X163222311Y-98486194D01*
X163222314Y-98486189D01*
X163311617Y-98294678D01*
X163311618Y-98294677D01*
X163313940Y-98289696D01*
X163371478Y-98074963D01*
X163390853Y-97853500D01*
X163371478Y-97632037D01*
X163313940Y-97417304D01*
X163264896Y-97312129D01*
X163222314Y-97220811D01*
X163222311Y-97220806D01*
X163219988Y-97215824D01*
X163167215Y-97140456D01*
X163095636Y-97038230D01*
X163095634Y-97038227D01*
X163092477Y-97033719D01*
X162935281Y-96876523D01*
X162930773Y-96873366D01*
X162930770Y-96873364D01*
X162783539Y-96770272D01*
X162753177Y-96749012D01*
X162748195Y-96746689D01*
X162748190Y-96746686D01*
X162643127Y-96697695D01*
X162589842Y-96650778D01*
X162570381Y-96582501D01*
X162590923Y-96514541D01*
X162643127Y-96469305D01*
X162748190Y-96420314D01*
X162748195Y-96420311D01*
X162753177Y-96417988D01*
X162885382Y-96325417D01*
X162930770Y-96293636D01*
X162930773Y-96293634D01*
X162935281Y-96290477D01*
X163092477Y-96133281D01*
X163112552Y-96104612D01*
X163216831Y-95955685D01*
X163216832Y-95955683D01*
X163219988Y-95951176D01*
X163222311Y-95946194D01*
X163222314Y-95946189D01*
X163311617Y-95754678D01*
X163311618Y-95754677D01*
X163313940Y-95749696D01*
X163371478Y-95534963D01*
X163390853Y-95313500D01*
X163371478Y-95092037D01*
X163313940Y-94877304D01*
X163311617Y-94872322D01*
X163222314Y-94680811D01*
X163222311Y-94680806D01*
X163219988Y-94675824D01*
X163092477Y-94493719D01*
X162935281Y-94336523D01*
X162930773Y-94333366D01*
X162930770Y-94333364D01*
X162842212Y-94271355D01*
X162753177Y-94209012D01*
X162748195Y-94206689D01*
X162748190Y-94206686D01*
X162643127Y-94157695D01*
X162589842Y-94110778D01*
X162570381Y-94042501D01*
X162590923Y-93974541D01*
X162643127Y-93929305D01*
X162748190Y-93880314D01*
X162748195Y-93880311D01*
X162753177Y-93877988D01*
X162855005Y-93806687D01*
X162930770Y-93753636D01*
X162930773Y-93753634D01*
X162935281Y-93750477D01*
X163092477Y-93593281D01*
X163219988Y-93411176D01*
X163222311Y-93406194D01*
X163222314Y-93406189D01*
X163311617Y-93214678D01*
X163311618Y-93214677D01*
X163313940Y-93209696D01*
X163371478Y-92994963D01*
X163390853Y-92773500D01*
X163371478Y-92552037D01*
X163313940Y-92337304D01*
X163311617Y-92332322D01*
X163222314Y-92140811D01*
X163222311Y-92140806D01*
X163219988Y-92135824D01*
X163092477Y-91953719D01*
X162935281Y-91796523D01*
X162930773Y-91793366D01*
X162930770Y-91793364D01*
X162802729Y-91703709D01*
X162758401Y-91648252D01*
X162749000Y-91600496D01*
X162749000Y-83962268D01*
X162749527Y-83951085D01*
X162751202Y-83943592D01*
X162749062Y-83875501D01*
X162749000Y-83871544D01*
X162749000Y-83843644D01*
X162748496Y-83839653D01*
X162747563Y-83827811D01*
X162747307Y-83819646D01*
X162746174Y-83783611D01*
X162740521Y-83764152D01*
X162736515Y-83744817D01*
X162736493Y-83744640D01*
X162736113Y-83741638D01*
X162747405Y-83671547D01*
X162753852Y-83659714D01*
X162807563Y-83572579D01*
X162824275Y-83545468D01*
X162824276Y-83545466D01*
X162828115Y-83539238D01*
X162854564Y-83459495D01*
X162881632Y-83377889D01*
X162881632Y-83377887D01*
X162883797Y-83371361D01*
X162894500Y-83266900D01*
X162894500Y-82341100D01*
X162893678Y-82333173D01*
X162884238Y-82242192D01*
X162884237Y-82242188D01*
X162883526Y-82235334D01*
X162853059Y-82144012D01*
X162829868Y-82074502D01*
X162827550Y-82067554D01*
X162734478Y-81917152D01*
X162609303Y-81792195D01*
X162588194Y-81779183D01*
X162464968Y-81703225D01*
X162464966Y-81703224D01*
X162458738Y-81699385D01*
X162358335Y-81666083D01*
X162297389Y-81645868D01*
X162297387Y-81645868D01*
X162290861Y-81643703D01*
X162284025Y-81643003D01*
X162284022Y-81643002D01*
X162240969Y-81638591D01*
X162186400Y-81633000D01*
X160282095Y-81633000D01*
X160213974Y-81612998D01*
X160167481Y-81559342D01*
X160157377Y-81489068D01*
X160186871Y-81424488D01*
X160193000Y-81417905D01*
X160724000Y-80886905D01*
X160786312Y-80852879D01*
X160813095Y-80850000D01*
X162186400Y-80850000D01*
X162189646Y-80849663D01*
X162189650Y-80849663D01*
X162285308Y-80839738D01*
X162285312Y-80839737D01*
X162292166Y-80839026D01*
X162298702Y-80836845D01*
X162298704Y-80836845D01*
X162452998Y-80785368D01*
X162459946Y-80783050D01*
X162610348Y-80689978D01*
X162735305Y-80564803D01*
X162784404Y-80485150D01*
X162824275Y-80420468D01*
X162824276Y-80420466D01*
X162828115Y-80414238D01*
X162877521Y-80265283D01*
X162881632Y-80252889D01*
X162881632Y-80252887D01*
X162883797Y-80246361D01*
X162888580Y-80199684D01*
X162894172Y-80145098D01*
X162894500Y-80141900D01*
X162894500Y-79216100D01*
X162891899Y-79191034D01*
X162884238Y-79117192D01*
X162884237Y-79117188D01*
X162883526Y-79110334D01*
X162862830Y-79048299D01*
X162829868Y-78949502D01*
X162827550Y-78942554D01*
X162734478Y-78792152D01*
X162609303Y-78667195D01*
X162603072Y-78663354D01*
X162464968Y-78578225D01*
X162464966Y-78578224D01*
X162458738Y-78574385D01*
X162356484Y-78540469D01*
X162297389Y-78520868D01*
X162297387Y-78520868D01*
X162290861Y-78518703D01*
X162284025Y-78518003D01*
X162284022Y-78518002D01*
X162240969Y-78513591D01*
X162186400Y-78508000D01*
X159885600Y-78508000D01*
X159882354Y-78508337D01*
X159882350Y-78508337D01*
X159786692Y-78518262D01*
X159786688Y-78518263D01*
X159779834Y-78518974D01*
X159773298Y-78521155D01*
X159773296Y-78521155D01*
X159667118Y-78556579D01*
X159612054Y-78574950D01*
X159461652Y-78668022D01*
X159336695Y-78793197D01*
X159332855Y-78799427D01*
X159332854Y-78799428D01*
X159256880Y-78922681D01*
X159243885Y-78943762D01*
X159239350Y-78957435D01*
X159194123Y-79093792D01*
X159188203Y-79111639D01*
X159177500Y-79216100D01*
X159177500Y-80141900D01*
X159177837Y-80145146D01*
X159177837Y-80145150D01*
X159187541Y-80238671D01*
X159188474Y-80247666D01*
X159190655Y-80254202D01*
X159190655Y-80254204D01*
X159205448Y-80298543D01*
X159244450Y-80415446D01*
X159252804Y-80428945D01*
X159271641Y-80497395D01*
X159250480Y-80565165D01*
X159234754Y-80584342D01*
X155003892Y-84815203D01*
X154941580Y-84849229D01*
X154870764Y-84844164D01*
X154813929Y-84801617D01*
X154793800Y-84761261D01*
X154771357Y-84684012D01*
X154771356Y-84684010D01*
X154769145Y-84676399D01*
X154684453Y-84533193D01*
X154681771Y-84530511D01*
X154656498Y-84466139D01*
X154670400Y-84396516D01*
X154680572Y-84380688D01*
X154684453Y-84376807D01*
X154769145Y-84233601D01*
X154776811Y-84207216D01*
X154799738Y-84128299D01*
X154815562Y-84073831D01*
X154816161Y-84066228D01*
X154818307Y-84038958D01*
X154818307Y-84038950D01*
X154818500Y-84036502D01*
X154818500Y-83603498D01*
X154815562Y-83566169D01*
X154769145Y-83406399D01*
X154684453Y-83263193D01*
X154681771Y-83260511D01*
X154656498Y-83196139D01*
X154670400Y-83126516D01*
X154680572Y-83110688D01*
X154684453Y-83106807D01*
X154769145Y-82963601D01*
X154815562Y-82803831D01*
X154818500Y-82766502D01*
X154818500Y-82333498D01*
X154818307Y-82331042D01*
X154816067Y-82302579D01*
X154816066Y-82302574D01*
X154815562Y-82296169D01*
X154769145Y-82136399D01*
X154684453Y-81993193D01*
X154681771Y-81990511D01*
X154656498Y-81926139D01*
X154670400Y-81856516D01*
X154680572Y-81840688D01*
X154684453Y-81836807D01*
X154769145Y-81693601D01*
X154815562Y-81533831D01*
X154818500Y-81496502D01*
X154818500Y-81063498D01*
X154817283Y-81048031D01*
X154816067Y-81032579D01*
X154816066Y-81032574D01*
X154815562Y-81026169D01*
X154781727Y-80909707D01*
X154771357Y-80874012D01*
X154771356Y-80874010D01*
X154769145Y-80866399D01*
X154684453Y-80723193D01*
X154681771Y-80720511D01*
X154656498Y-80656139D01*
X154670400Y-80586516D01*
X154680572Y-80570688D01*
X154684453Y-80566807D01*
X154769145Y-80423601D01*
X154773884Y-80407291D01*
X154805477Y-80298543D01*
X154815562Y-80263831D01*
X154816424Y-80252889D01*
X154818307Y-80228958D01*
X154818307Y-80228950D01*
X154818500Y-80226502D01*
X154818500Y-79793498D01*
X154815562Y-79756169D01*
X154769145Y-79596399D01*
X154684453Y-79453193D01*
X154681771Y-79450511D01*
X154656498Y-79386139D01*
X154670400Y-79316516D01*
X154680572Y-79300688D01*
X154684453Y-79296807D01*
X154769145Y-79153601D01*
X154815562Y-78993831D01*
X154818500Y-78956502D01*
X154818500Y-78523498D01*
X154818088Y-78518262D01*
X154816067Y-78492579D01*
X154816066Y-78492574D01*
X154815562Y-78486169D01*
X154769145Y-78326399D01*
X154684453Y-78183193D01*
X154681771Y-78180511D01*
X154656498Y-78116139D01*
X154670400Y-78046516D01*
X154680572Y-78030688D01*
X154684453Y-78026807D01*
X154769145Y-77883601D01*
X154815562Y-77723831D01*
X154818500Y-77686502D01*
X154818500Y-77253498D01*
X154815562Y-77216169D01*
X154769145Y-77056399D01*
X154752107Y-77027589D01*
X154688491Y-76920020D01*
X154688489Y-76920017D01*
X154684453Y-76913193D01*
X154566807Y-76795547D01*
X154559983Y-76791511D01*
X154559980Y-76791509D01*
X154430427Y-76714892D01*
X154430428Y-76714892D01*
X154423601Y-76710855D01*
X154415990Y-76708644D01*
X154415988Y-76708643D01*
X154363769Y-76693472D01*
X154263831Y-76664438D01*
X154257426Y-76663934D01*
X154257421Y-76663933D01*
X154228958Y-76661693D01*
X154228950Y-76661693D01*
X154226502Y-76661500D01*
X152683700Y-76661500D01*
X152615579Y-76641498D01*
X152569086Y-76587842D01*
X152557700Y-76535500D01*
X152557700Y-71926265D01*
X152577702Y-71858144D01*
X152631358Y-71811651D01*
X152651089Y-71804558D01*
X152816467Y-71760245D01*
X152816469Y-71760244D01*
X152821777Y-71758822D01*
X152826759Y-71756499D01*
X153011616Y-71670299D01*
X153011619Y-71670297D01*
X153016597Y-71667976D01*
X153192681Y-71544681D01*
X153344681Y-71392681D01*
X153467976Y-71216596D01*
X153510575Y-71125244D01*
X153556499Y-71026759D01*
X153556500Y-71026757D01*
X153558822Y-71021777D01*
X153588820Y-70909826D01*
X153613034Y-70819457D01*
X153613034Y-70819455D01*
X153614458Y-70814142D01*
X153633193Y-70600000D01*
X153614458Y-70385858D01*
X153608563Y-70363856D01*
X153560245Y-70183533D01*
X153560244Y-70183531D01*
X153558822Y-70178223D01*
X153497222Y-70046121D01*
X153470299Y-69988385D01*
X153470297Y-69988382D01*
X153467976Y-69983404D01*
X153344681Y-69807319D01*
X153192681Y-69655319D01*
X153016597Y-69532024D01*
X153011619Y-69529703D01*
X153011616Y-69529701D01*
X152826759Y-69443501D01*
X152826758Y-69443500D01*
X152821777Y-69441178D01*
X152816469Y-69439756D01*
X152816467Y-69439755D01*
X152619457Y-69386966D01*
X152619455Y-69386966D01*
X152614142Y-69385542D01*
X152400000Y-69366807D01*
X152185858Y-69385542D01*
X152180545Y-69386966D01*
X152180543Y-69386966D01*
X151983533Y-69439755D01*
X151983531Y-69439756D01*
X151978223Y-69441178D01*
X151973243Y-69443500D01*
X151973241Y-69443501D01*
X151842034Y-69504684D01*
X151771842Y-69515345D01*
X151707030Y-69486365D01*
X151699689Y-69479584D01*
X150736152Y-68516047D01*
X150728612Y-68507761D01*
X150724500Y-68501282D01*
X150674848Y-68454656D01*
X150672007Y-68451902D01*
X150652270Y-68432165D01*
X150649073Y-68429685D01*
X150640051Y-68421980D01*
X150613600Y-68397141D01*
X150607821Y-68391714D01*
X150600875Y-68387895D01*
X150600872Y-68387893D01*
X150590066Y-68381952D01*
X150573547Y-68371101D01*
X150566929Y-68365968D01*
X150557541Y-68358686D01*
X150550272Y-68355541D01*
X150550268Y-68355538D01*
X150516963Y-68341126D01*
X150506313Y-68335909D01*
X150467560Y-68314605D01*
X150447937Y-68309567D01*
X150429234Y-68303163D01*
X150417920Y-68298267D01*
X150417919Y-68298267D01*
X150410645Y-68295119D01*
X150402822Y-68293880D01*
X150402812Y-68293877D01*
X150366976Y-68288201D01*
X150355356Y-68285795D01*
X150320211Y-68276772D01*
X150320210Y-68276772D01*
X150312530Y-68274800D01*
X150292276Y-68274800D01*
X150272565Y-68273249D01*
X150260386Y-68271320D01*
X150252557Y-68270080D01*
X150244665Y-68270826D01*
X150208539Y-68274241D01*
X150196681Y-68274800D01*
X144120200Y-68274800D01*
X144052079Y-68254798D01*
X144005586Y-68201142D01*
X143994200Y-68148800D01*
X143994200Y-63485851D01*
X146306719Y-63485851D01*
X146323268Y-63682934D01*
X146377783Y-63873050D01*
X146468187Y-64048956D01*
X146591035Y-64203953D01*
X146595728Y-64207947D01*
X146595729Y-64207948D01*
X146714112Y-64308699D01*
X146741650Y-64332136D01*
X146914294Y-64428624D01*
X147102392Y-64489740D01*
X147298777Y-64513158D01*
X147304912Y-64512686D01*
X147304914Y-64512686D01*
X147489830Y-64498457D01*
X147489834Y-64498456D01*
X147495972Y-64497984D01*
X147686463Y-64444798D01*
X147691967Y-64442018D01*
X147691969Y-64442017D01*
X147857495Y-64358404D01*
X147857497Y-64358403D01*
X147862996Y-64355625D01*
X148018847Y-64233861D01*
X148148078Y-64084145D01*
X148245769Y-63912179D01*
X148293742Y-63767966D01*
X151068257Y-63767966D01*
X151098565Y-63902446D01*
X151101645Y-63912275D01*
X151181770Y-64109603D01*
X151186413Y-64118794D01*
X151297694Y-64300388D01*
X151303777Y-64308699D01*
X151443213Y-64469667D01*
X151450580Y-64476883D01*
X151614434Y-64612916D01*
X151622881Y-64618831D01*
X151806756Y-64726279D01*
X151816042Y-64730729D01*
X152015001Y-64806703D01*
X152024899Y-64809579D01*
X152128250Y-64830606D01*
X152142299Y-64829410D01*
X152146000Y-64819065D01*
X152146000Y-64818517D01*
X152654000Y-64818517D01*
X152658064Y-64832359D01*
X152671478Y-64834393D01*
X152678184Y-64833534D01*
X152688262Y-64831392D01*
X152892255Y-64770191D01*
X152901842Y-64766433D01*
X153093095Y-64672739D01*
X153101945Y-64667464D01*
X153275328Y-64543792D01*
X153283200Y-64537139D01*
X153434052Y-64386812D01*
X153440730Y-64378965D01*
X153565003Y-64206020D01*
X153570313Y-64197183D01*
X153664670Y-64006267D01*
X153668469Y-63996672D01*
X153730377Y-63792910D01*
X153732555Y-63782837D01*
X153733986Y-63771962D01*
X153731775Y-63757778D01*
X153718617Y-63754000D01*
X152672115Y-63754000D01*
X152656876Y-63758475D01*
X152655671Y-63759865D01*
X152654000Y-63767548D01*
X152654000Y-64818517D01*
X152146000Y-64818517D01*
X152146000Y-63772115D01*
X152141525Y-63756876D01*
X152140135Y-63755671D01*
X152132452Y-63754000D01*
X151083225Y-63754000D01*
X151069694Y-63757973D01*
X151068257Y-63767966D01*
X148293742Y-63767966D01*
X148308197Y-63724513D01*
X148332985Y-63528295D01*
X148333380Y-63500000D01*
X148314080Y-63303167D01*
X148293253Y-63234183D01*
X148258697Y-63119731D01*
X148256916Y-63113831D01*
X148164066Y-62939204D01*
X148064115Y-62816652D01*
X148042960Y-62790713D01*
X148042957Y-62790710D01*
X148039065Y-62785938D01*
X148032724Y-62780692D01*
X147891425Y-62663799D01*
X147891421Y-62663797D01*
X147886675Y-62659870D01*
X147712701Y-62565802D01*
X147523768Y-62507318D01*
X147517643Y-62506674D01*
X147517642Y-62506674D01*
X147333204Y-62487289D01*
X147333202Y-62487289D01*
X147327075Y-62486645D01*
X147247993Y-62493842D01*
X147136251Y-62504011D01*
X147136248Y-62504012D01*
X147130112Y-62504570D01*
X147124206Y-62506308D01*
X147124202Y-62506309D01*
X147042630Y-62530317D01*
X146940381Y-62560410D01*
X146934923Y-62563263D01*
X146934919Y-62563265D01*
X146844147Y-62610720D01*
X146765110Y-62652040D01*
X146610975Y-62775968D01*
X146483846Y-62927474D01*
X146480879Y-62932872D01*
X146480875Y-62932877D01*
X146407760Y-63065875D01*
X146388567Y-63100787D01*
X146386706Y-63106654D01*
X146386705Y-63106656D01*
X146341045Y-63250594D01*
X146328765Y-63289306D01*
X146306719Y-63485851D01*
X143994200Y-63485851D01*
X143994200Y-63014768D01*
X143994727Y-63003585D01*
X143996402Y-62996092D01*
X143994262Y-62928001D01*
X143994200Y-62924044D01*
X143994200Y-62896144D01*
X143993696Y-62892153D01*
X143992763Y-62880311D01*
X143992151Y-62860814D01*
X143991374Y-62836111D01*
X143985721Y-62816652D01*
X143981712Y-62797293D01*
X143981546Y-62795983D01*
X143979174Y-62777203D01*
X143976258Y-62769837D01*
X143976256Y-62769831D01*
X143962900Y-62736098D01*
X143959055Y-62724868D01*
X143948930Y-62690017D01*
X143948930Y-62690016D01*
X143946719Y-62682407D01*
X143936405Y-62664966D01*
X143927708Y-62647213D01*
X143923172Y-62635758D01*
X143920252Y-62628383D01*
X143894263Y-62592612D01*
X143887747Y-62582692D01*
X143876258Y-62563265D01*
X143865242Y-62544638D01*
X143850921Y-62530317D01*
X143838080Y-62515283D01*
X143826172Y-62498893D01*
X143792095Y-62470702D01*
X143783316Y-62462712D01*
X140259035Y-58938430D01*
X140225009Y-58876118D01*
X140230074Y-58805302D01*
X140265801Y-58753952D01*
X140268291Y-58751803D01*
X140272851Y-58748526D01*
X140390596Y-58627023D01*
X140419074Y-58597636D01*
X140419076Y-58597633D01*
X140422977Y-58593608D01*
X140543297Y-58414553D01*
X140559489Y-58377668D01*
X140627751Y-58222161D01*
X140630008Y-58217020D01*
X140680368Y-58007255D01*
X140692786Y-57791887D01*
X140683057Y-57711485D01*
X140667544Y-57583292D01*
X140667543Y-57583286D01*
X140666870Y-57577723D01*
X140657711Y-57547951D01*
X140656797Y-57476961D01*
X140694409Y-57416745D01*
X140758605Y-57386424D01*
X140778140Y-57384900D01*
X142925500Y-57384900D01*
X142993621Y-57404902D01*
X143040114Y-57458558D01*
X143051500Y-57510900D01*
X143051501Y-57921241D01*
X143051501Y-58331142D01*
X143062463Y-58436801D01*
X143118380Y-58604404D01*
X143211353Y-58754648D01*
X143336397Y-58879473D01*
X143486802Y-58972184D01*
X143493750Y-58974489D01*
X143493751Y-58974489D01*
X143647971Y-59025642D01*
X143647973Y-59025642D01*
X143654502Y-59027808D01*
X143758857Y-59038500D01*
X144404978Y-59038500D01*
X145061142Y-59038499D01*
X145064386Y-59038162D01*
X145064394Y-59038162D01*
X145111293Y-59033296D01*
X145166801Y-59027537D01*
X145334404Y-58971620D01*
X145484648Y-58878647D01*
X145609473Y-58753603D01*
X145702184Y-58603198D01*
X145710312Y-58578694D01*
X145755642Y-58442029D01*
X145755642Y-58442027D01*
X145757808Y-58435498D01*
X145768500Y-58331143D01*
X145768499Y-57328858D01*
X145757537Y-57223199D01*
X145701620Y-57055596D01*
X145687701Y-57033103D01*
X145668864Y-56964651D01*
X145690026Y-56896881D01*
X145744466Y-56851310D01*
X145794846Y-56840800D01*
X146107406Y-56840800D01*
X146175527Y-56860802D01*
X146196501Y-56877705D01*
X148435237Y-59116442D01*
X150671048Y-61352253D01*
X150678588Y-61360539D01*
X150682700Y-61367018D01*
X150688477Y-61372443D01*
X150732351Y-61413643D01*
X150735193Y-61416398D01*
X150754930Y-61436135D01*
X150758127Y-61438615D01*
X150767147Y-61446318D01*
X150799379Y-61476586D01*
X150806325Y-61480405D01*
X150806328Y-61480407D01*
X150817134Y-61486348D01*
X150833653Y-61497199D01*
X150849659Y-61509614D01*
X150856928Y-61512759D01*
X150856932Y-61512762D01*
X150890237Y-61527174D01*
X150900887Y-61532391D01*
X150939640Y-61553695D01*
X150947316Y-61555666D01*
X150954687Y-61558584D01*
X150954164Y-61559906D01*
X151007837Y-61591852D01*
X151039529Y-61655383D01*
X151041500Y-61677583D01*
X151041500Y-61858134D01*
X151048255Y-61920316D01*
X151099385Y-62056705D01*
X151186739Y-62173261D01*
X151303295Y-62260615D01*
X151311704Y-62263767D01*
X151311705Y-62263768D01*
X151420960Y-62304726D01*
X151477725Y-62347367D01*
X151502425Y-62413929D01*
X151487218Y-62483278D01*
X151467825Y-62509759D01*
X151344590Y-62638717D01*
X151338104Y-62646727D01*
X151218098Y-62822649D01*
X151213000Y-62831623D01*
X151123338Y-63024783D01*
X151119775Y-63034470D01*
X151064389Y-63234183D01*
X151065912Y-63242607D01*
X151078292Y-63246000D01*
X153718344Y-63246000D01*
X153731875Y-63242027D01*
X153733180Y-63232947D01*
X153691214Y-63065875D01*
X153687894Y-63056124D01*
X153602972Y-62860814D01*
X153598105Y-62851739D01*
X153482426Y-62672926D01*
X153476136Y-62664757D01*
X153332293Y-62506677D01*
X153301241Y-62442831D01*
X153309635Y-62372333D01*
X153354812Y-62317564D01*
X153381256Y-62303895D01*
X153488297Y-62263767D01*
X153496705Y-62260615D01*
X153613261Y-62173261D01*
X153700615Y-62056705D01*
X153751745Y-61920316D01*
X153758500Y-61858134D01*
X153758500Y-60061866D01*
X153751745Y-59999684D01*
X153700615Y-59863295D01*
X153613261Y-59746739D01*
X153496705Y-59659385D01*
X153360316Y-59608255D01*
X153298134Y-59601500D01*
X151501866Y-59601500D01*
X151439684Y-59608255D01*
X151303295Y-59659385D01*
X151186739Y-59746739D01*
X151181358Y-59753919D01*
X151132785Y-59818730D01*
X151075926Y-59861245D01*
X151005108Y-59866271D01*
X150942864Y-59832260D01*
X149484998Y-58374394D01*
X162990314Y-58374394D01*
X162999143Y-58386014D01*
X163203970Y-58534830D01*
X163210650Y-58539070D01*
X163469234Y-58681228D01*
X163476369Y-58684585D01*
X163750746Y-58793219D01*
X163758237Y-58795653D01*
X164044059Y-58869039D01*
X164051830Y-58870521D01*
X164344570Y-58907503D01*
X164352460Y-58908000D01*
X164647540Y-58908000D01*
X164655430Y-58907503D01*
X164948170Y-58870521D01*
X164955941Y-58869039D01*
X165241763Y-58795653D01*
X165249254Y-58793219D01*
X165523631Y-58684585D01*
X165530766Y-58681228D01*
X165789350Y-58539070D01*
X165796030Y-58534830D01*
X166001230Y-58385744D01*
X166009653Y-58374821D01*
X166002749Y-58361960D01*
X164512810Y-56872020D01*
X164498869Y-56864408D01*
X164497034Y-56864539D01*
X164490420Y-56868790D01*
X162996927Y-58362284D01*
X162990314Y-58374394D01*
X149484998Y-58374394D01*
X147614563Y-56503958D01*
X162087488Y-56503958D01*
X162106015Y-56798436D01*
X162107008Y-56806297D01*
X162162296Y-57096128D01*
X162164267Y-57103805D01*
X162255446Y-57384424D01*
X162258361Y-57391787D01*
X162383993Y-57658770D01*
X162387805Y-57665703D01*
X162545909Y-57914835D01*
X162550563Y-57921241D01*
X162615521Y-57999761D01*
X162628040Y-58008217D01*
X162638778Y-58002011D01*
X164127980Y-56512810D01*
X164134357Y-56501131D01*
X164864408Y-56501131D01*
X164864539Y-56502966D01*
X164868790Y-56509580D01*
X166360119Y-58000908D01*
X166373381Y-58008150D01*
X166383485Y-58000962D01*
X166449437Y-57921241D01*
X166454091Y-57914835D01*
X166612195Y-57665703D01*
X166616007Y-57658770D01*
X166741639Y-57391787D01*
X166744554Y-57384424D01*
X166835733Y-57103805D01*
X166837704Y-57096128D01*
X166892992Y-56806297D01*
X166893985Y-56798436D01*
X166912512Y-56503958D01*
X166912512Y-56496042D01*
X166893985Y-56201564D01*
X166892992Y-56193703D01*
X166837704Y-55903872D01*
X166835733Y-55896195D01*
X166744554Y-55615576D01*
X166741639Y-55608213D01*
X166616007Y-55341230D01*
X166612195Y-55334297D01*
X166454091Y-55085165D01*
X166449437Y-55078759D01*
X166384479Y-55000239D01*
X166371960Y-54991783D01*
X166361222Y-54997989D01*
X164872020Y-56487190D01*
X164864408Y-56501131D01*
X164134357Y-56501131D01*
X164135592Y-56498869D01*
X164135461Y-56497034D01*
X164131210Y-56490420D01*
X162639881Y-54999092D01*
X162626619Y-54991850D01*
X162616515Y-54999038D01*
X162550563Y-55078759D01*
X162545909Y-55085165D01*
X162387805Y-55334297D01*
X162383993Y-55341230D01*
X162258361Y-55608213D01*
X162255446Y-55615576D01*
X162164267Y-55896195D01*
X162162296Y-55903872D01*
X162107008Y-56193703D01*
X162106015Y-56201564D01*
X162087488Y-56496042D01*
X162087488Y-56503958D01*
X147614563Y-56503958D01*
X146925652Y-55815047D01*
X146918112Y-55806761D01*
X146914000Y-55800282D01*
X146864348Y-55753656D01*
X146861507Y-55750902D01*
X146841770Y-55731165D01*
X146838573Y-55728685D01*
X146829551Y-55720980D01*
X146816122Y-55708369D01*
X146797321Y-55690714D01*
X146790375Y-55686895D01*
X146790372Y-55686893D01*
X146779566Y-55680952D01*
X146763047Y-55670101D01*
X146762583Y-55669741D01*
X146747041Y-55657686D01*
X146739772Y-55654541D01*
X146739768Y-55654538D01*
X146706463Y-55640126D01*
X146695813Y-55634909D01*
X146657060Y-55613605D01*
X146637437Y-55608567D01*
X146618734Y-55602163D01*
X146607420Y-55597267D01*
X146607419Y-55597267D01*
X146600145Y-55594119D01*
X146592322Y-55592880D01*
X146592312Y-55592877D01*
X146556476Y-55587201D01*
X146544856Y-55584795D01*
X146509711Y-55575772D01*
X146509710Y-55575772D01*
X146502030Y-55573800D01*
X146481776Y-55573800D01*
X146462065Y-55572249D01*
X146449886Y-55570320D01*
X146442057Y-55569080D01*
X146412786Y-55571847D01*
X146398039Y-55573241D01*
X146386181Y-55573800D01*
X131603467Y-55573800D01*
X131592284Y-55573273D01*
X131584791Y-55571598D01*
X131576865Y-55571847D01*
X131576864Y-55571847D01*
X131516701Y-55573738D01*
X131512743Y-55573800D01*
X131484844Y-55573800D01*
X131480854Y-55574304D01*
X131469020Y-55575236D01*
X131424811Y-55576626D01*
X131417197Y-55578838D01*
X131417192Y-55578839D01*
X131405359Y-55582277D01*
X131385996Y-55586288D01*
X131365903Y-55588826D01*
X131358536Y-55591743D01*
X131358531Y-55591744D01*
X131324792Y-55605102D01*
X131313565Y-55608946D01*
X131271107Y-55621282D01*
X131264281Y-55625319D01*
X131253672Y-55631593D01*
X131235924Y-55640288D01*
X131217083Y-55647748D01*
X131210667Y-55652410D01*
X131210666Y-55652410D01*
X131181313Y-55673736D01*
X131171393Y-55680252D01*
X131140165Y-55698720D01*
X131140162Y-55698722D01*
X131133338Y-55702758D01*
X131119017Y-55717079D01*
X131103984Y-55729919D01*
X131087593Y-55741828D01*
X131078917Y-55752316D01*
X131059402Y-55775905D01*
X131051412Y-55784684D01*
X126955247Y-59880848D01*
X126946961Y-59888388D01*
X126940482Y-59892500D01*
X126935057Y-59898277D01*
X126893857Y-59942151D01*
X126891102Y-59944993D01*
X126871365Y-59964730D01*
X126868885Y-59967927D01*
X126861182Y-59976947D01*
X126830914Y-60009179D01*
X126827095Y-60016125D01*
X126827093Y-60016128D01*
X126821152Y-60026934D01*
X126810301Y-60043453D01*
X126797886Y-60059459D01*
X126794741Y-60066728D01*
X126794738Y-60066732D01*
X126780326Y-60100037D01*
X126775109Y-60110687D01*
X126753805Y-60149440D01*
X126751834Y-60157115D01*
X126751834Y-60157116D01*
X126748767Y-60169062D01*
X126742363Y-60187766D01*
X126734319Y-60206355D01*
X126733080Y-60214178D01*
X126733077Y-60214188D01*
X126732123Y-60220213D01*
X126701710Y-60284366D01*
X126641441Y-60321891D01*
X126607675Y-60326500D01*
X120553004Y-60326500D01*
X120484883Y-60306498D01*
X120449791Y-60272771D01*
X120360136Y-60144730D01*
X120360134Y-60144727D01*
X120356977Y-60140219D01*
X120199781Y-59983023D01*
X120195273Y-59979866D01*
X120195270Y-59979864D01*
X120119505Y-59926813D01*
X120017677Y-59855512D01*
X120012695Y-59853189D01*
X120012690Y-59853186D01*
X119821178Y-59763883D01*
X119821177Y-59763882D01*
X119816196Y-59761560D01*
X119810888Y-59760138D01*
X119810886Y-59760137D01*
X119740802Y-59741358D01*
X119601463Y-59704022D01*
X119380000Y-59684647D01*
X119158537Y-59704022D01*
X119019198Y-59741358D01*
X118949114Y-59760137D01*
X118949112Y-59760138D01*
X118943804Y-59761560D01*
X118938823Y-59763882D01*
X118938822Y-59763883D01*
X118747311Y-59853186D01*
X118747306Y-59853189D01*
X118742324Y-59855512D01*
X118737817Y-59858668D01*
X118737815Y-59858669D01*
X118564730Y-59979864D01*
X118564727Y-59979866D01*
X118560219Y-59983023D01*
X118403023Y-60140219D01*
X118399866Y-60144727D01*
X118399864Y-60144730D01*
X118288013Y-60304470D01*
X118275512Y-60322324D01*
X118273189Y-60327306D01*
X118273186Y-60327311D01*
X118235508Y-60408112D01*
X118181560Y-60523804D01*
X118180138Y-60529112D01*
X118180137Y-60529114D01*
X118165657Y-60583155D01*
X118124022Y-60738537D01*
X118104647Y-60960000D01*
X118124022Y-61181463D01*
X118181560Y-61396196D01*
X118183882Y-61401177D01*
X118183883Y-61401178D01*
X118273186Y-61592689D01*
X118273189Y-61592694D01*
X118275512Y-61597676D01*
X118278668Y-61602183D01*
X118278669Y-61602185D01*
X118279171Y-61602901D01*
X118403023Y-61779781D01*
X118560219Y-61936977D01*
X118564727Y-61940134D01*
X118564730Y-61940136D01*
X118640495Y-61993187D01*
X118742323Y-62064488D01*
X118747305Y-62066811D01*
X118747310Y-62066814D01*
X118938822Y-62156117D01*
X118943804Y-62158440D01*
X118949112Y-62159862D01*
X118949114Y-62159863D01*
X118972320Y-62166081D01*
X119158537Y-62215978D01*
X119380000Y-62235353D01*
X119601463Y-62215978D01*
X119787680Y-62166081D01*
X119810886Y-62159863D01*
X119810888Y-62159862D01*
X119816196Y-62158440D01*
X119821178Y-62156117D01*
X120012690Y-62066814D01*
X120012695Y-62066811D01*
X120017677Y-62064488D01*
X120119505Y-61993187D01*
X120195270Y-61940136D01*
X120195273Y-61940134D01*
X120199781Y-61936977D01*
X120356977Y-61779781D01*
X120444082Y-61655383D01*
X120449791Y-61647229D01*
X120505248Y-61602901D01*
X120553004Y-61593500D01*
X127032906Y-61593500D01*
X127101027Y-61613502D01*
X127122001Y-61630405D01*
X132232710Y-66741115D01*
X132266736Y-66803427D01*
X132261671Y-66874242D01*
X132257858Y-66882225D01*
X132258038Y-66882303D01*
X132254892Y-66889573D01*
X132250855Y-66896399D01*
X132204438Y-67056169D01*
X132201500Y-67093498D01*
X132201500Y-67526502D01*
X132204438Y-67563831D01*
X132250855Y-67723601D01*
X132335547Y-67866807D01*
X132338229Y-67869489D01*
X132363502Y-67933861D01*
X132349600Y-68003484D01*
X132339428Y-68019312D01*
X132335547Y-68023193D01*
X132250855Y-68166399D01*
X132204438Y-68326169D01*
X132203934Y-68332574D01*
X132203933Y-68332579D01*
X132201693Y-68361042D01*
X132201500Y-68363498D01*
X132201500Y-68796502D01*
X132204438Y-68833831D01*
X132218415Y-68881941D01*
X132241032Y-68959788D01*
X132250855Y-68993601D01*
X132254892Y-69000427D01*
X132324461Y-69118061D01*
X132335547Y-69136807D01*
X132338487Y-69139747D01*
X132363820Y-69204266D01*
X132349921Y-69273889D01*
X132337874Y-69292636D01*
X132331910Y-69300324D01*
X132255352Y-69429779D01*
X132249107Y-69444210D01*
X132210061Y-69578605D01*
X132210101Y-69592706D01*
X132217370Y-69596000D01*
X133825500Y-69596000D01*
X133893621Y-69616002D01*
X133940114Y-69669658D01*
X133951500Y-69722000D01*
X133951500Y-69978000D01*
X133931498Y-70046121D01*
X133877842Y-70092614D01*
X133825500Y-70104000D01*
X132223122Y-70104000D01*
X132209591Y-70107973D01*
X132208456Y-70115871D01*
X132249107Y-70255790D01*
X132255352Y-70270221D01*
X132331911Y-70399677D01*
X132337871Y-70407360D01*
X132363820Y-70473444D01*
X132349922Y-70543067D01*
X132339579Y-70559161D01*
X132335547Y-70563193D01*
X132250855Y-70706399D01*
X132248644Y-70714010D01*
X132248643Y-70714012D01*
X132237667Y-70751792D01*
X132204438Y-70866169D01*
X132203934Y-70872574D01*
X132203933Y-70872579D01*
X132201820Y-70899428D01*
X132201500Y-70903498D01*
X132201500Y-71336502D01*
X132201693Y-71338950D01*
X132201693Y-71338958D01*
X132203481Y-71361666D01*
X132204438Y-71373831D01*
X132250855Y-71533601D01*
X132254892Y-71540427D01*
X132322267Y-71654351D01*
X132335547Y-71676807D01*
X132338487Y-71679747D01*
X132363820Y-71744266D01*
X132349921Y-71813889D01*
X132337874Y-71832636D01*
X132331910Y-71840324D01*
X132255352Y-71969779D01*
X132249107Y-71984210D01*
X132210061Y-72118605D01*
X132210101Y-72132706D01*
X132217370Y-72136000D01*
X135171878Y-72136000D01*
X135185409Y-72132027D01*
X135186544Y-72124129D01*
X135145893Y-71984210D01*
X135139648Y-71969779D01*
X135063089Y-71840323D01*
X135057129Y-71832640D01*
X135031180Y-71766556D01*
X135045078Y-71696933D01*
X135055421Y-71680839D01*
X135059453Y-71676807D01*
X135144145Y-71533601D01*
X135190562Y-71373831D01*
X135191520Y-71361666D01*
X135193307Y-71338958D01*
X135193307Y-71338950D01*
X135193500Y-71336502D01*
X135193500Y-71101494D01*
X135213502Y-71033373D01*
X135230405Y-71012399D01*
X136843478Y-69399327D01*
X136905790Y-69365301D01*
X136976606Y-69370366D01*
X137033441Y-69412913D01*
X137058252Y-69479433D01*
X137050389Y-69530486D01*
X137050305Y-69530640D01*
X137046643Y-69544904D01*
X137045267Y-69550262D01*
X137038863Y-69568966D01*
X137030819Y-69587555D01*
X137029580Y-69595378D01*
X137029577Y-69595388D01*
X137023901Y-69631224D01*
X137021495Y-69642844D01*
X137017292Y-69659214D01*
X137010500Y-69685670D01*
X137010500Y-69705924D01*
X137008949Y-69725634D01*
X137005780Y-69745643D01*
X137006526Y-69753535D01*
X137009941Y-69789661D01*
X137010500Y-69801519D01*
X137010500Y-70794276D01*
X136990498Y-70862397D01*
X136978142Y-70878579D01*
X136904960Y-70959856D01*
X136864189Y-71030473D01*
X136832866Y-71084727D01*
X136809473Y-71125244D01*
X136750458Y-71306872D01*
X136749768Y-71313433D01*
X136749768Y-71313435D01*
X136744699Y-71361666D01*
X136730496Y-71496800D01*
X136731186Y-71503365D01*
X136749560Y-71678181D01*
X136750458Y-71686728D01*
X136809473Y-71868356D01*
X136904960Y-72033744D01*
X136909378Y-72038651D01*
X136909379Y-72038652D01*
X137028325Y-72170755D01*
X137032747Y-72175666D01*
X137187248Y-72287918D01*
X137193276Y-72290602D01*
X137193278Y-72290603D01*
X137355681Y-72362909D01*
X137361712Y-72365594D01*
X137520676Y-72399383D01*
X137583147Y-72433110D01*
X137617469Y-72495260D01*
X137612741Y-72566099D01*
X137583572Y-72611724D01*
X135407797Y-74787499D01*
X135345485Y-74821525D01*
X135274670Y-74816460D01*
X135217834Y-74773913D01*
X135193090Y-74708290D01*
X135191067Y-74682579D01*
X135191066Y-74682574D01*
X135190562Y-74676169D01*
X135144145Y-74516399D01*
X135059453Y-74373193D01*
X135056771Y-74370511D01*
X135031498Y-74306139D01*
X135045400Y-74236516D01*
X135055572Y-74220688D01*
X135059453Y-74216807D01*
X135144145Y-74073601D01*
X135152700Y-74044156D01*
X135183954Y-73936576D01*
X135190562Y-73913831D01*
X135193500Y-73876502D01*
X135193500Y-73443498D01*
X135190562Y-73406169D01*
X135144145Y-73246399D01*
X135059453Y-73103193D01*
X135056513Y-73100253D01*
X135031180Y-73035734D01*
X135045079Y-72966111D01*
X135057126Y-72947364D01*
X135063090Y-72939676D01*
X135139648Y-72810221D01*
X135145893Y-72795790D01*
X135184939Y-72661395D01*
X135184899Y-72647294D01*
X135177630Y-72644000D01*
X132223122Y-72644000D01*
X132209591Y-72647973D01*
X132208456Y-72655871D01*
X132249107Y-72795790D01*
X132255352Y-72810221D01*
X132270811Y-72836361D01*
X132288270Y-72905177D01*
X132265753Y-72972509D01*
X132210409Y-73016978D01*
X132162357Y-73026500D01*
X128062979Y-73026500D01*
X127994858Y-73006498D01*
X127981698Y-72996449D01*
X127979253Y-72993734D01*
X127933751Y-72960675D01*
X127830094Y-72885363D01*
X127830093Y-72885362D01*
X127824752Y-72881482D01*
X127818724Y-72878798D01*
X127818722Y-72878797D01*
X127656319Y-72806491D01*
X127656318Y-72806491D01*
X127650288Y-72803806D01*
X127556887Y-72783953D01*
X127469944Y-72765472D01*
X127469939Y-72765472D01*
X127463487Y-72764100D01*
X127272513Y-72764100D01*
X127266061Y-72765472D01*
X127266056Y-72765472D01*
X127179113Y-72783953D01*
X127085712Y-72803806D01*
X127079682Y-72806491D01*
X127079681Y-72806491D01*
X126917278Y-72878797D01*
X126917276Y-72878798D01*
X126911248Y-72881482D01*
X126905907Y-72885362D01*
X126905906Y-72885363D01*
X126878635Y-72905177D01*
X126756747Y-72993734D01*
X126628960Y-73135656D01*
X126533473Y-73301044D01*
X126474458Y-73482672D01*
X126454496Y-73672600D01*
X126474458Y-73862528D01*
X126533473Y-74044156D01*
X126628960Y-74209544D01*
X126633378Y-74214451D01*
X126633379Y-74214452D01*
X126708561Y-74297950D01*
X126756747Y-74351466D01*
X126786652Y-74373193D01*
X126893906Y-74451118D01*
X126911248Y-74463718D01*
X126917276Y-74466402D01*
X126917278Y-74466403D01*
X127060493Y-74530166D01*
X127085712Y-74541394D01*
X127179113Y-74561247D01*
X127266056Y-74579728D01*
X127266061Y-74579728D01*
X127272513Y-74581100D01*
X127463487Y-74581100D01*
X127469939Y-74579728D01*
X127469944Y-74579728D01*
X127556887Y-74561247D01*
X127650288Y-74541394D01*
X127675507Y-74530166D01*
X127818722Y-74466403D01*
X127818724Y-74466402D01*
X127824752Y-74463718D01*
X127842095Y-74451118D01*
X127957671Y-74367146D01*
X127979253Y-74351466D01*
X127993909Y-74335189D01*
X128054355Y-74297950D01*
X128087545Y-74293500D01*
X132161776Y-74293500D01*
X132229897Y-74313502D01*
X132276390Y-74367158D01*
X132286494Y-74437432D01*
X132270231Y-74483636D01*
X132250855Y-74516399D01*
X132204438Y-74676169D01*
X132201500Y-74713498D01*
X132201500Y-75146502D01*
X132204438Y-75183831D01*
X132250855Y-75343601D01*
X132254890Y-75350423D01*
X132258039Y-75357701D01*
X132255417Y-75358836D01*
X132269526Y-75414494D01*
X132246996Y-75481821D01*
X132232709Y-75498887D01*
X130424000Y-77307595D01*
X130361688Y-77341621D01*
X130334905Y-77344500D01*
X118977731Y-77344500D01*
X118909610Y-77324498D01*
X118874518Y-77290770D01*
X118800681Y-77185319D01*
X118648681Y-77033319D01*
X118472597Y-76910024D01*
X118467619Y-76907703D01*
X118467616Y-76907701D01*
X118282759Y-76821501D01*
X118282758Y-76821500D01*
X118277777Y-76819178D01*
X118272469Y-76817756D01*
X118272467Y-76817755D01*
X118075457Y-76764966D01*
X118075455Y-76764966D01*
X118070142Y-76763542D01*
X117856000Y-76744807D01*
X117641858Y-76763542D01*
X117636545Y-76764966D01*
X117636543Y-76764966D01*
X117439533Y-76817755D01*
X117439531Y-76817756D01*
X117434223Y-76819178D01*
X117429243Y-76821500D01*
X117429241Y-76821501D01*
X117244385Y-76907701D01*
X117244382Y-76907703D01*
X117239404Y-76910024D01*
X117063319Y-77033319D01*
X116911319Y-77185319D01*
X116788024Y-77361404D01*
X116697178Y-77556223D01*
X116695756Y-77561531D01*
X116695755Y-77561533D01*
X116653985Y-77717421D01*
X116641542Y-77763858D01*
X116622807Y-77978000D01*
X106508500Y-77978000D01*
X106508500Y-66040000D01*
X115564647Y-66040000D01*
X115584022Y-66261463D01*
X115641560Y-66476196D01*
X115643882Y-66481177D01*
X115643883Y-66481178D01*
X115733186Y-66672689D01*
X115733189Y-66672694D01*
X115735512Y-66677676D01*
X115738668Y-66682183D01*
X115738669Y-66682185D01*
X115823564Y-66803427D01*
X115863023Y-66859781D01*
X116020219Y-67016977D01*
X116024727Y-67020134D01*
X116024730Y-67020136D01*
X116067369Y-67049992D01*
X116202323Y-67144488D01*
X116207305Y-67146811D01*
X116207310Y-67146814D01*
X116398822Y-67236117D01*
X116403804Y-67238440D01*
X116409112Y-67239862D01*
X116409114Y-67239863D01*
X116474949Y-67257503D01*
X116618537Y-67295978D01*
X116840000Y-67315353D01*
X117061463Y-67295978D01*
X117205051Y-67257503D01*
X117270886Y-67239863D01*
X117270888Y-67239862D01*
X117276196Y-67238440D01*
X117281178Y-67236117D01*
X117472690Y-67146814D01*
X117472695Y-67146811D01*
X117477677Y-67144488D01*
X117612631Y-67049992D01*
X117655270Y-67020136D01*
X117655273Y-67020134D01*
X117659781Y-67016977D01*
X117816977Y-66859781D01*
X117856437Y-66803427D01*
X117941331Y-66682185D01*
X117941332Y-66682183D01*
X117944488Y-66677676D01*
X117946811Y-66672694D01*
X117946814Y-66672689D01*
X118036117Y-66481178D01*
X118036118Y-66481177D01*
X118038440Y-66476196D01*
X118095978Y-66261463D01*
X118115353Y-66040000D01*
X120644647Y-66040000D01*
X120664022Y-66261463D01*
X120721560Y-66476196D01*
X120723882Y-66481177D01*
X120723883Y-66481178D01*
X120813186Y-66672689D01*
X120813189Y-66672694D01*
X120815512Y-66677676D01*
X120818668Y-66682183D01*
X120818669Y-66682185D01*
X120903564Y-66803427D01*
X120943023Y-66859781D01*
X121100219Y-67016977D01*
X121104727Y-67020134D01*
X121104730Y-67020136D01*
X121147369Y-67049992D01*
X121282323Y-67144488D01*
X121287305Y-67146811D01*
X121287310Y-67146814D01*
X121478822Y-67236117D01*
X121483804Y-67238440D01*
X121489112Y-67239862D01*
X121489114Y-67239863D01*
X121554949Y-67257503D01*
X121698537Y-67295978D01*
X121920000Y-67315353D01*
X122141463Y-67295978D01*
X122285051Y-67257503D01*
X122350886Y-67239863D01*
X122350888Y-67239862D01*
X122356196Y-67238440D01*
X122361178Y-67236117D01*
X122552690Y-67146814D01*
X122552695Y-67146811D01*
X122557677Y-67144488D01*
X122692631Y-67049992D01*
X122735270Y-67020136D01*
X122735273Y-67020134D01*
X122739781Y-67016977D01*
X122896977Y-66859781D01*
X122936437Y-66803427D01*
X123021331Y-66682185D01*
X123021332Y-66682183D01*
X123024488Y-66677676D01*
X123026811Y-66672694D01*
X123026814Y-66672689D01*
X123116117Y-66481178D01*
X123116118Y-66481177D01*
X123118440Y-66476196D01*
X123175978Y-66261463D01*
X123195353Y-66040000D01*
X123175978Y-65818537D01*
X123118440Y-65603804D01*
X123116117Y-65598822D01*
X123026814Y-65407311D01*
X123026811Y-65407306D01*
X123024488Y-65402324D01*
X122896977Y-65220219D01*
X122739781Y-65063023D01*
X122735273Y-65059866D01*
X122735270Y-65059864D01*
X122659505Y-65006813D01*
X122557677Y-64935512D01*
X122552695Y-64933189D01*
X122552690Y-64933186D01*
X122361178Y-64843883D01*
X122361177Y-64843882D01*
X122356196Y-64841560D01*
X122350888Y-64840138D01*
X122350886Y-64840137D01*
X122236842Y-64809579D01*
X122141463Y-64784022D01*
X121920000Y-64764647D01*
X121698537Y-64784022D01*
X121603158Y-64809579D01*
X121489114Y-64840137D01*
X121489112Y-64840138D01*
X121483804Y-64841560D01*
X121478823Y-64843882D01*
X121478822Y-64843883D01*
X121287311Y-64933186D01*
X121287306Y-64933189D01*
X121282324Y-64935512D01*
X121277817Y-64938668D01*
X121277815Y-64938669D01*
X121104730Y-65059864D01*
X121104727Y-65059866D01*
X121100219Y-65063023D01*
X120943023Y-65220219D01*
X120815512Y-65402324D01*
X120813189Y-65407306D01*
X120813186Y-65407311D01*
X120723883Y-65598822D01*
X120721560Y-65603804D01*
X120664022Y-65818537D01*
X120644647Y-66040000D01*
X118115353Y-66040000D01*
X118095978Y-65818537D01*
X118038440Y-65603804D01*
X118036117Y-65598822D01*
X117946814Y-65407311D01*
X117946811Y-65407306D01*
X117944488Y-65402324D01*
X117816977Y-65220219D01*
X117659781Y-65063023D01*
X117655273Y-65059866D01*
X117655270Y-65059864D01*
X117579505Y-65006813D01*
X117477677Y-64935512D01*
X117472695Y-64933189D01*
X117472690Y-64933186D01*
X117281178Y-64843883D01*
X117281177Y-64843882D01*
X117276196Y-64841560D01*
X117270888Y-64840138D01*
X117270886Y-64840137D01*
X117156842Y-64809579D01*
X117061463Y-64784022D01*
X116840000Y-64764647D01*
X116618537Y-64784022D01*
X116523158Y-64809579D01*
X116409114Y-64840137D01*
X116409112Y-64840138D01*
X116403804Y-64841560D01*
X116398823Y-64843882D01*
X116398822Y-64843883D01*
X116207311Y-64933186D01*
X116207306Y-64933189D01*
X116202324Y-64935512D01*
X116197817Y-64938668D01*
X116197815Y-64938669D01*
X116024730Y-65059864D01*
X116024727Y-65059866D01*
X116020219Y-65063023D01*
X115863023Y-65220219D01*
X115735512Y-65402324D01*
X115733189Y-65407306D01*
X115733186Y-65407311D01*
X115643883Y-65598822D01*
X115641560Y-65603804D01*
X115584022Y-65818537D01*
X115564647Y-66040000D01*
X106508500Y-66040000D01*
X106508500Y-58374394D01*
X107990314Y-58374394D01*
X107999143Y-58386014D01*
X108203970Y-58534830D01*
X108210650Y-58539070D01*
X108469234Y-58681228D01*
X108476369Y-58684585D01*
X108750746Y-58793219D01*
X108758237Y-58795653D01*
X109044059Y-58869039D01*
X109051830Y-58870521D01*
X109344570Y-58907503D01*
X109352460Y-58908000D01*
X109647540Y-58908000D01*
X109655430Y-58907503D01*
X109948170Y-58870521D01*
X109955941Y-58869039D01*
X110241763Y-58795653D01*
X110249254Y-58793219D01*
X110523631Y-58684585D01*
X110530766Y-58681228D01*
X110789350Y-58539070D01*
X110796030Y-58534830D01*
X111001230Y-58385744D01*
X111009653Y-58374821D01*
X111002749Y-58361960D01*
X109512810Y-56872020D01*
X109498869Y-56864408D01*
X109497034Y-56864539D01*
X109490420Y-56868790D01*
X107996927Y-58362284D01*
X107990314Y-58374394D01*
X106508500Y-58374394D01*
X106508500Y-56503958D01*
X107087488Y-56503958D01*
X107106015Y-56798436D01*
X107107008Y-56806297D01*
X107162296Y-57096128D01*
X107164267Y-57103805D01*
X107255446Y-57384424D01*
X107258361Y-57391787D01*
X107383993Y-57658770D01*
X107387805Y-57665703D01*
X107545909Y-57914835D01*
X107550563Y-57921241D01*
X107615521Y-57999761D01*
X107628040Y-58008217D01*
X107638778Y-58002011D01*
X109127980Y-56512810D01*
X109134357Y-56501131D01*
X109864408Y-56501131D01*
X109864539Y-56502966D01*
X109868790Y-56509580D01*
X111360119Y-58000908D01*
X111373381Y-58008150D01*
X111383485Y-58000962D01*
X111449437Y-57921241D01*
X111454091Y-57914835D01*
X111612195Y-57665703D01*
X111616007Y-57658770D01*
X111741639Y-57391787D01*
X111744554Y-57384424D01*
X111835733Y-57103805D01*
X111837704Y-57096128D01*
X111892992Y-56806297D01*
X111893985Y-56798436D01*
X111912512Y-56503958D01*
X111912512Y-56496042D01*
X111893985Y-56201564D01*
X111892992Y-56193703D01*
X111837704Y-55903872D01*
X111835733Y-55896195D01*
X111744554Y-55615576D01*
X111741639Y-55608213D01*
X111616007Y-55341230D01*
X111612195Y-55334297D01*
X111454091Y-55085165D01*
X111449437Y-55078759D01*
X111384479Y-55000239D01*
X111371960Y-54991783D01*
X111361222Y-54997989D01*
X109872020Y-56487190D01*
X109864408Y-56501131D01*
X109134357Y-56501131D01*
X109135592Y-56498869D01*
X109135461Y-56497034D01*
X109131210Y-56490420D01*
X107639881Y-54999092D01*
X107626619Y-54991850D01*
X107616515Y-54999038D01*
X107550563Y-55078759D01*
X107545909Y-55085165D01*
X107387805Y-55334297D01*
X107383993Y-55341230D01*
X107258361Y-55608213D01*
X107255446Y-55615576D01*
X107164267Y-55896195D01*
X107162296Y-55903872D01*
X107107008Y-56193703D01*
X107106015Y-56201564D01*
X107087488Y-56496042D01*
X107087488Y-56503958D01*
X106508500Y-56503958D01*
X106508500Y-54625179D01*
X107990347Y-54625179D01*
X107997251Y-54638040D01*
X109487190Y-56127980D01*
X109501131Y-56135592D01*
X109502966Y-56135461D01*
X109509580Y-56131210D01*
X111003073Y-54637716D01*
X111009686Y-54625606D01*
X111009362Y-54625179D01*
X162990347Y-54625179D01*
X162997251Y-54638040D01*
X164487190Y-56127980D01*
X164501131Y-56135592D01*
X164502966Y-56135461D01*
X164509580Y-56131210D01*
X166003073Y-54637716D01*
X166009686Y-54625606D01*
X166000857Y-54613986D01*
X165796030Y-54465170D01*
X165789350Y-54460930D01*
X165530766Y-54318772D01*
X165523631Y-54315415D01*
X165249254Y-54206781D01*
X165241763Y-54204347D01*
X164955941Y-54130961D01*
X164948170Y-54129479D01*
X164655430Y-54092497D01*
X164647540Y-54092000D01*
X164352460Y-54092000D01*
X164344570Y-54092497D01*
X164051830Y-54129479D01*
X164044059Y-54130961D01*
X163758237Y-54204347D01*
X163750746Y-54206781D01*
X163476369Y-54315415D01*
X163469234Y-54318772D01*
X163210650Y-54460930D01*
X163203970Y-54465170D01*
X162998770Y-54614256D01*
X162990347Y-54625179D01*
X111009362Y-54625179D01*
X111000857Y-54613986D01*
X110796030Y-54465170D01*
X110789350Y-54460930D01*
X110530766Y-54318772D01*
X110523631Y-54315415D01*
X110249254Y-54206781D01*
X110241763Y-54204347D01*
X109955941Y-54130961D01*
X109948170Y-54129479D01*
X109655430Y-54092497D01*
X109647540Y-54092000D01*
X109352460Y-54092000D01*
X109344570Y-54092497D01*
X109051830Y-54129479D01*
X109044059Y-54130961D01*
X108758237Y-54204347D01*
X108750746Y-54206781D01*
X108476369Y-54315415D01*
X108469234Y-54318772D01*
X108210650Y-54460930D01*
X108203970Y-54465170D01*
X107998770Y-54614256D01*
X107990347Y-54625179D01*
X106508500Y-54625179D01*
X106508500Y-53784500D01*
X106528502Y-53716379D01*
X106582158Y-53669886D01*
X106634500Y-53658500D01*
X167615500Y-53658500D01*
X167683621Y-53678502D01*
G37*
%TD.AperFunction*%
%TA.AperFunction,Conductor*%
G36*
X146404769Y-69561802D02*
G01*
X146451262Y-69615458D01*
X146461366Y-69685732D01*
X146431872Y-69750312D01*
X146425743Y-69756895D01*
X146375319Y-69807319D01*
X146252024Y-69983404D01*
X146249703Y-69988382D01*
X146249701Y-69988385D01*
X146222778Y-70046121D01*
X146161178Y-70178223D01*
X146159756Y-70183531D01*
X146159755Y-70183533D01*
X146111437Y-70363856D01*
X146105542Y-70385858D01*
X146086807Y-70600000D01*
X146105542Y-70814142D01*
X146106966Y-70819457D01*
X146106967Y-70819460D01*
X146108779Y-70826224D01*
X146107089Y-70897200D01*
X146076167Y-70947929D01*
X145331089Y-71693006D01*
X144596947Y-72427148D01*
X144588661Y-72434688D01*
X144582182Y-72438800D01*
X144576757Y-72444577D01*
X144535557Y-72488451D01*
X144532802Y-72491293D01*
X144513065Y-72511030D01*
X144510585Y-72514227D01*
X144502882Y-72523247D01*
X144472614Y-72555479D01*
X144468795Y-72562425D01*
X144468793Y-72562428D01*
X144462852Y-72573234D01*
X144452001Y-72589753D01*
X144439586Y-72605759D01*
X144436441Y-72613028D01*
X144436438Y-72613032D01*
X144422026Y-72646337D01*
X144416809Y-72656987D01*
X144395505Y-72695740D01*
X144391012Y-72713241D01*
X144390467Y-72715362D01*
X144384063Y-72734066D01*
X144376019Y-72752655D01*
X144374780Y-72760478D01*
X144374777Y-72760488D01*
X144369101Y-72796324D01*
X144366695Y-72807944D01*
X144359399Y-72836361D01*
X144355700Y-72850770D01*
X144355700Y-72871024D01*
X144354149Y-72890734D01*
X144350980Y-72910743D01*
X144351726Y-72918635D01*
X144355141Y-72954761D01*
X144355700Y-72966619D01*
X144355700Y-80965406D01*
X144335698Y-81033527D01*
X144318795Y-81054501D01*
X137340500Y-88032795D01*
X137278188Y-88066821D01*
X137251405Y-88069700D01*
X136110332Y-88069700D01*
X136042211Y-88049698D01*
X135995718Y-87996042D01*
X135985614Y-87925768D01*
X136000776Y-87881463D01*
X136026523Y-87836140D01*
X136053769Y-87788179D01*
X136116197Y-87600513D01*
X136140985Y-87404295D01*
X136141380Y-87376000D01*
X136122080Y-87179167D01*
X136064916Y-86989831D01*
X135972066Y-86815204D01*
X135901709Y-86728938D01*
X135850960Y-86666713D01*
X135850957Y-86666710D01*
X135847065Y-86661938D01*
X135840724Y-86656692D01*
X135699425Y-86539799D01*
X135699421Y-86539797D01*
X135694675Y-86535870D01*
X135520701Y-86441802D01*
X135331768Y-86383318D01*
X135325643Y-86382674D01*
X135325642Y-86382674D01*
X135141204Y-86363289D01*
X135141202Y-86363289D01*
X135135075Y-86362645D01*
X135052576Y-86370153D01*
X134944251Y-86380011D01*
X134944248Y-86380012D01*
X134938112Y-86380570D01*
X134932206Y-86382308D01*
X134932202Y-86382309D01*
X134836689Y-86410420D01*
X134748381Y-86436410D01*
X134742923Y-86439263D01*
X134742919Y-86439265D01*
X134652147Y-86486720D01*
X134573110Y-86528040D01*
X134418975Y-86651968D01*
X134291846Y-86803474D01*
X134288879Y-86808872D01*
X134288875Y-86808877D01*
X134285397Y-86815204D01*
X134196567Y-86976787D01*
X134194706Y-86982654D01*
X134194705Y-86982656D01*
X134138627Y-87159436D01*
X134136765Y-87165306D01*
X134114719Y-87361851D01*
X134131268Y-87558934D01*
X134185783Y-87749050D01*
X134188602Y-87754535D01*
X134256220Y-87886105D01*
X134269568Y-87955836D01*
X134243098Y-88021714D01*
X134185214Y-88062822D01*
X134144154Y-88069700D01*
X133351667Y-88069700D01*
X133340484Y-88069173D01*
X133332991Y-88067498D01*
X133325065Y-88067747D01*
X133325064Y-88067747D01*
X133264914Y-88069638D01*
X133260955Y-88069700D01*
X133233044Y-88069700D01*
X133229110Y-88070197D01*
X133229109Y-88070197D01*
X133229044Y-88070205D01*
X133217207Y-88071138D01*
X133185390Y-88072138D01*
X133180929Y-88072278D01*
X133173010Y-88072527D01*
X133155354Y-88077656D01*
X133153558Y-88078178D01*
X133134206Y-88082186D01*
X133129410Y-88082792D01*
X133114103Y-88084726D01*
X133106734Y-88087643D01*
X133106732Y-88087644D01*
X133072997Y-88101000D01*
X133061769Y-88104845D01*
X133019307Y-88117182D01*
X133012484Y-88121217D01*
X133012482Y-88121218D01*
X133001872Y-88127493D01*
X132984124Y-88136188D01*
X132965283Y-88143648D01*
X132958867Y-88148310D01*
X132958866Y-88148310D01*
X132929513Y-88169636D01*
X132919593Y-88176152D01*
X132888365Y-88194620D01*
X132888362Y-88194622D01*
X132881538Y-88198658D01*
X132867217Y-88212979D01*
X132852184Y-88225819D01*
X132835793Y-88237728D01*
X132828777Y-88246209D01*
X132807602Y-88271805D01*
X132799612Y-88280584D01*
X128635047Y-92445148D01*
X128626761Y-92452688D01*
X128620282Y-92456800D01*
X128614857Y-92462577D01*
X128573657Y-92506451D01*
X128570902Y-92509293D01*
X128565600Y-92514595D01*
X128503288Y-92548621D01*
X128476505Y-92551500D01*
X127416100Y-92551500D01*
X127347979Y-92531498D01*
X127301486Y-92477842D01*
X127290100Y-92425500D01*
X127290100Y-84749194D01*
X127310102Y-84681073D01*
X127327005Y-84660099D01*
X137731950Y-74255155D01*
X137794262Y-74221129D01*
X137865077Y-74226194D01*
X137914681Y-74259939D01*
X137985747Y-74338866D01*
X138140248Y-74451118D01*
X138146276Y-74453802D01*
X138146278Y-74453803D01*
X138271554Y-74509579D01*
X138314712Y-74528794D01*
X138380445Y-74542766D01*
X138495056Y-74567128D01*
X138495061Y-74567128D01*
X138501513Y-74568500D01*
X138692487Y-74568500D01*
X138698939Y-74567128D01*
X138698944Y-74567128D01*
X138813555Y-74542766D01*
X138879288Y-74528794D01*
X138885315Y-74526111D01*
X138885323Y-74526108D01*
X138967804Y-74489385D01*
X139038171Y-74479951D01*
X139102468Y-74510058D01*
X139140281Y-74570147D01*
X139140049Y-74639644D01*
X139131233Y-74669989D01*
X139131232Y-74669993D01*
X139129438Y-74676169D01*
X139126500Y-74713498D01*
X139126500Y-75146502D01*
X139129438Y-75183831D01*
X139175855Y-75343601D01*
X139179890Y-75350423D01*
X139183039Y-75357701D01*
X139180417Y-75358836D01*
X139194526Y-75414494D01*
X139171996Y-75481821D01*
X139157709Y-75498887D01*
X136162747Y-78493848D01*
X136154461Y-78501388D01*
X136147982Y-78505500D01*
X136142557Y-78511277D01*
X136101357Y-78555151D01*
X136098602Y-78557993D01*
X136078865Y-78577730D01*
X136076385Y-78580927D01*
X136068682Y-78589947D01*
X136038414Y-78622179D01*
X136034595Y-78629125D01*
X136034593Y-78629128D01*
X136028652Y-78639934D01*
X136017801Y-78656453D01*
X136005386Y-78672459D01*
X136002241Y-78679728D01*
X136002238Y-78679732D01*
X135987826Y-78713037D01*
X135982609Y-78723687D01*
X135961305Y-78762440D01*
X135959334Y-78770115D01*
X135959334Y-78770116D01*
X135956267Y-78782062D01*
X135949863Y-78800766D01*
X135941819Y-78819355D01*
X135940580Y-78827178D01*
X135940577Y-78827188D01*
X135934901Y-78863024D01*
X135932495Y-78874644D01*
X135921500Y-78917470D01*
X135921500Y-78937724D01*
X135919949Y-78957434D01*
X135916780Y-78977443D01*
X135917526Y-78985335D01*
X135920941Y-79021461D01*
X135921500Y-79033319D01*
X135921500Y-79881692D01*
X135901498Y-79949813D01*
X135853683Y-79993453D01*
X135828607Y-80006507D01*
X135824474Y-80009610D01*
X135824471Y-80009612D01*
X135654100Y-80137530D01*
X135649965Y-80140635D01*
X135610525Y-80181907D01*
X135556280Y-80238671D01*
X135495629Y-80302138D01*
X135369743Y-80486680D01*
X135332100Y-80567775D01*
X135278412Y-80683437D01*
X135275688Y-80689305D01*
X135215989Y-80904570D01*
X135192251Y-81126695D01*
X135192548Y-81131848D01*
X135192548Y-81131851D01*
X135201154Y-81281107D01*
X135205110Y-81349715D01*
X135206247Y-81354761D01*
X135206248Y-81354767D01*
X135221961Y-81424488D01*
X135254222Y-81567639D01*
X135306115Y-81695438D01*
X135321148Y-81732458D01*
X135338266Y-81774616D01*
X135454987Y-81965088D01*
X135601250Y-82133938D01*
X135773126Y-82276632D01*
X135966000Y-82389338D01*
X136174692Y-82469030D01*
X136179760Y-82470061D01*
X136179763Y-82470062D01*
X136287017Y-82491883D01*
X136393597Y-82513567D01*
X136398772Y-82513757D01*
X136398774Y-82513757D01*
X136611673Y-82521564D01*
X136611677Y-82521564D01*
X136616837Y-82521753D01*
X136621957Y-82521097D01*
X136621959Y-82521097D01*
X136833288Y-82494025D01*
X136833289Y-82494025D01*
X136838416Y-82493368D01*
X136887307Y-82478700D01*
X137047429Y-82430661D01*
X137047434Y-82430659D01*
X137052384Y-82429174D01*
X137252994Y-82330896D01*
X137434860Y-82201173D01*
X137543091Y-82093319D01*
X137605462Y-82059404D01*
X137676268Y-82064592D01*
X137733030Y-82107238D01*
X137750012Y-82138341D01*
X137772201Y-82197529D01*
X137794385Y-82256705D01*
X137881739Y-82373261D01*
X137998295Y-82460615D01*
X138134684Y-82511745D01*
X138196866Y-82518500D01*
X139993134Y-82518500D01*
X140055316Y-82511745D01*
X140191705Y-82460615D01*
X140308261Y-82373261D01*
X140395615Y-82256705D01*
X140446745Y-82120316D01*
X140453500Y-82058134D01*
X140453500Y-80261866D01*
X140446745Y-80199684D01*
X140395615Y-80063295D01*
X140308261Y-79946739D01*
X140191705Y-79859385D01*
X140055316Y-79808255D01*
X139993134Y-79801500D01*
X138196866Y-79801500D01*
X138134684Y-79808255D01*
X137998295Y-79859385D01*
X137881739Y-79946739D01*
X137794385Y-80063295D01*
X137791233Y-80071703D01*
X137749919Y-80181907D01*
X137707277Y-80238671D01*
X137640716Y-80263371D01*
X137571367Y-80248163D01*
X137538743Y-80222476D01*
X137488151Y-80166875D01*
X137488142Y-80166866D01*
X137484670Y-80163051D01*
X137480619Y-80159852D01*
X137480615Y-80159848D01*
X137313414Y-80027800D01*
X137313410Y-80027798D01*
X137309359Y-80024598D01*
X137304835Y-80022101D01*
X137304831Y-80022098D01*
X137253608Y-79993822D01*
X137203636Y-79943390D01*
X137188500Y-79883513D01*
X137188500Y-79312094D01*
X137208502Y-79243973D01*
X137225405Y-79222999D01*
X140672999Y-75775405D01*
X140735311Y-75741379D01*
X140762094Y-75738500D01*
X141526502Y-75738500D01*
X141528950Y-75738307D01*
X141528958Y-75738307D01*
X141557421Y-75736067D01*
X141557426Y-75736066D01*
X141563831Y-75735562D01*
X141663769Y-75706528D01*
X141715988Y-75691357D01*
X141715990Y-75691356D01*
X141723601Y-75689145D01*
X141752411Y-75672107D01*
X141859980Y-75608491D01*
X141859983Y-75608489D01*
X141866807Y-75604453D01*
X141984453Y-75486807D01*
X141988489Y-75479983D01*
X141988491Y-75479980D01*
X142065108Y-75350427D01*
X142069145Y-75343601D01*
X142115562Y-75183831D01*
X142118500Y-75146502D01*
X142118500Y-74713498D01*
X142115562Y-74676169D01*
X142069145Y-74516399D01*
X141984453Y-74373193D01*
X141981771Y-74370511D01*
X141956498Y-74306139D01*
X141970400Y-74236516D01*
X141980572Y-74220688D01*
X141984453Y-74216807D01*
X142069145Y-74073601D01*
X142077700Y-74044156D01*
X142108954Y-73936576D01*
X142115562Y-73913831D01*
X142118500Y-73876502D01*
X142118500Y-73443498D01*
X142115562Y-73406169D01*
X142069145Y-73246399D01*
X141984453Y-73103193D01*
X141981513Y-73100253D01*
X141956180Y-73035734D01*
X141970079Y-72966111D01*
X141982126Y-72947364D01*
X141988090Y-72939676D01*
X142064648Y-72810221D01*
X142070893Y-72795790D01*
X142109939Y-72661395D01*
X142109899Y-72647294D01*
X142102630Y-72644000D01*
X140494500Y-72644000D01*
X140426379Y-72623998D01*
X140379886Y-72570342D01*
X140368500Y-72518000D01*
X140368500Y-72262000D01*
X140388502Y-72193879D01*
X140442158Y-72147386D01*
X140494500Y-72136000D01*
X142096878Y-72136000D01*
X142110409Y-72132027D01*
X142111544Y-72124129D01*
X142070893Y-71984210D01*
X142064648Y-71969779D01*
X141988089Y-71840323D01*
X141982129Y-71832640D01*
X141956180Y-71766556D01*
X141970078Y-71696933D01*
X141980421Y-71680839D01*
X141984453Y-71676807D01*
X142069145Y-71533601D01*
X142115562Y-71373831D01*
X142116520Y-71361666D01*
X142118307Y-71338958D01*
X142118307Y-71338950D01*
X142118500Y-71336502D01*
X142118500Y-71098594D01*
X142138502Y-71030473D01*
X142155405Y-71009499D01*
X143586199Y-69578705D01*
X143648511Y-69544679D01*
X143675294Y-69541800D01*
X146336648Y-69541800D01*
X146404769Y-69561802D01*
G37*
%TD.AperFunction*%
%TA.AperFunction,Conductor*%
G36*
X138248940Y-58606968D02*
G01*
X138268194Y-58627023D01*
X138283415Y-58646860D01*
X138283419Y-58646864D01*
X138286831Y-58651311D01*
X138323399Y-58684585D01*
X138442242Y-58792724D01*
X138442245Y-58792726D01*
X138446389Y-58796497D01*
X138629135Y-58911134D01*
X138633331Y-58912821D01*
X138684694Y-58961331D01*
X138699229Y-59002067D01*
X138699327Y-59005189D01*
X138704978Y-59024639D01*
X138708987Y-59044000D01*
X138711526Y-59064097D01*
X138714445Y-59071468D01*
X138714445Y-59071470D01*
X138727804Y-59105212D01*
X138731649Y-59116442D01*
X138743982Y-59158893D01*
X138748015Y-59165712D01*
X138748017Y-59165717D01*
X138754293Y-59176328D01*
X138762988Y-59194076D01*
X138770448Y-59212917D01*
X138775110Y-59219333D01*
X138775110Y-59219334D01*
X138796436Y-59248687D01*
X138802952Y-59258607D01*
X138825458Y-59296662D01*
X138839779Y-59310983D01*
X138852619Y-59326016D01*
X138864528Y-59342407D01*
X138870634Y-59347458D01*
X138898605Y-59370598D01*
X138907384Y-59378588D01*
X142690295Y-63161499D01*
X142724321Y-63223811D01*
X142727200Y-63250594D01*
X142727200Y-68593706D01*
X142707198Y-68661827D01*
X142690295Y-68682801D01*
X142289061Y-69084035D01*
X142226749Y-69118061D01*
X142155934Y-69112996D01*
X142099098Y-69070449D01*
X142074287Y-69003929D01*
X142078969Y-68959788D01*
X142113767Y-68840011D01*
X142113768Y-68840007D01*
X142115562Y-68833831D01*
X142118500Y-68796502D01*
X142118500Y-68363498D01*
X142118307Y-68361042D01*
X142116067Y-68332579D01*
X142116066Y-68332574D01*
X142115562Y-68326169D01*
X142069145Y-68166399D01*
X141984453Y-68023193D01*
X141981771Y-68020511D01*
X141956498Y-67956139D01*
X141970400Y-67886516D01*
X141980572Y-67870688D01*
X141984453Y-67866807D01*
X142069145Y-67723601D01*
X142115562Y-67563831D01*
X142118500Y-67526502D01*
X142118500Y-67093498D01*
X142115562Y-67056169D01*
X142069145Y-66896399D01*
X142018181Y-66810224D01*
X141988491Y-66760020D01*
X141988489Y-66760017D01*
X141984453Y-66753193D01*
X141866807Y-66635547D01*
X141859983Y-66631511D01*
X141859980Y-66631509D01*
X141730427Y-66554892D01*
X141730428Y-66554892D01*
X141723601Y-66550855D01*
X141715990Y-66548644D01*
X141715988Y-66548643D01*
X141663769Y-66533472D01*
X141563831Y-66504438D01*
X141557426Y-66503934D01*
X141557421Y-66503933D01*
X141528958Y-66501693D01*
X141528950Y-66501693D01*
X141526502Y-66501500D01*
X139718498Y-66501500D01*
X139716050Y-66501693D01*
X139716042Y-66501693D01*
X139687579Y-66503933D01*
X139687574Y-66503934D01*
X139681169Y-66504438D01*
X139581231Y-66533472D01*
X139529012Y-66548643D01*
X139529010Y-66548644D01*
X139521399Y-66550855D01*
X139514572Y-66554892D01*
X139514573Y-66554892D01*
X139385020Y-66631509D01*
X139385017Y-66631511D01*
X139378193Y-66635547D01*
X139260547Y-66753193D01*
X139256511Y-66760017D01*
X139256509Y-66760020D01*
X139226819Y-66810224D01*
X139175855Y-66896399D01*
X139129438Y-67056169D01*
X139126500Y-67093498D01*
X139126500Y-67335105D01*
X139106498Y-67403226D01*
X139089595Y-67424200D01*
X137590522Y-68923273D01*
X137528210Y-68957299D01*
X137457395Y-68952234D01*
X137400559Y-68909687D01*
X137375748Y-68843167D01*
X137383611Y-68792114D01*
X137383695Y-68791960D01*
X137388733Y-68772337D01*
X137395137Y-68753634D01*
X137400033Y-68742320D01*
X137400033Y-68742319D01*
X137403181Y-68735045D01*
X137404420Y-68727222D01*
X137404423Y-68727212D01*
X137410099Y-68691376D01*
X137412505Y-68679756D01*
X137421528Y-68644611D01*
X137421528Y-68644610D01*
X137423500Y-68636930D01*
X137423500Y-68616676D01*
X137425051Y-68596965D01*
X137426980Y-68584786D01*
X137428220Y-68576957D01*
X137424059Y-68532938D01*
X137423500Y-68521081D01*
X137423500Y-59153933D01*
X137443502Y-59085812D01*
X137497158Y-59039319D01*
X137536498Y-59028606D01*
X137539943Y-59028249D01*
X137539947Y-59028248D01*
X137546801Y-59027537D01*
X137714404Y-58971620D01*
X137864648Y-58878647D01*
X137989473Y-58753603D01*
X137995087Y-58744496D01*
X138060972Y-58637611D01*
X138113745Y-58590117D01*
X138183816Y-58578694D01*
X138248940Y-58606968D01*
G37*
%TD.AperFunction*%
%TA.AperFunction,Conductor*%
G36*
X130414669Y-58317402D02*
G01*
X130471505Y-58359949D01*
X130482603Y-58377668D01*
X130508918Y-58428653D01*
X130535505Y-58480164D01*
X130538920Y-58484614D01*
X130663415Y-58646860D01*
X130663419Y-58646864D01*
X130666831Y-58651311D01*
X130703399Y-58684585D01*
X130822242Y-58792724D01*
X130822245Y-58792726D01*
X130826389Y-58796497D01*
X130831141Y-58799478D01*
X131004379Y-58908151D01*
X131004383Y-58908153D01*
X131009135Y-58911134D01*
X131209293Y-58991597D01*
X131420537Y-59035344D01*
X131425148Y-59035610D01*
X131425149Y-59035610D01*
X131473452Y-59038395D01*
X131473456Y-59038395D01*
X131475275Y-59038500D01*
X131914735Y-59038500D01*
X131917522Y-59038251D01*
X131917528Y-59038251D01*
X131984240Y-59032297D01*
X132074872Y-59024208D01*
X132282952Y-58967284D01*
X132288011Y-58964871D01*
X132288019Y-58964868D01*
X132342142Y-58939053D01*
X132412238Y-58927780D01*
X132477301Y-58956194D01*
X132485480Y-58963684D01*
X134444195Y-60922399D01*
X134478221Y-60984711D01*
X134481100Y-61011494D01*
X134481100Y-66375500D01*
X134461098Y-66443621D01*
X134407442Y-66490114D01*
X134355100Y-66501500D01*
X133837094Y-66501500D01*
X133768973Y-66481498D01*
X133747999Y-66464595D01*
X128044750Y-60761345D01*
X128010724Y-60699033D01*
X128015789Y-60628218D01*
X128044750Y-60583155D01*
X130281542Y-58346363D01*
X130343854Y-58312337D01*
X130414669Y-58317402D01*
G37*
%TD.AperFunction*%
%TD*%
M02*
