M48
; DRILL file {KiCad (6.0.11)} date Wed Feb 15 13:19:23 2023
; FORMAT={-:-/ absolute / inch / decimal}
; #@! TF.CreationDate,2023-02-15T13:19:23+01:00
; #@! TF.GenerationSoftware,Kicad,Pcbnew,(6.0.11)
; #@! TF.FileFunction,Plated,1,2,PTH
FMAT,2
INCH
; #@! TA.AperFunction,Plated,PTH,ViaDrill
T1C0.0157
; #@! TA.AperFunction,Plated,PTH,ComponentDrill
T2C0.0197
; #@! TA.AperFunction,Plated,PTH,ComponentDrill
T3C0.0276
; #@! TA.AperFunction,Plated,PTH,ComponentDrill
T4C0.0315
; #@! TA.AperFunction,Plated,PTH,ComponentDrill
T5C0.0394
; #@! TA.AperFunction,Plated,PTH,ComponentDrill
T6C0.0630
; #@! TA.AperFunction,Plated,PTH,ComponentDrill
T7C0.0866
%
G90
G05
T1
X5.0512Y-4.197
X5.4755Y-3.2483
X5.4797Y-2.8555
X5.4976Y-4.0375
X5.7769Y-3.1207
T2
X5.2874Y-3.7087
X5.4173Y-2.5669
X6.2362Y-3.9961
T3
X5.1563Y-2.3248
X5.3563Y-2.3248
X5.4535Y-2.3228
X5.6535Y-2.3228
T4
X4.9575Y-3.534
X5.0423Y-2.8794
X5.0423Y-2.9794
X5.0423Y-3.0794
X5.0423Y-3.1794
X5.0575Y-3.434
X5.1575Y-3.534
X5.3423Y-2.8794
X5.3423Y-2.9794
X5.3423Y-3.0794
X5.3423Y-3.1794
X5.4585Y-3.6786
X5.5585Y-3.5786
X5.6585Y-3.6786
T5
X4.7441Y-4.0396
X4.7441Y-4.1396
X5.8031Y-3.9732
X5.8031Y-4.0732
X5.8031Y-4.1732
X5.8246Y-3.5517
X5.8246Y-3.6517
T6
X4.5945Y-2.5787
X4.5945Y-2.8787
X4.5945Y-3.3268
X4.5945Y-3.6268
X6.2539Y-2.6724
X6.2539Y-2.9724
X6.2539Y-3.4205
X6.2539Y-3.7205
T7
X4.311Y-2.2244
X4.311Y-4.1142
X6.4764Y-2.2244
X6.4764Y-4.1142
T0
M30
