M48
; DRILL file {KiCad (6.0.11)} date Wed Apr 19 21:38:34 2023
; FORMAT={-:-/ absolute / inch / decimal}
; #@! TF.CreationDate,2023-04-19T21:38:34+02:00
; #@! TF.GenerationSoftware,Kicad,Pcbnew,(6.0.11)
; #@! TF.FileFunction,Plated,1,2,PTH
FMAT,2
INCH
; #@! TA.AperFunction,Plated,PTH,ViaDrill
T1C0.0157
; #@! TA.AperFunction,Plated,PTH,ComponentDrill
T2C0.0197
; #@! TA.AperFunction,Plated,PTH,ComponentDrill
T3C0.0276
; #@! TA.AperFunction,Plated,PTH,ComponentDrill
T4C0.0300
; #@! TA.AperFunction,Plated,PTH,ComponentDrill
T5C0.0315
; #@! TA.AperFunction,Plated,PTH,ComponentDrill
T6C0.0394
; #@! TA.AperFunction,Plated,PTH,ComponentDrill
T7C0.0866
%
G90
G05
T1
X5.0145Y-2.9005
X5.1166Y-4.0318
X5.1496Y-3.8456
X5.19Y-3.32
X5.27Y-2.5
X5.3146Y-3.9212
X5.4191Y-2.8148
X5.4558Y-2.7556
X5.4566Y-2.9
X5.48Y-2.52
X5.8311Y-3.1149
X6.15Y-3.76
T2
X5.32Y-3.44
X5.54Y-3.44
X5.8Y-2.5
T3
X5.1854Y-2.2768
X5.3854Y-2.2768
X5.4854Y-2.2768
X5.6854Y-2.2768
T4
X4.6Y-2.6
X4.7Y-2.4
X4.8Y-2.6
X6.0825Y-3.6525
X6.0825Y-3.7525
X6.0825Y-3.8525
X6.3825Y-3.6525
X6.3825Y-3.7525
X6.3825Y-3.8525
T5
X4.54Y-3.17
X4.64Y-3.07
X4.64Y-3.27
X5.8Y-2.7795
X5.9Y-2.8795
X6.0Y-2.7795
T6
X5.3762Y-3.1953
X5.4762Y-3.1953
X5.55Y-3.89
X5.55Y-3.99
X5.55Y-4.09
X6.0Y-2.4
X6.0Y-2.5
T7
X4.311Y-2.2244
X4.311Y-4.1142
X6.4764Y-2.2244
X6.4764Y-4.1142
T0
M30
