%TF.GenerationSoftware,KiCad,Pcbnew,(6.0.11)*%
%TF.CreationDate,2023-04-19T21:38:18+02:00*%
%TF.ProjectId,FringeLocker,4672696e-6765-44c6-9f63-6b65722e6b69,0.1*%
%TF.SameCoordinates,Original*%
%TF.FileFunction,Copper,L2,Bot*%
%TF.FilePolarity,Positive*%
%FSLAX46Y46*%
G04 Gerber Fmt 4.6, Leading zero omitted, Abs format (unit mm)*
G04 Created by KiCad (PCBNEW (6.0.11)) date 2023-04-19 21:38:18*
%MOMM*%
%LPD*%
G01*
G04 APERTURE LIST*
G04 Aperture macros list*
%AMRoundRect*
0 Rectangle with rounded corners*
0 $1 Rounding radius*
0 $2 $3 $4 $5 $6 $7 $8 $9 X,Y pos of 4 corners*
0 Add a 4 corners polygon primitive as box body*
4,1,4,$2,$3,$4,$5,$6,$7,$8,$9,$2,$3,0*
0 Add four circle primitives for the rounded corners*
1,1,$1+$1,$2,$3*
1,1,$1+$1,$4,$5*
1,1,$1+$1,$6,$7*
1,1,$1+$1,$8,$9*
0 Add four rect primitives between the rounded corners*
20,1,$1+$1,$2,$3,$4,$5,0*
20,1,$1+$1,$4,$5,$6,$7,0*
20,1,$1+$1,$6,$7,$8,$9,0*
20,1,$1+$1,$8,$9,$2,$3,0*%
G04 Aperture macros list end*
%TA.AperFunction,ComponentPad*%
%ADD10C,1.000000*%
%TD*%
%TA.AperFunction,SMDPad,CuDef*%
%ADD11RoundRect,0.250000X-0.450000X0.350000X-0.450000X-0.350000X0.450000X-0.350000X0.450000X0.350000X0*%
%TD*%
%TA.AperFunction,ComponentPad*%
%ADD12C,3.800000*%
%TD*%
%TA.AperFunction,SMDPad,CuDef*%
%ADD13RoundRect,0.250000X0.450000X-0.350000X0.450000X0.350000X-0.450000X0.350000X-0.450000X-0.350000X0*%
%TD*%
%TA.AperFunction,SMDPad,CuDef*%
%ADD14RoundRect,0.237500X-0.237500X0.300000X-0.237500X-0.300000X0.237500X-0.300000X0.237500X0.300000X0*%
%TD*%
%TA.AperFunction,ComponentPad*%
%ADD15C,1.524000*%
%TD*%
%TA.AperFunction,SMDPad,CuDef*%
%ADD16RoundRect,0.237500X0.300000X0.237500X-0.300000X0.237500X-0.300000X-0.237500X0.300000X-0.237500X0*%
%TD*%
%TA.AperFunction,ComponentPad*%
%ADD17R,1.700000X1.700000*%
%TD*%
%TA.AperFunction,ComponentPad*%
%ADD18O,1.700000X1.700000*%
%TD*%
%TA.AperFunction,ComponentPad*%
%ADD19C,1.440000*%
%TD*%
%TA.AperFunction,SMDPad,CuDef*%
%ADD20RoundRect,0.250000X-0.350000X-0.450000X0.350000X-0.450000X0.350000X0.450000X-0.350000X0.450000X0*%
%TD*%
%TA.AperFunction,SMDPad,CuDef*%
%ADD21RoundRect,0.250000X0.350000X0.450000X-0.350000X0.450000X-0.350000X-0.450000X0.350000X-0.450000X0*%
%TD*%
%TA.AperFunction,ComponentPad*%
%ADD22RoundRect,0.249200X0.600800X0.450800X-0.600800X0.450800X-0.600800X-0.450800X0.600800X-0.450800X0*%
%TD*%
%TA.AperFunction,ComponentPad*%
%ADD23O,1.700000X1.400000*%
%TD*%
%TA.AperFunction,ViaPad*%
%ADD24C,0.800000*%
%TD*%
%TA.AperFunction,Conductor*%
%ADD25C,0.250000*%
%TD*%
G04 APERTURE END LIST*
D10*
%TO.P,TP1,1,1*%
%TO.N,Net-(J1-Pad1)*%
X140716000Y-87376000D03*
%TD*%
D11*
%TO.P,R1,1*%
%TO.N,Net-(C3-Pad2)*%
X149860000Y-80280000D03*
%TO.P,R1,2*%
%TO.N,Net-(J1-Pad1)*%
X149860000Y-82280000D03*
%TD*%
%TO.P,R3,1*%
%TO.N,Net-(R3-Pad1)*%
X137160000Y-73438000D03*
%TO.P,R3,2*%
%TO.N,Net-(J1-Pad2)*%
X137160000Y-75438000D03*
%TD*%
%TO.P,R9,1*%
%TO.N,Net-(R11-Pad2)*%
X127000000Y-87190000D03*
%TO.P,R9,2*%
%TO.N,Net-(R8-Pad1)*%
X127000000Y-89190000D03*
%TD*%
D10*
%TO.P,TP3,1,1*%
%TO.N,Net-(C1-Pad2)*%
X147320000Y-63500000D03*
%TD*%
D11*
%TO.P,R2,1*%
%TO.N,Net-(R2-Pad1)*%
X127000000Y-75200000D03*
%TO.P,R2,2*%
%TO.N,Net-(R2-Pad2)*%
X127000000Y-77200000D03*
%TD*%
%TO.P,R8,1*%
%TO.N,Net-(R8-Pad1)*%
X145638800Y-93935000D03*
%TO.P,R8,2*%
%TO.N,Net-(R8-Pad2)*%
X145638800Y-95935000D03*
%TD*%
D12*
%TO.P,REF3,1*%
%TO.N,GND*%
X164500000Y-104500000D03*
%TD*%
D13*
%TO.P,R5,1*%
%TO.N,Net-(R5-Pad1)*%
X144780000Y-74422000D03*
%TO.P,R5,2*%
%TO.N,Net-(R3-Pad1)*%
X144780000Y-72422000D03*
%TD*%
D14*
%TO.P,C1,1*%
%TO.N,Net-(C1-Pad1)*%
X142240000Y-67717500D03*
%TO.P,C1,2*%
%TO.N,Net-(C1-Pad2)*%
X142240000Y-69442500D03*
%TD*%
D15*
%TO.P,RV3,1,A*%
%TO.N,Net-(C2-Pad1)*%
X154495500Y-97853500D03*
%TO.P,RV3,2,B*%
X154495500Y-95313500D03*
%TO.P,RV3,3,C*%
%TO.N,Net-(R7-Pad2)*%
X154495500Y-92773500D03*
%TO.P,RV3,4,D*%
%TO.N,Net-(R8-Pad2)*%
X162115500Y-97853500D03*
%TO.P,RV3,5,E*%
X162115500Y-95313500D03*
%TO.P,RV3,6,F*%
%TO.N,Net-(C3-Pad1)*%
X162115500Y-92773500D03*
%TD*%
D16*
%TO.P,C6,1*%
%TO.N,-15V*%
X130204500Y-101280000D03*
%TO.P,C6,2*%
%TO.N,GND*%
X128479500Y-101280000D03*
%TD*%
D17*
%TO.P,J2,1,Pin_1*%
%TO.N,Net-(C1-Pad1)*%
X152400000Y-60960000D03*
D18*
%TO.P,J2,2,Pin_2*%
%TO.N,GND*%
X152400000Y-63500000D03*
%TD*%
D19*
%TO.P,RV2,1,1*%
%TO.N,-15V*%
X152400000Y-70600000D03*
%TO.P,RV2,2,2*%
%TO.N,Net-(R5-Pad1)*%
X149860000Y-73140000D03*
%TO.P,RV2,3,3*%
%TO.N,+15V*%
X147320000Y-70600000D03*
%TD*%
D17*
%TO.P,J1,1,Pin_1*%
%TO.N,Net-(J1-Pad1)*%
X139095000Y-81160000D03*
D18*
%TO.P,J1,2,Pin_2*%
%TO.N,Net-(J1-Pad2)*%
X136555000Y-81160000D03*
%TD*%
D12*
%TO.P,REF2,1*%
%TO.N,GND*%
X164500000Y-56500000D03*
%TD*%
D13*
%TO.P,R6,1*%
%TO.N,Net-(C1-Pad2)*%
X136800000Y-69182100D03*
%TO.P,R6,2*%
%TO.N,Net-(C1-Pad1)*%
X136800000Y-67182100D03*
%TD*%
D12*
%TO.P,REF1,1*%
%TO.N,GND*%
X109500000Y-56500000D03*
%TD*%
D19*
%TO.P,RV4,1,1*%
%TO.N,Net-(R11-Pad1)*%
X117856000Y-83058000D03*
%TO.P,RV4,2,2*%
X115316000Y-80518000D03*
%TO.P,RV4,3,3*%
%TO.N,Net-(R2-Pad2)*%
X117856000Y-77978000D03*
%TD*%
D20*
%TO.P,R10,1*%
%TO.N,+15V*%
X130882000Y-99060000D03*
%TO.P,R10,2*%
%TO.N,Net-(D3-Pad2)*%
X132882000Y-99060000D03*
%TD*%
D12*
%TO.P,REF4,1*%
%TO.N,GND*%
X109500000Y-104500000D03*
%TD*%
D16*
%TO.P,C5,1*%
%TO.N,+15V*%
X130204500Y-96520000D03*
%TO.P,C5,2*%
%TO.N,GND*%
X128479500Y-96520000D03*
%TD*%
D11*
%TO.P,R11,1*%
%TO.N,Net-(R11-Pad1)*%
X127305000Y-81684700D03*
%TO.P,R11,2*%
%TO.N,Net-(R11-Pad2)*%
X127305000Y-83684700D03*
%TD*%
D15*
%TO.P,RV1,1,1*%
%TO.N,Net-(C1-Pad1)*%
X116840000Y-66040000D03*
%TO.P,RV1,2,2*%
X119380000Y-60960000D03*
%TO.P,RV1,3,3*%
%TO.N,Net-(R4-Pad1)*%
X121920000Y-66040000D03*
%TD*%
D21*
%TO.P,R7,1*%
%TO.N,Net-(C3-Pad1)*%
X159242000Y-93218000D03*
%TO.P,R7,2*%
%TO.N,Net-(R7-Pad2)*%
X157242000Y-93218000D03*
%TD*%
D10*
%TO.P,TP2,1,1*%
%TO.N,Net-(J1-Pad2)*%
X135128000Y-87376000D03*
%TD*%
D11*
%TO.P,R4,1*%
%TO.N,Net-(R4-Pad1)*%
X127250000Y-70120000D03*
%TO.P,R4,2*%
%TO.N,Net-(R2-Pad1)*%
X127250000Y-72120000D03*
%TD*%
D17*
%TO.P,J3,1,Pin_1*%
%TO.N,Net-(J3-Pad1)*%
X140970000Y-98806000D03*
D18*
%TO.P,J3,2,Pin_2*%
%TO.N,GND*%
X140970000Y-101346000D03*
%TO.P,J3,3,Pin_3*%
%TO.N,Net-(J3-Pad3)*%
X140970000Y-103886000D03*
%TD*%
D22*
%TO.P,D1,1,K*%
%TO.N,+15V*%
X136790000Y-57830000D03*
D23*
%TO.P,D1,2,A*%
%TO.N,Net-(C1-Pad2)*%
X131710000Y-57830000D03*
%TD*%
D22*
%TO.P,D2,1,K*%
%TO.N,Net-(C1-Pad2)*%
X144410000Y-57830000D03*
D23*
%TO.P,D2,2,A*%
%TO.N,-15V*%
X139330000Y-57830000D03*
%TD*%
D24*
%TO.N,Net-(D3-Pad2)*%
X134990000Y-99598700D03*
%TO.N,Net-(R11-Pad2)*%
X138577000Y-69992300D03*
%TO.N,Net-(R8-Pad1)*%
X137644000Y-71496800D03*
%TO.N,-15V*%
X129961000Y-102408000D03*
%TO.N,+15V*%
X130800000Y-97677400D03*
%TO.N,Net-(C3-Pad2)*%
X148110000Y-79118500D03*
%TO.N,Net-(R3-Pad1)*%
X138597000Y-73660000D03*
%TO.N,Net-(R2-Pad1)*%
X127368000Y-73672600D03*
%TO.N,GND*%
X156210000Y-95504000D03*
X139192000Y-64008000D03*
X133858000Y-63500000D03*
X131826000Y-84328000D03*
%TD*%
D25*
%TO.N,Net-(D3-Pad2)*%
X133420700Y-99598700D02*
X132882000Y-99060000D01*
X134990000Y-99598700D02*
X133420700Y-99598700D01*
%TO.N,Net-(R11-Pad1)*%
X119229300Y-81684700D02*
X117856000Y-83058000D01*
X127305000Y-81684700D02*
X119229300Y-81684700D01*
%TO.N,Net-(R11-Pad2)*%
X127000000Y-83989700D02*
X127000000Y-87190000D01*
X127305000Y-83684700D02*
X127000000Y-83989700D01*
X128425000Y-82564700D02*
X127305000Y-83684700D01*
X128425000Y-79601900D02*
X128425000Y-82564700D01*
X138034600Y-69992300D02*
X128425000Y-79601900D01*
X138577000Y-69992300D02*
X138034600Y-69992300D01*
%TO.N,Net-(R8-Pad2)*%
X146206200Y-96502400D02*
X145638800Y-95935000D01*
X162115500Y-96502400D02*
X146206200Y-96502400D01*
X162115500Y-95313500D02*
X162115500Y-96502400D01*
X162115500Y-96502400D02*
X162115500Y-97853500D01*
%TO.N,Net-(R8-Pad1)*%
X135682800Y-93935000D02*
X128968900Y-87221100D01*
X145638800Y-93935000D02*
X135682800Y-93935000D01*
X128968900Y-79943400D02*
X128968900Y-87221100D01*
X137415500Y-71496800D02*
X128968900Y-79943400D01*
X137644000Y-71496800D02*
X137415500Y-71496800D01*
X128968900Y-87221100D02*
X127000000Y-89190000D01*
%TO.N,Net-(R7-Pad2)*%
X154940000Y-93218000D02*
X154495500Y-92773500D01*
X157242000Y-93218000D02*
X154940000Y-93218000D01*
%TO.N,Net-(C3-Pad1)*%
X161671000Y-93218000D02*
X162115500Y-92773500D01*
X159242000Y-93218000D02*
X161671000Y-93218000D01*
%TO.N,Net-(C1-Pad1)*%
X120650000Y-62230000D02*
X116840000Y-66040000D01*
X119380000Y-60960000D02*
X120650000Y-62230000D01*
X125602100Y-67182100D02*
X136800000Y-67182100D01*
X120650000Y-62230000D02*
X125602100Y-67182100D01*
X137335400Y-67717500D02*
X142240000Y-67717500D01*
X136800000Y-67182100D02*
X137335400Y-67717500D01*
%TO.N,-15V*%
X130204500Y-102164500D02*
X130204500Y-101280000D01*
X129961000Y-102408000D02*
X130204500Y-102164500D01*
%TO.N,+15V*%
X130882000Y-97759400D02*
X130800000Y-97677400D01*
X130882000Y-99060000D02*
X130882000Y-97759400D01*
X130204500Y-97081900D02*
X130204500Y-96520000D01*
X130800000Y-97677400D02*
X130204500Y-97081900D01*
X137868800Y-56751200D02*
X136790000Y-57830000D01*
X145327400Y-56751200D02*
X137868800Y-56751200D01*
X148210500Y-59634300D02*
X145327400Y-56751200D01*
X148210500Y-69709500D02*
X148210500Y-59634300D01*
X147320000Y-70600000D02*
X148210500Y-69709500D01*
%TO.N,Net-(C1-Pad2)*%
X147320000Y-60740000D02*
X147320000Y-63500000D01*
X144410000Y-57830000D02*
X147320000Y-60740000D01*
X141979600Y-69182100D02*
X142109800Y-69312300D01*
X136800000Y-69182100D02*
X141979600Y-69182100D01*
X142109800Y-69312300D02*
X142240000Y-69442500D01*
X147320000Y-64102100D02*
X147320000Y-63500000D01*
X142109800Y-69312300D02*
X147320000Y-64102100D01*
%TO.N,Net-(R4-Pad1)*%
X126000000Y-70120000D02*
X121920000Y-66040000D01*
X127250000Y-70120000D02*
X126000000Y-70120000D01*
%TO.N,Net-(R5-Pad1)*%
X148578000Y-74422000D02*
X144780000Y-74422000D01*
X149860000Y-73140000D02*
X148578000Y-74422000D01*
%TO.N,Net-(J1-Pad2)*%
X136555000Y-76043000D02*
X136555000Y-81160000D01*
X137160000Y-75438000D02*
X136555000Y-76043000D01*
X136555000Y-85949000D02*
X135128000Y-87376000D01*
X136555000Y-81160000D02*
X136555000Y-85949000D01*
%TO.N,Net-(C3-Pad2)*%
X148698500Y-79118500D02*
X149860000Y-80280000D01*
X148110000Y-79118500D02*
X148698500Y-79118500D01*
%TO.N,Net-(R3-Pad1)*%
X137382000Y-73660000D02*
X137160000Y-73438000D01*
X138597000Y-73660000D02*
X137382000Y-73660000D01*
X139835000Y-72422000D02*
X138597000Y-73660000D01*
X144780000Y-72422000D02*
X139835000Y-72422000D01*
%TO.N,Net-(R2-Pad1)*%
X127250000Y-73554600D02*
X127250000Y-72120000D01*
X127368000Y-73672600D02*
X127250000Y-73554600D01*
X127000000Y-74040600D02*
X127000000Y-75200000D01*
X127368000Y-73672600D02*
X127000000Y-74040600D01*
%TO.N,Net-(J1-Pad1)*%
X140716000Y-86565500D02*
X140716000Y-87376000D01*
X139095000Y-84944500D02*
X140716000Y-86565500D01*
X139095000Y-81160000D02*
X139095000Y-84944500D01*
X145574500Y-86565500D02*
X149860000Y-82280000D01*
X140716000Y-86565500D02*
X145574500Y-86565500D01*
%TO.N,Net-(R2-Pad2)*%
X126222000Y-77978000D02*
X127000000Y-77200000D01*
X117856000Y-77978000D02*
X126222000Y-77978000D01*
%TD*%
%TA.AperFunction,Conductor*%
%TO.N,GND*%
G36*
X167683621Y-53678502D02*
G01*
X167730114Y-53732158D01*
X167741500Y-53784500D01*
X167741500Y-107465500D01*
X167721498Y-107533621D01*
X167667842Y-107580114D01*
X167615500Y-107591500D01*
X106634500Y-107591500D01*
X106566379Y-107571498D01*
X106519886Y-107517842D01*
X106508500Y-107465500D01*
X106508500Y-106374394D01*
X107990314Y-106374394D01*
X107999143Y-106386014D01*
X108203970Y-106534830D01*
X108210650Y-106539070D01*
X108469234Y-106681228D01*
X108476369Y-106684585D01*
X108750746Y-106793219D01*
X108758237Y-106795653D01*
X109044059Y-106869039D01*
X109051830Y-106870521D01*
X109344570Y-106907503D01*
X109352460Y-106908000D01*
X109647540Y-106908000D01*
X109655430Y-106907503D01*
X109948170Y-106870521D01*
X109955941Y-106869039D01*
X110241763Y-106795653D01*
X110249254Y-106793219D01*
X110523631Y-106684585D01*
X110530766Y-106681228D01*
X110789350Y-106539070D01*
X110796030Y-106534830D01*
X111001230Y-106385744D01*
X111009653Y-106374821D01*
X111009424Y-106374394D01*
X162990314Y-106374394D01*
X162999143Y-106386014D01*
X163203970Y-106534830D01*
X163210650Y-106539070D01*
X163469234Y-106681228D01*
X163476369Y-106684585D01*
X163750746Y-106793219D01*
X163758237Y-106795653D01*
X164044059Y-106869039D01*
X164051830Y-106870521D01*
X164344570Y-106907503D01*
X164352460Y-106908000D01*
X164647540Y-106908000D01*
X164655430Y-106907503D01*
X164948170Y-106870521D01*
X164955941Y-106869039D01*
X165241763Y-106795653D01*
X165249254Y-106793219D01*
X165523631Y-106684585D01*
X165530766Y-106681228D01*
X165789350Y-106539070D01*
X165796030Y-106534830D01*
X166001230Y-106385744D01*
X166009653Y-106374821D01*
X166002749Y-106361960D01*
X164512810Y-104872020D01*
X164498869Y-104864408D01*
X164497034Y-104864539D01*
X164490420Y-104868790D01*
X162996927Y-106362284D01*
X162990314Y-106374394D01*
X111009424Y-106374394D01*
X111002749Y-106361960D01*
X109512810Y-104872020D01*
X109498869Y-104864408D01*
X109497034Y-104864539D01*
X109490420Y-104868790D01*
X107996927Y-106362284D01*
X107990314Y-106374394D01*
X106508500Y-106374394D01*
X106508500Y-104503958D01*
X107087488Y-104503958D01*
X107106015Y-104798436D01*
X107107008Y-104806297D01*
X107162296Y-105096128D01*
X107164267Y-105103805D01*
X107255446Y-105384424D01*
X107258361Y-105391787D01*
X107383993Y-105658770D01*
X107387805Y-105665703D01*
X107545909Y-105914835D01*
X107550563Y-105921241D01*
X107615521Y-105999761D01*
X107628040Y-106008217D01*
X107638778Y-106002011D01*
X109127980Y-104512810D01*
X109134357Y-104501131D01*
X109864408Y-104501131D01*
X109864539Y-104502966D01*
X109868790Y-104509580D01*
X111360119Y-106000908D01*
X111373381Y-106008150D01*
X111383485Y-106000962D01*
X111449437Y-105921241D01*
X111454091Y-105914835D01*
X111612195Y-105665703D01*
X111616007Y-105658770D01*
X111741639Y-105391787D01*
X111744554Y-105384424D01*
X111835733Y-105103805D01*
X111837704Y-105096128D01*
X111892992Y-104806297D01*
X111893985Y-104798436D01*
X111912512Y-104503958D01*
X111912512Y-104496042D01*
X111893985Y-104201564D01*
X111892992Y-104193703D01*
X111837704Y-103903872D01*
X111835733Y-103896195D01*
X111821599Y-103852695D01*
X139607251Y-103852695D01*
X139607548Y-103857848D01*
X139607548Y-103857851D01*
X139613011Y-103952590D01*
X139620110Y-104075715D01*
X139621247Y-104080761D01*
X139621248Y-104080767D01*
X139633604Y-104135592D01*
X139669222Y-104293639D01*
X139753266Y-104500616D01*
X139869987Y-104691088D01*
X140016250Y-104859938D01*
X140188126Y-105002632D01*
X140381000Y-105115338D01*
X140589692Y-105195030D01*
X140594760Y-105196061D01*
X140594763Y-105196062D01*
X140702017Y-105217883D01*
X140808597Y-105239567D01*
X140813772Y-105239757D01*
X140813774Y-105239757D01*
X141026673Y-105247564D01*
X141026677Y-105247564D01*
X141031837Y-105247753D01*
X141036957Y-105247097D01*
X141036959Y-105247097D01*
X141248288Y-105220025D01*
X141248289Y-105220025D01*
X141253416Y-105219368D01*
X141258366Y-105217883D01*
X141462429Y-105156661D01*
X141462434Y-105156659D01*
X141467384Y-105155174D01*
X141667994Y-105056896D01*
X141849860Y-104927173D01*
X142008096Y-104769489D01*
X142067594Y-104686689D01*
X142135435Y-104592277D01*
X142138453Y-104588077D01*
X142177249Y-104509580D01*
X142180028Y-104503958D01*
X162087488Y-104503958D01*
X162106015Y-104798436D01*
X162107008Y-104806297D01*
X162162296Y-105096128D01*
X162164267Y-105103805D01*
X162255446Y-105384424D01*
X162258361Y-105391787D01*
X162383993Y-105658770D01*
X162387805Y-105665703D01*
X162545909Y-105914835D01*
X162550563Y-105921241D01*
X162615521Y-105999761D01*
X162628040Y-106008217D01*
X162638778Y-106002011D01*
X164127980Y-104512810D01*
X164134357Y-104501131D01*
X164864408Y-104501131D01*
X164864539Y-104502966D01*
X164868790Y-104509580D01*
X166360119Y-106000908D01*
X166373381Y-106008150D01*
X166383485Y-106000962D01*
X166449437Y-105921241D01*
X166454091Y-105914835D01*
X166612195Y-105665703D01*
X166616007Y-105658770D01*
X166741639Y-105391787D01*
X166744554Y-105384424D01*
X166835733Y-105103805D01*
X166837704Y-105096128D01*
X166892992Y-104806297D01*
X166893985Y-104798436D01*
X166912512Y-104503958D01*
X166912512Y-104496042D01*
X166893985Y-104201564D01*
X166892992Y-104193703D01*
X166837704Y-103903872D01*
X166835733Y-103896195D01*
X166744554Y-103615576D01*
X166741639Y-103608213D01*
X166616007Y-103341230D01*
X166612195Y-103334297D01*
X166454091Y-103085165D01*
X166449437Y-103078759D01*
X166384479Y-103000239D01*
X166371960Y-102991783D01*
X166361222Y-102997989D01*
X164872020Y-104487190D01*
X164864408Y-104501131D01*
X164134357Y-104501131D01*
X164135592Y-104498869D01*
X164135461Y-104497034D01*
X164131210Y-104490420D01*
X162639881Y-102999092D01*
X162626619Y-102991850D01*
X162616515Y-102999038D01*
X162550563Y-103078759D01*
X162545909Y-103085165D01*
X162387805Y-103334297D01*
X162383993Y-103341230D01*
X162258361Y-103608213D01*
X162255446Y-103615576D01*
X162164267Y-103896195D01*
X162162296Y-103903872D01*
X162107008Y-104193703D01*
X162106015Y-104201564D01*
X162087488Y-104496042D01*
X162087488Y-104503958D01*
X142180028Y-104503958D01*
X142235136Y-104392453D01*
X142235137Y-104392451D01*
X142237430Y-104387811D01*
X142302370Y-104174069D01*
X142331529Y-103952590D01*
X142331611Y-103949240D01*
X142333074Y-103889365D01*
X142333074Y-103889361D01*
X142333156Y-103886000D01*
X142314852Y-103663361D01*
X142260431Y-103446702D01*
X142171354Y-103241840D01*
X142071097Y-103086866D01*
X142052822Y-103058617D01*
X142052820Y-103058614D01*
X142050014Y-103054277D01*
X141899670Y-102889051D01*
X141895619Y-102885852D01*
X141895615Y-102885848D01*
X141728414Y-102753800D01*
X141728410Y-102753798D01*
X141724359Y-102750598D01*
X141682569Y-102727529D01*
X141632598Y-102677097D01*
X141621554Y-102625179D01*
X162990347Y-102625179D01*
X162997251Y-102638040D01*
X164487190Y-104127980D01*
X164501131Y-104135592D01*
X164502966Y-104135461D01*
X164509580Y-104131210D01*
X166003073Y-102637716D01*
X166009686Y-102625606D01*
X166000857Y-102613986D01*
X165796030Y-102465170D01*
X165789350Y-102460930D01*
X165530766Y-102318772D01*
X165523631Y-102315415D01*
X165249254Y-102206781D01*
X165241763Y-102204347D01*
X164955941Y-102130961D01*
X164948170Y-102129479D01*
X164655430Y-102092497D01*
X164647540Y-102092000D01*
X164352460Y-102092000D01*
X164344570Y-102092497D01*
X164051830Y-102129479D01*
X164044059Y-102130961D01*
X163758237Y-102204347D01*
X163750746Y-102206781D01*
X163476369Y-102315415D01*
X163469234Y-102318772D01*
X163210650Y-102460930D01*
X163203970Y-102465170D01*
X162998770Y-102614256D01*
X162990347Y-102625179D01*
X141621554Y-102625179D01*
X141617826Y-102607654D01*
X141642942Y-102541248D01*
X141670294Y-102514641D01*
X141845328Y-102389792D01*
X141853200Y-102383139D01*
X142004052Y-102232812D01*
X142010730Y-102224965D01*
X142135003Y-102052020D01*
X142140313Y-102043183D01*
X142234670Y-101852267D01*
X142238469Y-101842672D01*
X142300377Y-101638910D01*
X142302555Y-101628837D01*
X142303986Y-101617962D01*
X142301775Y-101603778D01*
X142288617Y-101600000D01*
X139653225Y-101600000D01*
X139639694Y-101603973D01*
X139638257Y-101613966D01*
X139668565Y-101748446D01*
X139671645Y-101758275D01*
X139751770Y-101955603D01*
X139756413Y-101964794D01*
X139867694Y-102146388D01*
X139873777Y-102154699D01*
X140013213Y-102315667D01*
X140020580Y-102322883D01*
X140184434Y-102458916D01*
X140192881Y-102464831D01*
X140261969Y-102505203D01*
X140310693Y-102556842D01*
X140323764Y-102626625D01*
X140297033Y-102692396D01*
X140256584Y-102725752D01*
X140243607Y-102732507D01*
X140239474Y-102735610D01*
X140239471Y-102735612D01*
X140173321Y-102785279D01*
X140064965Y-102866635D01*
X139910629Y-103028138D01*
X139907715Y-103032410D01*
X139907714Y-103032411D01*
X139871728Y-103085165D01*
X139784743Y-103212680D01*
X139754346Y-103278166D01*
X139728291Y-103334297D01*
X139690688Y-103415305D01*
X139630989Y-103630570D01*
X139607251Y-103852695D01*
X111821599Y-103852695D01*
X111744554Y-103615576D01*
X111741639Y-103608213D01*
X111616007Y-103341230D01*
X111612195Y-103334297D01*
X111454091Y-103085165D01*
X111449437Y-103078759D01*
X111384479Y-103000239D01*
X111371960Y-102991783D01*
X111361222Y-102997989D01*
X109872020Y-104487190D01*
X109864408Y-104501131D01*
X109134357Y-104501131D01*
X109135592Y-104498869D01*
X109135461Y-104497034D01*
X109131210Y-104490420D01*
X107639881Y-102999092D01*
X107626619Y-102991850D01*
X107616515Y-102999038D01*
X107550563Y-103078759D01*
X107545909Y-103085165D01*
X107387805Y-103334297D01*
X107383993Y-103341230D01*
X107258361Y-103608213D01*
X107255446Y-103615576D01*
X107164267Y-103896195D01*
X107162296Y-103903872D01*
X107107008Y-104193703D01*
X107106015Y-104201564D01*
X107087488Y-104496042D01*
X107087488Y-104503958D01*
X106508500Y-104503958D01*
X106508500Y-102625179D01*
X107990347Y-102625179D01*
X107997251Y-102638040D01*
X109487190Y-104127980D01*
X109501131Y-104135592D01*
X109502966Y-104135461D01*
X109509580Y-104131210D01*
X111003073Y-102637716D01*
X111009686Y-102625606D01*
X111000857Y-102613986D01*
X110796030Y-102465170D01*
X110789350Y-102460930D01*
X110530766Y-102318772D01*
X110523631Y-102315415D01*
X110249254Y-102206781D01*
X110241763Y-102204347D01*
X109955941Y-102130961D01*
X109948170Y-102129479D01*
X109655430Y-102092497D01*
X109647540Y-102092000D01*
X109352460Y-102092000D01*
X109344570Y-102092497D01*
X109051830Y-102129479D01*
X109044059Y-102130961D01*
X108758237Y-102204347D01*
X108750746Y-102206781D01*
X108476369Y-102315415D01*
X108469234Y-102318772D01*
X108210650Y-102460930D01*
X108203970Y-102465170D01*
X107998770Y-102614256D01*
X107990347Y-102625179D01*
X106508500Y-102625179D01*
X106508500Y-101563766D01*
X127434000Y-101563766D01*
X127434337Y-101570282D01*
X127444075Y-101664132D01*
X127446968Y-101677528D01*
X127497488Y-101828953D01*
X127503653Y-101842115D01*
X127587426Y-101977492D01*
X127596460Y-101988890D01*
X127709129Y-102101363D01*
X127720540Y-102110375D01*
X127856063Y-102193912D01*
X127869241Y-102200056D01*
X128020766Y-102250315D01*
X128034132Y-102253181D01*
X128126770Y-102262672D01*
X128133185Y-102263000D01*
X128207385Y-102263000D01*
X128222624Y-102258525D01*
X128223829Y-102257135D01*
X128225500Y-102249452D01*
X128225500Y-102244885D01*
X128733500Y-102244885D01*
X128737975Y-102260124D01*
X128739365Y-102261329D01*
X128747048Y-102263000D01*
X128825766Y-102263000D01*
X128832282Y-102262663D01*
X128910757Y-102254520D01*
X128980578Y-102267384D01*
X129032360Y-102315955D01*
X129049663Y-102384811D01*
X129049072Y-102393005D01*
X129047496Y-102408000D01*
X129067458Y-102597928D01*
X129126473Y-102779556D01*
X129221960Y-102944944D01*
X129226378Y-102949851D01*
X129226379Y-102949852D01*
X129342447Y-103078759D01*
X129349747Y-103086866D01*
X129504248Y-103199118D01*
X129510276Y-103201802D01*
X129510278Y-103201803D01*
X129610872Y-103246590D01*
X129678712Y-103276794D01*
X129772113Y-103296647D01*
X129859056Y-103315128D01*
X129859061Y-103315128D01*
X129865513Y-103316500D01*
X130056487Y-103316500D01*
X130062939Y-103315128D01*
X130062944Y-103315128D01*
X130149887Y-103296647D01*
X130243288Y-103276794D01*
X130311128Y-103246590D01*
X130411722Y-103201803D01*
X130411724Y-103201802D01*
X130417752Y-103199118D01*
X130572253Y-103086866D01*
X130579553Y-103078759D01*
X130695621Y-102949852D01*
X130695622Y-102949851D01*
X130700040Y-102944944D01*
X130795527Y-102779556D01*
X130854542Y-102597928D01*
X130874504Y-102408000D01*
X130858877Y-102259318D01*
X130871649Y-102189480D01*
X130917884Y-102139005D01*
X130971031Y-102106116D01*
X131025033Y-102052020D01*
X131088758Y-101988184D01*
X131088762Y-101988179D01*
X131093929Y-101983003D01*
X131110819Y-101955603D01*
X131181369Y-101841150D01*
X131181370Y-101841148D01*
X131185209Y-101834920D01*
X131239974Y-101669809D01*
X131250500Y-101567072D01*
X131250500Y-100992928D01*
X131250163Y-100989678D01*
X131240419Y-100895765D01*
X131240418Y-100895761D01*
X131239707Y-100888907D01*
X131233661Y-100870783D01*
X131186972Y-100730841D01*
X131184654Y-100723893D01*
X131093116Y-100575969D01*
X131087934Y-100570796D01*
X131000659Y-100483673D01*
X130966580Y-100421391D01*
X130971583Y-100350570D01*
X131014080Y-100293698D01*
X131080579Y-100268829D01*
X131089677Y-100268500D01*
X131282400Y-100268500D01*
X131285646Y-100268163D01*
X131285650Y-100268163D01*
X131381308Y-100258238D01*
X131381312Y-100258237D01*
X131388166Y-100257526D01*
X131394702Y-100255345D01*
X131394704Y-100255345D01*
X131526806Y-100211272D01*
X131555946Y-100201550D01*
X131706348Y-100108478D01*
X131792784Y-100021891D01*
X131855066Y-99987812D01*
X131925886Y-99992815D01*
X131970976Y-100021736D01*
X132058697Y-100109305D01*
X132064927Y-100113145D01*
X132064928Y-100113146D01*
X132202090Y-100197694D01*
X132209262Y-100202115D01*
X132246391Y-100214430D01*
X132370611Y-100255632D01*
X132370613Y-100255632D01*
X132377139Y-100257797D01*
X132383975Y-100258497D01*
X132383978Y-100258498D01*
X132427031Y-100262909D01*
X132481600Y-100268500D01*
X133282400Y-100268500D01*
X133285646Y-100268163D01*
X133285650Y-100268163D01*
X133381308Y-100258238D01*
X133381312Y-100258237D01*
X133388166Y-100257526D01*
X133394702Y-100255345D01*
X133394704Y-100255345D01*
X133444666Y-100238676D01*
X133484542Y-100232200D01*
X134281800Y-100232200D01*
X134349921Y-100252202D01*
X134369147Y-100268543D01*
X134369420Y-100268240D01*
X134374332Y-100272663D01*
X134378747Y-100277566D01*
X134394252Y-100288831D01*
X134500587Y-100366088D01*
X134533248Y-100389818D01*
X134539276Y-100392502D01*
X134539278Y-100392503D01*
X134688780Y-100459065D01*
X134707712Y-100467494D01*
X134801112Y-100487347D01*
X134888056Y-100505828D01*
X134888061Y-100505828D01*
X134894513Y-100507200D01*
X135085487Y-100507200D01*
X135091939Y-100505828D01*
X135091944Y-100505828D01*
X135178888Y-100487347D01*
X135272288Y-100467494D01*
X135291220Y-100459065D01*
X135440722Y-100392503D01*
X135440724Y-100392502D01*
X135446752Y-100389818D01*
X135479414Y-100366088D01*
X135555857Y-100310548D01*
X135601253Y-100277566D01*
X135609650Y-100268240D01*
X135724621Y-100140552D01*
X135724622Y-100140551D01*
X135729040Y-100135644D01*
X135824527Y-99970256D01*
X135883542Y-99788628D01*
X135885110Y-99773715D01*
X135892423Y-99704134D01*
X139611500Y-99704134D01*
X139618255Y-99766316D01*
X139669385Y-99902705D01*
X139756739Y-100019261D01*
X139873295Y-100106615D01*
X139881704Y-100109767D01*
X139881705Y-100109768D01*
X139990960Y-100150726D01*
X140047725Y-100193367D01*
X140072425Y-100259929D01*
X140057218Y-100329278D01*
X140037825Y-100355759D01*
X139914590Y-100484717D01*
X139908104Y-100492727D01*
X139788098Y-100668649D01*
X139783000Y-100677623D01*
X139693338Y-100870783D01*
X139689775Y-100880470D01*
X139634389Y-101080183D01*
X139635912Y-101088607D01*
X139648292Y-101092000D01*
X142288344Y-101092000D01*
X142301875Y-101088027D01*
X142303180Y-101078947D01*
X142261214Y-100911875D01*
X142257894Y-100902124D01*
X142172972Y-100706814D01*
X142168105Y-100697739D01*
X142052426Y-100518926D01*
X142046136Y-100510757D01*
X141902293Y-100352677D01*
X141871241Y-100288831D01*
X141879635Y-100218333D01*
X141924812Y-100163564D01*
X141951256Y-100149895D01*
X142058297Y-100109767D01*
X142066705Y-100106615D01*
X142183261Y-100019261D01*
X142270615Y-99902705D01*
X142321745Y-99766316D01*
X142328500Y-99704134D01*
X142328500Y-97907866D01*
X142321745Y-97845684D01*
X142270615Y-97709295D01*
X142255026Y-97688494D01*
X142188642Y-97599919D01*
X142183261Y-97592739D01*
X142066705Y-97505385D01*
X141930316Y-97454255D01*
X141868134Y-97447500D01*
X140071866Y-97447500D01*
X140009684Y-97454255D01*
X139873295Y-97505385D01*
X139756739Y-97592739D01*
X139751358Y-97599919D01*
X139684975Y-97688494D01*
X139669385Y-97709295D01*
X139618255Y-97845684D01*
X139611500Y-97907866D01*
X139611500Y-99704134D01*
X135892423Y-99704134D01*
X135902814Y-99605265D01*
X135903504Y-99598700D01*
X135883542Y-99408772D01*
X135824527Y-99227144D01*
X135729040Y-99061756D01*
X135632765Y-98954831D01*
X135605675Y-98924745D01*
X135605674Y-98924744D01*
X135601253Y-98919834D01*
X135478264Y-98830477D01*
X135452094Y-98811463D01*
X135452093Y-98811462D01*
X135446752Y-98807582D01*
X135440724Y-98804898D01*
X135440722Y-98804897D01*
X135278319Y-98732591D01*
X135278318Y-98732591D01*
X135272288Y-98729906D01*
X135178887Y-98710053D01*
X135091944Y-98691572D01*
X135091939Y-98691572D01*
X135085487Y-98690200D01*
X134894513Y-98690200D01*
X134888061Y-98691572D01*
X134888056Y-98691572D01*
X134801113Y-98710053D01*
X134707712Y-98729906D01*
X134701682Y-98732591D01*
X134701681Y-98732591D01*
X134539278Y-98804897D01*
X134539276Y-98804898D01*
X134533248Y-98807582D01*
X134527907Y-98811462D01*
X134527906Y-98811463D01*
X134501736Y-98830477D01*
X134378747Y-98919834D01*
X134374332Y-98924737D01*
X134369420Y-98929160D01*
X134368295Y-98927911D01*
X134314986Y-98960751D01*
X134281800Y-98965200D01*
X134116500Y-98965200D01*
X134048379Y-98945198D01*
X134001886Y-98891542D01*
X133990500Y-98839200D01*
X133990500Y-98559600D01*
X133990163Y-98556350D01*
X133980238Y-98460692D01*
X133980237Y-98460688D01*
X133979526Y-98453834D01*
X133923550Y-98286054D01*
X133830478Y-98135652D01*
X133705303Y-98010695D01*
X133699072Y-98006854D01*
X133560968Y-97921725D01*
X133560966Y-97921724D01*
X133554738Y-97917885D01*
X133474995Y-97891436D01*
X133393389Y-97864368D01*
X133393387Y-97864368D01*
X133386861Y-97862203D01*
X133380025Y-97861503D01*
X133380022Y-97861502D01*
X133336969Y-97857091D01*
X133282400Y-97851500D01*
X132481600Y-97851500D01*
X132478354Y-97851837D01*
X132478350Y-97851837D01*
X132382692Y-97861762D01*
X132382688Y-97861763D01*
X132375834Y-97862474D01*
X132369298Y-97864655D01*
X132369296Y-97864655D01*
X132342467Y-97873606D01*
X132208054Y-97918450D01*
X132057652Y-98011522D01*
X131994322Y-98074963D01*
X131971216Y-98098109D01*
X131908934Y-98132188D01*
X131838114Y-98127185D01*
X131793026Y-98098265D01*
X131764195Y-98069484D01*
X131715947Y-98021321D01*
X131681868Y-97959039D01*
X131685132Y-97893211D01*
X131691500Y-97873611D01*
X131693542Y-97867328D01*
X131694992Y-97853540D01*
X131712814Y-97683965D01*
X131713504Y-97677400D01*
X131700217Y-97550977D01*
X131694232Y-97494035D01*
X131694232Y-97494033D01*
X131693542Y-97487472D01*
X131634527Y-97305844D01*
X131539040Y-97140456D01*
X131522872Y-97122499D01*
X131415675Y-97003445D01*
X131415674Y-97003444D01*
X131411253Y-96998534D01*
X131381773Y-96977115D01*
X131301923Y-96919101D01*
X131258569Y-96862879D01*
X131250148Y-96810732D01*
X131250171Y-96810282D01*
X131250500Y-96807072D01*
X131250500Y-96232928D01*
X131250163Y-96229678D01*
X131240419Y-96135765D01*
X131240418Y-96135761D01*
X131239707Y-96128907D01*
X131184654Y-95963893D01*
X131093116Y-95815969D01*
X131072353Y-95795242D01*
X130975184Y-95698242D01*
X130975179Y-95698238D01*
X130970003Y-95693071D01*
X130821920Y-95601791D01*
X130656809Y-95547026D01*
X130649973Y-95546326D01*
X130649970Y-95546325D01*
X130598474Y-95541049D01*
X130554072Y-95536500D01*
X129854928Y-95536500D01*
X129851682Y-95536837D01*
X129851678Y-95536837D01*
X129757765Y-95546581D01*
X129757761Y-95546582D01*
X129750907Y-95547293D01*
X129744371Y-95549474D01*
X129744369Y-95549474D01*
X129611605Y-95593768D01*
X129585893Y-95602346D01*
X129437969Y-95693884D01*
X129432797Y-95699065D01*
X129430727Y-95701139D01*
X129428962Y-95702105D01*
X129427059Y-95703613D01*
X129426801Y-95703287D01*
X129368446Y-95735219D01*
X129297625Y-95730218D01*
X129252530Y-95701292D01*
X129249869Y-95698636D01*
X129238460Y-95689625D01*
X129102937Y-95606088D01*
X129089759Y-95599944D01*
X128938234Y-95549685D01*
X128924868Y-95546819D01*
X128832230Y-95537328D01*
X128825815Y-95537000D01*
X128751615Y-95537000D01*
X128736376Y-95541475D01*
X128735171Y-95542865D01*
X128733500Y-95550548D01*
X128733500Y-97484885D01*
X128737975Y-97500124D01*
X128739365Y-97501329D01*
X128747048Y-97503000D01*
X128825766Y-97503000D01*
X128832282Y-97502663D01*
X128926132Y-97492925D01*
X128939528Y-97490032D01*
X129090953Y-97439512D01*
X129104115Y-97433347D01*
X129239492Y-97349574D01*
X129250894Y-97340536D01*
X129252567Y-97338861D01*
X129253993Y-97338081D01*
X129256627Y-97335993D01*
X129256984Y-97336444D01*
X129314849Y-97304781D01*
X129385669Y-97309784D01*
X129430754Y-97338701D01*
X129432593Y-97340536D01*
X129438997Y-97346929D01*
X129445227Y-97350769D01*
X129445228Y-97350770D01*
X129545084Y-97412322D01*
X129587080Y-97438209D01*
X129671476Y-97466202D01*
X129728101Y-97507608D01*
X129728944Y-97506817D01*
X129733161Y-97511308D01*
X129733744Y-97511734D01*
X129739028Y-97519007D01*
X129745134Y-97524058D01*
X129773105Y-97547198D01*
X129781884Y-97555188D01*
X129852878Y-97626182D01*
X129886904Y-97688494D01*
X129889093Y-97702107D01*
X129905005Y-97853500D01*
X129906458Y-97867328D01*
X129914868Y-97893211D01*
X129955598Y-98018565D01*
X129957626Y-98089532D01*
X129935496Y-98133891D01*
X129932695Y-98136697D01*
X129839885Y-98287262D01*
X129784203Y-98455139D01*
X129773500Y-98559600D01*
X129773500Y-99560400D01*
X129773837Y-99563646D01*
X129773837Y-99563650D01*
X129776793Y-99592135D01*
X129784474Y-99666166D01*
X129840450Y-99833946D01*
X129933522Y-99984348D01*
X129938704Y-99989521D01*
X130030670Y-100081327D01*
X130064749Y-100143610D01*
X130059746Y-100214430D01*
X130017249Y-100271302D01*
X129950750Y-100296171D01*
X129941652Y-100296500D01*
X129854928Y-100296500D01*
X129851682Y-100296837D01*
X129851678Y-100296837D01*
X129757765Y-100306581D01*
X129757761Y-100306582D01*
X129750907Y-100307293D01*
X129744371Y-100309474D01*
X129744369Y-100309474D01*
X129621190Y-100350570D01*
X129585893Y-100362346D01*
X129437969Y-100453884D01*
X129432797Y-100459065D01*
X129430727Y-100461139D01*
X129428962Y-100462105D01*
X129427059Y-100463613D01*
X129426801Y-100463287D01*
X129368446Y-100495219D01*
X129297625Y-100490218D01*
X129252530Y-100461292D01*
X129249869Y-100458636D01*
X129238460Y-100449625D01*
X129102937Y-100366088D01*
X129089759Y-100359944D01*
X128938234Y-100309685D01*
X128924868Y-100306819D01*
X128832230Y-100297328D01*
X128825815Y-100297000D01*
X128751615Y-100297000D01*
X128736376Y-100301475D01*
X128735171Y-100302865D01*
X128733500Y-100310548D01*
X128733500Y-102244885D01*
X128225500Y-102244885D01*
X128225500Y-101552115D01*
X128221025Y-101536876D01*
X128219635Y-101535671D01*
X128211952Y-101534000D01*
X127452115Y-101534000D01*
X127436876Y-101538475D01*
X127435671Y-101539865D01*
X127434000Y-101547548D01*
X127434000Y-101563766D01*
X106508500Y-101563766D01*
X106508500Y-101007885D01*
X127434000Y-101007885D01*
X127438475Y-101023124D01*
X127439865Y-101024329D01*
X127447548Y-101026000D01*
X128207385Y-101026000D01*
X128222624Y-101021525D01*
X128223829Y-101020135D01*
X128225500Y-101012452D01*
X128225500Y-100315115D01*
X128221025Y-100299876D01*
X128219635Y-100298671D01*
X128211952Y-100297000D01*
X128133234Y-100297000D01*
X128126718Y-100297337D01*
X128032868Y-100307075D01*
X128019472Y-100309968D01*
X127868047Y-100360488D01*
X127854885Y-100366653D01*
X127719508Y-100450426D01*
X127708110Y-100459460D01*
X127595637Y-100572129D01*
X127586625Y-100583540D01*
X127503088Y-100719063D01*
X127496944Y-100732241D01*
X127446685Y-100883766D01*
X127443819Y-100897132D01*
X127434328Y-100989770D01*
X127434000Y-100996185D01*
X127434000Y-101007885D01*
X106508500Y-101007885D01*
X106508500Y-96803766D01*
X127434000Y-96803766D01*
X127434337Y-96810282D01*
X127444075Y-96904132D01*
X127446968Y-96917528D01*
X127497488Y-97068953D01*
X127503653Y-97082115D01*
X127587426Y-97217492D01*
X127596460Y-97228890D01*
X127709129Y-97341363D01*
X127720540Y-97350375D01*
X127856063Y-97433912D01*
X127869241Y-97440056D01*
X128020766Y-97490315D01*
X128034132Y-97493181D01*
X128126770Y-97502672D01*
X128133185Y-97503000D01*
X128207385Y-97503000D01*
X128222624Y-97498525D01*
X128223829Y-97497135D01*
X128225500Y-97489452D01*
X128225500Y-96792115D01*
X128221025Y-96776876D01*
X128219635Y-96775671D01*
X128211952Y-96774000D01*
X127452115Y-96774000D01*
X127436876Y-96778475D01*
X127435671Y-96779865D01*
X127434000Y-96787548D01*
X127434000Y-96803766D01*
X106508500Y-96803766D01*
X106508500Y-96247885D01*
X127434000Y-96247885D01*
X127438475Y-96263124D01*
X127439865Y-96264329D01*
X127447548Y-96266000D01*
X128207385Y-96266000D01*
X128222624Y-96261525D01*
X128223829Y-96260135D01*
X128225500Y-96252452D01*
X128225500Y-95555115D01*
X128221025Y-95539876D01*
X128219635Y-95538671D01*
X128211952Y-95537000D01*
X128133234Y-95537000D01*
X128126718Y-95537337D01*
X128032868Y-95547075D01*
X128019472Y-95549968D01*
X127868047Y-95600488D01*
X127854885Y-95606653D01*
X127719508Y-95690426D01*
X127708110Y-95699460D01*
X127595637Y-95812129D01*
X127586625Y-95823540D01*
X127503088Y-95959063D01*
X127496944Y-95972241D01*
X127446685Y-96123766D01*
X127443819Y-96137132D01*
X127434328Y-96229770D01*
X127434000Y-96236185D01*
X127434000Y-96247885D01*
X106508500Y-96247885D01*
X106508500Y-80518000D01*
X114082807Y-80518000D01*
X114101542Y-80732142D01*
X114102966Y-80737455D01*
X114102966Y-80737457D01*
X114137846Y-80867628D01*
X114157178Y-80939777D01*
X114159500Y-80944757D01*
X114159501Y-80944759D01*
X114244340Y-81126695D01*
X114248024Y-81134596D01*
X114371319Y-81310681D01*
X114523319Y-81462681D01*
X114699403Y-81585976D01*
X114704381Y-81588297D01*
X114704384Y-81588299D01*
X114889241Y-81674499D01*
X114894223Y-81676822D01*
X114899531Y-81678244D01*
X114899533Y-81678245D01*
X115096543Y-81731034D01*
X115096545Y-81731034D01*
X115101858Y-81732458D01*
X115316000Y-81751193D01*
X115530142Y-81732458D01*
X115535455Y-81731034D01*
X115535457Y-81731034D01*
X115732467Y-81678245D01*
X115732469Y-81678244D01*
X115737777Y-81676822D01*
X115742759Y-81674499D01*
X115927616Y-81588299D01*
X115927619Y-81588297D01*
X115932597Y-81585976D01*
X116108681Y-81462681D01*
X116260681Y-81310681D01*
X116383976Y-81134596D01*
X116387661Y-81126695D01*
X116472499Y-80944759D01*
X116472500Y-80944757D01*
X116474822Y-80939777D01*
X116494155Y-80867628D01*
X116529034Y-80737457D01*
X116529034Y-80737455D01*
X116530458Y-80732142D01*
X116549193Y-80518000D01*
X116530458Y-80303858D01*
X116520122Y-80265283D01*
X116476245Y-80101533D01*
X116476244Y-80101531D01*
X116474822Y-80096223D01*
X116460686Y-80065909D01*
X116386299Y-79906385D01*
X116386297Y-79906382D01*
X116383976Y-79901404D01*
X116260681Y-79725319D01*
X116108681Y-79573319D01*
X115932597Y-79450024D01*
X115927619Y-79447703D01*
X115927616Y-79447701D01*
X115742759Y-79361501D01*
X115742758Y-79361500D01*
X115737777Y-79359178D01*
X115732469Y-79357756D01*
X115732467Y-79357755D01*
X115535457Y-79304966D01*
X115535455Y-79304966D01*
X115530142Y-79303542D01*
X115316000Y-79284807D01*
X115101858Y-79303542D01*
X115096545Y-79304966D01*
X115096543Y-79304966D01*
X114899533Y-79357755D01*
X114899531Y-79357756D01*
X114894223Y-79359178D01*
X114889243Y-79361500D01*
X114889241Y-79361501D01*
X114704385Y-79447701D01*
X114704382Y-79447703D01*
X114699404Y-79450024D01*
X114523319Y-79573319D01*
X114371319Y-79725319D01*
X114248024Y-79901404D01*
X114245703Y-79906382D01*
X114245701Y-79906385D01*
X114171314Y-80065909D01*
X114157178Y-80096223D01*
X114155756Y-80101531D01*
X114155755Y-80101533D01*
X114111878Y-80265283D01*
X114101542Y-80303858D01*
X114082807Y-80518000D01*
X106508500Y-80518000D01*
X106508500Y-66040000D01*
X115564647Y-66040000D01*
X115584022Y-66261463D01*
X115641560Y-66476196D01*
X115643882Y-66481177D01*
X115643883Y-66481178D01*
X115733186Y-66672689D01*
X115733189Y-66672694D01*
X115735512Y-66677676D01*
X115738668Y-66682183D01*
X115738669Y-66682185D01*
X115841389Y-66828884D01*
X115863023Y-66859781D01*
X116020219Y-67016977D01*
X116024727Y-67020134D01*
X116024730Y-67020136D01*
X116087372Y-67063998D01*
X116202323Y-67144488D01*
X116207305Y-67146811D01*
X116207310Y-67146814D01*
X116398822Y-67236117D01*
X116403804Y-67238440D01*
X116409112Y-67239862D01*
X116409114Y-67239863D01*
X116474949Y-67257503D01*
X116618537Y-67295978D01*
X116840000Y-67315353D01*
X117061463Y-67295978D01*
X117205051Y-67257503D01*
X117270886Y-67239863D01*
X117270888Y-67239862D01*
X117276196Y-67238440D01*
X117281178Y-67236117D01*
X117472690Y-67146814D01*
X117472695Y-67146811D01*
X117477677Y-67144488D01*
X117592628Y-67063998D01*
X117655270Y-67020136D01*
X117655273Y-67020134D01*
X117659781Y-67016977D01*
X117816977Y-66859781D01*
X117838612Y-66828884D01*
X117941331Y-66682185D01*
X117941332Y-66682183D01*
X117944488Y-66677676D01*
X117946811Y-66672694D01*
X117946814Y-66672689D01*
X118036117Y-66481178D01*
X118036118Y-66481177D01*
X118038440Y-66476196D01*
X118095978Y-66261463D01*
X118115353Y-66040000D01*
X118095978Y-65818537D01*
X118085514Y-65779484D01*
X118087204Y-65708507D01*
X118118126Y-65657778D01*
X120560905Y-63214999D01*
X120623217Y-63180973D01*
X120694032Y-63186038D01*
X120739095Y-63214999D01*
X122079309Y-64555213D01*
X122113335Y-64617525D01*
X122108270Y-64688340D01*
X122065723Y-64745176D01*
X121999203Y-64769987D01*
X121979233Y-64769829D01*
X121925475Y-64765126D01*
X121920000Y-64764647D01*
X121698537Y-64784022D01*
X121603158Y-64809579D01*
X121489114Y-64840137D01*
X121489112Y-64840138D01*
X121483804Y-64841560D01*
X121478823Y-64843882D01*
X121478822Y-64843883D01*
X121287311Y-64933186D01*
X121287306Y-64933189D01*
X121282324Y-64935512D01*
X121277817Y-64938668D01*
X121277815Y-64938669D01*
X121104730Y-65059864D01*
X121104727Y-65059866D01*
X121100219Y-65063023D01*
X120943023Y-65220219D01*
X120815512Y-65402324D01*
X120813189Y-65407306D01*
X120813186Y-65407311D01*
X120729825Y-65586079D01*
X120721560Y-65603804D01*
X120664022Y-65818537D01*
X120644647Y-66040000D01*
X120664022Y-66261463D01*
X120721560Y-66476196D01*
X120723882Y-66481177D01*
X120723883Y-66481178D01*
X120813186Y-66672689D01*
X120813189Y-66672694D01*
X120815512Y-66677676D01*
X120818668Y-66682183D01*
X120818669Y-66682185D01*
X120921389Y-66828884D01*
X120943023Y-66859781D01*
X121100219Y-67016977D01*
X121104727Y-67020134D01*
X121104730Y-67020136D01*
X121167372Y-67063998D01*
X121282323Y-67144488D01*
X121287305Y-67146811D01*
X121287310Y-67146814D01*
X121478822Y-67236117D01*
X121483804Y-67238440D01*
X121489112Y-67239862D01*
X121489114Y-67239863D01*
X121554949Y-67257503D01*
X121698537Y-67295978D01*
X121920000Y-67315353D01*
X122141463Y-67295978D01*
X122157642Y-67291643D01*
X122180516Y-67285514D01*
X122251493Y-67287204D01*
X122302222Y-67318126D01*
X125496343Y-70512247D01*
X125503887Y-70520537D01*
X125508000Y-70527018D01*
X125513777Y-70532443D01*
X125557667Y-70573658D01*
X125560509Y-70576413D01*
X125580230Y-70596134D01*
X125583425Y-70598612D01*
X125592447Y-70606318D01*
X125624679Y-70636586D01*
X125631628Y-70640406D01*
X125642432Y-70646346D01*
X125658956Y-70657199D01*
X125674959Y-70669613D01*
X125715543Y-70687176D01*
X125726173Y-70692383D01*
X125764940Y-70713695D01*
X125772617Y-70715666D01*
X125772622Y-70715668D01*
X125784558Y-70718732D01*
X125803266Y-70725137D01*
X125821855Y-70733181D01*
X125829680Y-70734420D01*
X125829682Y-70734421D01*
X125865519Y-70740097D01*
X125877140Y-70742504D01*
X125912289Y-70751528D01*
X125919970Y-70753500D01*
X125940231Y-70753500D01*
X125959940Y-70755051D01*
X125979943Y-70758219D01*
X126002610Y-70756076D01*
X126072308Y-70769578D01*
X126121611Y-70815214D01*
X126201522Y-70944348D01*
X126278114Y-71020806D01*
X126288109Y-71030784D01*
X126322188Y-71093066D01*
X126317185Y-71163886D01*
X126288264Y-71208975D01*
X126285629Y-71211615D01*
X126200695Y-71296697D01*
X126196855Y-71302927D01*
X126196854Y-71302928D01*
X126144311Y-71388169D01*
X126107885Y-71447262D01*
X126105581Y-71454209D01*
X126057657Y-71598697D01*
X126052203Y-71615139D01*
X126041500Y-71719600D01*
X126041500Y-72520400D01*
X126041837Y-72523646D01*
X126041837Y-72523650D01*
X126051176Y-72613652D01*
X126052474Y-72626166D01*
X126108450Y-72793946D01*
X126201522Y-72944348D01*
X126326697Y-73069305D01*
X126332927Y-73073145D01*
X126332928Y-73073146D01*
X126477262Y-73162115D01*
X126475555Y-73164884D01*
X126517975Y-73202436D01*
X126537254Y-73270765D01*
X126531094Y-73308365D01*
X126518001Y-73348662D01*
X126474458Y-73482672D01*
X126473768Y-73489233D01*
X126473768Y-73489235D01*
X126461203Y-73608782D01*
X126454496Y-73672600D01*
X126455131Y-73678640D01*
X126444823Y-73728413D01*
X126432826Y-73756137D01*
X126427609Y-73766787D01*
X126406305Y-73805540D01*
X126404334Y-73813215D01*
X126404334Y-73813216D01*
X126401267Y-73825162D01*
X126394863Y-73843866D01*
X126386819Y-73862455D01*
X126385580Y-73870278D01*
X126385577Y-73870288D01*
X126379901Y-73906124D01*
X126377495Y-73917744D01*
X126366500Y-73960570D01*
X126366500Y-73980824D01*
X126364949Y-74000534D01*
X126361780Y-74020543D01*
X126362367Y-74026755D01*
X126340468Y-74093500D01*
X126285378Y-74138285D01*
X126276540Y-74141606D01*
X126232998Y-74156133D01*
X126232996Y-74156134D01*
X126226054Y-74158450D01*
X126219830Y-74162301D01*
X126219829Y-74162302D01*
X126151120Y-74204821D01*
X126075652Y-74251522D01*
X125950695Y-74376697D01*
X125946855Y-74382927D01*
X125946854Y-74382928D01*
X125912902Y-74438009D01*
X125857885Y-74527262D01*
X125802203Y-74695139D01*
X125791500Y-74799600D01*
X125791500Y-75600400D01*
X125802474Y-75706166D01*
X125858450Y-75873946D01*
X125951522Y-76024348D01*
X125956704Y-76029521D01*
X126038109Y-76110784D01*
X126072188Y-76173066D01*
X126067185Y-76243886D01*
X126038264Y-76288975D01*
X125962940Y-76364431D01*
X125950695Y-76376697D01*
X125857885Y-76527262D01*
X125802203Y-76695139D01*
X125791500Y-76799600D01*
X125791500Y-77218500D01*
X125771498Y-77286621D01*
X125717842Y-77333114D01*
X125665500Y-77344500D01*
X118977731Y-77344500D01*
X118909610Y-77324498D01*
X118874518Y-77290770D01*
X118803840Y-77189831D01*
X118800681Y-77185319D01*
X118648681Y-77033319D01*
X118472597Y-76910024D01*
X118467619Y-76907703D01*
X118467616Y-76907701D01*
X118282759Y-76821501D01*
X118282758Y-76821500D01*
X118277777Y-76819178D01*
X118272469Y-76817756D01*
X118272467Y-76817755D01*
X118075457Y-76764966D01*
X118075455Y-76764966D01*
X118070142Y-76763542D01*
X117856000Y-76744807D01*
X117641858Y-76763542D01*
X117636545Y-76764966D01*
X117636543Y-76764966D01*
X117439533Y-76817755D01*
X117439531Y-76817756D01*
X117434223Y-76819178D01*
X117429243Y-76821500D01*
X117429241Y-76821501D01*
X117244385Y-76907701D01*
X117244382Y-76907703D01*
X117239404Y-76910024D01*
X117063319Y-77033319D01*
X116911319Y-77185319D01*
X116788024Y-77361404D01*
X116697178Y-77556223D01*
X116641542Y-77763858D01*
X116622807Y-77978000D01*
X116641542Y-78192142D01*
X116642966Y-78197455D01*
X116642966Y-78197457D01*
X116678820Y-78331263D01*
X116697178Y-78399777D01*
X116699500Y-78404757D01*
X116699501Y-78404759D01*
X116784659Y-78587379D01*
X116788024Y-78594596D01*
X116911319Y-78770681D01*
X117063319Y-78922681D01*
X117239403Y-79045976D01*
X117244381Y-79048297D01*
X117244384Y-79048299D01*
X117388877Y-79115677D01*
X117434223Y-79136822D01*
X117439531Y-79138244D01*
X117439533Y-79138245D01*
X117636543Y-79191034D01*
X117636545Y-79191034D01*
X117641858Y-79192458D01*
X117856000Y-79211193D01*
X118070142Y-79192458D01*
X118075455Y-79191034D01*
X118075457Y-79191034D01*
X118272467Y-79138245D01*
X118272469Y-79138244D01*
X118277777Y-79136822D01*
X118323123Y-79115677D01*
X118467616Y-79048299D01*
X118467619Y-79048297D01*
X118472597Y-79045976D01*
X118648681Y-78922681D01*
X118800681Y-78770681D01*
X118874518Y-78665230D01*
X118929975Y-78620901D01*
X118977731Y-78611500D01*
X126143233Y-78611500D01*
X126154416Y-78612027D01*
X126161909Y-78613702D01*
X126169835Y-78613453D01*
X126169836Y-78613453D01*
X126229986Y-78611562D01*
X126233945Y-78611500D01*
X126261856Y-78611500D01*
X126265791Y-78611003D01*
X126265856Y-78610995D01*
X126277693Y-78610062D01*
X126309951Y-78609048D01*
X126313970Y-78608922D01*
X126321889Y-78608673D01*
X126341343Y-78603021D01*
X126360700Y-78599013D01*
X126372930Y-78597468D01*
X126372931Y-78597468D01*
X126380797Y-78596474D01*
X126388168Y-78593555D01*
X126388170Y-78593555D01*
X126421912Y-78580196D01*
X126433142Y-78576351D01*
X126467983Y-78566229D01*
X126467984Y-78566229D01*
X126475593Y-78564018D01*
X126482412Y-78559985D01*
X126482417Y-78559983D01*
X126493028Y-78553707D01*
X126510776Y-78545012D01*
X126529617Y-78537552D01*
X126565387Y-78511564D01*
X126575307Y-78505048D01*
X126606535Y-78486580D01*
X126606538Y-78486578D01*
X126613362Y-78482542D01*
X126627683Y-78468221D01*
X126642717Y-78455380D01*
X126652694Y-78448131D01*
X126659107Y-78443472D01*
X126687298Y-78409395D01*
X126695288Y-78400616D01*
X126750499Y-78345405D01*
X126812811Y-78311379D01*
X126839594Y-78308500D01*
X127500400Y-78308500D01*
X127503646Y-78308163D01*
X127503650Y-78308163D01*
X127599308Y-78298238D01*
X127599312Y-78298237D01*
X127606166Y-78297526D01*
X127612702Y-78295345D01*
X127612704Y-78295345D01*
X127766998Y-78243868D01*
X127773946Y-78241550D01*
X127924348Y-78148478D01*
X128049305Y-78023303D01*
X128053146Y-78017072D01*
X128138275Y-77878968D01*
X128138276Y-77878966D01*
X128142115Y-77872738D01*
X128197797Y-77704861D01*
X128208500Y-77600400D01*
X128208500Y-76799600D01*
X128208163Y-76796350D01*
X128198238Y-76700692D01*
X128198237Y-76700688D01*
X128197526Y-76693834D01*
X128190409Y-76672500D01*
X128143868Y-76533002D01*
X128141550Y-76526054D01*
X128048478Y-76375652D01*
X127961891Y-76289216D01*
X127927812Y-76226934D01*
X127932815Y-76156114D01*
X127961736Y-76111025D01*
X128044134Y-76028483D01*
X128049305Y-76023303D01*
X128074010Y-75983224D01*
X128138275Y-75878968D01*
X128138276Y-75878966D01*
X128142115Y-75872738D01*
X128197797Y-75704861D01*
X128208500Y-75600400D01*
X128208500Y-74799600D01*
X128197526Y-74693834D01*
X128190371Y-74672386D01*
X128143868Y-74533002D01*
X128141550Y-74526054D01*
X128095178Y-74451118D01*
X128061147Y-74396124D01*
X128042309Y-74327672D01*
X128063470Y-74259902D01*
X128074648Y-74245519D01*
X128107040Y-74209544D01*
X128187332Y-74070475D01*
X128199223Y-74049879D01*
X128199224Y-74049878D01*
X128202527Y-74044156D01*
X128261542Y-73862528D01*
X128262315Y-73855180D01*
X128280814Y-73679165D01*
X128281504Y-73672600D01*
X128274797Y-73608782D01*
X128262232Y-73489235D01*
X128262232Y-73489233D01*
X128261542Y-73482672D01*
X128202527Y-73301044D01*
X128185046Y-73270765D01*
X128155429Y-73219468D01*
X128138691Y-73150473D01*
X128161911Y-73083381D01*
X128175375Y-73067451D01*
X128294130Y-72948488D01*
X128294134Y-72948483D01*
X128299305Y-72943303D01*
X128305416Y-72933389D01*
X128388275Y-72798968D01*
X128388276Y-72798966D01*
X128392115Y-72792738D01*
X128447797Y-72624861D01*
X128448946Y-72613652D01*
X128458172Y-72523598D01*
X128458500Y-72520400D01*
X128458500Y-71719600D01*
X128455741Y-71693006D01*
X128448238Y-71620692D01*
X128448237Y-71620688D01*
X128447526Y-71613834D01*
X128440402Y-71592479D01*
X128393868Y-71453002D01*
X128391550Y-71446054D01*
X128298478Y-71295652D01*
X128211891Y-71209216D01*
X128177812Y-71146934D01*
X128182815Y-71076114D01*
X128211736Y-71031025D01*
X128294134Y-70948483D01*
X128299305Y-70943303D01*
X128319941Y-70909826D01*
X128388275Y-70798968D01*
X128388276Y-70798966D01*
X128392115Y-70792738D01*
X128427131Y-70687168D01*
X128445632Y-70631389D01*
X128445632Y-70631387D01*
X128447797Y-70624861D01*
X128451028Y-70593332D01*
X128458172Y-70523598D01*
X128458500Y-70520400D01*
X128458500Y-69719600D01*
X128454966Y-69685539D01*
X128448238Y-69620692D01*
X128448237Y-69620688D01*
X128447526Y-69613834D01*
X128438157Y-69585750D01*
X128393868Y-69453002D01*
X128391550Y-69446054D01*
X128298478Y-69295652D01*
X128173303Y-69170695D01*
X128167072Y-69166854D01*
X128028968Y-69081725D01*
X128028966Y-69081724D01*
X128022738Y-69077885D01*
X127862254Y-69024655D01*
X127861389Y-69024368D01*
X127861387Y-69024368D01*
X127854861Y-69022203D01*
X127848025Y-69021503D01*
X127848022Y-69021502D01*
X127804969Y-69017091D01*
X127750400Y-69011500D01*
X126749600Y-69011500D01*
X126746354Y-69011837D01*
X126746350Y-69011837D01*
X126650692Y-69021762D01*
X126650688Y-69021763D01*
X126643834Y-69022474D01*
X126637298Y-69024655D01*
X126637296Y-69024655D01*
X126538552Y-69057599D01*
X126476054Y-69078450D01*
X126325652Y-69171522D01*
X126320479Y-69176704D01*
X126225799Y-69271549D01*
X126163516Y-69305628D01*
X126092696Y-69300625D01*
X126047531Y-69271626D01*
X123198126Y-66422221D01*
X123164100Y-66359909D01*
X123165515Y-66300514D01*
X123174553Y-66266783D01*
X123174554Y-66266776D01*
X123175978Y-66261463D01*
X123195353Y-66040000D01*
X123190171Y-65980767D01*
X123204161Y-65911162D01*
X123253560Y-65860170D01*
X123322686Y-65843980D01*
X123389591Y-65867733D01*
X123404786Y-65880690D01*
X124258582Y-66734487D01*
X125098448Y-67574353D01*
X125105988Y-67582639D01*
X125110100Y-67589118D01*
X125115877Y-67594543D01*
X125159751Y-67635743D01*
X125162593Y-67638498D01*
X125182330Y-67658235D01*
X125185527Y-67660715D01*
X125194547Y-67668418D01*
X125226779Y-67698686D01*
X125233725Y-67702505D01*
X125233728Y-67702507D01*
X125244534Y-67708448D01*
X125261053Y-67719299D01*
X125277059Y-67731714D01*
X125284328Y-67734859D01*
X125284332Y-67734862D01*
X125317637Y-67749274D01*
X125328287Y-67754491D01*
X125367040Y-67775795D01*
X125374715Y-67777766D01*
X125374716Y-67777766D01*
X125386662Y-67780833D01*
X125405367Y-67787237D01*
X125423955Y-67795281D01*
X125431778Y-67796520D01*
X125431788Y-67796523D01*
X125467624Y-67802199D01*
X125479244Y-67804605D01*
X125514389Y-67813628D01*
X125522070Y-67815600D01*
X125542324Y-67815600D01*
X125562034Y-67817151D01*
X125582043Y-67820320D01*
X125589935Y-67819574D01*
X125626061Y-67816159D01*
X125637919Y-67815600D01*
X135563219Y-67815600D01*
X135631340Y-67835602D01*
X135670363Y-67875297D01*
X135751522Y-68006448D01*
X135756704Y-68011621D01*
X135838109Y-68092884D01*
X135872188Y-68155166D01*
X135867185Y-68225986D01*
X135838264Y-68271075D01*
X135750695Y-68358797D01*
X135657885Y-68509362D01*
X135602203Y-68677239D01*
X135591500Y-68781700D01*
X135591500Y-69582500D01*
X135591837Y-69585746D01*
X135591837Y-69585750D01*
X135600961Y-69673681D01*
X135602474Y-69688266D01*
X135604655Y-69694802D01*
X135604655Y-69694804D01*
X135638174Y-69795271D01*
X135658450Y-69856046D01*
X135751522Y-70006448D01*
X135876697Y-70131405D01*
X135882927Y-70135245D01*
X135882928Y-70135246D01*
X136009323Y-70213157D01*
X136027262Y-70224215D01*
X136107005Y-70250664D01*
X136188611Y-70277732D01*
X136188613Y-70277732D01*
X136195139Y-70279897D01*
X136201975Y-70280597D01*
X136201978Y-70280598D01*
X136245031Y-70285009D01*
X136299600Y-70290600D01*
X136536206Y-70290600D01*
X136604327Y-70310602D01*
X136650820Y-70364258D01*
X136660924Y-70434532D01*
X136631430Y-70499112D01*
X136625301Y-70505695D01*
X132328178Y-74802817D01*
X128032747Y-79098248D01*
X128024461Y-79105788D01*
X128017982Y-79109900D01*
X128012557Y-79115677D01*
X127971357Y-79159551D01*
X127968602Y-79162393D01*
X127948865Y-79182130D01*
X127946385Y-79185327D01*
X127938682Y-79194347D01*
X127908414Y-79226579D01*
X127904595Y-79233525D01*
X127904593Y-79233528D01*
X127898652Y-79244334D01*
X127887801Y-79260853D01*
X127875386Y-79276859D01*
X127872241Y-79284128D01*
X127872238Y-79284132D01*
X127857826Y-79317437D01*
X127852609Y-79328087D01*
X127831305Y-79366840D01*
X127829334Y-79374515D01*
X127829334Y-79374516D01*
X127826267Y-79386462D01*
X127819863Y-79405166D01*
X127811819Y-79423755D01*
X127810580Y-79431578D01*
X127810577Y-79431588D01*
X127804901Y-79467424D01*
X127802495Y-79479044D01*
X127799668Y-79490056D01*
X127791500Y-79521870D01*
X127791500Y-79542124D01*
X127789949Y-79561834D01*
X127786780Y-79581843D01*
X127787526Y-79589735D01*
X127790941Y-79625861D01*
X127791500Y-79637719D01*
X127791500Y-80450200D01*
X127771498Y-80518321D01*
X127717842Y-80564814D01*
X127665500Y-80576200D01*
X126804600Y-80576200D01*
X126801354Y-80576537D01*
X126801350Y-80576537D01*
X126705692Y-80586462D01*
X126705688Y-80586463D01*
X126698834Y-80587174D01*
X126692298Y-80589355D01*
X126692296Y-80589355D01*
X126560194Y-80633428D01*
X126531054Y-80643150D01*
X126380652Y-80736222D01*
X126255695Y-80861397D01*
X126251855Y-80867627D01*
X126251854Y-80867628D01*
X126175611Y-80991316D01*
X126122838Y-81038810D01*
X126068351Y-81051200D01*
X119308063Y-81051200D01*
X119296879Y-81050673D01*
X119289391Y-81048999D01*
X119281468Y-81049248D01*
X119221333Y-81051138D01*
X119217375Y-81051200D01*
X119189444Y-81051200D01*
X119185529Y-81051695D01*
X119185525Y-81051695D01*
X119185467Y-81051703D01*
X119185438Y-81051706D01*
X119173596Y-81052639D01*
X119129410Y-81054027D01*
X119112044Y-81059072D01*
X119109958Y-81059678D01*
X119090606Y-81063686D01*
X119078368Y-81065232D01*
X119078366Y-81065233D01*
X119070503Y-81066226D01*
X119029386Y-81082506D01*
X119018185Y-81086341D01*
X118975706Y-81098682D01*
X118968887Y-81102715D01*
X118968882Y-81102717D01*
X118958271Y-81108993D01*
X118940521Y-81117690D01*
X118921683Y-81125148D01*
X118915267Y-81129809D01*
X118915266Y-81129810D01*
X118885925Y-81151128D01*
X118876001Y-81157647D01*
X118844760Y-81176122D01*
X118844755Y-81176126D01*
X118837937Y-81180158D01*
X118823613Y-81194482D01*
X118808581Y-81207321D01*
X118792193Y-81219228D01*
X118784541Y-81228478D01*
X118764012Y-81253293D01*
X118756022Y-81262073D01*
X118203928Y-81814167D01*
X118141616Y-81848193D01*
X118082227Y-81846780D01*
X118079182Y-81845964D01*
X118070142Y-81843542D01*
X117856000Y-81824807D01*
X117641858Y-81843542D01*
X117636545Y-81844966D01*
X117636543Y-81844966D01*
X117439533Y-81897755D01*
X117439531Y-81897756D01*
X117434223Y-81899178D01*
X117429243Y-81901500D01*
X117429241Y-81901501D01*
X117244385Y-81987701D01*
X117244382Y-81987703D01*
X117239404Y-81990024D01*
X117063319Y-82113319D01*
X116911319Y-82265319D01*
X116788024Y-82441404D01*
X116785703Y-82446382D01*
X116785701Y-82446385D01*
X116752245Y-82518131D01*
X116697178Y-82636223D01*
X116695756Y-82641531D01*
X116695755Y-82641533D01*
X116659183Y-82778022D01*
X116641542Y-82843858D01*
X116622807Y-83058000D01*
X116641542Y-83272142D01*
X116642966Y-83277455D01*
X116642966Y-83277457D01*
X116673492Y-83391379D01*
X116697178Y-83479777D01*
X116788024Y-83674596D01*
X116911319Y-83850681D01*
X117063319Y-84002681D01*
X117239403Y-84125976D01*
X117244381Y-84128297D01*
X117244384Y-84128299D01*
X117363853Y-84184008D01*
X117434223Y-84216822D01*
X117439531Y-84218244D01*
X117439533Y-84218245D01*
X117636543Y-84271034D01*
X117636545Y-84271034D01*
X117641858Y-84272458D01*
X117856000Y-84291193D01*
X118070142Y-84272458D01*
X118075455Y-84271034D01*
X118075457Y-84271034D01*
X118272467Y-84218245D01*
X118272469Y-84218244D01*
X118277777Y-84216822D01*
X118348147Y-84184008D01*
X118467616Y-84128299D01*
X118467619Y-84128297D01*
X118472597Y-84125976D01*
X118648681Y-84002681D01*
X118800681Y-83850681D01*
X118923976Y-83674596D01*
X119014822Y-83479777D01*
X119038509Y-83391379D01*
X119069034Y-83277457D01*
X119069034Y-83277455D01*
X119070458Y-83272142D01*
X119089193Y-83058000D01*
X119070458Y-82843858D01*
X119067221Y-82831776D01*
X119068911Y-82760800D01*
X119099833Y-82710071D01*
X119454799Y-82355105D01*
X119517111Y-82321079D01*
X119543894Y-82318200D01*
X126068219Y-82318200D01*
X126136340Y-82338202D01*
X126175363Y-82377897D01*
X126256522Y-82509048D01*
X126323971Y-82576379D01*
X126343109Y-82595484D01*
X126377188Y-82657766D01*
X126372185Y-82728586D01*
X126343264Y-82773675D01*
X126255695Y-82861397D01*
X126251855Y-82867627D01*
X126251854Y-82867628D01*
X126203674Y-82945791D01*
X126162885Y-83011962D01*
X126107203Y-83179839D01*
X126096500Y-83284300D01*
X126096500Y-84085100D01*
X126107474Y-84190866D01*
X126109655Y-84197402D01*
X126109655Y-84197404D01*
X126116608Y-84218245D01*
X126163450Y-84358646D01*
X126256522Y-84509048D01*
X126261704Y-84514221D01*
X126329518Y-84581917D01*
X126363597Y-84644200D01*
X126366500Y-84671090D01*
X126366500Y-86010803D01*
X126346498Y-86078924D01*
X126292842Y-86125417D01*
X126280377Y-86130326D01*
X126232998Y-86146133D01*
X126232996Y-86146134D01*
X126226054Y-86148450D01*
X126219830Y-86152301D01*
X126219829Y-86152302D01*
X126200218Y-86164438D01*
X126075652Y-86241522D01*
X125950695Y-86366697D01*
X125946855Y-86372927D01*
X125946854Y-86372928D01*
X125897771Y-86452556D01*
X125857885Y-86517262D01*
X125802203Y-86685139D01*
X125801503Y-86691975D01*
X125801502Y-86691978D01*
X125797091Y-86735031D01*
X125791500Y-86789600D01*
X125791500Y-87590400D01*
X125802474Y-87696166D01*
X125804655Y-87702702D01*
X125804655Y-87702704D01*
X125821947Y-87754535D01*
X125858450Y-87863946D01*
X125951522Y-88014348D01*
X126021244Y-88083948D01*
X126038109Y-88100784D01*
X126072188Y-88163066D01*
X126067185Y-88233886D01*
X126038264Y-88278975D01*
X125950695Y-88366697D01*
X125857885Y-88517262D01*
X125802203Y-88685139D01*
X125791500Y-88789600D01*
X125791500Y-89590400D01*
X125802474Y-89696166D01*
X125858450Y-89863946D01*
X125951522Y-90014348D01*
X126076697Y-90139305D01*
X126082927Y-90143145D01*
X126082928Y-90143146D01*
X126220090Y-90227694D01*
X126227262Y-90232115D01*
X126307005Y-90258564D01*
X126388611Y-90285632D01*
X126388613Y-90285632D01*
X126395139Y-90287797D01*
X126401975Y-90288497D01*
X126401978Y-90288498D01*
X126445031Y-90292909D01*
X126499600Y-90298500D01*
X127500400Y-90298500D01*
X127503646Y-90298163D01*
X127503650Y-90298163D01*
X127599308Y-90288238D01*
X127599312Y-90288237D01*
X127606166Y-90287526D01*
X127612702Y-90285345D01*
X127612704Y-90285345D01*
X127744806Y-90241272D01*
X127773946Y-90231550D01*
X127924348Y-90138478D01*
X128049305Y-90013303D01*
X128142115Y-89862738D01*
X128197797Y-89694861D01*
X128208500Y-89590400D01*
X128208500Y-88929594D01*
X128228502Y-88861473D01*
X128245405Y-88840499D01*
X128879805Y-88206099D01*
X128942117Y-88172073D01*
X129012932Y-88177138D01*
X129057995Y-88206099D01*
X135179143Y-94327247D01*
X135186687Y-94335537D01*
X135190800Y-94342018D01*
X135196577Y-94347443D01*
X135240467Y-94388658D01*
X135243309Y-94391413D01*
X135263030Y-94411134D01*
X135266225Y-94413612D01*
X135275247Y-94421318D01*
X135307479Y-94451586D01*
X135314428Y-94455406D01*
X135325232Y-94461346D01*
X135341756Y-94472199D01*
X135357759Y-94484613D01*
X135398343Y-94502176D01*
X135408973Y-94507383D01*
X135447740Y-94528695D01*
X135455417Y-94530666D01*
X135455422Y-94530668D01*
X135467358Y-94533732D01*
X135486066Y-94540137D01*
X135504655Y-94548181D01*
X135512480Y-94549420D01*
X135512482Y-94549421D01*
X135548319Y-94555097D01*
X135559940Y-94557504D01*
X135595089Y-94566528D01*
X135602770Y-94568500D01*
X135623031Y-94568500D01*
X135642740Y-94570051D01*
X135662743Y-94573219D01*
X135670635Y-94572473D01*
X135675862Y-94571979D01*
X135706754Y-94569059D01*
X135718611Y-94568500D01*
X144402019Y-94568500D01*
X144470140Y-94588502D01*
X144509163Y-94628197D01*
X144590322Y-94759348D01*
X144595504Y-94764521D01*
X144676909Y-94845784D01*
X144710988Y-94908066D01*
X144705985Y-94978886D01*
X144677064Y-95023975D01*
X144609121Y-95092037D01*
X144589495Y-95111697D01*
X144496685Y-95262262D01*
X144441003Y-95430139D01*
X144430300Y-95534600D01*
X144430300Y-96335400D01*
X144430637Y-96338646D01*
X144430637Y-96338650D01*
X144439580Y-96424837D01*
X144441274Y-96441166D01*
X144443455Y-96447702D01*
X144443455Y-96447704D01*
X144472440Y-96534583D01*
X144497250Y-96608946D01*
X144590322Y-96759348D01*
X144595504Y-96764521D01*
X144618571Y-96787548D01*
X144715497Y-96884305D01*
X144866062Y-96977115D01*
X144918932Y-96994651D01*
X145027411Y-97030632D01*
X145027413Y-97030632D01*
X145033939Y-97032797D01*
X145040775Y-97033497D01*
X145040778Y-97033498D01*
X145083831Y-97037909D01*
X145138400Y-97043500D01*
X145835391Y-97043500D01*
X145885432Y-97053863D01*
X145921738Y-97069574D01*
X145932387Y-97074791D01*
X145971140Y-97096095D01*
X145978815Y-97098066D01*
X145978816Y-97098066D01*
X145990762Y-97101133D01*
X146009467Y-97107537D01*
X146028055Y-97115581D01*
X146035878Y-97116820D01*
X146035888Y-97116823D01*
X146071724Y-97122499D01*
X146083344Y-97124905D01*
X146118489Y-97133928D01*
X146126170Y-97135900D01*
X146146424Y-97135900D01*
X146166134Y-97137451D01*
X146186143Y-97140620D01*
X146194035Y-97139874D01*
X146230161Y-97136459D01*
X146242019Y-97135900D01*
X153230500Y-97135900D01*
X153298621Y-97155902D01*
X153345114Y-97209558D01*
X153355218Y-97279832D01*
X153344695Y-97315150D01*
X153328085Y-97350770D01*
X153297060Y-97417304D01*
X153295638Y-97422612D01*
X153295637Y-97422614D01*
X153290841Y-97440512D01*
X153239522Y-97632037D01*
X153220147Y-97853500D01*
X153239522Y-98074963D01*
X153297060Y-98289696D01*
X153299382Y-98294677D01*
X153299383Y-98294678D01*
X153388686Y-98486189D01*
X153388689Y-98486194D01*
X153391012Y-98491176D01*
X153394168Y-98495683D01*
X153394169Y-98495685D01*
X153441210Y-98562866D01*
X153518523Y-98673281D01*
X153675719Y-98830477D01*
X153680227Y-98833634D01*
X153680230Y-98833636D01*
X153755995Y-98886687D01*
X153857823Y-98957988D01*
X153862805Y-98960311D01*
X153862810Y-98960314D01*
X154054322Y-99049617D01*
X154059304Y-99051940D01*
X154064612Y-99053362D01*
X154064614Y-99053363D01*
X154117277Y-99067474D01*
X154274037Y-99109478D01*
X154495500Y-99128853D01*
X154716963Y-99109478D01*
X154873723Y-99067474D01*
X154926386Y-99053363D01*
X154926388Y-99053362D01*
X154931696Y-99051940D01*
X154936678Y-99049617D01*
X155128190Y-98960314D01*
X155128195Y-98960311D01*
X155133177Y-98957988D01*
X155235005Y-98886687D01*
X155310770Y-98833636D01*
X155310773Y-98833634D01*
X155315281Y-98830477D01*
X155472477Y-98673281D01*
X155549791Y-98562866D01*
X155596831Y-98495685D01*
X155596832Y-98495683D01*
X155599988Y-98491176D01*
X155602311Y-98486194D01*
X155602314Y-98486189D01*
X155691617Y-98294678D01*
X155691618Y-98294677D01*
X155693940Y-98289696D01*
X155751478Y-98074963D01*
X155770853Y-97853500D01*
X155751478Y-97632037D01*
X155700159Y-97440512D01*
X155695363Y-97422614D01*
X155695362Y-97422612D01*
X155693940Y-97417304D01*
X155662915Y-97350770D01*
X155646305Y-97315150D01*
X155635644Y-97244958D01*
X155664624Y-97180145D01*
X155724044Y-97141289D01*
X155760500Y-97135900D01*
X160850500Y-97135900D01*
X160918621Y-97155902D01*
X160965114Y-97209558D01*
X160975218Y-97279832D01*
X160964695Y-97315150D01*
X160948085Y-97350770D01*
X160917060Y-97417304D01*
X160915638Y-97422612D01*
X160915637Y-97422614D01*
X160910841Y-97440512D01*
X160859522Y-97632037D01*
X160840147Y-97853500D01*
X160859522Y-98074963D01*
X160917060Y-98289696D01*
X160919382Y-98294677D01*
X160919383Y-98294678D01*
X161008686Y-98486189D01*
X161008689Y-98486194D01*
X161011012Y-98491176D01*
X161014168Y-98495683D01*
X161014169Y-98495685D01*
X161061210Y-98562866D01*
X161138523Y-98673281D01*
X161295719Y-98830477D01*
X161300227Y-98833634D01*
X161300230Y-98833636D01*
X161375995Y-98886687D01*
X161477823Y-98957988D01*
X161482805Y-98960311D01*
X161482810Y-98960314D01*
X161674322Y-99049617D01*
X161679304Y-99051940D01*
X161684612Y-99053362D01*
X161684614Y-99053363D01*
X161737277Y-99067474D01*
X161894037Y-99109478D01*
X162115500Y-99128853D01*
X162336963Y-99109478D01*
X162493723Y-99067474D01*
X162546386Y-99053363D01*
X162546388Y-99053362D01*
X162551696Y-99051940D01*
X162556678Y-99049617D01*
X162748190Y-98960314D01*
X162748195Y-98960311D01*
X162753177Y-98957988D01*
X162855005Y-98886687D01*
X162930770Y-98833636D01*
X162930773Y-98833634D01*
X162935281Y-98830477D01*
X163092477Y-98673281D01*
X163169791Y-98562866D01*
X163216831Y-98495685D01*
X163216832Y-98495683D01*
X163219988Y-98491176D01*
X163222311Y-98486194D01*
X163222314Y-98486189D01*
X163311617Y-98294678D01*
X163311618Y-98294677D01*
X163313940Y-98289696D01*
X163371478Y-98074963D01*
X163390853Y-97853500D01*
X163371478Y-97632037D01*
X163320159Y-97440512D01*
X163315363Y-97422614D01*
X163315362Y-97422612D01*
X163313940Y-97417304D01*
X163282915Y-97350770D01*
X163222314Y-97220811D01*
X163222311Y-97220806D01*
X163219988Y-97215824D01*
X163215601Y-97209558D01*
X163095636Y-97038230D01*
X163095634Y-97038227D01*
X163092477Y-97033719D01*
X162935281Y-96876523D01*
X162930773Y-96873366D01*
X162930770Y-96873364D01*
X162831489Y-96803847D01*
X162802729Y-96783709D01*
X162758401Y-96728252D01*
X162749000Y-96680496D01*
X162749000Y-96574193D01*
X162751232Y-96550584D01*
X162751290Y-96550281D01*
X162751290Y-96550277D01*
X162752775Y-96542494D01*
X162749729Y-96494080D01*
X162765414Y-96424837D01*
X162803209Y-96382955D01*
X162930770Y-96293636D01*
X162930773Y-96293634D01*
X162935281Y-96290477D01*
X163092477Y-96133281D01*
X163099140Y-96123766D01*
X163216831Y-95955685D01*
X163216832Y-95955683D01*
X163219988Y-95951176D01*
X163222311Y-95946194D01*
X163222314Y-95946189D01*
X163311617Y-95754678D01*
X163311618Y-95754677D01*
X163313940Y-95749696D01*
X163324500Y-95710288D01*
X163333003Y-95678551D01*
X163371478Y-95534963D01*
X163390853Y-95313500D01*
X163371478Y-95092037D01*
X163322183Y-94908066D01*
X163315363Y-94882614D01*
X163315362Y-94882612D01*
X163313940Y-94877304D01*
X163311617Y-94872322D01*
X163222314Y-94680811D01*
X163222311Y-94680806D01*
X163219988Y-94675824D01*
X163216831Y-94671315D01*
X163095636Y-94498230D01*
X163095634Y-94498227D01*
X163092477Y-94493719D01*
X162935281Y-94336523D01*
X162930773Y-94333366D01*
X162930770Y-94333364D01*
X162827846Y-94261296D01*
X162753177Y-94209012D01*
X162748195Y-94206689D01*
X162748190Y-94206686D01*
X162643127Y-94157695D01*
X162589842Y-94110778D01*
X162570381Y-94042501D01*
X162590923Y-93974541D01*
X162643127Y-93929305D01*
X162748190Y-93880314D01*
X162748195Y-93880311D01*
X162753177Y-93877988D01*
X162855005Y-93806687D01*
X162930770Y-93753636D01*
X162930773Y-93753634D01*
X162935281Y-93750477D01*
X163092477Y-93593281D01*
X163135842Y-93531350D01*
X163216831Y-93415685D01*
X163216832Y-93415683D01*
X163219988Y-93411176D01*
X163222311Y-93406194D01*
X163222314Y-93406189D01*
X163311617Y-93214678D01*
X163311618Y-93214677D01*
X163313940Y-93209696D01*
X163371478Y-92994963D01*
X163390853Y-92773500D01*
X163371478Y-92552037D01*
X163313940Y-92337304D01*
X163293585Y-92293652D01*
X163222314Y-92140811D01*
X163222311Y-92140806D01*
X163219988Y-92135824D01*
X163178414Y-92076450D01*
X163095636Y-91958230D01*
X163095634Y-91958227D01*
X163092477Y-91953719D01*
X162935281Y-91796523D01*
X162930773Y-91793366D01*
X162930770Y-91793364D01*
X162855005Y-91740313D01*
X162753177Y-91669012D01*
X162748195Y-91666689D01*
X162748190Y-91666686D01*
X162556678Y-91577383D01*
X162556677Y-91577382D01*
X162551696Y-91575060D01*
X162546388Y-91573638D01*
X162546386Y-91573637D01*
X162480551Y-91555997D01*
X162336963Y-91517522D01*
X162115500Y-91498147D01*
X161894037Y-91517522D01*
X161750449Y-91555997D01*
X161684614Y-91573637D01*
X161684612Y-91573638D01*
X161679304Y-91575060D01*
X161674323Y-91577382D01*
X161674322Y-91577383D01*
X161482811Y-91666686D01*
X161482806Y-91666689D01*
X161477824Y-91669012D01*
X161473317Y-91672168D01*
X161473315Y-91672169D01*
X161300230Y-91793364D01*
X161300227Y-91793366D01*
X161295719Y-91796523D01*
X161138523Y-91953719D01*
X161135366Y-91958227D01*
X161135364Y-91958230D01*
X161052586Y-92076450D01*
X161011012Y-92135824D01*
X161008689Y-92140806D01*
X161008686Y-92140811D01*
X160937415Y-92293652D01*
X160917060Y-92337304D01*
X160906444Y-92376925D01*
X160875847Y-92491112D01*
X160838895Y-92551734D01*
X160775034Y-92582756D01*
X160754140Y-92584500D01*
X160421197Y-92584500D01*
X160353076Y-92564498D01*
X160306583Y-92510842D01*
X160301674Y-92498377D01*
X160285867Y-92450998D01*
X160285866Y-92450996D01*
X160283550Y-92444054D01*
X160190478Y-92293652D01*
X160065303Y-92168695D01*
X160004662Y-92131315D01*
X159920968Y-92079725D01*
X159920966Y-92079724D01*
X159914738Y-92075885D01*
X159754254Y-92022655D01*
X159753389Y-92022368D01*
X159753387Y-92022368D01*
X159746861Y-92020203D01*
X159740025Y-92019503D01*
X159740022Y-92019502D01*
X159696969Y-92015091D01*
X159642400Y-92009500D01*
X158841600Y-92009500D01*
X158838354Y-92009837D01*
X158838350Y-92009837D01*
X158742692Y-92019762D01*
X158742688Y-92019763D01*
X158735834Y-92020474D01*
X158729298Y-92022655D01*
X158729296Y-92022655D01*
X158597194Y-92066728D01*
X158568054Y-92076450D01*
X158417652Y-92169522D01*
X158412479Y-92174704D01*
X158331216Y-92256109D01*
X158268934Y-92290188D01*
X158198114Y-92285185D01*
X158153025Y-92256264D01*
X158070483Y-92173866D01*
X158065303Y-92168695D01*
X158004662Y-92131315D01*
X157920968Y-92079725D01*
X157920966Y-92079724D01*
X157914738Y-92075885D01*
X157754254Y-92022655D01*
X157753389Y-92022368D01*
X157753387Y-92022368D01*
X157746861Y-92020203D01*
X157740025Y-92019503D01*
X157740022Y-92019502D01*
X157696969Y-92015091D01*
X157642400Y-92009500D01*
X156841600Y-92009500D01*
X156838354Y-92009837D01*
X156838350Y-92009837D01*
X156742692Y-92019762D01*
X156742688Y-92019763D01*
X156735834Y-92020474D01*
X156729298Y-92022655D01*
X156729296Y-92022655D01*
X156597194Y-92066728D01*
X156568054Y-92076450D01*
X156417652Y-92169522D01*
X156292695Y-92294697D01*
X156288855Y-92300927D01*
X156288854Y-92300928D01*
X156266432Y-92337304D01*
X156199885Y-92445262D01*
X156184677Y-92491112D01*
X156182337Y-92498168D01*
X156141906Y-92556527D01*
X156076342Y-92583764D01*
X156062744Y-92584500D01*
X155856860Y-92584500D01*
X155788739Y-92564498D01*
X155742246Y-92510842D01*
X155735153Y-92491112D01*
X155704557Y-92376925D01*
X155693940Y-92337304D01*
X155673585Y-92293652D01*
X155602314Y-92140811D01*
X155602311Y-92140806D01*
X155599988Y-92135824D01*
X155558414Y-92076450D01*
X155475636Y-91958230D01*
X155475634Y-91958227D01*
X155472477Y-91953719D01*
X155315281Y-91796523D01*
X155310773Y-91793366D01*
X155310770Y-91793364D01*
X155235005Y-91740313D01*
X155133177Y-91669012D01*
X155128195Y-91666689D01*
X155128190Y-91666686D01*
X154936678Y-91577383D01*
X154936677Y-91577382D01*
X154931696Y-91575060D01*
X154926388Y-91573638D01*
X154926386Y-91573637D01*
X154860551Y-91555997D01*
X154716963Y-91517522D01*
X154495500Y-91498147D01*
X154274037Y-91517522D01*
X154130449Y-91555997D01*
X154064614Y-91573637D01*
X154064612Y-91573638D01*
X154059304Y-91575060D01*
X154054323Y-91577382D01*
X154054322Y-91577383D01*
X153862811Y-91666686D01*
X153862806Y-91666689D01*
X153857824Y-91669012D01*
X153853317Y-91672168D01*
X153853315Y-91672169D01*
X153680230Y-91793364D01*
X153680227Y-91793366D01*
X153675719Y-91796523D01*
X153518523Y-91953719D01*
X153515366Y-91958227D01*
X153515364Y-91958230D01*
X153432586Y-92076450D01*
X153391012Y-92135824D01*
X153388689Y-92140806D01*
X153388686Y-92140811D01*
X153317415Y-92293652D01*
X153297060Y-92337304D01*
X153239522Y-92552037D01*
X153220147Y-92773500D01*
X153239522Y-92994963D01*
X153297060Y-93209696D01*
X153299382Y-93214677D01*
X153299383Y-93214678D01*
X153388686Y-93406189D01*
X153388689Y-93406194D01*
X153391012Y-93411176D01*
X153394168Y-93415683D01*
X153394169Y-93415685D01*
X153475159Y-93531350D01*
X153518523Y-93593281D01*
X153675719Y-93750477D01*
X153680227Y-93753634D01*
X153680230Y-93753636D01*
X153755995Y-93806687D01*
X153857823Y-93877988D01*
X153862805Y-93880311D01*
X153862810Y-93880314D01*
X153967873Y-93929305D01*
X154021158Y-93976222D01*
X154040619Y-94044499D01*
X154020077Y-94112459D01*
X153967873Y-94157695D01*
X153862811Y-94206686D01*
X153862806Y-94206689D01*
X153857824Y-94209012D01*
X153853317Y-94212168D01*
X153853315Y-94212169D01*
X153680230Y-94333364D01*
X153680227Y-94333366D01*
X153675719Y-94336523D01*
X153518523Y-94493719D01*
X153515366Y-94498227D01*
X153515364Y-94498230D01*
X153394169Y-94671315D01*
X153391012Y-94675824D01*
X153388689Y-94680806D01*
X153388686Y-94680811D01*
X153299383Y-94872322D01*
X153297060Y-94877304D01*
X153295638Y-94882612D01*
X153295637Y-94882614D01*
X153288817Y-94908066D01*
X153239522Y-95092037D01*
X153220147Y-95313500D01*
X153239522Y-95534963D01*
X153283600Y-95699460D01*
X153286501Y-95710288D01*
X153284811Y-95781265D01*
X153245017Y-95840061D01*
X153179753Y-95868009D01*
X153164794Y-95868900D01*
X146973300Y-95868900D01*
X146905179Y-95848898D01*
X146858686Y-95795242D01*
X146847300Y-95742900D01*
X146847300Y-95534600D01*
X146836326Y-95428834D01*
X146780350Y-95261054D01*
X146687278Y-95110652D01*
X146600691Y-95024216D01*
X146566612Y-94961934D01*
X146571615Y-94891114D01*
X146600536Y-94846025D01*
X146682934Y-94763483D01*
X146688105Y-94758303D01*
X146738946Y-94675824D01*
X146777075Y-94613968D01*
X146777076Y-94613966D01*
X146780915Y-94607738D01*
X146821754Y-94484613D01*
X146834432Y-94446389D01*
X146834432Y-94446387D01*
X146836597Y-94439861D01*
X146838001Y-94426163D01*
X146841843Y-94388658D01*
X146847300Y-94335400D01*
X146847300Y-93534600D01*
X146836326Y-93428834D01*
X146780350Y-93261054D01*
X146687278Y-93110652D01*
X146562103Y-92985695D01*
X146555872Y-92981854D01*
X146417768Y-92896725D01*
X146417766Y-92896724D01*
X146411538Y-92892885D01*
X146251054Y-92839655D01*
X146250189Y-92839368D01*
X146250187Y-92839368D01*
X146243661Y-92837203D01*
X146236825Y-92836503D01*
X146236822Y-92836502D01*
X146193769Y-92832091D01*
X146139200Y-92826500D01*
X145138400Y-92826500D01*
X145135154Y-92826837D01*
X145135150Y-92826837D01*
X145039492Y-92836762D01*
X145039488Y-92836763D01*
X145032634Y-92837474D01*
X145026098Y-92839655D01*
X145026096Y-92839655D01*
X144893994Y-92883728D01*
X144864854Y-92893450D01*
X144714452Y-92986522D01*
X144589495Y-93111697D01*
X144585655Y-93117927D01*
X144585654Y-93117928D01*
X144509411Y-93241616D01*
X144456638Y-93289110D01*
X144402151Y-93301500D01*
X135997395Y-93301500D01*
X135929274Y-93281498D01*
X135908300Y-93264595D01*
X129639305Y-86995600D01*
X129605279Y-86933288D01*
X129602400Y-86906505D01*
X129602400Y-80257994D01*
X129622402Y-80189873D01*
X129639305Y-80168899D01*
X135793732Y-74014472D01*
X135856044Y-73980446D01*
X135926859Y-73985511D01*
X135983695Y-74028058D01*
X136002350Y-74063690D01*
X136018450Y-74111946D01*
X136111522Y-74262348D01*
X136188174Y-74338866D01*
X136198109Y-74348784D01*
X136232188Y-74411066D01*
X136227185Y-74481886D01*
X136198264Y-74526975D01*
X136122940Y-74602431D01*
X136110695Y-74614697D01*
X136106855Y-74620927D01*
X136106854Y-74620928D01*
X136022469Y-74757826D01*
X136017885Y-74765262D01*
X136006496Y-74799600D01*
X135971468Y-74905207D01*
X135962203Y-74933139D01*
X135951500Y-75037600D01*
X135951500Y-75817164D01*
X135946495Y-75852322D01*
X135944967Y-75857580D01*
X135941819Y-75864855D01*
X135940579Y-75872681D01*
X135940578Y-75872686D01*
X135934901Y-75908524D01*
X135932495Y-75920144D01*
X135921500Y-75962970D01*
X135921500Y-75983224D01*
X135919949Y-76002934D01*
X135916780Y-76022943D01*
X135917526Y-76030835D01*
X135920941Y-76066961D01*
X135921500Y-76078819D01*
X135921500Y-79881692D01*
X135901498Y-79949813D01*
X135853683Y-79993453D01*
X135828607Y-80006507D01*
X135824474Y-80009610D01*
X135824471Y-80009612D01*
X135709116Y-80096223D01*
X135649965Y-80140635D01*
X135622955Y-80168899D01*
X135556280Y-80238671D01*
X135495629Y-80302138D01*
X135369743Y-80486680D01*
X135333475Y-80564814D01*
X135279822Y-80680400D01*
X135275688Y-80689305D01*
X135215989Y-80904570D01*
X135192251Y-81126695D01*
X135192548Y-81131848D01*
X135192548Y-81131851D01*
X135198167Y-81229305D01*
X135205110Y-81349715D01*
X135206247Y-81354761D01*
X135206248Y-81354767D01*
X135227818Y-81450479D01*
X135254222Y-81567639D01*
X135272642Y-81613002D01*
X135335828Y-81768611D01*
X135338266Y-81774616D01*
X135454987Y-81965088D01*
X135601250Y-82133938D01*
X135773126Y-82276632D01*
X135777593Y-82279242D01*
X135859070Y-82326853D01*
X135907794Y-82378491D01*
X135921500Y-82435641D01*
X135921500Y-85634405D01*
X135901498Y-85702526D01*
X135884595Y-85723501D01*
X135277449Y-86330646D01*
X135215137Y-86364671D01*
X135175185Y-86366860D01*
X135141205Y-86363289D01*
X135141202Y-86363289D01*
X135135075Y-86362645D01*
X135052576Y-86370153D01*
X134944251Y-86380011D01*
X134944248Y-86380012D01*
X134938112Y-86380570D01*
X134932206Y-86382308D01*
X134932202Y-86382309D01*
X134827076Y-86413249D01*
X134748381Y-86436410D01*
X134742923Y-86439263D01*
X134742919Y-86439265D01*
X134714019Y-86454374D01*
X134573110Y-86528040D01*
X134418975Y-86651968D01*
X134291846Y-86803474D01*
X134288881Y-86808868D01*
X134288875Y-86808877D01*
X134220481Y-86933288D01*
X134196567Y-86976787D01*
X134194706Y-86982654D01*
X134194705Y-86982656D01*
X134159845Y-87092548D01*
X134136765Y-87165306D01*
X134114719Y-87361851D01*
X134131268Y-87558934D01*
X134132967Y-87564858D01*
X134170619Y-87696166D01*
X134185783Y-87749050D01*
X134276187Y-87924956D01*
X134399035Y-88079953D01*
X134403728Y-88083947D01*
X134403729Y-88083948D01*
X134528330Y-88189991D01*
X134549650Y-88208136D01*
X134722294Y-88304624D01*
X134910392Y-88365740D01*
X135106777Y-88389158D01*
X135112912Y-88388686D01*
X135112914Y-88388686D01*
X135297830Y-88374457D01*
X135297834Y-88374456D01*
X135303972Y-88373984D01*
X135494463Y-88320798D01*
X135499967Y-88318018D01*
X135499969Y-88318017D01*
X135665495Y-88234404D01*
X135665497Y-88234403D01*
X135670996Y-88231625D01*
X135826847Y-88109861D01*
X135956078Y-87960145D01*
X136053769Y-87788179D01*
X136116197Y-87600513D01*
X136140985Y-87404295D01*
X136141380Y-87376000D01*
X136136702Y-87328289D01*
X136149962Y-87258542D01*
X136173006Y-87226899D01*
X136947253Y-86452652D01*
X136955539Y-86445112D01*
X136962018Y-86441000D01*
X137008650Y-86391342D01*
X137011405Y-86388500D01*
X137031135Y-86368770D01*
X137033615Y-86365573D01*
X137041320Y-86356551D01*
X137066159Y-86330100D01*
X137071586Y-86324321D01*
X137075405Y-86317375D01*
X137075407Y-86317372D01*
X137081348Y-86306566D01*
X137092199Y-86290047D01*
X137099758Y-86280301D01*
X137104614Y-86274041D01*
X137107759Y-86266772D01*
X137107762Y-86266768D01*
X137122174Y-86233463D01*
X137127391Y-86222813D01*
X137148695Y-86184060D01*
X137153733Y-86164437D01*
X137160137Y-86145734D01*
X137165033Y-86134420D01*
X137165033Y-86134419D01*
X137168181Y-86127145D01*
X137169420Y-86119322D01*
X137169423Y-86119312D01*
X137175099Y-86083476D01*
X137177505Y-86071856D01*
X137186528Y-86036711D01*
X137186528Y-86036710D01*
X137188500Y-86029030D01*
X137188500Y-86008776D01*
X137190051Y-85989065D01*
X137191980Y-85976886D01*
X137193220Y-85969057D01*
X137189059Y-85925038D01*
X137188500Y-85913181D01*
X137188500Y-82440427D01*
X137208502Y-82372306D01*
X137249618Y-82332550D01*
X137252994Y-82330896D01*
X137434860Y-82201173D01*
X137543091Y-82093319D01*
X137605462Y-82059404D01*
X137676268Y-82064592D01*
X137733030Y-82107238D01*
X137750012Y-82138341D01*
X137794385Y-82256705D01*
X137881739Y-82373261D01*
X137998295Y-82460615D01*
X138134684Y-82511745D01*
X138196866Y-82518500D01*
X138335500Y-82518500D01*
X138403621Y-82538502D01*
X138450114Y-82592158D01*
X138461500Y-82644500D01*
X138461500Y-84865733D01*
X138460973Y-84876916D01*
X138459298Y-84884409D01*
X138459547Y-84892335D01*
X138459547Y-84892336D01*
X138461438Y-84952486D01*
X138461500Y-84956445D01*
X138461500Y-84984356D01*
X138461997Y-84988290D01*
X138461997Y-84988291D01*
X138462005Y-84988356D01*
X138462938Y-85000193D01*
X138464327Y-85044389D01*
X138469978Y-85063839D01*
X138473987Y-85083200D01*
X138476526Y-85103297D01*
X138479445Y-85110668D01*
X138479445Y-85110670D01*
X138492804Y-85144412D01*
X138496649Y-85155642D01*
X138508982Y-85198093D01*
X138513015Y-85204912D01*
X138513017Y-85204917D01*
X138519293Y-85215528D01*
X138527988Y-85233276D01*
X138535448Y-85252117D01*
X138540110Y-85258533D01*
X138540110Y-85258534D01*
X138561436Y-85287887D01*
X138567952Y-85297807D01*
X138590458Y-85335862D01*
X138604779Y-85350183D01*
X138617619Y-85365216D01*
X138629528Y-85381607D01*
X138635634Y-85386658D01*
X138663605Y-85409798D01*
X138672384Y-85417788D01*
X139879521Y-86624925D01*
X139913547Y-86687237D01*
X139908482Y-86758052D01*
X139886947Y-86795011D01*
X139879846Y-86803474D01*
X139876883Y-86808863D01*
X139876880Y-86808868D01*
X139808481Y-86933288D01*
X139784567Y-86976787D01*
X139782706Y-86982654D01*
X139782705Y-86982656D01*
X139747845Y-87092548D01*
X139724765Y-87165306D01*
X139702719Y-87361851D01*
X139719268Y-87558934D01*
X139720967Y-87564858D01*
X139758619Y-87696166D01*
X139773783Y-87749050D01*
X139864187Y-87924956D01*
X139987035Y-88079953D01*
X139991728Y-88083947D01*
X139991729Y-88083948D01*
X140116330Y-88189991D01*
X140137650Y-88208136D01*
X140310294Y-88304624D01*
X140498392Y-88365740D01*
X140694777Y-88389158D01*
X140700912Y-88388686D01*
X140700914Y-88388686D01*
X140885830Y-88374457D01*
X140885834Y-88374456D01*
X140891972Y-88373984D01*
X141082463Y-88320798D01*
X141087967Y-88318018D01*
X141087969Y-88318017D01*
X141253495Y-88234404D01*
X141253497Y-88234403D01*
X141258996Y-88231625D01*
X141414847Y-88109861D01*
X141544078Y-87960145D01*
X141641769Y-87788179D01*
X141704197Y-87600513D01*
X141728985Y-87404295D01*
X141729380Y-87376000D01*
X141725585Y-87337295D01*
X141738845Y-87267548D01*
X141787707Y-87216041D01*
X141850984Y-87199000D01*
X145495733Y-87199000D01*
X145506916Y-87199527D01*
X145514409Y-87201202D01*
X145522335Y-87200953D01*
X145522336Y-87200953D01*
X145582486Y-87199062D01*
X145586445Y-87199000D01*
X145614356Y-87199000D01*
X145618291Y-87198503D01*
X145618356Y-87198495D01*
X145630193Y-87197562D01*
X145662451Y-87196548D01*
X145666470Y-87196422D01*
X145674389Y-87196173D01*
X145693843Y-87190521D01*
X145713200Y-87186513D01*
X145725430Y-87184968D01*
X145725431Y-87184968D01*
X145733297Y-87183974D01*
X145740668Y-87181055D01*
X145740670Y-87181055D01*
X145774412Y-87167696D01*
X145785642Y-87163851D01*
X145820483Y-87153729D01*
X145820484Y-87153729D01*
X145828093Y-87151518D01*
X145834912Y-87147485D01*
X145834917Y-87147483D01*
X145845528Y-87141207D01*
X145863276Y-87132512D01*
X145882117Y-87125052D01*
X145917887Y-87099064D01*
X145927807Y-87092548D01*
X145959035Y-87074080D01*
X145959038Y-87074078D01*
X145965862Y-87070042D01*
X145980183Y-87055721D01*
X145995217Y-87042880D01*
X146005194Y-87035631D01*
X146011607Y-87030972D01*
X146039798Y-86996895D01*
X146047788Y-86988116D01*
X149610499Y-83425405D01*
X149672811Y-83391379D01*
X149699594Y-83388500D01*
X150360400Y-83388500D01*
X150363646Y-83388163D01*
X150363650Y-83388163D01*
X150459308Y-83378238D01*
X150459312Y-83378237D01*
X150466166Y-83377526D01*
X150472702Y-83375345D01*
X150472704Y-83375345D01*
X150626998Y-83323868D01*
X150633946Y-83321550D01*
X150784348Y-83228478D01*
X150909305Y-83103303D01*
X150913146Y-83097072D01*
X150998275Y-82958968D01*
X150998276Y-82958966D01*
X151002115Y-82952738D01*
X151057797Y-82784861D01*
X151060190Y-82761511D01*
X151068172Y-82683598D01*
X151068500Y-82680400D01*
X151068500Y-81879600D01*
X151066682Y-81862077D01*
X151058238Y-81780692D01*
X151058237Y-81780688D01*
X151057526Y-81773834D01*
X151049973Y-81751193D01*
X151003868Y-81613002D01*
X151001550Y-81606054D01*
X150908478Y-81455652D01*
X150821891Y-81369216D01*
X150787812Y-81306934D01*
X150792815Y-81236114D01*
X150821736Y-81191025D01*
X150904134Y-81108483D01*
X150909305Y-81103303D01*
X150932160Y-81066226D01*
X150998275Y-80958968D01*
X150998276Y-80958966D01*
X151002115Y-80952738D01*
X151057797Y-80784861D01*
X151068500Y-80680400D01*
X151068500Y-79879600D01*
X151068163Y-79876350D01*
X151058238Y-79780692D01*
X151058237Y-79780688D01*
X151057526Y-79773834D01*
X151042846Y-79729831D01*
X151003868Y-79613002D01*
X151001550Y-79606054D01*
X150908478Y-79455652D01*
X150783303Y-79330695D01*
X150777072Y-79326854D01*
X150638968Y-79241725D01*
X150638966Y-79241724D01*
X150632738Y-79237885D01*
X150552264Y-79211193D01*
X150471389Y-79184368D01*
X150471387Y-79184368D01*
X150464861Y-79182203D01*
X150458025Y-79181503D01*
X150458022Y-79181502D01*
X150414969Y-79177091D01*
X150360400Y-79171500D01*
X149699595Y-79171500D01*
X149631474Y-79151498D01*
X149610500Y-79134595D01*
X149202152Y-78726247D01*
X149194612Y-78717961D01*
X149190500Y-78711482D01*
X149140848Y-78664856D01*
X149138007Y-78662102D01*
X149118270Y-78642365D01*
X149115073Y-78639885D01*
X149106051Y-78632180D01*
X149081284Y-78608922D01*
X149073821Y-78601914D01*
X149066875Y-78598095D01*
X149066872Y-78598093D01*
X149056066Y-78592152D01*
X149039547Y-78581301D01*
X149033165Y-78576351D01*
X149023541Y-78568886D01*
X149016272Y-78565741D01*
X149016268Y-78565738D01*
X148982963Y-78551326D01*
X148972313Y-78546109D01*
X148933560Y-78524805D01*
X148913937Y-78519767D01*
X148895234Y-78513363D01*
X148883920Y-78508467D01*
X148883919Y-78508467D01*
X148876645Y-78505319D01*
X148868822Y-78504080D01*
X148868812Y-78504077D01*
X148832976Y-78498401D01*
X148821356Y-78495995D01*
X148794009Y-78488974D01*
X148731707Y-78451243D01*
X148725674Y-78444542D01*
X148725665Y-78444534D01*
X148721253Y-78439634D01*
X148679633Y-78409395D01*
X148572094Y-78331263D01*
X148572093Y-78331262D01*
X148566752Y-78327382D01*
X148560724Y-78324698D01*
X148560722Y-78324697D01*
X148398319Y-78252391D01*
X148398318Y-78252391D01*
X148392288Y-78249706D01*
X148298888Y-78229853D01*
X148211944Y-78211372D01*
X148211939Y-78211372D01*
X148205487Y-78210000D01*
X148014513Y-78210000D01*
X148008061Y-78211372D01*
X148008056Y-78211372D01*
X147921112Y-78229853D01*
X147827712Y-78249706D01*
X147821682Y-78252391D01*
X147821681Y-78252391D01*
X147659278Y-78324697D01*
X147659276Y-78324698D01*
X147653248Y-78327382D01*
X147647907Y-78331262D01*
X147647906Y-78331263D01*
X147597843Y-78367636D01*
X147498747Y-78439634D01*
X147494328Y-78444542D01*
X147494325Y-78444545D01*
X147375647Y-78576351D01*
X147370960Y-78581556D01*
X147275473Y-78746944D01*
X147216458Y-78928572D01*
X147196496Y-79118500D01*
X147197186Y-79125065D01*
X147209722Y-79244334D01*
X147216458Y-79308428D01*
X147275473Y-79490056D01*
X147278776Y-79495778D01*
X147278777Y-79495779D01*
X147311261Y-79552042D01*
X147370960Y-79655444D01*
X147375378Y-79660351D01*
X147375379Y-79660352D01*
X147433876Y-79725319D01*
X147498747Y-79797366D01*
X147591522Y-79864771D01*
X147637632Y-79898272D01*
X147653248Y-79909618D01*
X147659276Y-79912302D01*
X147659278Y-79912303D01*
X147821679Y-79984608D01*
X147827712Y-79987294D01*
X147918102Y-80006507D01*
X148008056Y-80025628D01*
X148008061Y-80025628D01*
X148014513Y-80027000D01*
X148205487Y-80027000D01*
X148211939Y-80025628D01*
X148211944Y-80025628D01*
X148301898Y-80006507D01*
X148392288Y-79987294D01*
X148398315Y-79984611D01*
X148398323Y-79984608D01*
X148474252Y-79950802D01*
X148544619Y-79941368D01*
X148608916Y-79971475D01*
X148646729Y-80031564D01*
X148651500Y-80065909D01*
X148651500Y-80680400D01*
X148651837Y-80683646D01*
X148651837Y-80683650D01*
X148657830Y-80741404D01*
X148662474Y-80786166D01*
X148718450Y-80953946D01*
X148811522Y-81104348D01*
X148816704Y-81109521D01*
X148898109Y-81190784D01*
X148932188Y-81253066D01*
X148927185Y-81323886D01*
X148898264Y-81368975D01*
X148822940Y-81444431D01*
X148810695Y-81456697D01*
X148806855Y-81462927D01*
X148806854Y-81462928D01*
X148732951Y-81582821D01*
X148717885Y-81607262D01*
X148715581Y-81614209D01*
X148676360Y-81732458D01*
X148662203Y-81775139D01*
X148651500Y-81879600D01*
X148651500Y-82540405D01*
X148631498Y-82608526D01*
X148614595Y-82629500D01*
X145349000Y-85895095D01*
X145286688Y-85929121D01*
X145259905Y-85932000D01*
X141030595Y-85932000D01*
X140962474Y-85911998D01*
X140941500Y-85895095D01*
X139765405Y-84719000D01*
X139731379Y-84656688D01*
X139728500Y-84629905D01*
X139728500Y-82644500D01*
X139748502Y-82576379D01*
X139802158Y-82529886D01*
X139854500Y-82518500D01*
X139993134Y-82518500D01*
X140055316Y-82511745D01*
X140191705Y-82460615D01*
X140308261Y-82373261D01*
X140395615Y-82256705D01*
X140446745Y-82120316D01*
X140453500Y-82058134D01*
X140453500Y-80261866D01*
X140446745Y-80199684D01*
X140395615Y-80063295D01*
X140308261Y-79946739D01*
X140191705Y-79859385D01*
X140055316Y-79808255D01*
X139993134Y-79801500D01*
X138196866Y-79801500D01*
X138134684Y-79808255D01*
X137998295Y-79859385D01*
X137881739Y-79946739D01*
X137794385Y-80063295D01*
X137791233Y-80071703D01*
X137749919Y-80181907D01*
X137707277Y-80238671D01*
X137640716Y-80263371D01*
X137571367Y-80248163D01*
X137538743Y-80222476D01*
X137488151Y-80166875D01*
X137488142Y-80166866D01*
X137484670Y-80163051D01*
X137480619Y-80159852D01*
X137480615Y-80159848D01*
X137313414Y-80027800D01*
X137313410Y-80027798D01*
X137309359Y-80024598D01*
X137304835Y-80022101D01*
X137304831Y-80022098D01*
X137253608Y-79993822D01*
X137203636Y-79943390D01*
X137188500Y-79883513D01*
X137188500Y-76672500D01*
X137208502Y-76604379D01*
X137262158Y-76557886D01*
X137314500Y-76546500D01*
X137660400Y-76546500D01*
X137663646Y-76546163D01*
X137663650Y-76546163D01*
X137759308Y-76536238D01*
X137759312Y-76536237D01*
X137766166Y-76535526D01*
X137772702Y-76533345D01*
X137772704Y-76533345D01*
X137926998Y-76481868D01*
X137933946Y-76479550D01*
X138084348Y-76386478D01*
X138209305Y-76261303D01*
X138220041Y-76243886D01*
X138298275Y-76116968D01*
X138298276Y-76116966D01*
X138302115Y-76110738D01*
X138333832Y-76015114D01*
X138355632Y-75949389D01*
X138355632Y-75949387D01*
X138357797Y-75942861D01*
X138368500Y-75838400D01*
X138368500Y-75037600D01*
X138367109Y-75024196D01*
X138358238Y-74938692D01*
X138358237Y-74938688D01*
X138357526Y-74931834D01*
X138353889Y-74920931D01*
X138303868Y-74771002D01*
X138301550Y-74764054D01*
X138287181Y-74740835D01*
X138268343Y-74672386D01*
X138289503Y-74604615D01*
X138343943Y-74559043D01*
X138420522Y-74551285D01*
X138495056Y-74567128D01*
X138495061Y-74567128D01*
X138501513Y-74568500D01*
X138692487Y-74568500D01*
X138698939Y-74567128D01*
X138698944Y-74567128D01*
X138785887Y-74548647D01*
X138879288Y-74528794D01*
X138885319Y-74526109D01*
X139047722Y-74453803D01*
X139047724Y-74453802D01*
X139053752Y-74451118D01*
X139208253Y-74338866D01*
X139218332Y-74327672D01*
X139331621Y-74201852D01*
X139331622Y-74201851D01*
X139336040Y-74196944D01*
X139420948Y-74049879D01*
X139428223Y-74037279D01*
X139428224Y-74037278D01*
X139431527Y-74031556D01*
X139490542Y-73849928D01*
X139507907Y-73684706D01*
X139534920Y-73619050D01*
X139544122Y-73608782D01*
X140060499Y-73092405D01*
X140122811Y-73058379D01*
X140149594Y-73055500D01*
X143543219Y-73055500D01*
X143611340Y-73075502D01*
X143650363Y-73115197D01*
X143731522Y-73246348D01*
X143792610Y-73307329D01*
X143818109Y-73332784D01*
X143852188Y-73395066D01*
X143847185Y-73465886D01*
X143818264Y-73510975D01*
X143772851Y-73556467D01*
X143730695Y-73598697D01*
X143726855Y-73604927D01*
X143726854Y-73604928D01*
X143650737Y-73728413D01*
X143637885Y-73749262D01*
X143621521Y-73798599D01*
X143600317Y-73862528D01*
X143582203Y-73917139D01*
X143581503Y-73923975D01*
X143581502Y-73923978D01*
X143580211Y-73936576D01*
X143571500Y-74021600D01*
X143571500Y-74822400D01*
X143571837Y-74825646D01*
X143571837Y-74825650D01*
X143580820Y-74912221D01*
X143582474Y-74928166D01*
X143584655Y-74934702D01*
X143584655Y-74934704D01*
X143605675Y-74997707D01*
X143638450Y-75095946D01*
X143731522Y-75246348D01*
X143856697Y-75371305D01*
X143862927Y-75375145D01*
X143862928Y-75375146D01*
X144000090Y-75459694D01*
X144007262Y-75464115D01*
X144087005Y-75490564D01*
X144168611Y-75517632D01*
X144168613Y-75517632D01*
X144175139Y-75519797D01*
X144181975Y-75520497D01*
X144181978Y-75520498D01*
X144225031Y-75524909D01*
X144279600Y-75530500D01*
X145280400Y-75530500D01*
X145283646Y-75530163D01*
X145283650Y-75530163D01*
X145379308Y-75520238D01*
X145379312Y-75520237D01*
X145386166Y-75519526D01*
X145392702Y-75517345D01*
X145392704Y-75517345D01*
X145524806Y-75473272D01*
X145553946Y-75463550D01*
X145704348Y-75370478D01*
X145829305Y-75245303D01*
X145909389Y-75115384D01*
X145962162Y-75067890D01*
X146016649Y-75055500D01*
X148499233Y-75055500D01*
X148510416Y-75056027D01*
X148517909Y-75057702D01*
X148525835Y-75057453D01*
X148525836Y-75057453D01*
X148585986Y-75055562D01*
X148589945Y-75055500D01*
X148617856Y-75055500D01*
X148621791Y-75055003D01*
X148621856Y-75054995D01*
X148633693Y-75054062D01*
X148665951Y-75053048D01*
X148669970Y-75052922D01*
X148677889Y-75052673D01*
X148697343Y-75047021D01*
X148716700Y-75043013D01*
X148728930Y-75041468D01*
X148728931Y-75041468D01*
X148736797Y-75040474D01*
X148744168Y-75037555D01*
X148744170Y-75037555D01*
X148777912Y-75024196D01*
X148789142Y-75020351D01*
X148823983Y-75010229D01*
X148823984Y-75010229D01*
X148831593Y-75008018D01*
X148838412Y-75003985D01*
X148838417Y-75003983D01*
X148849028Y-74997707D01*
X148866776Y-74989012D01*
X148885617Y-74981552D01*
X148921387Y-74955564D01*
X148931307Y-74949048D01*
X148962535Y-74930580D01*
X148962538Y-74930578D01*
X148969362Y-74926542D01*
X148983683Y-74912221D01*
X148998717Y-74899380D01*
X149008694Y-74892131D01*
X149015107Y-74887472D01*
X149043298Y-74853395D01*
X149051288Y-74844616D01*
X149512071Y-74383833D01*
X149574383Y-74349807D01*
X149633776Y-74351221D01*
X149639996Y-74352887D01*
X149645858Y-74354458D01*
X149860000Y-74373193D01*
X150074142Y-74354458D01*
X150079455Y-74353034D01*
X150079457Y-74353034D01*
X150276467Y-74300245D01*
X150276469Y-74300244D01*
X150281777Y-74298822D01*
X150286759Y-74296499D01*
X150471616Y-74210299D01*
X150471619Y-74210297D01*
X150476597Y-74207976D01*
X150652681Y-74084681D01*
X150804681Y-73932681D01*
X150927976Y-73756596D01*
X150931960Y-73748054D01*
X151016499Y-73566759D01*
X151016500Y-73566757D01*
X151018822Y-73561777D01*
X151032435Y-73510975D01*
X151073034Y-73359457D01*
X151073034Y-73359455D01*
X151074458Y-73354142D01*
X151093193Y-73140000D01*
X151074458Y-72925858D01*
X151046736Y-72822400D01*
X151020245Y-72723533D01*
X151020244Y-72723531D01*
X151018822Y-72718223D01*
X150978944Y-72632704D01*
X150930299Y-72528385D01*
X150930297Y-72528382D01*
X150927976Y-72523404D01*
X150804681Y-72347319D01*
X150652681Y-72195319D01*
X150476597Y-72072024D01*
X150471619Y-72069703D01*
X150471616Y-72069701D01*
X150286759Y-71983501D01*
X150286758Y-71983500D01*
X150281777Y-71981178D01*
X150276469Y-71979756D01*
X150276467Y-71979755D01*
X150079457Y-71926966D01*
X150079455Y-71926966D01*
X150074142Y-71925542D01*
X149860000Y-71906807D01*
X149645858Y-71925542D01*
X149640545Y-71926966D01*
X149640543Y-71926966D01*
X149443533Y-71979755D01*
X149443531Y-71979756D01*
X149438223Y-71981178D01*
X149433243Y-71983500D01*
X149433241Y-71983501D01*
X149248385Y-72069701D01*
X149248382Y-72069703D01*
X149243404Y-72072024D01*
X149067319Y-72195319D01*
X148915319Y-72347319D01*
X148792024Y-72523404D01*
X148789703Y-72528382D01*
X148789701Y-72528385D01*
X148741056Y-72632704D01*
X148701178Y-72718223D01*
X148699756Y-72723531D01*
X148699755Y-72723533D01*
X148673264Y-72822400D01*
X148645542Y-72925858D01*
X148626807Y-73140000D01*
X148645542Y-73354142D01*
X148646966Y-73359457D01*
X148646967Y-73359461D01*
X148648778Y-73366220D01*
X148647090Y-73437197D01*
X148616167Y-73487929D01*
X148462641Y-73641454D01*
X148352499Y-73751596D01*
X148290187Y-73785621D01*
X148263404Y-73788500D01*
X146016781Y-73788500D01*
X145948660Y-73768498D01*
X145909637Y-73728803D01*
X145882350Y-73684707D01*
X145828478Y-73597652D01*
X145741891Y-73511216D01*
X145707812Y-73448934D01*
X145712815Y-73378114D01*
X145741736Y-73333025D01*
X145824134Y-73250483D01*
X145829305Y-73245303D01*
X145880583Y-73162115D01*
X145918275Y-73100968D01*
X145918276Y-73100966D01*
X145922115Y-73094738D01*
X145971997Y-72944348D01*
X145975632Y-72933389D01*
X145975632Y-72933387D01*
X145977797Y-72926861D01*
X145988500Y-72822400D01*
X145988500Y-72021600D01*
X145986194Y-71999373D01*
X145978238Y-71922692D01*
X145978237Y-71922688D01*
X145977526Y-71915834D01*
X145974515Y-71906807D01*
X145923868Y-71755002D01*
X145921550Y-71748054D01*
X145828478Y-71597652D01*
X145703303Y-71472695D01*
X145697072Y-71468854D01*
X145558968Y-71383725D01*
X145558966Y-71383724D01*
X145552738Y-71379885D01*
X145392254Y-71326655D01*
X145391389Y-71326368D01*
X145391387Y-71326368D01*
X145384861Y-71324203D01*
X145378025Y-71323503D01*
X145378022Y-71323502D01*
X145334969Y-71319091D01*
X145280400Y-71313500D01*
X144279600Y-71313500D01*
X144276354Y-71313837D01*
X144276350Y-71313837D01*
X144180692Y-71323762D01*
X144180688Y-71323763D01*
X144173834Y-71324474D01*
X144167298Y-71326655D01*
X144167296Y-71326655D01*
X144035194Y-71370728D01*
X144006054Y-71380450D01*
X143855652Y-71473522D01*
X143730695Y-71598697D01*
X143726855Y-71604927D01*
X143726854Y-71604928D01*
X143650611Y-71728616D01*
X143597838Y-71776110D01*
X143543351Y-71788500D01*
X139913763Y-71788500D01*
X139902579Y-71787973D01*
X139895091Y-71786299D01*
X139887168Y-71786548D01*
X139827033Y-71788438D01*
X139823075Y-71788500D01*
X139795144Y-71788500D01*
X139791229Y-71788995D01*
X139791225Y-71788995D01*
X139791167Y-71789003D01*
X139791138Y-71789006D01*
X139779296Y-71789939D01*
X139735110Y-71791327D01*
X139717744Y-71796372D01*
X139715658Y-71796978D01*
X139696306Y-71800986D01*
X139684068Y-71802532D01*
X139684066Y-71802533D01*
X139676203Y-71803526D01*
X139635086Y-71819806D01*
X139623885Y-71823641D01*
X139581406Y-71835982D01*
X139574587Y-71840015D01*
X139574582Y-71840017D01*
X139563971Y-71846293D01*
X139546221Y-71854990D01*
X139527383Y-71862448D01*
X139520967Y-71867109D01*
X139520966Y-71867110D01*
X139491625Y-71888428D01*
X139481701Y-71894947D01*
X139450460Y-71913422D01*
X139450455Y-71913426D01*
X139443637Y-71917458D01*
X139429313Y-71931782D01*
X139414281Y-71944621D01*
X139397893Y-71956528D01*
X139378678Y-71979755D01*
X139369712Y-71990593D01*
X139361722Y-71999373D01*
X138646500Y-72714595D01*
X138584188Y-72748621D01*
X138557405Y-72751500D01*
X138501513Y-72751500D01*
X138495060Y-72752872D01*
X138495047Y-72752873D01*
X138404628Y-72772093D01*
X138333838Y-72766692D01*
X138277205Y-72723875D01*
X138271287Y-72715150D01*
X138212332Y-72619880D01*
X138208478Y-72613652D01*
X138083303Y-72488695D01*
X138084117Y-72487880D01*
X138047145Y-72435727D01*
X138043917Y-72364804D01*
X138079545Y-72303394D01*
X138099543Y-72288456D01*
X138100752Y-72287918D01*
X138255253Y-72175666D01*
X138383040Y-72033744D01*
X138464920Y-71891924D01*
X138475223Y-71874079D01*
X138475224Y-71874078D01*
X138478527Y-71868356D01*
X138537542Y-71686728D01*
X138539845Y-71664821D01*
X138556814Y-71503365D01*
X138557504Y-71496800D01*
X138555057Y-71473522D01*
X138538232Y-71313435D01*
X138538232Y-71313433D01*
X138537542Y-71306872D01*
X138478527Y-71125244D01*
X138458062Y-71089798D01*
X138441325Y-71020806D01*
X138464545Y-70953714D01*
X138520352Y-70909826D01*
X138567182Y-70900800D01*
X138672487Y-70900800D01*
X138678939Y-70899428D01*
X138678944Y-70899428D01*
X138765887Y-70880947D01*
X138859288Y-70861094D01*
X138962337Y-70815214D01*
X139027722Y-70786103D01*
X139027724Y-70786102D01*
X139033752Y-70783418D01*
X139074931Y-70753500D01*
X139134973Y-70709876D01*
X139188253Y-70671166D01*
X139210601Y-70646346D01*
X139311621Y-70534152D01*
X139311622Y-70534151D01*
X139316040Y-70529244D01*
X139377580Y-70422654D01*
X139408223Y-70369579D01*
X139408224Y-70369578D01*
X139411527Y-70363856D01*
X139470542Y-70182228D01*
X139484003Y-70054159D01*
X139489814Y-69998865D01*
X139490504Y-69992300D01*
X139489569Y-69983404D01*
X139486560Y-69954769D01*
X139499333Y-69884931D01*
X139547835Y-69833085D01*
X139611870Y-69815600D01*
X141149648Y-69815600D01*
X141217769Y-69835602D01*
X141264262Y-69889258D01*
X141269170Y-69901718D01*
X141322346Y-70061107D01*
X141413884Y-70209031D01*
X141419066Y-70214204D01*
X141531816Y-70326758D01*
X141531821Y-70326762D01*
X141536997Y-70331929D01*
X141543227Y-70335769D01*
X141543228Y-70335770D01*
X141624486Y-70385858D01*
X141685080Y-70423209D01*
X141850191Y-70477974D01*
X141857027Y-70478674D01*
X141857030Y-70478675D01*
X141908526Y-70483951D01*
X141952928Y-70488500D01*
X142527072Y-70488500D01*
X142530318Y-70488163D01*
X142530322Y-70488163D01*
X142624235Y-70478419D01*
X142624239Y-70478418D01*
X142631093Y-70477707D01*
X142637629Y-70475526D01*
X142637631Y-70475526D01*
X142770395Y-70431232D01*
X142796107Y-70422654D01*
X142944031Y-70331116D01*
X142972298Y-70302800D01*
X143061758Y-70213184D01*
X143061762Y-70213179D01*
X143066929Y-70208003D01*
X143115461Y-70129270D01*
X143154369Y-70066150D01*
X143154370Y-70066148D01*
X143158209Y-70059920D01*
X143212974Y-69894809D01*
X143216946Y-69856046D01*
X143221089Y-69815600D01*
X143223500Y-69792072D01*
X143223500Y-69146694D01*
X143243502Y-69078573D01*
X143260405Y-69057599D01*
X147361905Y-64956099D01*
X147424217Y-64922073D01*
X147495032Y-64927138D01*
X147551868Y-64969685D01*
X147576679Y-65036205D01*
X147577000Y-65045194D01*
X147577000Y-69251786D01*
X147556998Y-69319907D01*
X147503342Y-69366400D01*
X147440019Y-69377307D01*
X147325476Y-69367286D01*
X147325475Y-69367286D01*
X147320000Y-69366807D01*
X147105858Y-69385542D01*
X147100545Y-69386966D01*
X147100543Y-69386966D01*
X146903533Y-69439755D01*
X146903531Y-69439756D01*
X146898223Y-69441178D01*
X146893243Y-69443500D01*
X146893241Y-69443501D01*
X146708385Y-69529701D01*
X146708382Y-69529703D01*
X146703404Y-69532024D01*
X146527319Y-69655319D01*
X146375319Y-69807319D01*
X146252024Y-69983404D01*
X146249703Y-69988382D01*
X146249701Y-69988385D01*
X146174809Y-70148991D01*
X146161178Y-70178223D01*
X146159756Y-70183531D01*
X146159755Y-70183533D01*
X146111437Y-70363856D01*
X146105542Y-70385858D01*
X146086807Y-70600000D01*
X146105542Y-70814142D01*
X146106966Y-70819455D01*
X146106966Y-70819457D01*
X146131181Y-70909826D01*
X146161178Y-71021777D01*
X146163500Y-71026757D01*
X146163501Y-71026759D01*
X146248583Y-71209216D01*
X146252024Y-71216596D01*
X146375319Y-71392681D01*
X146527319Y-71544681D01*
X146703403Y-71667976D01*
X146708381Y-71670297D01*
X146708384Y-71670299D01*
X146890031Y-71755002D01*
X146898223Y-71758822D01*
X146903531Y-71760244D01*
X146903533Y-71760245D01*
X147100543Y-71813034D01*
X147100545Y-71813034D01*
X147105858Y-71814458D01*
X147320000Y-71833193D01*
X147534142Y-71814458D01*
X147539455Y-71813034D01*
X147539457Y-71813034D01*
X147736467Y-71760245D01*
X147736469Y-71760244D01*
X147741777Y-71758822D01*
X147749969Y-71755002D01*
X147931616Y-71670299D01*
X147931619Y-71670297D01*
X147936597Y-71667976D01*
X148112681Y-71544681D01*
X148264681Y-71392681D01*
X148387976Y-71216596D01*
X148391418Y-71209216D01*
X148476499Y-71026759D01*
X148476500Y-71026757D01*
X148478822Y-71021777D01*
X148508820Y-70909826D01*
X148533034Y-70819457D01*
X148533034Y-70819455D01*
X148534458Y-70814142D01*
X148553193Y-70600000D01*
X151166807Y-70600000D01*
X151185542Y-70814142D01*
X151186966Y-70819455D01*
X151186966Y-70819457D01*
X151211181Y-70909826D01*
X151241178Y-71021777D01*
X151243500Y-71026757D01*
X151243501Y-71026759D01*
X151328583Y-71209216D01*
X151332024Y-71216596D01*
X151455319Y-71392681D01*
X151607319Y-71544681D01*
X151783403Y-71667976D01*
X151788381Y-71670297D01*
X151788384Y-71670299D01*
X151970031Y-71755002D01*
X151978223Y-71758822D01*
X151983531Y-71760244D01*
X151983533Y-71760245D01*
X152180543Y-71813034D01*
X152180545Y-71813034D01*
X152185858Y-71814458D01*
X152400000Y-71833193D01*
X152614142Y-71814458D01*
X152619455Y-71813034D01*
X152619457Y-71813034D01*
X152816467Y-71760245D01*
X152816469Y-71760244D01*
X152821777Y-71758822D01*
X152829969Y-71755002D01*
X153011616Y-71670299D01*
X153011619Y-71670297D01*
X153016597Y-71667976D01*
X153192681Y-71544681D01*
X153344681Y-71392681D01*
X153467976Y-71216596D01*
X153471418Y-71209216D01*
X153556499Y-71026759D01*
X153556500Y-71026757D01*
X153558822Y-71021777D01*
X153588820Y-70909826D01*
X153613034Y-70819457D01*
X153613034Y-70819455D01*
X153614458Y-70814142D01*
X153633193Y-70600000D01*
X153614458Y-70385858D01*
X153608563Y-70363856D01*
X153560245Y-70183533D01*
X153560244Y-70183531D01*
X153558822Y-70178223D01*
X153545191Y-70148991D01*
X153470299Y-69988385D01*
X153470297Y-69988382D01*
X153467976Y-69983404D01*
X153344681Y-69807319D01*
X153192681Y-69655319D01*
X153016597Y-69532024D01*
X153011619Y-69529703D01*
X153011616Y-69529701D01*
X152826759Y-69443501D01*
X152826758Y-69443500D01*
X152821777Y-69441178D01*
X152816469Y-69439756D01*
X152816467Y-69439755D01*
X152619457Y-69386966D01*
X152619455Y-69386966D01*
X152614142Y-69385542D01*
X152400000Y-69366807D01*
X152185858Y-69385542D01*
X152180545Y-69386966D01*
X152180543Y-69386966D01*
X151983533Y-69439755D01*
X151983531Y-69439756D01*
X151978223Y-69441178D01*
X151973243Y-69443500D01*
X151973241Y-69443501D01*
X151788385Y-69529701D01*
X151788382Y-69529703D01*
X151783404Y-69532024D01*
X151607319Y-69655319D01*
X151455319Y-69807319D01*
X151332024Y-69983404D01*
X151329703Y-69988382D01*
X151329701Y-69988385D01*
X151254809Y-70148991D01*
X151241178Y-70178223D01*
X151239756Y-70183531D01*
X151239755Y-70183533D01*
X151191437Y-70363856D01*
X151185542Y-70385858D01*
X151166807Y-70600000D01*
X148553193Y-70600000D01*
X148534458Y-70385858D01*
X148531221Y-70373776D01*
X148532911Y-70302800D01*
X148563833Y-70252071D01*
X148602747Y-70213157D01*
X148611037Y-70205613D01*
X148617518Y-70201500D01*
X148635616Y-70182228D01*
X148664158Y-70151833D01*
X148666913Y-70148991D01*
X148686634Y-70129270D01*
X148689112Y-70126075D01*
X148696818Y-70117053D01*
X148721658Y-70090601D01*
X148727086Y-70084821D01*
X148733232Y-70073642D01*
X148736846Y-70067068D01*
X148747699Y-70050545D01*
X148755253Y-70040806D01*
X148760113Y-70034541D01*
X148777676Y-69993957D01*
X148782883Y-69983327D01*
X148804195Y-69944560D01*
X148806166Y-69936883D01*
X148806168Y-69936878D01*
X148809232Y-69924942D01*
X148815638Y-69906230D01*
X148817757Y-69901335D01*
X148823681Y-69887645D01*
X148824921Y-69879817D01*
X148824923Y-69879810D01*
X148830599Y-69843976D01*
X148833005Y-69832356D01*
X148842028Y-69797211D01*
X148842028Y-69797210D01*
X148844000Y-69789530D01*
X148844000Y-69769276D01*
X148845551Y-69749565D01*
X148847480Y-69737386D01*
X148848720Y-69729557D01*
X148844559Y-69685538D01*
X148844000Y-69673681D01*
X148844000Y-63767966D01*
X151068257Y-63767966D01*
X151098565Y-63902446D01*
X151101645Y-63912275D01*
X151181770Y-64109603D01*
X151186413Y-64118794D01*
X151297694Y-64300388D01*
X151303777Y-64308699D01*
X151443213Y-64469667D01*
X151450580Y-64476883D01*
X151614434Y-64612916D01*
X151622881Y-64618831D01*
X151806756Y-64726279D01*
X151816042Y-64730729D01*
X152015001Y-64806703D01*
X152024899Y-64809579D01*
X152128250Y-64830606D01*
X152142299Y-64829410D01*
X152146000Y-64819065D01*
X152146000Y-64818517D01*
X152654000Y-64818517D01*
X152658064Y-64832359D01*
X152671478Y-64834393D01*
X152678184Y-64833534D01*
X152688262Y-64831392D01*
X152892255Y-64770191D01*
X152901842Y-64766433D01*
X153093095Y-64672739D01*
X153101945Y-64667464D01*
X153275328Y-64543792D01*
X153283200Y-64537139D01*
X153434052Y-64386812D01*
X153440730Y-64378965D01*
X153565003Y-64206020D01*
X153570313Y-64197183D01*
X153664670Y-64006267D01*
X153668469Y-63996672D01*
X153730377Y-63792910D01*
X153732555Y-63782837D01*
X153733986Y-63771962D01*
X153731775Y-63757778D01*
X153718617Y-63754000D01*
X152672115Y-63754000D01*
X152656876Y-63758475D01*
X152655671Y-63759865D01*
X152654000Y-63767548D01*
X152654000Y-64818517D01*
X152146000Y-64818517D01*
X152146000Y-63772115D01*
X152141525Y-63756876D01*
X152140135Y-63755671D01*
X152132452Y-63754000D01*
X151083225Y-63754000D01*
X151069694Y-63757973D01*
X151068257Y-63767966D01*
X148844000Y-63767966D01*
X148844000Y-61858134D01*
X151041500Y-61858134D01*
X151048255Y-61920316D01*
X151099385Y-62056705D01*
X151186739Y-62173261D01*
X151303295Y-62260615D01*
X151311704Y-62263767D01*
X151311705Y-62263768D01*
X151420960Y-62304726D01*
X151477725Y-62347367D01*
X151502425Y-62413929D01*
X151487218Y-62483278D01*
X151467825Y-62509759D01*
X151344590Y-62638717D01*
X151338104Y-62646727D01*
X151218098Y-62822649D01*
X151213000Y-62831623D01*
X151123338Y-63024783D01*
X151119775Y-63034470D01*
X151064389Y-63234183D01*
X151065912Y-63242607D01*
X151078292Y-63246000D01*
X153718344Y-63246000D01*
X153731875Y-63242027D01*
X153733180Y-63232947D01*
X153691214Y-63065875D01*
X153687894Y-63056124D01*
X153602972Y-62860814D01*
X153598105Y-62851739D01*
X153482426Y-62672926D01*
X153476136Y-62664757D01*
X153332293Y-62506677D01*
X153301241Y-62442831D01*
X153309635Y-62372333D01*
X153354812Y-62317564D01*
X153381256Y-62303895D01*
X153488297Y-62263767D01*
X153496705Y-62260615D01*
X153613261Y-62173261D01*
X153700615Y-62056705D01*
X153751745Y-61920316D01*
X153758500Y-61858134D01*
X153758500Y-60061866D01*
X153751745Y-59999684D01*
X153700615Y-59863295D01*
X153613261Y-59746739D01*
X153496705Y-59659385D01*
X153360316Y-59608255D01*
X153298134Y-59601500D01*
X151501866Y-59601500D01*
X151439684Y-59608255D01*
X151303295Y-59659385D01*
X151186739Y-59746739D01*
X151099385Y-59863295D01*
X151048255Y-59999684D01*
X151041500Y-60061866D01*
X151041500Y-61858134D01*
X148844000Y-61858134D01*
X148844000Y-59713067D01*
X148844527Y-59701884D01*
X148846202Y-59694391D01*
X148845003Y-59656233D01*
X148844062Y-59626314D01*
X148844000Y-59622355D01*
X148844000Y-59594444D01*
X148843495Y-59590444D01*
X148842562Y-59578601D01*
X148841422Y-59542329D01*
X148841173Y-59534410D01*
X148835522Y-59514958D01*
X148831514Y-59495606D01*
X148829967Y-59483363D01*
X148828974Y-59475503D01*
X148826056Y-59468132D01*
X148812700Y-59434397D01*
X148808855Y-59423170D01*
X148808221Y-59420987D01*
X148796518Y-59380707D01*
X148786207Y-59363272D01*
X148777512Y-59345524D01*
X148770052Y-59326683D01*
X148744064Y-59290913D01*
X148737548Y-59280993D01*
X148719080Y-59249765D01*
X148719078Y-59249762D01*
X148715042Y-59242938D01*
X148700721Y-59228617D01*
X148687880Y-59213583D01*
X148680631Y-59203606D01*
X148675972Y-59197193D01*
X148641895Y-59169002D01*
X148633116Y-59161012D01*
X147846498Y-58374394D01*
X162990314Y-58374394D01*
X162999143Y-58386014D01*
X163203970Y-58534830D01*
X163210650Y-58539070D01*
X163469234Y-58681228D01*
X163476369Y-58684585D01*
X163750746Y-58793219D01*
X163758237Y-58795653D01*
X164044059Y-58869039D01*
X164051830Y-58870521D01*
X164344570Y-58907503D01*
X164352460Y-58908000D01*
X164647540Y-58908000D01*
X164655430Y-58907503D01*
X164948170Y-58870521D01*
X164955941Y-58869039D01*
X165241763Y-58795653D01*
X165249254Y-58793219D01*
X165523631Y-58684585D01*
X165530766Y-58681228D01*
X165789350Y-58539070D01*
X165796030Y-58534830D01*
X166001230Y-58385744D01*
X166009653Y-58374821D01*
X166002749Y-58361960D01*
X164512810Y-56872020D01*
X164498869Y-56864408D01*
X164497034Y-56864539D01*
X164490420Y-56868790D01*
X162996927Y-58362284D01*
X162990314Y-58374394D01*
X147846498Y-58374394D01*
X145976063Y-56503958D01*
X162087488Y-56503958D01*
X162106015Y-56798436D01*
X162107008Y-56806297D01*
X162162296Y-57096128D01*
X162164267Y-57103805D01*
X162255446Y-57384424D01*
X162258361Y-57391787D01*
X162383993Y-57658770D01*
X162387805Y-57665703D01*
X162545909Y-57914835D01*
X162550563Y-57921241D01*
X162615521Y-57999761D01*
X162628040Y-58008217D01*
X162638778Y-58002011D01*
X164127980Y-56512810D01*
X164134357Y-56501131D01*
X164864408Y-56501131D01*
X164864539Y-56502966D01*
X164868790Y-56509580D01*
X166360119Y-58000908D01*
X166373381Y-58008150D01*
X166383485Y-58000962D01*
X166449437Y-57921241D01*
X166454091Y-57914835D01*
X166612195Y-57665703D01*
X166616007Y-57658770D01*
X166741639Y-57391787D01*
X166744554Y-57384424D01*
X166835733Y-57103805D01*
X166837704Y-57096128D01*
X166892992Y-56806297D01*
X166893985Y-56798436D01*
X166912512Y-56503958D01*
X166912512Y-56496042D01*
X166893985Y-56201564D01*
X166892992Y-56193703D01*
X166837704Y-55903872D01*
X166835733Y-55896195D01*
X166744554Y-55615576D01*
X166741639Y-55608213D01*
X166616007Y-55341230D01*
X166612195Y-55334297D01*
X166454091Y-55085165D01*
X166449437Y-55078759D01*
X166384479Y-55000239D01*
X166371960Y-54991783D01*
X166361222Y-54997989D01*
X164872020Y-56487190D01*
X164864408Y-56501131D01*
X164134357Y-56501131D01*
X164135592Y-56498869D01*
X164135461Y-56497034D01*
X164131210Y-56490420D01*
X162639881Y-54999092D01*
X162626619Y-54991850D01*
X162616515Y-54999038D01*
X162550563Y-55078759D01*
X162545909Y-55085165D01*
X162387805Y-55334297D01*
X162383993Y-55341230D01*
X162258361Y-55608213D01*
X162255446Y-55615576D01*
X162164267Y-55896195D01*
X162162296Y-55903872D01*
X162107008Y-56193703D01*
X162106015Y-56201564D01*
X162087488Y-56496042D01*
X162087488Y-56503958D01*
X145976063Y-56503958D01*
X145831052Y-56358947D01*
X145823512Y-56350661D01*
X145819400Y-56344182D01*
X145793434Y-56319798D01*
X145769749Y-56297557D01*
X145766907Y-56294802D01*
X145747170Y-56275065D01*
X145743973Y-56272585D01*
X145734951Y-56264880D01*
X145730797Y-56260979D01*
X145702721Y-56234614D01*
X145695775Y-56230795D01*
X145695772Y-56230793D01*
X145684966Y-56224852D01*
X145668447Y-56214001D01*
X145667983Y-56213641D01*
X145652441Y-56201586D01*
X145645172Y-56198441D01*
X145645168Y-56198438D01*
X145611863Y-56184026D01*
X145601213Y-56178809D01*
X145562460Y-56157505D01*
X145542837Y-56152467D01*
X145524134Y-56146063D01*
X145512820Y-56141167D01*
X145512819Y-56141167D01*
X145505545Y-56138019D01*
X145497722Y-56136780D01*
X145497712Y-56136777D01*
X145461876Y-56131101D01*
X145450256Y-56128695D01*
X145415111Y-56119672D01*
X145415110Y-56119672D01*
X145407430Y-56117700D01*
X145387176Y-56117700D01*
X145367465Y-56116149D01*
X145355286Y-56114220D01*
X145347457Y-56112980D01*
X145318186Y-56115747D01*
X145303439Y-56117141D01*
X145291581Y-56117700D01*
X137947568Y-56117700D01*
X137936385Y-56117173D01*
X137928892Y-56115498D01*
X137920966Y-56115747D01*
X137920965Y-56115747D01*
X137860802Y-56117638D01*
X137856844Y-56117700D01*
X137828944Y-56117700D01*
X137824954Y-56118204D01*
X137813120Y-56119136D01*
X137768911Y-56120526D01*
X137761295Y-56122739D01*
X137761293Y-56122739D01*
X137749452Y-56126179D01*
X137730093Y-56130188D01*
X137728783Y-56130354D01*
X137710003Y-56132726D01*
X137702637Y-56135642D01*
X137702631Y-56135644D01*
X137668898Y-56149000D01*
X137657668Y-56152845D01*
X137641628Y-56157505D01*
X137615207Y-56165181D01*
X137608384Y-56169216D01*
X137597766Y-56175495D01*
X137580013Y-56184192D01*
X137572368Y-56187219D01*
X137561183Y-56191648D01*
X137547535Y-56201564D01*
X137525412Y-56217637D01*
X137515495Y-56224151D01*
X137477438Y-56246658D01*
X137463117Y-56260979D01*
X137448084Y-56273819D01*
X137431693Y-56285728D01*
X137426643Y-56291832D01*
X137426638Y-56291837D01*
X137403507Y-56319798D01*
X137395517Y-56328579D01*
X137139499Y-56584596D01*
X137077187Y-56618621D01*
X137050404Y-56621500D01*
X136195631Y-56621501D01*
X136138858Y-56621501D01*
X136135614Y-56621838D01*
X136135606Y-56621838D01*
X136088707Y-56626704D01*
X136033199Y-56632463D01*
X135865596Y-56688380D01*
X135715352Y-56781353D01*
X135590527Y-56906397D01*
X135497816Y-57056802D01*
X135442192Y-57224502D01*
X135431500Y-57328857D01*
X135431501Y-58331142D01*
X135442463Y-58436801D01*
X135498380Y-58604404D01*
X135591353Y-58754648D01*
X135716397Y-58879473D01*
X135866802Y-58972184D01*
X135873750Y-58974489D01*
X135873751Y-58974489D01*
X136027971Y-59025642D01*
X136027973Y-59025642D01*
X136034502Y-59027808D01*
X136138857Y-59038500D01*
X136784978Y-59038500D01*
X137441142Y-59038499D01*
X137444386Y-59038162D01*
X137444394Y-59038162D01*
X137491293Y-59033296D01*
X137546801Y-59027537D01*
X137714404Y-58971620D01*
X137864648Y-58878647D01*
X137989473Y-58753603D01*
X137995088Y-58744494D01*
X138060972Y-58637611D01*
X138113745Y-58590117D01*
X138183816Y-58578694D01*
X138248940Y-58606968D01*
X138268194Y-58627023D01*
X138283415Y-58646860D01*
X138283419Y-58646864D01*
X138286831Y-58651311D01*
X138323399Y-58684585D01*
X138442242Y-58792724D01*
X138442245Y-58792726D01*
X138446389Y-58796497D01*
X138451141Y-58799478D01*
X138624379Y-58908151D01*
X138624383Y-58908153D01*
X138629135Y-58911134D01*
X138829293Y-58991597D01*
X139040537Y-59035344D01*
X139045148Y-59035610D01*
X139045149Y-59035610D01*
X139093452Y-59038395D01*
X139093456Y-59038395D01*
X139095275Y-59038500D01*
X139534735Y-59038500D01*
X139537522Y-59038251D01*
X139537528Y-59038251D01*
X139604240Y-59032297D01*
X139694872Y-59024208D01*
X139821740Y-58989501D01*
X139897536Y-58968766D01*
X139897540Y-58968765D01*
X139902952Y-58967284D01*
X140097663Y-58874411D01*
X140272851Y-58748526D01*
X140390596Y-58627023D01*
X140419074Y-58597636D01*
X140419076Y-58597633D01*
X140422977Y-58593608D01*
X140543297Y-58414553D01*
X140630008Y-58217020D01*
X140680368Y-58007255D01*
X140692786Y-57791887D01*
X140690686Y-57774533D01*
X140667544Y-57583292D01*
X140667544Y-57583291D01*
X140666870Y-57577723D01*
X140657649Y-57547749D01*
X140656737Y-57476759D01*
X140694349Y-57416544D01*
X140758546Y-57386223D01*
X140778079Y-57384700D01*
X142925500Y-57384700D01*
X142993621Y-57404702D01*
X143040114Y-57458358D01*
X143051500Y-57510700D01*
X143051501Y-57921241D01*
X143051501Y-58331142D01*
X143062463Y-58436801D01*
X143118380Y-58604404D01*
X143211353Y-58754648D01*
X143336397Y-58879473D01*
X143486802Y-58972184D01*
X143493750Y-58974489D01*
X143493751Y-58974489D01*
X143647971Y-59025642D01*
X143647973Y-59025642D01*
X143654502Y-59027808D01*
X143758857Y-59038500D01*
X143814813Y-59038500D01*
X144670405Y-59038499D01*
X144738526Y-59058501D01*
X144759500Y-59075404D01*
X146649595Y-60965499D01*
X146683621Y-61027811D01*
X146686500Y-61054594D01*
X146686500Y-62654876D01*
X146666498Y-62722997D01*
X146639456Y-62753069D01*
X146610975Y-62775968D01*
X146483846Y-62927474D01*
X146480879Y-62932872D01*
X146480875Y-62932877D01*
X146407760Y-63065875D01*
X146388567Y-63100787D01*
X146386706Y-63106654D01*
X146386705Y-63106656D01*
X146330627Y-63283436D01*
X146328765Y-63289306D01*
X146306719Y-63485851D01*
X146323268Y-63682934D01*
X146377783Y-63873050D01*
X146380600Y-63878531D01*
X146429262Y-63973217D01*
X146442609Y-64042948D01*
X146416139Y-64108825D01*
X146406290Y-64119906D01*
X143369227Y-67156968D01*
X143306915Y-67190994D01*
X143236099Y-67185929D01*
X143179264Y-67143382D01*
X143163080Y-67112468D01*
X143163077Y-67112469D01*
X143163046Y-67112403D01*
X143160606Y-67107742D01*
X143159972Y-67105840D01*
X143159971Y-67105838D01*
X143157654Y-67098893D01*
X143066116Y-66950969D01*
X143060934Y-66945796D01*
X142948184Y-66833242D01*
X142948179Y-66833238D01*
X142943003Y-66828071D01*
X142794920Y-66736791D01*
X142629809Y-66682026D01*
X142622973Y-66681326D01*
X142622970Y-66681325D01*
X142570349Y-66675934D01*
X142527072Y-66671500D01*
X141952928Y-66671500D01*
X141949682Y-66671837D01*
X141949678Y-66671837D01*
X141855765Y-66681581D01*
X141855761Y-66681582D01*
X141848907Y-66682293D01*
X141842371Y-66684474D01*
X141842369Y-66684474D01*
X141709605Y-66728768D01*
X141683893Y-66737346D01*
X141535969Y-66828884D01*
X141530796Y-66834066D01*
X141418242Y-66946816D01*
X141418238Y-66946821D01*
X141413071Y-66951997D01*
X141409231Y-66958227D01*
X141409230Y-66958228D01*
X141368616Y-67024116D01*
X141315844Y-67071609D01*
X141261356Y-67084000D01*
X138134500Y-67084000D01*
X138066379Y-67063998D01*
X138019886Y-67010342D01*
X138008500Y-66958000D01*
X138008500Y-66781700D01*
X138003898Y-66737346D01*
X137998238Y-66682792D01*
X137998237Y-66682788D01*
X137997526Y-66675934D01*
X137941550Y-66508154D01*
X137848478Y-66357752D01*
X137723303Y-66232795D01*
X137717072Y-66228954D01*
X137578968Y-66143825D01*
X137578966Y-66143824D01*
X137572738Y-66139985D01*
X137412254Y-66086755D01*
X137411389Y-66086468D01*
X137411387Y-66086468D01*
X137404861Y-66084303D01*
X137398025Y-66083603D01*
X137398022Y-66083602D01*
X137354969Y-66079191D01*
X137300400Y-66073600D01*
X136299600Y-66073600D01*
X136296354Y-66073937D01*
X136296350Y-66073937D01*
X136200692Y-66083862D01*
X136200688Y-66083863D01*
X136193834Y-66084574D01*
X136187298Y-66086755D01*
X136187296Y-66086755D01*
X136055194Y-66130828D01*
X136026054Y-66140550D01*
X135875652Y-66233622D01*
X135750695Y-66358797D01*
X135746855Y-66365027D01*
X135746854Y-66365028D01*
X135670611Y-66488716D01*
X135617838Y-66536210D01*
X135563351Y-66548600D01*
X125916694Y-66548600D01*
X125848573Y-66528598D01*
X125827599Y-66511695D01*
X121148720Y-61832815D01*
X121133604Y-61814545D01*
X121133425Y-61814282D01*
X121128972Y-61807729D01*
X121123031Y-61802491D01*
X121123029Y-61802489D01*
X121086834Y-61770579D01*
X121081065Y-61765160D01*
X120658126Y-61342221D01*
X120624100Y-61279909D01*
X120625515Y-61220514D01*
X120634553Y-61186783D01*
X120634554Y-61186776D01*
X120635978Y-61181463D01*
X120655353Y-60960000D01*
X120635978Y-60738537D01*
X120578440Y-60523804D01*
X120576117Y-60518822D01*
X120486814Y-60327311D01*
X120486811Y-60327306D01*
X120484488Y-60322324D01*
X120356977Y-60140219D01*
X120199781Y-59983023D01*
X120195273Y-59979866D01*
X120195270Y-59979864D01*
X120119505Y-59926813D01*
X120017677Y-59855512D01*
X120012695Y-59853189D01*
X120012690Y-59853186D01*
X119821178Y-59763883D01*
X119821177Y-59763882D01*
X119816196Y-59761560D01*
X119810888Y-59760138D01*
X119810886Y-59760137D01*
X119740802Y-59741358D01*
X119601463Y-59704022D01*
X119380000Y-59684647D01*
X119158537Y-59704022D01*
X119019198Y-59741358D01*
X118949114Y-59760137D01*
X118949112Y-59760138D01*
X118943804Y-59761560D01*
X118938823Y-59763882D01*
X118938822Y-59763883D01*
X118747311Y-59853186D01*
X118747306Y-59853189D01*
X118742324Y-59855512D01*
X118737817Y-59858668D01*
X118737815Y-59858669D01*
X118564730Y-59979864D01*
X118564727Y-59979866D01*
X118560219Y-59983023D01*
X118403023Y-60140219D01*
X118275512Y-60322324D01*
X118273189Y-60327306D01*
X118273186Y-60327311D01*
X118183883Y-60518822D01*
X118181560Y-60523804D01*
X118124022Y-60738537D01*
X118104647Y-60960000D01*
X118124022Y-61181463D01*
X118181560Y-61396196D01*
X118183882Y-61401177D01*
X118183883Y-61401178D01*
X118273186Y-61592689D01*
X118273189Y-61592694D01*
X118275512Y-61597676D01*
X118278668Y-61602183D01*
X118278669Y-61602185D01*
X118396580Y-61770579D01*
X118403023Y-61779781D01*
X118560219Y-61936977D01*
X118564727Y-61940134D01*
X118564730Y-61940136D01*
X118640495Y-61993187D01*
X118742323Y-62064488D01*
X118747305Y-62066811D01*
X118747310Y-62066814D01*
X118938822Y-62156117D01*
X118943804Y-62158440D01*
X118949112Y-62159862D01*
X118949114Y-62159863D01*
X118972320Y-62166081D01*
X119158537Y-62215978D01*
X119380000Y-62235353D01*
X119385475Y-62234874D01*
X119439233Y-62230171D01*
X119508838Y-62244161D01*
X119559830Y-62293560D01*
X119576020Y-62362686D01*
X119552267Y-62429591D01*
X119539309Y-62444787D01*
X117222221Y-64761874D01*
X117159909Y-64795900D01*
X117100514Y-64794485D01*
X117066783Y-64785447D01*
X117066777Y-64785446D01*
X117061463Y-64784022D01*
X116840000Y-64764647D01*
X116618537Y-64784022D01*
X116523158Y-64809579D01*
X116409114Y-64840137D01*
X116409112Y-64840138D01*
X116403804Y-64841560D01*
X116398823Y-64843882D01*
X116398822Y-64843883D01*
X116207311Y-64933186D01*
X116207306Y-64933189D01*
X116202324Y-64935512D01*
X116197817Y-64938668D01*
X116197815Y-64938669D01*
X116024730Y-65059864D01*
X116024727Y-65059866D01*
X116020219Y-65063023D01*
X115863023Y-65220219D01*
X115735512Y-65402324D01*
X115733189Y-65407306D01*
X115733186Y-65407311D01*
X115649825Y-65586079D01*
X115641560Y-65603804D01*
X115584022Y-65818537D01*
X115564647Y-66040000D01*
X106508500Y-66040000D01*
X106508500Y-58374394D01*
X107990314Y-58374394D01*
X107999143Y-58386014D01*
X108203970Y-58534830D01*
X108210650Y-58539070D01*
X108469234Y-58681228D01*
X108476369Y-58684585D01*
X108750746Y-58793219D01*
X108758237Y-58795653D01*
X109044059Y-58869039D01*
X109051830Y-58870521D01*
X109344570Y-58907503D01*
X109352460Y-58908000D01*
X109647540Y-58908000D01*
X109655430Y-58907503D01*
X109948170Y-58870521D01*
X109955941Y-58869039D01*
X110241763Y-58795653D01*
X110249254Y-58793219D01*
X110523631Y-58684585D01*
X110530766Y-58681228D01*
X110789350Y-58539070D01*
X110796030Y-58534830D01*
X111001230Y-58385744D01*
X111009653Y-58374821D01*
X111002749Y-58361960D01*
X109512810Y-56872020D01*
X109498869Y-56864408D01*
X109497034Y-56864539D01*
X109490420Y-56868790D01*
X107996927Y-58362284D01*
X107990314Y-58374394D01*
X106508500Y-58374394D01*
X106508500Y-56503958D01*
X107087488Y-56503958D01*
X107106015Y-56798436D01*
X107107008Y-56806297D01*
X107162296Y-57096128D01*
X107164267Y-57103805D01*
X107255446Y-57384424D01*
X107258361Y-57391787D01*
X107383993Y-57658770D01*
X107387805Y-57665703D01*
X107545909Y-57914835D01*
X107550563Y-57921241D01*
X107615521Y-57999761D01*
X107628040Y-58008217D01*
X107638778Y-58002011D01*
X109127980Y-56512810D01*
X109134357Y-56501131D01*
X109864408Y-56501131D01*
X109864539Y-56502966D01*
X109868790Y-56509580D01*
X111360119Y-58000908D01*
X111373381Y-58008150D01*
X111383485Y-58000962D01*
X111449437Y-57921241D01*
X111454091Y-57914835D01*
X111483742Y-57868113D01*
X130347214Y-57868113D01*
X130347889Y-57873691D01*
X130363284Y-58000908D01*
X130373130Y-58082277D01*
X130436563Y-58288466D01*
X130535505Y-58480164D01*
X130538920Y-58484614D01*
X130663415Y-58646860D01*
X130663419Y-58646864D01*
X130666831Y-58651311D01*
X130703399Y-58684585D01*
X130822242Y-58792724D01*
X130822245Y-58792726D01*
X130826389Y-58796497D01*
X130831141Y-58799478D01*
X131004379Y-58908151D01*
X131004383Y-58908153D01*
X131009135Y-58911134D01*
X131209293Y-58991597D01*
X131420537Y-59035344D01*
X131425148Y-59035610D01*
X131425149Y-59035610D01*
X131473452Y-59038395D01*
X131473456Y-59038395D01*
X131475275Y-59038500D01*
X131914735Y-59038500D01*
X131917522Y-59038251D01*
X131917528Y-59038251D01*
X131984240Y-59032297D01*
X132074872Y-59024208D01*
X132201740Y-58989501D01*
X132277536Y-58968766D01*
X132277540Y-58968765D01*
X132282952Y-58967284D01*
X132477663Y-58874411D01*
X132652851Y-58748526D01*
X132770596Y-58627023D01*
X132799074Y-58597636D01*
X132799076Y-58597633D01*
X132802977Y-58593608D01*
X132923297Y-58414553D01*
X133010008Y-58217020D01*
X133060368Y-58007255D01*
X133072786Y-57791887D01*
X133070686Y-57774533D01*
X133047544Y-57583292D01*
X133047544Y-57583291D01*
X133046870Y-57577723D01*
X132983437Y-57371534D01*
X132884495Y-57179836D01*
X132826154Y-57103805D01*
X132756585Y-57013140D01*
X132756581Y-57013136D01*
X132753169Y-57008689D01*
X132646331Y-56911474D01*
X132597758Y-56867276D01*
X132597755Y-56867274D01*
X132593611Y-56863503D01*
X132588859Y-56860522D01*
X132415621Y-56751849D01*
X132415617Y-56751847D01*
X132410865Y-56748866D01*
X132210707Y-56668403D01*
X131999463Y-56624656D01*
X131994852Y-56624390D01*
X131994851Y-56624390D01*
X131946548Y-56621605D01*
X131946544Y-56621605D01*
X131944725Y-56621500D01*
X131505265Y-56621500D01*
X131502478Y-56621749D01*
X131502472Y-56621749D01*
X131435760Y-56627703D01*
X131345128Y-56635792D01*
X131230085Y-56667264D01*
X131142464Y-56691234D01*
X131142460Y-56691235D01*
X131137048Y-56692716D01*
X130942337Y-56785589D01*
X130767149Y-56911474D01*
X130763242Y-56915506D01*
X130632356Y-57050570D01*
X130617023Y-57066392D01*
X130496703Y-57245447D01*
X130409992Y-57442980D01*
X130359632Y-57652745D01*
X130347214Y-57868113D01*
X111483742Y-57868113D01*
X111612195Y-57665703D01*
X111616007Y-57658770D01*
X111741639Y-57391787D01*
X111744554Y-57384424D01*
X111835733Y-57103805D01*
X111837704Y-57096128D01*
X111892992Y-56806297D01*
X111893985Y-56798436D01*
X111912512Y-56503958D01*
X111912512Y-56496042D01*
X111893985Y-56201564D01*
X111892992Y-56193703D01*
X111837704Y-55903872D01*
X111835733Y-55896195D01*
X111744554Y-55615576D01*
X111741639Y-55608213D01*
X111616007Y-55341230D01*
X111612195Y-55334297D01*
X111454091Y-55085165D01*
X111449437Y-55078759D01*
X111384479Y-55000239D01*
X111371960Y-54991783D01*
X111361222Y-54997989D01*
X109872020Y-56487190D01*
X109864408Y-56501131D01*
X109134357Y-56501131D01*
X109135592Y-56498869D01*
X109135461Y-56497034D01*
X109131210Y-56490420D01*
X107639881Y-54999092D01*
X107626619Y-54991850D01*
X107616515Y-54999038D01*
X107550563Y-55078759D01*
X107545909Y-55085165D01*
X107387805Y-55334297D01*
X107383993Y-55341230D01*
X107258361Y-55608213D01*
X107255446Y-55615576D01*
X107164267Y-55896195D01*
X107162296Y-55903872D01*
X107107008Y-56193703D01*
X107106015Y-56201564D01*
X107087488Y-56496042D01*
X107087488Y-56503958D01*
X106508500Y-56503958D01*
X106508500Y-54625179D01*
X107990347Y-54625179D01*
X107997251Y-54638040D01*
X109487190Y-56127980D01*
X109501131Y-56135592D01*
X109502966Y-56135461D01*
X109509580Y-56131210D01*
X111003073Y-54637716D01*
X111009686Y-54625606D01*
X111009362Y-54625179D01*
X162990347Y-54625179D01*
X162997251Y-54638040D01*
X164487190Y-56127980D01*
X164501131Y-56135592D01*
X164502966Y-56135461D01*
X164509580Y-56131210D01*
X166003073Y-54637716D01*
X166009686Y-54625606D01*
X166000857Y-54613986D01*
X165796030Y-54465170D01*
X165789350Y-54460930D01*
X165530766Y-54318772D01*
X165523631Y-54315415D01*
X165249254Y-54206781D01*
X165241763Y-54204347D01*
X164955941Y-54130961D01*
X164948170Y-54129479D01*
X164655430Y-54092497D01*
X164647540Y-54092000D01*
X164352460Y-54092000D01*
X164344570Y-54092497D01*
X164051830Y-54129479D01*
X164044059Y-54130961D01*
X163758237Y-54204347D01*
X163750746Y-54206781D01*
X163476369Y-54315415D01*
X163469234Y-54318772D01*
X163210650Y-54460930D01*
X163203970Y-54465170D01*
X162998770Y-54614256D01*
X162990347Y-54625179D01*
X111009362Y-54625179D01*
X111000857Y-54613986D01*
X110796030Y-54465170D01*
X110789350Y-54460930D01*
X110530766Y-54318772D01*
X110523631Y-54315415D01*
X110249254Y-54206781D01*
X110241763Y-54204347D01*
X109955941Y-54130961D01*
X109948170Y-54129479D01*
X109655430Y-54092497D01*
X109647540Y-54092000D01*
X109352460Y-54092000D01*
X109344570Y-54092497D01*
X109051830Y-54129479D01*
X109044059Y-54130961D01*
X108758237Y-54204347D01*
X108750746Y-54206781D01*
X108476369Y-54315415D01*
X108469234Y-54318772D01*
X108210650Y-54460930D01*
X108203970Y-54465170D01*
X107998770Y-54614256D01*
X107990347Y-54625179D01*
X106508500Y-54625179D01*
X106508500Y-53784500D01*
X106528502Y-53716379D01*
X106582158Y-53669886D01*
X106634500Y-53658500D01*
X167615500Y-53658500D01*
X167683621Y-53678502D01*
G37*
%TD.AperFunction*%
%TA.AperFunction,Conductor*%
G36*
X156130924Y-93871502D02*
G01*
X156177417Y-93925158D01*
X156182326Y-93937623D01*
X156200450Y-93991946D01*
X156204301Y-93998170D01*
X156204302Y-93998171D01*
X156232353Y-94043500D01*
X156293522Y-94142348D01*
X156418697Y-94267305D01*
X156424927Y-94271145D01*
X156424928Y-94271146D01*
X156562090Y-94355694D01*
X156569262Y-94360115D01*
X156649005Y-94386564D01*
X156730611Y-94413632D01*
X156730613Y-94413632D01*
X156737139Y-94415797D01*
X156743975Y-94416497D01*
X156743978Y-94416498D01*
X156787031Y-94420909D01*
X156841600Y-94426500D01*
X157642400Y-94426500D01*
X157645646Y-94426163D01*
X157645650Y-94426163D01*
X157741308Y-94416238D01*
X157741312Y-94416237D01*
X157748166Y-94415526D01*
X157754702Y-94413345D01*
X157754704Y-94413345D01*
X157886806Y-94369272D01*
X157915946Y-94359550D01*
X158066348Y-94266478D01*
X158152784Y-94179891D01*
X158215066Y-94145812D01*
X158285886Y-94150815D01*
X158330976Y-94179736D01*
X158418697Y-94267305D01*
X158424927Y-94271145D01*
X158424928Y-94271146D01*
X158562090Y-94355694D01*
X158569262Y-94360115D01*
X158649005Y-94386564D01*
X158730611Y-94413632D01*
X158730613Y-94413632D01*
X158737139Y-94415797D01*
X158743975Y-94416497D01*
X158743978Y-94416498D01*
X158787031Y-94420909D01*
X158841600Y-94426500D01*
X159642400Y-94426500D01*
X159645646Y-94426163D01*
X159645650Y-94426163D01*
X159741308Y-94416238D01*
X159741312Y-94416237D01*
X159748166Y-94415526D01*
X159754702Y-94413345D01*
X159754704Y-94413345D01*
X159886806Y-94369272D01*
X159915946Y-94359550D01*
X160066348Y-94266478D01*
X160191305Y-94141303D01*
X160195146Y-94135072D01*
X160280275Y-93996968D01*
X160280276Y-93996966D01*
X160284115Y-93990738D01*
X160301663Y-93937832D01*
X160342094Y-93879473D01*
X160407658Y-93852236D01*
X160421256Y-93851500D01*
X161400267Y-93851500D01*
X161468094Y-93872884D01*
X161468556Y-93872084D01*
X161472164Y-93874167D01*
X161472532Y-93874283D01*
X161477823Y-93877988D01*
X161482801Y-93880309D01*
X161482804Y-93880311D01*
X161587873Y-93929305D01*
X161641158Y-93976222D01*
X161660619Y-94044499D01*
X161640077Y-94112459D01*
X161587873Y-94157695D01*
X161482811Y-94206686D01*
X161482806Y-94206689D01*
X161477824Y-94209012D01*
X161473317Y-94212168D01*
X161473315Y-94212169D01*
X161300230Y-94333364D01*
X161300227Y-94333366D01*
X161295719Y-94336523D01*
X161138523Y-94493719D01*
X161135366Y-94498227D01*
X161135364Y-94498230D01*
X161014169Y-94671315D01*
X161011012Y-94675824D01*
X161008689Y-94680806D01*
X161008686Y-94680811D01*
X160919383Y-94872322D01*
X160917060Y-94877304D01*
X160915638Y-94882612D01*
X160915637Y-94882614D01*
X160908817Y-94908066D01*
X160859522Y-95092037D01*
X160840147Y-95313500D01*
X160859522Y-95534963D01*
X160903600Y-95699460D01*
X160906501Y-95710288D01*
X160904811Y-95781265D01*
X160865017Y-95840061D01*
X160799753Y-95868009D01*
X160784794Y-95868900D01*
X155826206Y-95868900D01*
X155758085Y-95848898D01*
X155711592Y-95795242D01*
X155701488Y-95724968D01*
X155704499Y-95710288D01*
X155707401Y-95699460D01*
X155751478Y-95534963D01*
X155770853Y-95313500D01*
X155751478Y-95092037D01*
X155702183Y-94908066D01*
X155695363Y-94882614D01*
X155695362Y-94882612D01*
X155693940Y-94877304D01*
X155691617Y-94872322D01*
X155602314Y-94680811D01*
X155602311Y-94680806D01*
X155599988Y-94675824D01*
X155596831Y-94671315D01*
X155475636Y-94498230D01*
X155475634Y-94498227D01*
X155472477Y-94493719D01*
X155315281Y-94336523D01*
X155310773Y-94333366D01*
X155310770Y-94333364D01*
X155207846Y-94261296D01*
X155133177Y-94209012D01*
X155128195Y-94206689D01*
X155128190Y-94206686D01*
X155023127Y-94157695D01*
X154969842Y-94110778D01*
X154950381Y-94042501D01*
X154970923Y-93974541D01*
X155023127Y-93929305D01*
X155128196Y-93880311D01*
X155128199Y-93880309D01*
X155133177Y-93877988D01*
X155138468Y-93874283D01*
X155138836Y-93874167D01*
X155142444Y-93872084D01*
X155142906Y-93872884D01*
X155210733Y-93851500D01*
X156062803Y-93851500D01*
X156130924Y-93871502D01*
G37*
%TD.AperFunction*%
%TD*%
M02*
