%TF.GenerationSoftware,KiCad,Pcbnew,(6.0.11)*%
%TF.CreationDate,2023-02-15T13:18:50+01:00*%
%TF.ProjectId,FringeLocker,4672696e-6765-44c6-9f63-6b65722e6b69,0.1*%
%TF.SameCoordinates,Original*%
%TF.FileFunction,Soldermask,Bot*%
%TF.FilePolarity,Negative*%
%FSLAX46Y46*%
G04 Gerber Fmt 4.6, Leading zero omitted, Abs format (unit mm)*
G04 Created by KiCad (PCBNEW (6.0.11)) date 2023-02-15 13:18:50*
%MOMM*%
%LPD*%
G01*
G04 APERTURE LIST*
G04 Aperture macros list*
%AMRoundRect*
0 Rectangle with rounded corners*
0 $1 Rounding radius*
0 $2 $3 $4 $5 $6 $7 $8 $9 X,Y pos of 4 corners*
0 Add a 4 corners polygon primitive as box body*
4,1,4,$2,$3,$4,$5,$6,$7,$8,$9,$2,$3,0*
0 Add four circle primitives for the rounded corners*
1,1,$1+$1,$2,$3*
1,1,$1+$1,$4,$5*
1,1,$1+$1,$6,$7*
1,1,$1+$1,$8,$9*
0 Add four rect primitives between the rounded corners*
20,1,$1+$1,$2,$3,$4,$5,0*
20,1,$1+$1,$4,$5,$6,$7,0*
20,1,$1+$1,$6,$7,$8,$9,0*
20,1,$1+$1,$8,$9,$2,$3,0*%
G04 Aperture macros list end*
%ADD10C,3.800000*%
%ADD11C,1.000000*%
%ADD12C,1.440000*%
%ADD13R,1.700000X1.700000*%
%ADD14O,1.700000X1.700000*%
%ADD15C,3.500000*%
%ADD16O,2.400000X1.600000*%
%ADD17R,2.400000X1.600000*%
%ADD18RoundRect,0.237500X-0.237500X0.300000X-0.237500X-0.300000X0.237500X-0.300000X0.237500X0.300000X0*%
%ADD19RoundRect,0.250000X-0.450000X0.350000X-0.450000X-0.350000X0.450000X-0.350000X0.450000X0.350000X0*%
%ADD20RoundRect,0.250000X0.450000X-0.350000X0.450000X0.350000X-0.450000X0.350000X-0.450000X-0.350000X0*%
%ADD21RoundRect,0.249200X-0.600800X-0.450800X0.600800X-0.450800X0.600800X0.450800X-0.600800X0.450800X0*%
%ADD22O,1.700000X1.400000*%
G04 APERTURE END LIST*
D10*
%TO.C,REF3*%
X164500000Y-104500000D03*
%TD*%
%TO.C,REF4*%
X109500000Y-104500000D03*
%TD*%
%TO.C,REF2*%
X164500000Y-56500000D03*
%TD*%
%TO.C,REF1*%
X109500000Y-56500000D03*
%TD*%
D11*
%TO.C,TP2*%
X158400000Y-101500000D03*
%TD*%
D12*
%TO.C,RV2*%
X138645000Y-93437500D03*
X141185000Y-90897500D03*
X143725000Y-93437500D03*
%TD*%
D13*
%TO.C,J1*%
X147945000Y-90212500D03*
D14*
X147945000Y-92752500D03*
%TD*%
D15*
%TO.C,BH1*%
X158850000Y-67880000D03*
X158850000Y-75500000D03*
X158850000Y-86880000D03*
X158850000Y-94500000D03*
%TD*%
D13*
%TO.C,J3*%
X147400000Y-100920000D03*
D14*
X147400000Y-103460000D03*
X147400000Y-106000000D03*
%TD*%
D12*
%TO.C,RV1*%
X125920000Y-89762500D03*
X128460000Y-87222500D03*
X131000000Y-89762500D03*
%TD*%
D11*
%TO.C,TP1*%
X134300000Y-94200000D03*
%TD*%
D16*
%TO.C,SW1*%
X128075000Y-80757500D03*
X128075000Y-78217500D03*
X128075000Y-75677500D03*
D17*
X128075000Y-73137500D03*
D16*
X135695000Y-80757500D03*
X135695000Y-78217500D03*
X135695000Y-75677500D03*
X135695000Y-73137500D03*
%TD*%
D13*
%TO.C,J2*%
X120500000Y-102605000D03*
D14*
X120500000Y-105145000D03*
%TD*%
D11*
%TO.C,TP3*%
X137600000Y-65200000D03*
%TD*%
D15*
%TO.C,BH2*%
X116700000Y-92120000D03*
X116700000Y-84500000D03*
X116700000Y-73120000D03*
X116700000Y-65500000D03*
%TD*%
D18*
%TO.C,C3*%
X132895000Y-77137500D03*
X132895000Y-78862500D03*
%TD*%
%TO.C,C5*%
X142000000Y-75437500D03*
X142000000Y-77162500D03*
%TD*%
D19*
%TO.C,R2*%
X137045000Y-85087500D03*
X137045000Y-87087500D03*
%TD*%
%TO.C,R10*%
X143000000Y-101800000D03*
X143000000Y-103800000D03*
%TD*%
D20*
%TO.C,R8*%
X130795000Y-79037500D03*
X130795000Y-77037500D03*
%TD*%
%TO.C,R7*%
X130795000Y-74987500D03*
X130795000Y-72987500D03*
%TD*%
D18*
%TO.C,C6*%
X148500000Y-75137500D03*
X148500000Y-76862500D03*
%TD*%
D20*
%TO.C,R9*%
X130795000Y-83087500D03*
X130795000Y-81087500D03*
%TD*%
%TO.C,R4*%
X133895000Y-89537500D03*
X133895000Y-87537500D03*
%TD*%
D18*
%TO.C,C1*%
X132945000Y-68837500D03*
X132945000Y-70562500D03*
%TD*%
D20*
%TO.C,R5*%
X145295000Y-86487500D03*
X145295000Y-84487500D03*
%TD*%
D21*
%TO.C,D2*%
X138520000Y-59000000D03*
D22*
X143600000Y-59000000D03*
%TD*%
D20*
%TO.C,R6*%
X130845000Y-70787500D03*
X130845000Y-68787500D03*
%TD*%
D18*
%TO.C,C2*%
X132895000Y-73187500D03*
X132895000Y-74912500D03*
%TD*%
D19*
%TO.C,R1*%
X141095000Y-84987500D03*
X141095000Y-86987500D03*
%TD*%
D18*
%TO.C,C4*%
X132895000Y-81287500D03*
X132895000Y-83012500D03*
%TD*%
D19*
%TO.C,R3*%
X145195000Y-79237500D03*
X145195000Y-81237500D03*
%TD*%
D21*
%TO.C,D1*%
X130970000Y-59050000D03*
D22*
X136050000Y-59050000D03*
%TD*%
M02*
