%TF.GenerationSoftware,KiCad,Pcbnew,(6.0.11)*%
%TF.CreationDate,2023-02-15T13:18:50+01:00*%
%TF.ProjectId,FringeLocker,4672696e-6765-44c6-9f63-6b65722e6b69,0.1*%
%TF.SameCoordinates,Original*%
%TF.FileFunction,Copper,L2,Bot*%
%TF.FilePolarity,Positive*%
%FSLAX46Y46*%
G04 Gerber Fmt 4.6, Leading zero omitted, Abs format (unit mm)*
G04 Created by KiCad (PCBNEW (6.0.11)) date 2023-02-15 13:18:50*
%MOMM*%
%LPD*%
G01*
G04 APERTURE LIST*
G04 Aperture macros list*
%AMRoundRect*
0 Rectangle with rounded corners*
0 $1 Rounding radius*
0 $2 $3 $4 $5 $6 $7 $8 $9 X,Y pos of 4 corners*
0 Add a 4 corners polygon primitive as box body*
4,1,4,$2,$3,$4,$5,$6,$7,$8,$9,$2,$3,0*
0 Add four circle primitives for the rounded corners*
1,1,$1+$1,$2,$3*
1,1,$1+$1,$4,$5*
1,1,$1+$1,$6,$7*
1,1,$1+$1,$8,$9*
0 Add four rect primitives between the rounded corners*
20,1,$1+$1,$2,$3,$4,$5,0*
20,1,$1+$1,$4,$5,$6,$7,0*
20,1,$1+$1,$6,$7,$8,$9,0*
20,1,$1+$1,$8,$9,$2,$3,0*%
G04 Aperture macros list end*
%TA.AperFunction,ComponentPad*%
%ADD10C,3.800000*%
%TD*%
%TA.AperFunction,ComponentPad*%
%ADD11C,1.000000*%
%TD*%
%TA.AperFunction,ComponentPad*%
%ADD12C,1.440000*%
%TD*%
%TA.AperFunction,ComponentPad*%
%ADD13R,1.700000X1.700000*%
%TD*%
%TA.AperFunction,ComponentPad*%
%ADD14O,1.700000X1.700000*%
%TD*%
%TA.AperFunction,ComponentPad*%
%ADD15C,3.500000*%
%TD*%
%TA.AperFunction,ComponentPad*%
%ADD16O,2.400000X1.600000*%
%TD*%
%TA.AperFunction,ComponentPad*%
%ADD17R,2.400000X1.600000*%
%TD*%
%TA.AperFunction,SMDPad,CuDef*%
%ADD18RoundRect,0.237500X-0.237500X0.300000X-0.237500X-0.300000X0.237500X-0.300000X0.237500X0.300000X0*%
%TD*%
%TA.AperFunction,SMDPad,CuDef*%
%ADD19RoundRect,0.250000X-0.450000X0.350000X-0.450000X-0.350000X0.450000X-0.350000X0.450000X0.350000X0*%
%TD*%
%TA.AperFunction,SMDPad,CuDef*%
%ADD20RoundRect,0.250000X0.450000X-0.350000X0.450000X0.350000X-0.450000X0.350000X-0.450000X-0.350000X0*%
%TD*%
%TA.AperFunction,ComponentPad*%
%ADD21RoundRect,0.249200X-0.600800X-0.450800X0.600800X-0.450800X0.600800X0.450800X-0.600800X0.450800X0*%
%TD*%
%TA.AperFunction,ComponentPad*%
%ADD22O,1.700000X1.400000*%
%TD*%
%TA.AperFunction,ViaPad*%
%ADD23C,0.800000*%
%TD*%
%TA.AperFunction,Conductor*%
%ADD24C,0.250000*%
%TD*%
G04 APERTURE END LIST*
D10*
%TO.P,REF3,3*%
%TO.N,GND*%
X164500000Y-104500000D03*
%TD*%
%TO.P,REF4,4*%
%TO.N,GND*%
X109500000Y-104500000D03*
%TD*%
%TO.P,REF2,2*%
%TO.N,GND*%
X164500000Y-56500000D03*
%TD*%
%TO.P,REF1,1*%
%TO.N,GND*%
X109500000Y-56500000D03*
%TD*%
D11*
%TO.P,TP2,1,1*%
%TO.N,Net-(J1-Pad2)*%
X158400000Y-101500000D03*
%TD*%
D12*
%TO.P,RV2,1,1*%
%TO.N,-15V*%
X138645000Y-93437500D03*
%TO.P,RV2,2,2*%
%TO.N,Net-(R5-Pad1)*%
X141185000Y-90897500D03*
%TO.P,RV2,3,3*%
%TO.N,+15V*%
X143725000Y-93437500D03*
%TD*%
D13*
%TO.P,J1,1,Pin_1*%
%TO.N,Net-(J1-Pad1)*%
X147945000Y-90212500D03*
D14*
%TO.P,J1,2,Pin_2*%
%TO.N,Net-(J1-Pad2)*%
X147945000Y-92752500D03*
%TD*%
D15*
%TO.P,BH1,1,V*%
%TO.N,Net-(BH1-Pad1)*%
X158850000Y-67880000D03*
%TO.P,BH1,2,V*%
X158850000Y-75500000D03*
%TO.P,BH1,3,GND*%
%TO.N,GND*%
X158850000Y-86880000D03*
%TO.P,BH1,4,GND*%
X158850000Y-94500000D03*
%TD*%
D13*
%TO.P,J3,1,Pin_1*%
%TO.N,Net-(BH1-Pad1)*%
X147400000Y-100920000D03*
D14*
%TO.P,J3,2,Pin_2*%
%TO.N,GND*%
X147400000Y-103460000D03*
%TO.P,J3,3,Pin_3*%
%TO.N,Net-(BH2-Pad3)*%
X147400000Y-106000000D03*
%TD*%
D12*
%TO.P,RV1,1,1*%
%TO.N,Net-(C1-Pad1)*%
X125920000Y-89762500D03*
%TO.P,RV1,2,2*%
X128460000Y-87222500D03*
%TO.P,RV1,3,3*%
%TO.N,Net-(R4-Pad1)*%
X131000000Y-89762500D03*
%TD*%
D11*
%TO.P,TP1,1,1*%
%TO.N,Net-(R1-Pad1)*%
X134300000Y-94200000D03*
%TD*%
D16*
%TO.P,SW1,1,6*%
%TO.N,unconnected-(SW1-Pad1)*%
X128075000Y-80757500D03*
%TO.P,SW1,2,C*%
%TO.N,Net-(D1-Pad2)*%
X128075000Y-78217500D03*
%TO.P,SW1,3,5*%
%TO.N,unconnected-(SW1-Pad3)*%
X128075000Y-75677500D03*
D17*
%TO.P,SW1,4,4*%
%TO.N,Net-(C4-Pad2)*%
X128075000Y-73137500D03*
D16*
%TO.P,SW1,5,3*%
%TO.N,Net-(C3-Pad2)*%
X135695000Y-80757500D03*
%TO.P,SW1,6,2*%
%TO.N,Net-(C2-Pad2)*%
X135695000Y-78217500D03*
%TO.P,SW1,7,C*%
%TO.N,unconnected-(SW1-Pad7)*%
X135695000Y-75677500D03*
%TO.P,SW1,8,1*%
%TO.N,Net-(C1-Pad2)*%
X135695000Y-73137500D03*
%TD*%
D13*
%TO.P,J2,1,Pin_1*%
%TO.N,Net-(C1-Pad1)*%
X120500000Y-102605000D03*
D14*
%TO.P,J2,2,Pin_2*%
%TO.N,GND*%
X120500000Y-105145000D03*
%TD*%
D11*
%TO.P,TP3,1,1*%
%TO.N,Net-(D1-Pad2)*%
X137600000Y-65200000D03*
%TD*%
D15*
%TO.P,BH2,1,V*%
%TO.N,GND*%
X116700000Y-92120000D03*
%TO.P,BH2,2,V*%
X116700000Y-84500000D03*
%TO.P,BH2,3,GND*%
%TO.N,Net-(BH2-Pad3)*%
X116700000Y-73120000D03*
%TO.P,BH2,4,GND*%
X116700000Y-65500000D03*
%TD*%
D18*
%TO.P,C3,1*%
%TO.N,Net-(C1-Pad1)*%
X132895000Y-77137500D03*
%TO.P,C3,2*%
%TO.N,Net-(C3-Pad2)*%
X132895000Y-78862500D03*
%TD*%
%TO.P,C5,1*%
%TO.N,+15V*%
X142000000Y-75437500D03*
%TO.P,C5,2*%
%TO.N,GND*%
X142000000Y-77162500D03*
%TD*%
D19*
%TO.P,R2,1*%
%TO.N,Net-(R2-Pad1)*%
X137045000Y-85087500D03*
%TO.P,R2,2*%
%TO.N,Net-(R1-Pad1)*%
X137045000Y-87087500D03*
%TD*%
%TO.P,R10,1*%
%TO.N,+15V*%
X143000000Y-101800000D03*
%TO.P,R10,2*%
%TO.N,Net-(D3-Pad2)*%
X143000000Y-103800000D03*
%TD*%
D20*
%TO.P,R8,1*%
%TO.N,Net-(C3-Pad2)*%
X130795000Y-79037500D03*
%TO.P,R8,2*%
%TO.N,Net-(C1-Pad1)*%
X130795000Y-77037500D03*
%TD*%
%TO.P,R7,1*%
%TO.N,Net-(C2-Pad2)*%
X130795000Y-74987500D03*
%TO.P,R7,2*%
%TO.N,Net-(C1-Pad1)*%
X130795000Y-72987500D03*
%TD*%
D18*
%TO.P,C6,1*%
%TO.N,-15V*%
X148500000Y-75137500D03*
%TO.P,C6,2*%
%TO.N,GND*%
X148500000Y-76862500D03*
%TD*%
D20*
%TO.P,R9,1*%
%TO.N,Net-(C4-Pad2)*%
X130795000Y-83087500D03*
%TO.P,R9,2*%
%TO.N,Net-(C1-Pad1)*%
X130795000Y-81087500D03*
%TD*%
%TO.P,R4,1*%
%TO.N,Net-(R4-Pad1)*%
X133895000Y-89537500D03*
%TO.P,R4,2*%
%TO.N,Net-(R2-Pad1)*%
X133895000Y-87537500D03*
%TD*%
D18*
%TO.P,C1,1*%
%TO.N,Net-(C1-Pad1)*%
X132945000Y-68837500D03*
%TO.P,C1,2*%
%TO.N,Net-(C1-Pad2)*%
X132945000Y-70562500D03*
%TD*%
D20*
%TO.P,R5,1*%
%TO.N,Net-(R5-Pad1)*%
X145295000Y-86487500D03*
%TO.P,R5,2*%
%TO.N,Net-(R3-Pad1)*%
X145295000Y-84487500D03*
%TD*%
D21*
%TO.P,D2,1,K*%
%TO.N,Net-(D1-Pad2)*%
X138520000Y-59000000D03*
D22*
%TO.P,D2,2,A*%
%TO.N,-15V*%
X143600000Y-59000000D03*
%TD*%
D20*
%TO.P,R6,1*%
%TO.N,Net-(C1-Pad2)*%
X130845000Y-70787500D03*
%TO.P,R6,2*%
%TO.N,Net-(C1-Pad1)*%
X130845000Y-68787500D03*
%TD*%
D18*
%TO.P,C2,1*%
%TO.N,Net-(C1-Pad1)*%
X132895000Y-73187500D03*
%TO.P,C2,2*%
%TO.N,Net-(C2-Pad2)*%
X132895000Y-74912500D03*
%TD*%
D19*
%TO.P,R1,1*%
%TO.N,Net-(R1-Pad1)*%
X141095000Y-84987500D03*
%TO.P,R1,2*%
%TO.N,Net-(J1-Pad1)*%
X141095000Y-86987500D03*
%TD*%
D18*
%TO.P,C4,1*%
%TO.N,Net-(C1-Pad1)*%
X132895000Y-81287500D03*
%TO.P,C4,2*%
%TO.N,Net-(C4-Pad2)*%
X132895000Y-83012500D03*
%TD*%
D19*
%TO.P,R3,1*%
%TO.N,Net-(R3-Pad1)*%
X145195000Y-79237500D03*
%TO.P,R3,2*%
%TO.N,Net-(J1-Pad2)*%
X145195000Y-81237500D03*
%TD*%
D21*
%TO.P,D1,1,K*%
%TO.N,+15V*%
X130970000Y-59050000D03*
D22*
%TO.P,D1,2,A*%
%TO.N,Net-(D1-Pad2)*%
X136050000Y-59050000D03*
%TD*%
D23*
%TO.N,Net-(D3-Pad2)*%
X139638000Y-102552000D03*
%TO.N,Net-(C1-Pad1)*%
X139185000Y-72530700D03*
%TO.N,+15V*%
X128301000Y-106604000D03*
%TO.N,Net-(R3-Pad1)*%
X146733000Y-79266500D03*
%TO.N,Net-(R2-Pad1)*%
X139077000Y-82505700D03*
%TD*%
D24*
%TO.N,Net-(D3-Pad2)*%
X140886000Y-103800000D02*
X139638000Y-102552000D01*
X143000000Y-103800000D02*
X140886000Y-103800000D01*
%TO.N,Net-(BH2-Pad3)*%
X116700000Y-65500000D02*
X116700000Y-73120000D01*
%TO.N,Net-(BH1-Pad1)*%
X147400000Y-100920000D02*
X147400000Y-99694700D01*
X149595400Y-84754600D02*
X158850000Y-75500000D01*
X149595400Y-97499300D02*
X149595400Y-84754600D01*
X147400000Y-99694700D02*
X149595400Y-97499300D01*
X158850000Y-75500000D02*
X158850000Y-67880000D01*
%TO.N,Net-(D1-Pad2)*%
X136050000Y-59050000D02*
X137275300Y-59050000D01*
X137275300Y-59050000D02*
X137872700Y-59647300D01*
X138520000Y-59000000D02*
X137872700Y-59647300D01*
X137600000Y-59920000D02*
X137600000Y-65200000D01*
X137872700Y-59647300D02*
X137600000Y-59920000D01*
%TO.N,Net-(C4-Pad2)*%
X128075000Y-73137500D02*
X126499700Y-73137500D01*
X130795000Y-83012500D02*
X130795000Y-83087500D01*
X128267900Y-83012500D02*
X130795000Y-83012500D01*
X126499700Y-81244300D02*
X128267900Y-83012500D01*
X126499700Y-73137500D02*
X126499700Y-81244300D01*
X130795000Y-83012500D02*
X132895000Y-83012500D01*
%TO.N,Net-(C2-Pad2)*%
X135695000Y-78217500D02*
X134119700Y-78217500D01*
X132895000Y-74987500D02*
X130795000Y-74987500D01*
X132895000Y-74912500D02*
X132895000Y-74987500D01*
X134119700Y-76212200D02*
X134119700Y-78217500D01*
X132895000Y-74987500D02*
X134119700Y-76212200D01*
%TO.N,Net-(C1-Pad1)*%
X130995000Y-73187500D02*
X132895000Y-73187500D01*
X130795000Y-72987500D02*
X130995000Y-73187500D01*
X130895000Y-77137500D02*
X130795000Y-77037500D01*
X132895000Y-77137500D02*
X130895000Y-77137500D01*
X120500000Y-102605000D02*
X120500000Y-101379700D01*
X128460000Y-87222500D02*
X125920000Y-89762500D01*
X125920000Y-95959700D02*
X120500000Y-101379700D01*
X125920000Y-89762500D02*
X125920000Y-95959700D01*
X134038700Y-74331200D02*
X132895000Y-73187500D01*
X137384500Y-74331200D02*
X134038700Y-74331200D01*
X139185000Y-72530700D02*
X137384500Y-74331200D01*
X130845000Y-68837500D02*
X132945000Y-68837500D01*
X130845000Y-68837500D02*
X130845000Y-68787500D01*
X130995000Y-81287500D02*
X132895000Y-81287500D01*
X130795000Y-81087500D02*
X130995000Y-81287500D01*
X130109300Y-87222500D02*
X128460000Y-87222500D01*
X133781300Y-83550500D02*
X130109300Y-87222500D01*
X133781300Y-82173800D02*
X133781300Y-83550500D01*
X132895000Y-81287500D02*
X133781300Y-82173800D01*
X129718700Y-78113800D02*
X130795000Y-77037500D01*
X129718700Y-80011200D02*
X129718700Y-78113800D01*
X130795000Y-81087500D02*
X129718700Y-80011200D01*
X129718600Y-75961100D02*
X130795000Y-77037500D01*
X129718600Y-74063900D02*
X129718600Y-75961100D01*
X130795000Y-72987500D02*
X129718600Y-74063900D01*
X129767000Y-69915500D02*
X130845000Y-68837500D01*
X129767000Y-71959500D02*
X129767000Y-69915500D01*
X130795000Y-72987500D02*
X129767000Y-71959500D01*
%TO.N,-15V*%
X143600000Y-59000000D02*
X143600000Y-60075300D01*
X148500000Y-64975300D02*
X148500000Y-75137500D01*
X143600000Y-60075300D02*
X148500000Y-64975300D01*
%TO.N,+15V*%
X143725000Y-100970400D02*
X142947700Y-101747700D01*
X143725000Y-93437500D02*
X143725000Y-100970400D01*
X133157300Y-101747700D02*
X142947700Y-101747700D01*
X128301000Y-106604000D02*
X133157300Y-101747700D01*
X142947700Y-101747700D02*
X143000000Y-101800000D01*
X142000000Y-71808700D02*
X142000000Y-75437500D01*
X130970000Y-60778700D02*
X142000000Y-71808700D01*
X130970000Y-59050000D02*
X130970000Y-60778700D01*
%TO.N,Net-(C1-Pad2)*%
X135695000Y-73137500D02*
X134119700Y-73137500D01*
X134119700Y-72187200D02*
X134119700Y-73137500D01*
X132720000Y-70787500D02*
X134119700Y-72187200D01*
X130845000Y-70787500D02*
X132720000Y-70787500D01*
X132720000Y-70787500D02*
X132945000Y-70562500D01*
%TO.N,Net-(R4-Pad1)*%
X133670000Y-89762500D02*
X131000000Y-89762500D01*
X133895000Y-89537500D02*
X133670000Y-89762500D01*
%TO.N,Net-(R5-Pad1)*%
X145295000Y-86787500D02*
X141185000Y-90897500D01*
X145295000Y-86487500D02*
X145295000Y-86787500D01*
%TO.N,Net-(J1-Pad2)*%
X146988800Y-91527200D02*
X147945000Y-91527200D01*
X146630400Y-91168800D02*
X146988800Y-91527200D01*
X146630400Y-86104100D02*
X146630400Y-91168800D01*
X146013800Y-85487500D02*
X146630400Y-86104100D01*
X144582600Y-85487500D02*
X146013800Y-85487500D01*
X144199400Y-85104300D02*
X144582600Y-85487500D01*
X144199400Y-82233100D02*
X144199400Y-85104300D01*
X145195000Y-81237500D02*
X144199400Y-82233100D01*
X147945000Y-92752500D02*
X147945000Y-91527200D01*
%TO.N,Net-(C3-Pad2)*%
X135695000Y-80757500D02*
X134119700Y-80757500D01*
X132895000Y-79532800D02*
X132895000Y-78862500D01*
X134119700Y-80757500D02*
X132895000Y-79532800D01*
X130970000Y-78862500D02*
X130795000Y-79037500D01*
X132895000Y-78862500D02*
X130970000Y-78862500D01*
%TO.N,Net-(R3-Pad1)*%
X146733000Y-83049500D02*
X146733000Y-79266500D01*
X145295000Y-84487500D02*
X146733000Y-83049500D01*
X146704000Y-79237500D02*
X146733000Y-79266500D01*
X145195000Y-79237500D02*
X146704000Y-79237500D01*
%TO.N,Net-(R2-Pad1)*%
X137045000Y-84537700D02*
X137045000Y-85087500D01*
X139077000Y-82505700D02*
X137045000Y-84537700D01*
X136345000Y-85087500D02*
X137045000Y-85087500D01*
X133895000Y-87537500D02*
X136345000Y-85087500D01*
%TO.N,Net-(J1-Pad1)*%
X147945000Y-79356000D02*
X147945000Y-90212500D01*
X146849100Y-78260100D02*
X147945000Y-79356000D01*
X144481200Y-78260100D02*
X146849100Y-78260100D01*
X142851300Y-79890000D02*
X144481200Y-78260100D01*
X142851300Y-85231200D02*
X142851300Y-79890000D01*
X141095000Y-86987500D02*
X142851300Y-85231200D01*
%TO.N,Net-(R1-Pad1)*%
X138995000Y-87087500D02*
X137045000Y-87087500D01*
X141095000Y-84987500D02*
X138995000Y-87087500D01*
X137045000Y-91455000D02*
X134300000Y-94200000D01*
X137045000Y-87087500D02*
X137045000Y-91455000D01*
%TD*%
%TA.AperFunction,Conductor*%
%TO.N,GND*%
G36*
X167683621Y-53678502D02*
G01*
X167730114Y-53732158D01*
X167741500Y-53784500D01*
X167741500Y-107465500D01*
X167721498Y-107533621D01*
X167667842Y-107580114D01*
X167615500Y-107591500D01*
X147643588Y-107591500D01*
X147575467Y-107571498D01*
X147528974Y-107517842D01*
X147518870Y-107447568D01*
X147548364Y-107382988D01*
X147608090Y-107344604D01*
X147627578Y-107340521D01*
X147678288Y-107334025D01*
X147678289Y-107334025D01*
X147683416Y-107333368D01*
X147688366Y-107331883D01*
X147892429Y-107270661D01*
X147892434Y-107270659D01*
X147897384Y-107269174D01*
X148097994Y-107170896D01*
X148279860Y-107041173D01*
X148438096Y-106883489D01*
X148447415Y-106870521D01*
X148565435Y-106706277D01*
X148568453Y-106702077D01*
X148604715Y-106628707D01*
X148665136Y-106506453D01*
X148665137Y-106506451D01*
X148667430Y-106501811D01*
X148706142Y-106374394D01*
X162990314Y-106374394D01*
X162999143Y-106386014D01*
X163203970Y-106534830D01*
X163210650Y-106539070D01*
X163469234Y-106681228D01*
X163476369Y-106684585D01*
X163750746Y-106793219D01*
X163758237Y-106795653D01*
X164044059Y-106869039D01*
X164051830Y-106870521D01*
X164344570Y-106907503D01*
X164352460Y-106908000D01*
X164647540Y-106908000D01*
X164655430Y-106907503D01*
X164948170Y-106870521D01*
X164955941Y-106869039D01*
X165241763Y-106795653D01*
X165249254Y-106793219D01*
X165523631Y-106684585D01*
X165530766Y-106681228D01*
X165789350Y-106539070D01*
X165796030Y-106534830D01*
X166001230Y-106385744D01*
X166009653Y-106374821D01*
X166002749Y-106361960D01*
X164512810Y-104872020D01*
X164498869Y-104864408D01*
X164497034Y-104864539D01*
X164490420Y-104868790D01*
X162996927Y-106362284D01*
X162990314Y-106374394D01*
X148706142Y-106374394D01*
X148732370Y-106288069D01*
X148761529Y-106066590D01*
X148762379Y-106031812D01*
X148763074Y-106003365D01*
X148763074Y-106003361D01*
X148763156Y-106000000D01*
X148744852Y-105777361D01*
X148690431Y-105560702D01*
X148601354Y-105355840D01*
X148480014Y-105168277D01*
X148329670Y-105003051D01*
X148325619Y-104999852D01*
X148325615Y-104999848D01*
X148158414Y-104867800D01*
X148158410Y-104867798D01*
X148154359Y-104864598D01*
X148112569Y-104841529D01*
X148062598Y-104791097D01*
X148047826Y-104721654D01*
X148072942Y-104655248D01*
X148100294Y-104628641D01*
X148275095Y-104503958D01*
X162087488Y-104503958D01*
X162106015Y-104798436D01*
X162107008Y-104806297D01*
X162162296Y-105096128D01*
X162164267Y-105103805D01*
X162255446Y-105384424D01*
X162258361Y-105391787D01*
X162383993Y-105658770D01*
X162387805Y-105665703D01*
X162545909Y-105914835D01*
X162550563Y-105921241D01*
X162615521Y-105999761D01*
X162628040Y-106008217D01*
X162638778Y-106002011D01*
X164127980Y-104512810D01*
X164134357Y-104501131D01*
X164864408Y-104501131D01*
X164864539Y-104502966D01*
X164868790Y-104509580D01*
X166360119Y-106000908D01*
X166373381Y-106008150D01*
X166383485Y-106000962D01*
X166449437Y-105921241D01*
X166454091Y-105914835D01*
X166612195Y-105665703D01*
X166616007Y-105658770D01*
X166741639Y-105391787D01*
X166744554Y-105384424D01*
X166835733Y-105103805D01*
X166837704Y-105096128D01*
X166892992Y-104806297D01*
X166893985Y-104798436D01*
X166912512Y-104503958D01*
X166912512Y-104496042D01*
X166893985Y-104201564D01*
X166892992Y-104193703D01*
X166837704Y-103903872D01*
X166835733Y-103896195D01*
X166744554Y-103615576D01*
X166741639Y-103608213D01*
X166616007Y-103341230D01*
X166612195Y-103334297D01*
X166454091Y-103085165D01*
X166449437Y-103078759D01*
X166384479Y-103000239D01*
X166371960Y-102991783D01*
X166361222Y-102997989D01*
X164872020Y-104487190D01*
X164864408Y-104501131D01*
X164134357Y-104501131D01*
X164135592Y-104498869D01*
X164135461Y-104497034D01*
X164131210Y-104490420D01*
X162639881Y-102999092D01*
X162626619Y-102991850D01*
X162616515Y-102999038D01*
X162550563Y-103078759D01*
X162545909Y-103085165D01*
X162387805Y-103334297D01*
X162383993Y-103341230D01*
X162258361Y-103608213D01*
X162255446Y-103615576D01*
X162164267Y-103896195D01*
X162162296Y-103903872D01*
X162107008Y-104193703D01*
X162106015Y-104201564D01*
X162087488Y-104496042D01*
X162087488Y-104503958D01*
X148275095Y-104503958D01*
X148275328Y-104503792D01*
X148283200Y-104497139D01*
X148434052Y-104346812D01*
X148440730Y-104338965D01*
X148565003Y-104166020D01*
X148570313Y-104157183D01*
X148664670Y-103966267D01*
X148668469Y-103956672D01*
X148730377Y-103752910D01*
X148732555Y-103742837D01*
X148733986Y-103731962D01*
X148731775Y-103717778D01*
X148718617Y-103714000D01*
X146083225Y-103714000D01*
X146069694Y-103717973D01*
X146068257Y-103727966D01*
X146098565Y-103862446D01*
X146101645Y-103872275D01*
X146181770Y-104069603D01*
X146186413Y-104078794D01*
X146297694Y-104260388D01*
X146303777Y-104268699D01*
X146443213Y-104429667D01*
X146450580Y-104436883D01*
X146614434Y-104572916D01*
X146622881Y-104578831D01*
X146691969Y-104619203D01*
X146740693Y-104670842D01*
X146753764Y-104740625D01*
X146727033Y-104806396D01*
X146686584Y-104839752D01*
X146673607Y-104846507D01*
X146669474Y-104849610D01*
X146669471Y-104849612D01*
X146499100Y-104977530D01*
X146494965Y-104980635D01*
X146340629Y-105142138D01*
X146214743Y-105326680D01*
X146120688Y-105529305D01*
X146060989Y-105744570D01*
X146037251Y-105966695D01*
X146037548Y-105971848D01*
X146037548Y-105971851D01*
X146043202Y-106069908D01*
X146050110Y-106189715D01*
X146051247Y-106194761D01*
X146051248Y-106194767D01*
X146061156Y-106238729D01*
X146099222Y-106407639D01*
X146137461Y-106501811D01*
X146176290Y-106597435D01*
X146183266Y-106614616D01*
X146185965Y-106619020D01*
X146292714Y-106793219D01*
X146299987Y-106805088D01*
X146446250Y-106973938D01*
X146618126Y-107116632D01*
X146811000Y-107229338D01*
X147019692Y-107309030D01*
X147024760Y-107310061D01*
X147024763Y-107310062D01*
X147181891Y-107342030D01*
X147244656Y-107375211D01*
X147279518Y-107437059D01*
X147275409Y-107507937D01*
X147233632Y-107565341D01*
X147167453Y-107591046D01*
X147156770Y-107591500D01*
X128875243Y-107591500D01*
X128807122Y-107571498D01*
X128760629Y-107517842D01*
X128750525Y-107447568D01*
X128780019Y-107382988D01*
X128801182Y-107363564D01*
X128906909Y-107286749D01*
X128906911Y-107286747D01*
X128912253Y-107282866D01*
X128916675Y-107277955D01*
X129035621Y-107145852D01*
X129035622Y-107145851D01*
X129040040Y-107140944D01*
X129135527Y-106975556D01*
X129194542Y-106793928D01*
X129211907Y-106628706D01*
X129238920Y-106563050D01*
X129248122Y-106552782D01*
X133382799Y-102418105D01*
X133445111Y-102384079D01*
X133471894Y-102381200D01*
X138602510Y-102381200D01*
X138670631Y-102401202D01*
X138717124Y-102454858D01*
X138727820Y-102520369D01*
X138725662Y-102540906D01*
X138724496Y-102552000D01*
X138725186Y-102558565D01*
X138741185Y-102710784D01*
X138744458Y-102741928D01*
X138803473Y-102923556D01*
X138806776Y-102929278D01*
X138806777Y-102929279D01*
X138838822Y-102984783D01*
X138898960Y-103088944D01*
X138903378Y-103093851D01*
X138903379Y-103093852D01*
X139022325Y-103225955D01*
X139026747Y-103230866D01*
X139181248Y-103343118D01*
X139187276Y-103345802D01*
X139187278Y-103345803D01*
X139349681Y-103418109D01*
X139355712Y-103420794D01*
X139449112Y-103440647D01*
X139536056Y-103459128D01*
X139536061Y-103459128D01*
X139542513Y-103460500D01*
X139598406Y-103460500D01*
X139666527Y-103480502D01*
X139687501Y-103497405D01*
X140382343Y-104192247D01*
X140389887Y-104200537D01*
X140394000Y-104207018D01*
X140399777Y-104212443D01*
X140443667Y-104253658D01*
X140446509Y-104256413D01*
X140466231Y-104276135D01*
X140469355Y-104278558D01*
X140469359Y-104278562D01*
X140469424Y-104278612D01*
X140478445Y-104286317D01*
X140510679Y-104316586D01*
X140517627Y-104320405D01*
X140517629Y-104320407D01*
X140528432Y-104326346D01*
X140544959Y-104337202D01*
X140554698Y-104344757D01*
X140554700Y-104344758D01*
X140560960Y-104349614D01*
X140601540Y-104367174D01*
X140612188Y-104372391D01*
X140650940Y-104393695D01*
X140658616Y-104395666D01*
X140658619Y-104395667D01*
X140670562Y-104398733D01*
X140689267Y-104405137D01*
X140707855Y-104413181D01*
X140715678Y-104414420D01*
X140715688Y-104414423D01*
X140751524Y-104420099D01*
X140763144Y-104422505D01*
X140798289Y-104431528D01*
X140805970Y-104433500D01*
X140826224Y-104433500D01*
X140845934Y-104435051D01*
X140865943Y-104438220D01*
X140873835Y-104437474D01*
X140909961Y-104434059D01*
X140921819Y-104433500D01*
X141763219Y-104433500D01*
X141831340Y-104453502D01*
X141870363Y-104493197D01*
X141951522Y-104624348D01*
X142076697Y-104749305D01*
X142082927Y-104753145D01*
X142082928Y-104753146D01*
X142220090Y-104837694D01*
X142227262Y-104842115D01*
X142240504Y-104846507D01*
X142388611Y-104895632D01*
X142388613Y-104895632D01*
X142395139Y-104897797D01*
X142401975Y-104898497D01*
X142401978Y-104898498D01*
X142445031Y-104902909D01*
X142499600Y-104908500D01*
X143500400Y-104908500D01*
X143503646Y-104908163D01*
X143503650Y-104908163D01*
X143599308Y-104898238D01*
X143599312Y-104898237D01*
X143606166Y-104897526D01*
X143612702Y-104895345D01*
X143612704Y-104895345D01*
X143759088Y-104846507D01*
X143773946Y-104841550D01*
X143924348Y-104748478D01*
X144049305Y-104623303D01*
X144142115Y-104472738D01*
X144197797Y-104304861D01*
X144199964Y-104283717D01*
X144208172Y-104203598D01*
X144208500Y-104200400D01*
X144208500Y-103399600D01*
X144202237Y-103339237D01*
X144198238Y-103300692D01*
X144198237Y-103300688D01*
X144197526Y-103293834D01*
X144141550Y-103126054D01*
X144048478Y-102975652D01*
X143961891Y-102889216D01*
X143927812Y-102826934D01*
X143932815Y-102756114D01*
X143961736Y-102711025D01*
X144044134Y-102628483D01*
X144049305Y-102623303D01*
X144097306Y-102545432D01*
X144138275Y-102478968D01*
X144138276Y-102478966D01*
X144142115Y-102472738D01*
X144180038Y-102358404D01*
X144195632Y-102311389D01*
X144195632Y-102311387D01*
X144197797Y-102304861D01*
X144208500Y-102200400D01*
X144208500Y-101430510D01*
X144232562Y-101356451D01*
X144236159Y-101351500D01*
X144241586Y-101345721D01*
X144251346Y-101327968D01*
X144262199Y-101311445D01*
X144269753Y-101301706D01*
X144274613Y-101295441D01*
X144292176Y-101254857D01*
X144297383Y-101244227D01*
X144318695Y-101205460D01*
X144320666Y-101197783D01*
X144320668Y-101197778D01*
X144323732Y-101185842D01*
X144330138Y-101167130D01*
X144333586Y-101159164D01*
X144338181Y-101148545D01*
X144339421Y-101140717D01*
X144339423Y-101140710D01*
X144345099Y-101104876D01*
X144347505Y-101093256D01*
X144356528Y-101058111D01*
X144356528Y-101058110D01*
X144358500Y-101050430D01*
X144358500Y-101030176D01*
X144360051Y-101010465D01*
X144361980Y-100998286D01*
X144363220Y-100990457D01*
X144359059Y-100946438D01*
X144358500Y-100934581D01*
X144358500Y-94559231D01*
X144378502Y-94491110D01*
X144412230Y-94456018D01*
X144517681Y-94382181D01*
X144669681Y-94230181D01*
X144792976Y-94054096D01*
X144807402Y-94023161D01*
X144881499Y-93864259D01*
X144881500Y-93864257D01*
X144883822Y-93859277D01*
X144889527Y-93837988D01*
X144938034Y-93656957D01*
X144938034Y-93656955D01*
X144939458Y-93651642D01*
X144958193Y-93437500D01*
X144939458Y-93223358D01*
X144934274Y-93204011D01*
X144885245Y-93021033D01*
X144885244Y-93021031D01*
X144883822Y-93015723D01*
X144881499Y-93010741D01*
X144795299Y-92825885D01*
X144795297Y-92825882D01*
X144792976Y-92820904D01*
X144669681Y-92644819D01*
X144517681Y-92492819D01*
X144341597Y-92369524D01*
X144336619Y-92367203D01*
X144336616Y-92367201D01*
X144151759Y-92281001D01*
X144151758Y-92281000D01*
X144146777Y-92278678D01*
X144141469Y-92277256D01*
X144141467Y-92277255D01*
X143944457Y-92224466D01*
X143944455Y-92224466D01*
X143939142Y-92223042D01*
X143725000Y-92204307D01*
X143510858Y-92223042D01*
X143505545Y-92224466D01*
X143505543Y-92224466D01*
X143308533Y-92277255D01*
X143308531Y-92277256D01*
X143303223Y-92278678D01*
X143298243Y-92281000D01*
X143298241Y-92281001D01*
X143113385Y-92367201D01*
X143113382Y-92367203D01*
X143108404Y-92369524D01*
X142932319Y-92492819D01*
X142780319Y-92644819D01*
X142657024Y-92820904D01*
X142654703Y-92825882D01*
X142654701Y-92825885D01*
X142568501Y-93010741D01*
X142566178Y-93015723D01*
X142564756Y-93021031D01*
X142564755Y-93021033D01*
X142515726Y-93204011D01*
X142510542Y-93223358D01*
X142491807Y-93437500D01*
X142510542Y-93651642D01*
X142511966Y-93656955D01*
X142511966Y-93656957D01*
X142560474Y-93837988D01*
X142566178Y-93859277D01*
X142568500Y-93864257D01*
X142568501Y-93864259D01*
X142642599Y-94023161D01*
X142657024Y-94054096D01*
X142780319Y-94230181D01*
X142932319Y-94382181D01*
X143037770Y-94456018D01*
X143082099Y-94511475D01*
X143091500Y-94559231D01*
X143091500Y-100565500D01*
X143071498Y-100633621D01*
X143017842Y-100680114D01*
X142965500Y-100691500D01*
X142499600Y-100691500D01*
X142496354Y-100691837D01*
X142496350Y-100691837D01*
X142400692Y-100701762D01*
X142400688Y-100701763D01*
X142393834Y-100702474D01*
X142387298Y-100704655D01*
X142387296Y-100704655D01*
X142255194Y-100748728D01*
X142226054Y-100758450D01*
X142075652Y-100851522D01*
X141950695Y-100976697D01*
X141946855Y-100982927D01*
X141946854Y-100982928D01*
X141902850Y-101054316D01*
X141850078Y-101101809D01*
X141795590Y-101114200D01*
X133236063Y-101114200D01*
X133224879Y-101113673D01*
X133217391Y-101111999D01*
X133209468Y-101112248D01*
X133149333Y-101114138D01*
X133145375Y-101114200D01*
X133117444Y-101114200D01*
X133113529Y-101114695D01*
X133113525Y-101114695D01*
X133113467Y-101114703D01*
X133113438Y-101114706D01*
X133101596Y-101115639D01*
X133057410Y-101117027D01*
X133040044Y-101122072D01*
X133037958Y-101122678D01*
X133018606Y-101126686D01*
X133011535Y-101127580D01*
X132998503Y-101129226D01*
X132991134Y-101132143D01*
X132991132Y-101132144D01*
X132957397Y-101145500D01*
X132946169Y-101149345D01*
X132903707Y-101161682D01*
X132896885Y-101165716D01*
X132896879Y-101165719D01*
X132886268Y-101171994D01*
X132868518Y-101180690D01*
X132857056Y-101185228D01*
X132857051Y-101185231D01*
X132849683Y-101188148D01*
X132843268Y-101192809D01*
X132813925Y-101214127D01*
X132804007Y-101220643D01*
X132785319Y-101231695D01*
X132765937Y-101243158D01*
X132751613Y-101257482D01*
X132736581Y-101270321D01*
X132720193Y-101282228D01*
X132696023Y-101311445D01*
X132692012Y-101316293D01*
X132684022Y-101325073D01*
X128350500Y-105658595D01*
X128288188Y-105692621D01*
X128261405Y-105695500D01*
X128205513Y-105695500D01*
X128199061Y-105696872D01*
X128199056Y-105696872D01*
X128112113Y-105715353D01*
X128018712Y-105735206D01*
X128012682Y-105737891D01*
X128012681Y-105737891D01*
X127850278Y-105810197D01*
X127850276Y-105810198D01*
X127844248Y-105812882D01*
X127689747Y-105925134D01*
X127685326Y-105930044D01*
X127685325Y-105930045D01*
X127619308Y-106003365D01*
X127561960Y-106067056D01*
X127558659Y-106072774D01*
X127491676Y-106188792D01*
X127466473Y-106232444D01*
X127407458Y-106414072D01*
X127406768Y-106420633D01*
X127406768Y-106420635D01*
X127398757Y-106496857D01*
X127387496Y-106604000D01*
X127407458Y-106793928D01*
X127466473Y-106975556D01*
X127561960Y-107140944D01*
X127566378Y-107145851D01*
X127566379Y-107145852D01*
X127685325Y-107277955D01*
X127689747Y-107282866D01*
X127695089Y-107286747D01*
X127695091Y-107286749D01*
X127800818Y-107363564D01*
X127844172Y-107419786D01*
X127850247Y-107490523D01*
X127817116Y-107553314D01*
X127755295Y-107588226D01*
X127726757Y-107591500D01*
X106634500Y-107591500D01*
X106566379Y-107571498D01*
X106519886Y-107517842D01*
X106508500Y-107465500D01*
X106508500Y-106374394D01*
X107990314Y-106374394D01*
X107999143Y-106386014D01*
X108203970Y-106534830D01*
X108210650Y-106539070D01*
X108469234Y-106681228D01*
X108476369Y-106684585D01*
X108750746Y-106793219D01*
X108758237Y-106795653D01*
X109044059Y-106869039D01*
X109051830Y-106870521D01*
X109344570Y-106907503D01*
X109352460Y-106908000D01*
X109647540Y-106908000D01*
X109655430Y-106907503D01*
X109948170Y-106870521D01*
X109955941Y-106869039D01*
X110241763Y-106795653D01*
X110249254Y-106793219D01*
X110523631Y-106684585D01*
X110530766Y-106681228D01*
X110789350Y-106539070D01*
X110796030Y-106534830D01*
X111001230Y-106385744D01*
X111009653Y-106374821D01*
X111002749Y-106361960D01*
X109512810Y-104872020D01*
X109498869Y-104864408D01*
X109497034Y-104864539D01*
X109490420Y-104868790D01*
X107996927Y-106362284D01*
X107990314Y-106374394D01*
X106508500Y-106374394D01*
X106508500Y-104503958D01*
X107087488Y-104503958D01*
X107106015Y-104798436D01*
X107107008Y-104806297D01*
X107162296Y-105096128D01*
X107164267Y-105103805D01*
X107255446Y-105384424D01*
X107258361Y-105391787D01*
X107383993Y-105658770D01*
X107387805Y-105665703D01*
X107545909Y-105914835D01*
X107550563Y-105921241D01*
X107615521Y-105999761D01*
X107628040Y-106008217D01*
X107638778Y-106002011D01*
X109127980Y-104512810D01*
X109134357Y-104501131D01*
X109864408Y-104501131D01*
X109864539Y-104502966D01*
X109868790Y-104509580D01*
X111360119Y-106000908D01*
X111373381Y-106008150D01*
X111383485Y-106000962D01*
X111449437Y-105921241D01*
X111454091Y-105914835D01*
X111612195Y-105665703D01*
X111616007Y-105658770D01*
X111731673Y-105412966D01*
X119168257Y-105412966D01*
X119198565Y-105547446D01*
X119201645Y-105557275D01*
X119281770Y-105754603D01*
X119286413Y-105763794D01*
X119397694Y-105945388D01*
X119403777Y-105953699D01*
X119543213Y-106114667D01*
X119550580Y-106121883D01*
X119714434Y-106257916D01*
X119722881Y-106263831D01*
X119906756Y-106371279D01*
X119916042Y-106375729D01*
X120115001Y-106451703D01*
X120124899Y-106454579D01*
X120228250Y-106475606D01*
X120242299Y-106474410D01*
X120246000Y-106464065D01*
X120246000Y-106463517D01*
X120754000Y-106463517D01*
X120758064Y-106477359D01*
X120771478Y-106479393D01*
X120778184Y-106478534D01*
X120788262Y-106476392D01*
X120992255Y-106415191D01*
X121001842Y-106411433D01*
X121193095Y-106317739D01*
X121201945Y-106312464D01*
X121375328Y-106188792D01*
X121383200Y-106182139D01*
X121534052Y-106031812D01*
X121540730Y-106023965D01*
X121665003Y-105851020D01*
X121670313Y-105842183D01*
X121764670Y-105651267D01*
X121768469Y-105641672D01*
X121830377Y-105437910D01*
X121832555Y-105427837D01*
X121833986Y-105416962D01*
X121831775Y-105402778D01*
X121818617Y-105399000D01*
X120772115Y-105399000D01*
X120756876Y-105403475D01*
X120755671Y-105404865D01*
X120754000Y-105412548D01*
X120754000Y-106463517D01*
X120246000Y-106463517D01*
X120246000Y-105417115D01*
X120241525Y-105401876D01*
X120240135Y-105400671D01*
X120232452Y-105399000D01*
X119183225Y-105399000D01*
X119169694Y-105402973D01*
X119168257Y-105412966D01*
X111731673Y-105412966D01*
X111741639Y-105391787D01*
X111744554Y-105384424D01*
X111835733Y-105103805D01*
X111837704Y-105096128D01*
X111892992Y-104806297D01*
X111893985Y-104798436D01*
X111912512Y-104503958D01*
X111912512Y-104496042D01*
X111893985Y-104201564D01*
X111892992Y-104193703D01*
X111837704Y-103903872D01*
X111835733Y-103896195D01*
X111744554Y-103615576D01*
X111741639Y-103608213D01*
X111692193Y-103503134D01*
X119141500Y-103503134D01*
X119148255Y-103565316D01*
X119199385Y-103701705D01*
X119286739Y-103818261D01*
X119403295Y-103905615D01*
X119411704Y-103908767D01*
X119411705Y-103908768D01*
X119520960Y-103949726D01*
X119577725Y-103992367D01*
X119602425Y-104058929D01*
X119587218Y-104128278D01*
X119567825Y-104154759D01*
X119444590Y-104283717D01*
X119438104Y-104291727D01*
X119318098Y-104467649D01*
X119313000Y-104476623D01*
X119223338Y-104669783D01*
X119219775Y-104679470D01*
X119164389Y-104879183D01*
X119165912Y-104887607D01*
X119178292Y-104891000D01*
X121818344Y-104891000D01*
X121831875Y-104887027D01*
X121833180Y-104877947D01*
X121791214Y-104710875D01*
X121787894Y-104701124D01*
X121702972Y-104505814D01*
X121698105Y-104496739D01*
X121582426Y-104317926D01*
X121576136Y-104309757D01*
X121432293Y-104151677D01*
X121401241Y-104087831D01*
X121409635Y-104017333D01*
X121454812Y-103962564D01*
X121481256Y-103948895D01*
X121588297Y-103908767D01*
X121596705Y-103905615D01*
X121713261Y-103818261D01*
X121800615Y-103701705D01*
X121851745Y-103565316D01*
X121858500Y-103503134D01*
X121858500Y-101706866D01*
X121851745Y-101644684D01*
X121800615Y-101508295D01*
X121713261Y-101391739D01*
X121641269Y-101337784D01*
X121598755Y-101280926D01*
X121593729Y-101210108D01*
X121627740Y-101147864D01*
X126312247Y-96463357D01*
X126320537Y-96455813D01*
X126327018Y-96451700D01*
X126373659Y-96402032D01*
X126376413Y-96399191D01*
X126396135Y-96379469D01*
X126398612Y-96376276D01*
X126406317Y-96367255D01*
X126431159Y-96340800D01*
X126436586Y-96335021D01*
X126440407Y-96328071D01*
X126446346Y-96317268D01*
X126457202Y-96300741D01*
X126464757Y-96291002D01*
X126464758Y-96291000D01*
X126469614Y-96284740D01*
X126487174Y-96244160D01*
X126492391Y-96233512D01*
X126509875Y-96201709D01*
X126509876Y-96201707D01*
X126513695Y-96194760D01*
X126518733Y-96175137D01*
X126525137Y-96156434D01*
X126530033Y-96145120D01*
X126530033Y-96145119D01*
X126533181Y-96137845D01*
X126534420Y-96130022D01*
X126534423Y-96130012D01*
X126540099Y-96094176D01*
X126542505Y-96082556D01*
X126551528Y-96047411D01*
X126551528Y-96047410D01*
X126553500Y-96039730D01*
X126553500Y-96019476D01*
X126555051Y-95999765D01*
X126556980Y-95987586D01*
X126558220Y-95979757D01*
X126554059Y-95935738D01*
X126553500Y-95923881D01*
X126553500Y-90884231D01*
X126573502Y-90816110D01*
X126607230Y-90781018D01*
X126712681Y-90707181D01*
X126864681Y-90555181D01*
X126987976Y-90379096D01*
X126994594Y-90364905D01*
X127076499Y-90189259D01*
X127076500Y-90189257D01*
X127078822Y-90184277D01*
X127115100Y-90048889D01*
X127133034Y-89981957D01*
X127133034Y-89981955D01*
X127134458Y-89976642D01*
X127153193Y-89762500D01*
X129766807Y-89762500D01*
X129785542Y-89976642D01*
X129786966Y-89981955D01*
X129786966Y-89981957D01*
X129804901Y-90048889D01*
X129841178Y-90184277D01*
X129843500Y-90189257D01*
X129843501Y-90189259D01*
X129925407Y-90364905D01*
X129932024Y-90379096D01*
X130055319Y-90555181D01*
X130207319Y-90707181D01*
X130383403Y-90830476D01*
X130388381Y-90832797D01*
X130388384Y-90832799D01*
X130573241Y-90918999D01*
X130578223Y-90921322D01*
X130583531Y-90922744D01*
X130583533Y-90922745D01*
X130780543Y-90975534D01*
X130780545Y-90975534D01*
X130785858Y-90976958D01*
X131000000Y-90995693D01*
X131214142Y-90976958D01*
X131219455Y-90975534D01*
X131219457Y-90975534D01*
X131416467Y-90922745D01*
X131416469Y-90922744D01*
X131421777Y-90921322D01*
X131426759Y-90918999D01*
X131611616Y-90832799D01*
X131611619Y-90832797D01*
X131616597Y-90830476D01*
X131792681Y-90707181D01*
X131944681Y-90555181D01*
X132018518Y-90449730D01*
X132073975Y-90405401D01*
X132121731Y-90396000D01*
X132828607Y-90396000D01*
X132896728Y-90416002D01*
X132917625Y-90432827D01*
X132971697Y-90486805D01*
X132977927Y-90490645D01*
X132977928Y-90490646D01*
X133115090Y-90575194D01*
X133122262Y-90579615D01*
X133184626Y-90600300D01*
X133283611Y-90633132D01*
X133283613Y-90633132D01*
X133290139Y-90635297D01*
X133296975Y-90635997D01*
X133296978Y-90635998D01*
X133340031Y-90640409D01*
X133394600Y-90646000D01*
X134395400Y-90646000D01*
X134398646Y-90645663D01*
X134398650Y-90645663D01*
X134494308Y-90635738D01*
X134494312Y-90635737D01*
X134501166Y-90635026D01*
X134507702Y-90632845D01*
X134507704Y-90632845D01*
X134639806Y-90588772D01*
X134668946Y-90579050D01*
X134819348Y-90485978D01*
X134944305Y-90360803D01*
X134967934Y-90322470D01*
X135033275Y-90216468D01*
X135033276Y-90216466D01*
X135037115Y-90210238D01*
X135092797Y-90042361D01*
X135094261Y-90028078D01*
X135098986Y-89981957D01*
X135103500Y-89937900D01*
X135103500Y-89137100D01*
X135102660Y-89129000D01*
X135093238Y-89038192D01*
X135093237Y-89038188D01*
X135092526Y-89031334D01*
X135070704Y-88965924D01*
X135038868Y-88870502D01*
X135036550Y-88863554D01*
X134943478Y-88713152D01*
X134856891Y-88626716D01*
X134822812Y-88564434D01*
X134827815Y-88493614D01*
X134856736Y-88448525D01*
X134939134Y-88365983D01*
X134944305Y-88360803D01*
X134948146Y-88354572D01*
X135033275Y-88216468D01*
X135033276Y-88216466D01*
X135037115Y-88210238D01*
X135092797Y-88042361D01*
X135093924Y-88031368D01*
X135103172Y-87941098D01*
X135103500Y-87937900D01*
X135103500Y-87277094D01*
X135123502Y-87208973D01*
X135140405Y-87187999D01*
X135621405Y-86706999D01*
X135683717Y-86672973D01*
X135754532Y-86678038D01*
X135811368Y-86720585D01*
X135836179Y-86787105D01*
X135836500Y-86796094D01*
X135836500Y-87487900D01*
X135836837Y-87491146D01*
X135836837Y-87491150D01*
X135846578Y-87585026D01*
X135847474Y-87593666D01*
X135849655Y-87600202D01*
X135849655Y-87600204D01*
X135869684Y-87660238D01*
X135903450Y-87761446D01*
X135996522Y-87911848D01*
X136001704Y-87917021D01*
X136019348Y-87934634D01*
X136121697Y-88036805D01*
X136127927Y-88040645D01*
X136127928Y-88040646D01*
X136217729Y-88096000D01*
X136272262Y-88129615D01*
X136325168Y-88147163D01*
X136383527Y-88187594D01*
X136410764Y-88253158D01*
X136411500Y-88266756D01*
X136411500Y-91140405D01*
X136391498Y-91208526D01*
X136374595Y-91229500D01*
X134449450Y-93154645D01*
X134387138Y-93188671D01*
X134347187Y-93190860D01*
X134313207Y-93187289D01*
X134313202Y-93187289D01*
X134307075Y-93186645D01*
X134224576Y-93194153D01*
X134116251Y-93204011D01*
X134116248Y-93204012D01*
X134110112Y-93204570D01*
X134104206Y-93206308D01*
X134104202Y-93206309D01*
X134027655Y-93228838D01*
X133920381Y-93260410D01*
X133914923Y-93263263D01*
X133914919Y-93263265D01*
X133824147Y-93310720D01*
X133745110Y-93352040D01*
X133590975Y-93475968D01*
X133463846Y-93627474D01*
X133460879Y-93632872D01*
X133460875Y-93632877D01*
X133411588Y-93722531D01*
X133368567Y-93800787D01*
X133366706Y-93806654D01*
X133366705Y-93806656D01*
X133329673Y-93923396D01*
X133308765Y-93989306D01*
X133286719Y-94185851D01*
X133288201Y-94203505D01*
X133301658Y-94363756D01*
X133303268Y-94382934D01*
X133304967Y-94388858D01*
X133340127Y-94511475D01*
X133357783Y-94573050D01*
X133448187Y-94748956D01*
X133571035Y-94903953D01*
X133721650Y-95032136D01*
X133894294Y-95128624D01*
X134082392Y-95189740D01*
X134278777Y-95213158D01*
X134284912Y-95212686D01*
X134284914Y-95212686D01*
X134469830Y-95198457D01*
X134469834Y-95198456D01*
X134475972Y-95197984D01*
X134666463Y-95144798D01*
X134671967Y-95142018D01*
X134671969Y-95142017D01*
X134837495Y-95058404D01*
X134837497Y-95058403D01*
X134842996Y-95055625D01*
X134998847Y-94933861D01*
X135128078Y-94784145D01*
X135225769Y-94612179D01*
X135288197Y-94424513D01*
X135312985Y-94228295D01*
X135313380Y-94200000D01*
X135308702Y-94152288D01*
X135321962Y-94082540D01*
X135345006Y-94050898D01*
X135958404Y-93437500D01*
X137411807Y-93437500D01*
X137430542Y-93651642D01*
X137431966Y-93656955D01*
X137431966Y-93656957D01*
X137480474Y-93837988D01*
X137486178Y-93859277D01*
X137488500Y-93864257D01*
X137488501Y-93864259D01*
X137562599Y-94023161D01*
X137577024Y-94054096D01*
X137700319Y-94230181D01*
X137852319Y-94382181D01*
X138028403Y-94505476D01*
X138033381Y-94507797D01*
X138033384Y-94507799D01*
X138218241Y-94593999D01*
X138223223Y-94596322D01*
X138228531Y-94597744D01*
X138228533Y-94597745D01*
X138425543Y-94650534D01*
X138425545Y-94650534D01*
X138430858Y-94651958D01*
X138645000Y-94670693D01*
X138859142Y-94651958D01*
X138864455Y-94650534D01*
X138864457Y-94650534D01*
X139061467Y-94597745D01*
X139061469Y-94597744D01*
X139066777Y-94596322D01*
X139071759Y-94593999D01*
X139256616Y-94507799D01*
X139256619Y-94507797D01*
X139261597Y-94505476D01*
X139437681Y-94382181D01*
X139589681Y-94230181D01*
X139712976Y-94054096D01*
X139727402Y-94023161D01*
X139801499Y-93864259D01*
X139801500Y-93864257D01*
X139803822Y-93859277D01*
X139809527Y-93837988D01*
X139858034Y-93656957D01*
X139858034Y-93656955D01*
X139859458Y-93651642D01*
X139878193Y-93437500D01*
X139859458Y-93223358D01*
X139854274Y-93204011D01*
X139805245Y-93021033D01*
X139805244Y-93021031D01*
X139803822Y-93015723D01*
X139801499Y-93010741D01*
X139715299Y-92825885D01*
X139715297Y-92825882D01*
X139712976Y-92820904D01*
X139589681Y-92644819D01*
X139437681Y-92492819D01*
X139261597Y-92369524D01*
X139256619Y-92367203D01*
X139256616Y-92367201D01*
X139071759Y-92281001D01*
X139071758Y-92281000D01*
X139066777Y-92278678D01*
X139061469Y-92277256D01*
X139061467Y-92277255D01*
X138864457Y-92224466D01*
X138864455Y-92224466D01*
X138859142Y-92223042D01*
X138645000Y-92204307D01*
X138430858Y-92223042D01*
X138425545Y-92224466D01*
X138425543Y-92224466D01*
X138228533Y-92277255D01*
X138228531Y-92277256D01*
X138223223Y-92278678D01*
X138218243Y-92281000D01*
X138218241Y-92281001D01*
X138033385Y-92367201D01*
X138033382Y-92367203D01*
X138028404Y-92369524D01*
X137852319Y-92492819D01*
X137700319Y-92644819D01*
X137577024Y-92820904D01*
X137574703Y-92825882D01*
X137574701Y-92825885D01*
X137488501Y-93010741D01*
X137486178Y-93015723D01*
X137484756Y-93021031D01*
X137484755Y-93021033D01*
X137435726Y-93204011D01*
X137430542Y-93223358D01*
X137411807Y-93437500D01*
X135958404Y-93437500D01*
X137437247Y-91958657D01*
X137445537Y-91951113D01*
X137452018Y-91947000D01*
X137498659Y-91897332D01*
X137501413Y-91894491D01*
X137521134Y-91874770D01*
X137523612Y-91871575D01*
X137531318Y-91862553D01*
X137556158Y-91836101D01*
X137561586Y-91830321D01*
X137571346Y-91812568D01*
X137582199Y-91796045D01*
X137589753Y-91786306D01*
X137594613Y-91780041D01*
X137612176Y-91739457D01*
X137617383Y-91728827D01*
X137638695Y-91690060D01*
X137640666Y-91682383D01*
X137640668Y-91682378D01*
X137643732Y-91670442D01*
X137650138Y-91651730D01*
X137655033Y-91640419D01*
X137658181Y-91633145D01*
X137659421Y-91625317D01*
X137659423Y-91625310D01*
X137665099Y-91589476D01*
X137667505Y-91577856D01*
X137676528Y-91542711D01*
X137676528Y-91542710D01*
X137678500Y-91535030D01*
X137678500Y-91514776D01*
X137680051Y-91495065D01*
X137681980Y-91482886D01*
X137683220Y-91475057D01*
X137679059Y-91431038D01*
X137678500Y-91419181D01*
X137678500Y-88266697D01*
X137698502Y-88198576D01*
X137752158Y-88152083D01*
X137764623Y-88147174D01*
X137812002Y-88131367D01*
X137812004Y-88131366D01*
X137818946Y-88129050D01*
X137969348Y-88035978D01*
X138094305Y-87910803D01*
X138098146Y-87904572D01*
X138174389Y-87780884D01*
X138227162Y-87733390D01*
X138281649Y-87721000D01*
X138916233Y-87721000D01*
X138927416Y-87721527D01*
X138934909Y-87723202D01*
X138942835Y-87722953D01*
X138942836Y-87722953D01*
X139002986Y-87721062D01*
X139006945Y-87721000D01*
X139034856Y-87721000D01*
X139038791Y-87720503D01*
X139038856Y-87720495D01*
X139050693Y-87719562D01*
X139082951Y-87718548D01*
X139086970Y-87718422D01*
X139094889Y-87718173D01*
X139114343Y-87712521D01*
X139133700Y-87708513D01*
X139145930Y-87706968D01*
X139145931Y-87706968D01*
X139153797Y-87705974D01*
X139161168Y-87703055D01*
X139161170Y-87703055D01*
X139194912Y-87689696D01*
X139206142Y-87685851D01*
X139240983Y-87675729D01*
X139240984Y-87675729D01*
X139248593Y-87673518D01*
X139255412Y-87669485D01*
X139255417Y-87669483D01*
X139266028Y-87663207D01*
X139283776Y-87654512D01*
X139302617Y-87647052D01*
X139338387Y-87621064D01*
X139348307Y-87614548D01*
X139379535Y-87596080D01*
X139379538Y-87596078D01*
X139386362Y-87592042D01*
X139400683Y-87577721D01*
X139415717Y-87564880D01*
X139425694Y-87557631D01*
X139432107Y-87552972D01*
X139460298Y-87518895D01*
X139468288Y-87510116D01*
X139671808Y-87306596D01*
X139734120Y-87272570D01*
X139804935Y-87277635D01*
X139861771Y-87320182D01*
X139886281Y-87387923D01*
X139886500Y-87387900D01*
X139886835Y-87391124D01*
X139886835Y-87391133D01*
X139896629Y-87485522D01*
X139897474Y-87493666D01*
X139899655Y-87500202D01*
X139899655Y-87500204D01*
X139915223Y-87546866D01*
X139953450Y-87661446D01*
X140046522Y-87811848D01*
X140171697Y-87936805D01*
X140177927Y-87940645D01*
X140177928Y-87940646D01*
X140315090Y-88025194D01*
X140322262Y-88029615D01*
X140364625Y-88043666D01*
X140483611Y-88083132D01*
X140483613Y-88083132D01*
X140490139Y-88085297D01*
X140496975Y-88085997D01*
X140496978Y-88085998D01*
X140540031Y-88090409D01*
X140594600Y-88096000D01*
X141595400Y-88096000D01*
X141598646Y-88095663D01*
X141598650Y-88095663D01*
X141694308Y-88085738D01*
X141694312Y-88085737D01*
X141701166Y-88085026D01*
X141707702Y-88082845D01*
X141707704Y-88082845D01*
X141839806Y-88038772D01*
X141868946Y-88029050D01*
X142019348Y-87935978D01*
X142144305Y-87810803D01*
X142157433Y-87789506D01*
X142233275Y-87666468D01*
X142233276Y-87666466D01*
X142237115Y-87660238D01*
X142266811Y-87570707D01*
X142290632Y-87498889D01*
X142290632Y-87498887D01*
X142292797Y-87492361D01*
X142303500Y-87387900D01*
X142303500Y-86727094D01*
X142323502Y-86658973D01*
X142340405Y-86637999D01*
X143243547Y-85734857D01*
X143251837Y-85727313D01*
X143258318Y-85723200D01*
X143304959Y-85673532D01*
X143307713Y-85670691D01*
X143327434Y-85650970D01*
X143329912Y-85647775D01*
X143337618Y-85638753D01*
X143362458Y-85612301D01*
X143367886Y-85606521D01*
X143374032Y-85595342D01*
X143377646Y-85588768D01*
X143388499Y-85572245D01*
X143396053Y-85562506D01*
X143400913Y-85556241D01*
X143418476Y-85515657D01*
X143423683Y-85505027D01*
X143444995Y-85466260D01*
X143444995Y-85466259D01*
X143445157Y-85466348D01*
X143486260Y-85413667D01*
X143553263Y-85390190D01*
X143622322Y-85406663D01*
X143661674Y-85441959D01*
X143665833Y-85447683D01*
X143672352Y-85457607D01*
X143690268Y-85487900D01*
X143694858Y-85495662D01*
X143709179Y-85509983D01*
X143722019Y-85525016D01*
X143733928Y-85541407D01*
X143740034Y-85546458D01*
X143768005Y-85569598D01*
X143776784Y-85577588D01*
X144064298Y-85865102D01*
X144098324Y-85927414D01*
X144098402Y-85979025D01*
X144097203Y-85982639D01*
X144086500Y-86087100D01*
X144086500Y-86887900D01*
X144097474Y-86993666D01*
X144099659Y-87000216D01*
X144100563Y-87004400D01*
X144095394Y-87075208D01*
X144066498Y-87120098D01*
X141532928Y-89653667D01*
X141470616Y-89687693D01*
X141411227Y-89686280D01*
X141408182Y-89685464D01*
X141399142Y-89683042D01*
X141185000Y-89664307D01*
X140970858Y-89683042D01*
X140965545Y-89684466D01*
X140965543Y-89684466D01*
X140768533Y-89737255D01*
X140768531Y-89737256D01*
X140763223Y-89738678D01*
X140758243Y-89741000D01*
X140758241Y-89741001D01*
X140573385Y-89827201D01*
X140573382Y-89827203D01*
X140568404Y-89829524D01*
X140392319Y-89952819D01*
X140240319Y-90104819D01*
X140117024Y-90280904D01*
X140114703Y-90285882D01*
X140114701Y-90285885D01*
X140058970Y-90405401D01*
X140026178Y-90475723D01*
X140024756Y-90481031D01*
X140024755Y-90481033D01*
X139983420Y-90635297D01*
X139970542Y-90683358D01*
X139951807Y-90897500D01*
X139970542Y-91111642D01*
X139971966Y-91116955D01*
X139971966Y-91116957D01*
X140017835Y-91288139D01*
X140026178Y-91319277D01*
X140028500Y-91324257D01*
X140028501Y-91324259D01*
X140108150Y-91495065D01*
X140117024Y-91514096D01*
X140240319Y-91690181D01*
X140392319Y-91842181D01*
X140568403Y-91965476D01*
X140573381Y-91967797D01*
X140573384Y-91967799D01*
X140654893Y-92005807D01*
X140763223Y-92056322D01*
X140768531Y-92057744D01*
X140768533Y-92057745D01*
X140965543Y-92110534D01*
X140965545Y-92110534D01*
X140970858Y-92111958D01*
X141185000Y-92130693D01*
X141399142Y-92111958D01*
X141404455Y-92110534D01*
X141404457Y-92110534D01*
X141601467Y-92057745D01*
X141601469Y-92057744D01*
X141606777Y-92056322D01*
X141715107Y-92005807D01*
X141796616Y-91967799D01*
X141796619Y-91967797D01*
X141801597Y-91965476D01*
X141977681Y-91842181D01*
X142129681Y-91690181D01*
X142252976Y-91514096D01*
X142261851Y-91495065D01*
X142341499Y-91324259D01*
X142341500Y-91324257D01*
X142343822Y-91319277D01*
X142352166Y-91288139D01*
X142398034Y-91116957D01*
X142398034Y-91116955D01*
X142399458Y-91111642D01*
X142418193Y-90897500D01*
X142399458Y-90683358D01*
X142396221Y-90671276D01*
X142397911Y-90600300D01*
X142428833Y-90549571D01*
X143886577Y-89091828D01*
X145345500Y-87632905D01*
X145407812Y-87598879D01*
X145434595Y-87596000D01*
X145795400Y-87596000D01*
X145798644Y-87595663D01*
X145798652Y-87595663D01*
X145857897Y-87589516D01*
X145927718Y-87602381D01*
X145979500Y-87650952D01*
X145996900Y-87714843D01*
X145996900Y-91090033D01*
X145996373Y-91101216D01*
X145994698Y-91108709D01*
X145994947Y-91116635D01*
X145994947Y-91116636D01*
X145996838Y-91176786D01*
X145996900Y-91180745D01*
X145996900Y-91208656D01*
X145997397Y-91212590D01*
X145997397Y-91212591D01*
X145997405Y-91212656D01*
X145998338Y-91224493D01*
X145999727Y-91268689D01*
X146005378Y-91288139D01*
X146009387Y-91307500D01*
X146011926Y-91327597D01*
X146014845Y-91334968D01*
X146014845Y-91334970D01*
X146028204Y-91368712D01*
X146032049Y-91379942D01*
X146044382Y-91422393D01*
X146048415Y-91429212D01*
X146048417Y-91429217D01*
X146054693Y-91439828D01*
X146063388Y-91457576D01*
X146070848Y-91476417D01*
X146075510Y-91482833D01*
X146075510Y-91482834D01*
X146096836Y-91512187D01*
X146103352Y-91522107D01*
X146115728Y-91543033D01*
X146125858Y-91560162D01*
X146140179Y-91574483D01*
X146153019Y-91589516D01*
X146164928Y-91605907D01*
X146171034Y-91610958D01*
X146199005Y-91634098D01*
X146207784Y-91642088D01*
X146485143Y-91919447D01*
X146492687Y-91927737D01*
X146496800Y-91934218D01*
X146502577Y-91939643D01*
X146546467Y-91980858D01*
X146549309Y-91983613D01*
X146569030Y-92003334D01*
X146572225Y-92005812D01*
X146581247Y-92013518D01*
X146613479Y-92043786D01*
X146620428Y-92047606D01*
X146631232Y-92053546D01*
X146647753Y-92064398D01*
X146655802Y-92070641D01*
X146697370Y-92128196D01*
X146701223Y-92199088D01*
X146692866Y-92223254D01*
X146667869Y-92277104D01*
X146667865Y-92277116D01*
X146665688Y-92281805D01*
X146605989Y-92497070D01*
X146582251Y-92719195D01*
X146582548Y-92724348D01*
X146582548Y-92724351D01*
X146594812Y-92937047D01*
X146595110Y-92942215D01*
X146596247Y-92947261D01*
X146596248Y-92947267D01*
X146620304Y-93054008D01*
X146644222Y-93160139D01*
X146728266Y-93367116D01*
X146730965Y-93371520D01*
X146820506Y-93517638D01*
X146844987Y-93557588D01*
X146991250Y-93726438D01*
X147163126Y-93869132D01*
X147356000Y-93981838D01*
X147360825Y-93983680D01*
X147360826Y-93983681D01*
X147391581Y-93995425D01*
X147564692Y-94061530D01*
X147569760Y-94062561D01*
X147569763Y-94062562D01*
X147642631Y-94077387D01*
X147783597Y-94106067D01*
X147788772Y-94106257D01*
X147788774Y-94106257D01*
X148001673Y-94114064D01*
X148001677Y-94114064D01*
X148006837Y-94114253D01*
X148011957Y-94113597D01*
X148011959Y-94113597D01*
X148223288Y-94086525D01*
X148223289Y-94086525D01*
X148228416Y-94085868D01*
X148242949Y-94081508D01*
X148437429Y-94023161D01*
X148437434Y-94023159D01*
X148442384Y-94021674D01*
X148642994Y-93923396D01*
X148647199Y-93920396D01*
X148647205Y-93920393D01*
X148762732Y-93837988D01*
X148829805Y-93814715D01*
X148898814Y-93831398D01*
X148947848Y-93882742D01*
X148961900Y-93940567D01*
X148961900Y-97184705D01*
X148941898Y-97252826D01*
X148924995Y-97273800D01*
X147007747Y-99191048D01*
X146999461Y-99198588D01*
X146992982Y-99202700D01*
X146987557Y-99208477D01*
X146946357Y-99252351D01*
X146943602Y-99255193D01*
X146923865Y-99274930D01*
X146921385Y-99278127D01*
X146913682Y-99287147D01*
X146883414Y-99319379D01*
X146879595Y-99326325D01*
X146879593Y-99326328D01*
X146873652Y-99337134D01*
X146862801Y-99353653D01*
X146850386Y-99369659D01*
X146847241Y-99376928D01*
X146847238Y-99376932D01*
X146832826Y-99410237D01*
X146827609Y-99420887D01*
X146806305Y-99459640D01*
X146804334Y-99467316D01*
X146801416Y-99474687D01*
X146800094Y-99474164D01*
X146768148Y-99527837D01*
X146704617Y-99559529D01*
X146682417Y-99561500D01*
X146501866Y-99561500D01*
X146439684Y-99568255D01*
X146303295Y-99619385D01*
X146186739Y-99706739D01*
X146099385Y-99823295D01*
X146048255Y-99959684D01*
X146041500Y-100021866D01*
X146041500Y-101818134D01*
X146048255Y-101880316D01*
X146099385Y-102016705D01*
X146186739Y-102133261D01*
X146303295Y-102220615D01*
X146311704Y-102223767D01*
X146311705Y-102223768D01*
X146420960Y-102264726D01*
X146477725Y-102307367D01*
X146502425Y-102373929D01*
X146487218Y-102443278D01*
X146467825Y-102469759D01*
X146344590Y-102598717D01*
X146338104Y-102606727D01*
X146218098Y-102782649D01*
X146213000Y-102791623D01*
X146123338Y-102984783D01*
X146119775Y-102994470D01*
X146064389Y-103194183D01*
X146065912Y-103202607D01*
X146078292Y-103206000D01*
X148718344Y-103206000D01*
X148731875Y-103202027D01*
X148733180Y-103192947D01*
X148691214Y-103025875D01*
X148687894Y-103016124D01*
X148602972Y-102820814D01*
X148598105Y-102811739D01*
X148482426Y-102632926D01*
X148476461Y-102625179D01*
X162990347Y-102625179D01*
X162997251Y-102638040D01*
X164487190Y-104127980D01*
X164501131Y-104135592D01*
X164502966Y-104135461D01*
X164509580Y-104131210D01*
X166003073Y-102637716D01*
X166009686Y-102625606D01*
X166000857Y-102613986D01*
X165796030Y-102465170D01*
X165789350Y-102460930D01*
X165530766Y-102318772D01*
X165523631Y-102315415D01*
X165249254Y-102206781D01*
X165241763Y-102204347D01*
X164955941Y-102130961D01*
X164948170Y-102129479D01*
X164655430Y-102092497D01*
X164647540Y-102092000D01*
X164352460Y-102092000D01*
X164344570Y-102092497D01*
X164051830Y-102129479D01*
X164044059Y-102130961D01*
X163758237Y-102204347D01*
X163750746Y-102206781D01*
X163476369Y-102315415D01*
X163469234Y-102318772D01*
X163210650Y-102460930D01*
X163203970Y-102465170D01*
X162998770Y-102614256D01*
X162990347Y-102625179D01*
X148476461Y-102625179D01*
X148476136Y-102624757D01*
X148332293Y-102466677D01*
X148301241Y-102402831D01*
X148309635Y-102332333D01*
X148354812Y-102277564D01*
X148381256Y-102263895D01*
X148488297Y-102223767D01*
X148496705Y-102220615D01*
X148613261Y-102133261D01*
X148700615Y-102016705D01*
X148751745Y-101880316D01*
X148758500Y-101818134D01*
X148758500Y-101485851D01*
X157386719Y-101485851D01*
X157403268Y-101682934D01*
X157457783Y-101873050D01*
X157548187Y-102048956D01*
X157671035Y-102203953D01*
X157675728Y-102207947D01*
X157675729Y-102207948D01*
X157750691Y-102271745D01*
X157821650Y-102332136D01*
X157994294Y-102428624D01*
X158182392Y-102489740D01*
X158378777Y-102513158D01*
X158384912Y-102512686D01*
X158384914Y-102512686D01*
X158569830Y-102498457D01*
X158569834Y-102498456D01*
X158575972Y-102497984D01*
X158766463Y-102444798D01*
X158771967Y-102442018D01*
X158771969Y-102442017D01*
X158937495Y-102358404D01*
X158937497Y-102358403D01*
X158942996Y-102355625D01*
X159098847Y-102233861D01*
X159228078Y-102084145D01*
X159325769Y-101912179D01*
X159388197Y-101724513D01*
X159412985Y-101528295D01*
X159413380Y-101500000D01*
X159394080Y-101303167D01*
X159391748Y-101295441D01*
X159338697Y-101119731D01*
X159336916Y-101113831D01*
X159244066Y-100939204D01*
X159169411Y-100847668D01*
X159122960Y-100790713D01*
X159122957Y-100790710D01*
X159119065Y-100785938D01*
X159112724Y-100780692D01*
X158971425Y-100663799D01*
X158971421Y-100663797D01*
X158966675Y-100659870D01*
X158792701Y-100565802D01*
X158603768Y-100507318D01*
X158597643Y-100506674D01*
X158597642Y-100506674D01*
X158413204Y-100487289D01*
X158413202Y-100487289D01*
X158407075Y-100486645D01*
X158324576Y-100494153D01*
X158216251Y-100504011D01*
X158216248Y-100504012D01*
X158210112Y-100504570D01*
X158204206Y-100506308D01*
X158204202Y-100506309D01*
X158099076Y-100537249D01*
X158020381Y-100560410D01*
X158014923Y-100563263D01*
X158014919Y-100563265D01*
X157924147Y-100610720D01*
X157845110Y-100652040D01*
X157690975Y-100775968D01*
X157563846Y-100927474D01*
X157560879Y-100932872D01*
X157560875Y-100932877D01*
X157507385Y-101030176D01*
X157468567Y-101100787D01*
X157466706Y-101106654D01*
X157466705Y-101106656D01*
X157420472Y-101252402D01*
X157408765Y-101289306D01*
X157386719Y-101485851D01*
X148758500Y-101485851D01*
X148758500Y-100021866D01*
X148751745Y-99959684D01*
X148700615Y-99823295D01*
X148613261Y-99706739D01*
X148541269Y-99652784D01*
X148498755Y-99595926D01*
X148493729Y-99525108D01*
X148527740Y-99462864D01*
X149987647Y-98002957D01*
X149995937Y-97995413D01*
X150002418Y-97991300D01*
X150049059Y-97941632D01*
X150051813Y-97938791D01*
X150071534Y-97919070D01*
X150074012Y-97915875D01*
X150081718Y-97906853D01*
X150106558Y-97880401D01*
X150111986Y-97874621D01*
X150121746Y-97856868D01*
X150132599Y-97840345D01*
X150140153Y-97830606D01*
X150145013Y-97824341D01*
X150162576Y-97783757D01*
X150167783Y-97773127D01*
X150189095Y-97734360D01*
X150191066Y-97726683D01*
X150191068Y-97726678D01*
X150194132Y-97714742D01*
X150200538Y-97696030D01*
X150205434Y-97684717D01*
X150208581Y-97677445D01*
X150215497Y-97633781D01*
X150217904Y-97622160D01*
X150226928Y-97587011D01*
X150226928Y-97587010D01*
X150228900Y-97579330D01*
X150228900Y-97559069D01*
X150230451Y-97539358D01*
X150232379Y-97527185D01*
X150233619Y-97519357D01*
X150229459Y-97475346D01*
X150228900Y-97463489D01*
X150228900Y-96268856D01*
X157446601Y-96268856D01*
X157453059Y-96278216D01*
X157469361Y-96292512D01*
X157475901Y-96297530D01*
X157715144Y-96457387D01*
X157722281Y-96461508D01*
X157980349Y-96588772D01*
X157987953Y-96591922D01*
X158260420Y-96684412D01*
X158268383Y-96686546D01*
X158550600Y-96742683D01*
X158558751Y-96743756D01*
X158845881Y-96762575D01*
X158854119Y-96762575D01*
X159141249Y-96743756D01*
X159149400Y-96742683D01*
X159431617Y-96686546D01*
X159439580Y-96684412D01*
X159712047Y-96591922D01*
X159719651Y-96588772D01*
X159977719Y-96461508D01*
X159984856Y-96457387D01*
X160224099Y-96297530D01*
X160230639Y-96292512D01*
X160245074Y-96279853D01*
X160253472Y-96266614D01*
X160247638Y-96256849D01*
X158862810Y-94872020D01*
X158848869Y-94864408D01*
X158847034Y-94864539D01*
X158840420Y-94868790D01*
X157454116Y-96255095D01*
X157446601Y-96268856D01*
X150228900Y-96268856D01*
X150228900Y-94504119D01*
X156587425Y-94504119D01*
X156606244Y-94791249D01*
X156607317Y-94799400D01*
X156663454Y-95081617D01*
X156665588Y-95089580D01*
X156758078Y-95362047D01*
X156761228Y-95369651D01*
X156888492Y-95627718D01*
X156892613Y-95634855D01*
X157052470Y-95874099D01*
X157057488Y-95880639D01*
X157070147Y-95895074D01*
X157083386Y-95903472D01*
X157093151Y-95897638D01*
X158477980Y-94512810D01*
X158484357Y-94501131D01*
X159214408Y-94501131D01*
X159214539Y-94502966D01*
X159218790Y-94509580D01*
X160605095Y-95895884D01*
X160618856Y-95903399D01*
X160628216Y-95896941D01*
X160642512Y-95880639D01*
X160647530Y-95874099D01*
X160807387Y-95634855D01*
X160811508Y-95627718D01*
X160938772Y-95369651D01*
X160941922Y-95362047D01*
X161034412Y-95089580D01*
X161036546Y-95081617D01*
X161092683Y-94799400D01*
X161093756Y-94791249D01*
X161112575Y-94504119D01*
X161112575Y-94495881D01*
X161093756Y-94208751D01*
X161092683Y-94200600D01*
X161036546Y-93918383D01*
X161034412Y-93910420D01*
X160941922Y-93637953D01*
X160938772Y-93630349D01*
X160811508Y-93372282D01*
X160807387Y-93365145D01*
X160647530Y-93125901D01*
X160642512Y-93119361D01*
X160629853Y-93104926D01*
X160616614Y-93096528D01*
X160606849Y-93102362D01*
X159222020Y-94487190D01*
X159214408Y-94501131D01*
X158484357Y-94501131D01*
X158485592Y-94498869D01*
X158485461Y-94497034D01*
X158481210Y-94490420D01*
X157094905Y-93104116D01*
X157081144Y-93096601D01*
X157071784Y-93103059D01*
X157057488Y-93119361D01*
X157052470Y-93125901D01*
X156892613Y-93365145D01*
X156888492Y-93372282D01*
X156761228Y-93630349D01*
X156758078Y-93637953D01*
X156665588Y-93910420D01*
X156663454Y-93918383D01*
X156607317Y-94200600D01*
X156606244Y-94208751D01*
X156587425Y-94495881D01*
X156587425Y-94504119D01*
X150228900Y-94504119D01*
X150228900Y-92733386D01*
X157446528Y-92733386D01*
X157452362Y-92743151D01*
X158837190Y-94127980D01*
X158851131Y-94135592D01*
X158852966Y-94135461D01*
X158859580Y-94131210D01*
X160245884Y-92744905D01*
X160253399Y-92731144D01*
X160246941Y-92721784D01*
X160230639Y-92707488D01*
X160224099Y-92702470D01*
X159984856Y-92542613D01*
X159977719Y-92538492D01*
X159719651Y-92411228D01*
X159712047Y-92408078D01*
X159439580Y-92315588D01*
X159431617Y-92313454D01*
X159149400Y-92257317D01*
X159141249Y-92256244D01*
X158854119Y-92237425D01*
X158845881Y-92237425D01*
X158558751Y-92256244D01*
X158550600Y-92257317D01*
X158268383Y-92313454D01*
X158260420Y-92315588D01*
X157987953Y-92408078D01*
X157980349Y-92411228D01*
X157722282Y-92538492D01*
X157715145Y-92542613D01*
X157475901Y-92702470D01*
X157469361Y-92707488D01*
X157454926Y-92720147D01*
X157446528Y-92733386D01*
X150228900Y-92733386D01*
X150228900Y-88648856D01*
X157446601Y-88648856D01*
X157453059Y-88658216D01*
X157469361Y-88672512D01*
X157475901Y-88677530D01*
X157715144Y-88837387D01*
X157722281Y-88841508D01*
X157980349Y-88968772D01*
X157987953Y-88971922D01*
X158260420Y-89064412D01*
X158268383Y-89066546D01*
X158550600Y-89122683D01*
X158558751Y-89123756D01*
X158845881Y-89142575D01*
X158854119Y-89142575D01*
X159141249Y-89123756D01*
X159149400Y-89122683D01*
X159431617Y-89066546D01*
X159439580Y-89064412D01*
X159712047Y-88971922D01*
X159719651Y-88968772D01*
X159977719Y-88841508D01*
X159984856Y-88837387D01*
X160224099Y-88677530D01*
X160230639Y-88672512D01*
X160245074Y-88659853D01*
X160253472Y-88646614D01*
X160247638Y-88636849D01*
X158862810Y-87252020D01*
X158848869Y-87244408D01*
X158847034Y-87244539D01*
X158840420Y-87248790D01*
X157454116Y-88635095D01*
X157446601Y-88648856D01*
X150228900Y-88648856D01*
X150228900Y-86884119D01*
X156587425Y-86884119D01*
X156606244Y-87171249D01*
X156607317Y-87179400D01*
X156663454Y-87461617D01*
X156665588Y-87469580D01*
X156758078Y-87742047D01*
X156761228Y-87749651D01*
X156888492Y-88007718D01*
X156892613Y-88014855D01*
X157052470Y-88254099D01*
X157057488Y-88260639D01*
X157070147Y-88275074D01*
X157083386Y-88283472D01*
X157093151Y-88277638D01*
X158477980Y-86892810D01*
X158484357Y-86881131D01*
X159214408Y-86881131D01*
X159214539Y-86882966D01*
X159218790Y-86889580D01*
X160605095Y-88275884D01*
X160618856Y-88283399D01*
X160628216Y-88276941D01*
X160642512Y-88260639D01*
X160647530Y-88254099D01*
X160807387Y-88014855D01*
X160811508Y-88007718D01*
X160938772Y-87749651D01*
X160941922Y-87742047D01*
X161034412Y-87469580D01*
X161036546Y-87461617D01*
X161092683Y-87179400D01*
X161093756Y-87171249D01*
X161112575Y-86884119D01*
X161112575Y-86875881D01*
X161093756Y-86588751D01*
X161092683Y-86580600D01*
X161036546Y-86298383D01*
X161034412Y-86290420D01*
X160941922Y-86017953D01*
X160938772Y-86010349D01*
X160811508Y-85752282D01*
X160807387Y-85745145D01*
X160647530Y-85505901D01*
X160642512Y-85499361D01*
X160629853Y-85484926D01*
X160616614Y-85476528D01*
X160606849Y-85482362D01*
X159222020Y-86867190D01*
X159214408Y-86881131D01*
X158484357Y-86881131D01*
X158485592Y-86878869D01*
X158485461Y-86877034D01*
X158481210Y-86870420D01*
X157094905Y-85484116D01*
X157081144Y-85476601D01*
X157071784Y-85483059D01*
X157057488Y-85499361D01*
X157052470Y-85505901D01*
X156892613Y-85745145D01*
X156888492Y-85752282D01*
X156761228Y-86010349D01*
X156758078Y-86017953D01*
X156665588Y-86290420D01*
X156663454Y-86298383D01*
X156607317Y-86580600D01*
X156606244Y-86588751D01*
X156587425Y-86875881D01*
X156587425Y-86884119D01*
X150228900Y-86884119D01*
X150228900Y-85113386D01*
X157446528Y-85113386D01*
X157452362Y-85123151D01*
X158837190Y-86507980D01*
X158851131Y-86515592D01*
X158852966Y-86515461D01*
X158859580Y-86511210D01*
X160245884Y-85124905D01*
X160253399Y-85111144D01*
X160246941Y-85101784D01*
X160230639Y-85087488D01*
X160224099Y-85082470D01*
X159984856Y-84922613D01*
X159977719Y-84918492D01*
X159719651Y-84791228D01*
X159712047Y-84788078D01*
X159439580Y-84695588D01*
X159431617Y-84693454D01*
X159149400Y-84637317D01*
X159141249Y-84636244D01*
X158854119Y-84617425D01*
X158845881Y-84617425D01*
X158558751Y-84636244D01*
X158550600Y-84637317D01*
X158268383Y-84693454D01*
X158260420Y-84695588D01*
X157987953Y-84788078D01*
X157980349Y-84791228D01*
X157722282Y-84918492D01*
X157715145Y-84922613D01*
X157475901Y-85082470D01*
X157469361Y-85087488D01*
X157454926Y-85100147D01*
X157446528Y-85113386D01*
X150228900Y-85113386D01*
X150228900Y-85069194D01*
X150248902Y-85001073D01*
X150265805Y-84980099D01*
X157699664Y-77546241D01*
X157761976Y-77512215D01*
X157832791Y-77517280D01*
X157844479Y-77522326D01*
X157909176Y-77554231D01*
X157980151Y-77589233D01*
X157980156Y-77589235D01*
X157983855Y-77591059D01*
X157987769Y-77592388D01*
X157987770Y-77592388D01*
X158260290Y-77684896D01*
X158260294Y-77684897D01*
X158264203Y-77686224D01*
X158268247Y-77687028D01*
X158268253Y-77687030D01*
X158550535Y-77743180D01*
X158550541Y-77743181D01*
X158554574Y-77743983D01*
X158558679Y-77744252D01*
X158558686Y-77744253D01*
X158845881Y-77763076D01*
X158850000Y-77763346D01*
X158854119Y-77763076D01*
X159141314Y-77744253D01*
X159141321Y-77744252D01*
X159145426Y-77743983D01*
X159149459Y-77743181D01*
X159149465Y-77743180D01*
X159431747Y-77687030D01*
X159431753Y-77687028D01*
X159435797Y-77686224D01*
X159439706Y-77684897D01*
X159439710Y-77684896D01*
X159712239Y-77592385D01*
X159712240Y-77592384D01*
X159716145Y-77591059D01*
X159865754Y-77517280D01*
X159977969Y-77461942D01*
X159977974Y-77461939D01*
X159981673Y-77460115D01*
X160046948Y-77416500D01*
X160224407Y-77297926D01*
X160224412Y-77297922D01*
X160227838Y-77295633D01*
X160230932Y-77292919D01*
X160230938Y-77292915D01*
X160447338Y-77103136D01*
X160450427Y-77100427D01*
X160515368Y-77026376D01*
X160642915Y-76880938D01*
X160642919Y-76880932D01*
X160645633Y-76877838D01*
X160686051Y-76817349D01*
X160807821Y-76635106D01*
X160810115Y-76631673D01*
X160823750Y-76604025D01*
X160915384Y-76418209D01*
X160941059Y-76366145D01*
X160979724Y-76252241D01*
X161034896Y-76089710D01*
X161034897Y-76089706D01*
X161036224Y-76085797D01*
X161037030Y-76081747D01*
X161093180Y-75799465D01*
X161093181Y-75799459D01*
X161093983Y-75795426D01*
X161094742Y-75783855D01*
X161113076Y-75504119D01*
X161113346Y-75500000D01*
X161105700Y-75383346D01*
X161094253Y-75208686D01*
X161094252Y-75208679D01*
X161093983Y-75204574D01*
X161070781Y-75087928D01*
X161037030Y-74918253D01*
X161037028Y-74918247D01*
X161036224Y-74914203D01*
X161033748Y-74906907D01*
X160942385Y-74637761D01*
X160942384Y-74637760D01*
X160941059Y-74633855D01*
X160843012Y-74435036D01*
X160811942Y-74372031D01*
X160811939Y-74372026D01*
X160810115Y-74368327D01*
X160733218Y-74253242D01*
X160647926Y-74125593D01*
X160647922Y-74125588D01*
X160645633Y-74122162D01*
X160642919Y-74119068D01*
X160642915Y-74119062D01*
X160453136Y-73902662D01*
X160450427Y-73899573D01*
X160233931Y-73709710D01*
X160230938Y-73707085D01*
X160230932Y-73707081D01*
X160227838Y-73704367D01*
X160224412Y-73702078D01*
X160224407Y-73702074D01*
X159985106Y-73542179D01*
X159981673Y-73539885D01*
X159977974Y-73538061D01*
X159977969Y-73538058D01*
X159774722Y-73437828D01*
X159716145Y-73408941D01*
X159568999Y-73358992D01*
X159510923Y-73318155D01*
X159484144Y-73252402D01*
X159483500Y-73239679D01*
X159483500Y-70140321D01*
X159503502Y-70072200D01*
X159557158Y-70025707D01*
X159568999Y-70021008D01*
X159712239Y-69972385D01*
X159712240Y-69972384D01*
X159716145Y-69971059D01*
X159907452Y-69876717D01*
X159977969Y-69841942D01*
X159977974Y-69841939D01*
X159981673Y-69840115D01*
X160047742Y-69795969D01*
X160224407Y-69677926D01*
X160224412Y-69677922D01*
X160227838Y-69675633D01*
X160230932Y-69672919D01*
X160230938Y-69672915D01*
X160447338Y-69483136D01*
X160450427Y-69480427D01*
X160505093Y-69418093D01*
X160642915Y-69260938D01*
X160642919Y-69260932D01*
X160645633Y-69257838D01*
X160692918Y-69187072D01*
X160807821Y-69015106D01*
X160810115Y-69011673D01*
X160941059Y-68746145D01*
X161036224Y-68465797D01*
X161051878Y-68387100D01*
X161093180Y-68179465D01*
X161093181Y-68179459D01*
X161093983Y-68175426D01*
X161098039Y-68113554D01*
X161113076Y-67884119D01*
X161113346Y-67880000D01*
X161108206Y-67801581D01*
X161094253Y-67588686D01*
X161094252Y-67588679D01*
X161093983Y-67584574D01*
X161069227Y-67460115D01*
X161037030Y-67298253D01*
X161037028Y-67298247D01*
X161036224Y-67294203D01*
X160941059Y-67013855D01*
X160810115Y-66748327D01*
X160734463Y-66635106D01*
X160647926Y-66505593D01*
X160647922Y-66505588D01*
X160645633Y-66502162D01*
X160642919Y-66499068D01*
X160642915Y-66499062D01*
X160453136Y-66282662D01*
X160450427Y-66279573D01*
X160401648Y-66236795D01*
X160230938Y-66087085D01*
X160230932Y-66087081D01*
X160227838Y-66084367D01*
X160224412Y-66082078D01*
X160224407Y-66082074D01*
X160008268Y-65937655D01*
X159981673Y-65919885D01*
X159977974Y-65918061D01*
X159977969Y-65918058D01*
X159841687Y-65850852D01*
X159716145Y-65788941D01*
X159712239Y-65787615D01*
X159439710Y-65695104D01*
X159439706Y-65695103D01*
X159435797Y-65693776D01*
X159431753Y-65692972D01*
X159431747Y-65692970D01*
X159149465Y-65636820D01*
X159149459Y-65636819D01*
X159145426Y-65636017D01*
X159141321Y-65635748D01*
X159141314Y-65635747D01*
X158854119Y-65616924D01*
X158850000Y-65616654D01*
X158845881Y-65616924D01*
X158558686Y-65635747D01*
X158558679Y-65635748D01*
X158554574Y-65636017D01*
X158550541Y-65636819D01*
X158550535Y-65636820D01*
X158268253Y-65692970D01*
X158268247Y-65692972D01*
X158264203Y-65693776D01*
X158260294Y-65695103D01*
X158260290Y-65695104D01*
X157987761Y-65787615D01*
X157983855Y-65788941D01*
X157858313Y-65850852D01*
X157722031Y-65918058D01*
X157722026Y-65918061D01*
X157718327Y-65919885D01*
X157691732Y-65937655D01*
X157475593Y-66082074D01*
X157475588Y-66082078D01*
X157472162Y-66084367D01*
X157469068Y-66087081D01*
X157469062Y-66087085D01*
X157298352Y-66236795D01*
X157249573Y-66279573D01*
X157246864Y-66282662D01*
X157057085Y-66499062D01*
X157057081Y-66499068D01*
X157054367Y-66502162D01*
X157052078Y-66505588D01*
X157052074Y-66505593D01*
X156965537Y-66635106D01*
X156889885Y-66748327D01*
X156758941Y-67013855D01*
X156663776Y-67294203D01*
X156662972Y-67298247D01*
X156662970Y-67298253D01*
X156630774Y-67460115D01*
X156606017Y-67584574D01*
X156605748Y-67588679D01*
X156605747Y-67588686D01*
X156591794Y-67801581D01*
X156586654Y-67880000D01*
X156586924Y-67884119D01*
X156601962Y-68113554D01*
X156606017Y-68175426D01*
X156606819Y-68179459D01*
X156606820Y-68179465D01*
X156648122Y-68387100D01*
X156663776Y-68465797D01*
X156758941Y-68746145D01*
X156889885Y-69011673D01*
X156892179Y-69015106D01*
X157007083Y-69187072D01*
X157054367Y-69257838D01*
X157057081Y-69260932D01*
X157057085Y-69260938D01*
X157194907Y-69418093D01*
X157249573Y-69480427D01*
X157252662Y-69483136D01*
X157469062Y-69672915D01*
X157469068Y-69672919D01*
X157472162Y-69675633D01*
X157475588Y-69677922D01*
X157475593Y-69677926D01*
X157652258Y-69795969D01*
X157718327Y-69840115D01*
X157722026Y-69841939D01*
X157722031Y-69841942D01*
X157792548Y-69876717D01*
X157983855Y-69971059D01*
X157987760Y-69972384D01*
X157987761Y-69972385D01*
X158131001Y-70021008D01*
X158189077Y-70061845D01*
X158215856Y-70127598D01*
X158216500Y-70140321D01*
X158216500Y-73239679D01*
X158196498Y-73307800D01*
X158142842Y-73354293D01*
X158131003Y-73358991D01*
X157983855Y-73408941D01*
X157925278Y-73437828D01*
X157722031Y-73538058D01*
X157722026Y-73538061D01*
X157718327Y-73539885D01*
X157714894Y-73542179D01*
X157475593Y-73702074D01*
X157475588Y-73702078D01*
X157472162Y-73704367D01*
X157469068Y-73707081D01*
X157469062Y-73707085D01*
X157466069Y-73709710D01*
X157249573Y-73899573D01*
X157246864Y-73902662D01*
X157057085Y-74119062D01*
X157057081Y-74119068D01*
X157054367Y-74122162D01*
X157052078Y-74125588D01*
X157052074Y-74125593D01*
X156966782Y-74253242D01*
X156889885Y-74368327D01*
X156888061Y-74372026D01*
X156888058Y-74372031D01*
X156856988Y-74435036D01*
X156758941Y-74633855D01*
X156757616Y-74637760D01*
X156757615Y-74637761D01*
X156666253Y-74906907D01*
X156663776Y-74914203D01*
X156662972Y-74918247D01*
X156662970Y-74918253D01*
X156629220Y-75087928D01*
X156606017Y-75204574D01*
X156605748Y-75208679D01*
X156605747Y-75208686D01*
X156594300Y-75383346D01*
X156586654Y-75500000D01*
X156586924Y-75504119D01*
X156605259Y-75783855D01*
X156606017Y-75795426D01*
X156606819Y-75799459D01*
X156606820Y-75799465D01*
X156662970Y-76081747D01*
X156663776Y-76085797D01*
X156665103Y-76089706D01*
X156665104Y-76089710D01*
X156720276Y-76252241D01*
X156758941Y-76366145D01*
X156784616Y-76418209D01*
X156827670Y-76505514D01*
X156839860Y-76575456D01*
X156812301Y-76640886D01*
X156803759Y-76650337D01*
X152974581Y-80479514D01*
X149203147Y-84250948D01*
X149194861Y-84258488D01*
X149188382Y-84262600D01*
X149182957Y-84268377D01*
X149141757Y-84312251D01*
X149139002Y-84315093D01*
X149119265Y-84334830D01*
X149116785Y-84338027D01*
X149109082Y-84347047D01*
X149078814Y-84379279D01*
X149074995Y-84386225D01*
X149074993Y-84386228D01*
X149069052Y-84397034D01*
X149058201Y-84413553D01*
X149045786Y-84429559D01*
X149042641Y-84436828D01*
X149042638Y-84436832D01*
X149028226Y-84470137D01*
X149023009Y-84480787D01*
X149001705Y-84519540D01*
X148999734Y-84527215D01*
X148999734Y-84527216D01*
X148996667Y-84539162D01*
X148990263Y-84557866D01*
X148982219Y-84576455D01*
X148980980Y-84584278D01*
X148980977Y-84584288D01*
X148975301Y-84620124D01*
X148972895Y-84631744D01*
X148966409Y-84657009D01*
X148961900Y-84674570D01*
X148961900Y-84694824D01*
X148960349Y-84714534D01*
X148957180Y-84734543D01*
X148957926Y-84742435D01*
X148961341Y-84778561D01*
X148961900Y-84790419D01*
X148961900Y-88728000D01*
X148941898Y-88796121D01*
X148888242Y-88842614D01*
X148835900Y-88854000D01*
X148704500Y-88854000D01*
X148636379Y-88833998D01*
X148589886Y-88780342D01*
X148578500Y-88728000D01*
X148578500Y-79434768D01*
X148579027Y-79423585D01*
X148580702Y-79416092D01*
X148580134Y-79398000D01*
X148578562Y-79348002D01*
X148578500Y-79344044D01*
X148578500Y-79316144D01*
X148577996Y-79312153D01*
X148577063Y-79300311D01*
X148575923Y-79264036D01*
X148575674Y-79256111D01*
X148570021Y-79236652D01*
X148566012Y-79217293D01*
X148564946Y-79208855D01*
X148563474Y-79197203D01*
X148560558Y-79189837D01*
X148560556Y-79189831D01*
X148547200Y-79156098D01*
X148543355Y-79144868D01*
X148533230Y-79110017D01*
X148533230Y-79110016D01*
X148531019Y-79102407D01*
X148520705Y-79084966D01*
X148512008Y-79067213D01*
X148507472Y-79055758D01*
X148504552Y-79048383D01*
X148478563Y-79012612D01*
X148472047Y-79002692D01*
X148449542Y-78964638D01*
X148435221Y-78950317D01*
X148422380Y-78935283D01*
X148415131Y-78925306D01*
X148410472Y-78918893D01*
X148376395Y-78890702D01*
X148367616Y-78882712D01*
X147352752Y-77867847D01*
X147345212Y-77859561D01*
X147341100Y-77853082D01*
X147291448Y-77806456D01*
X147288607Y-77803702D01*
X147268870Y-77783965D01*
X147265673Y-77781485D01*
X147256651Y-77773780D01*
X147245464Y-77763275D01*
X147224421Y-77743514D01*
X147217475Y-77739695D01*
X147217472Y-77739693D01*
X147206666Y-77733752D01*
X147190147Y-77722901D01*
X147189683Y-77722541D01*
X147174141Y-77710486D01*
X147166872Y-77707341D01*
X147166868Y-77707338D01*
X147133563Y-77692926D01*
X147122913Y-77687709D01*
X147084160Y-77666405D01*
X147064537Y-77661367D01*
X147045834Y-77654963D01*
X147034520Y-77650067D01*
X147034519Y-77650067D01*
X147027245Y-77646919D01*
X147019422Y-77645680D01*
X147019412Y-77645677D01*
X146983576Y-77640001D01*
X146971956Y-77637595D01*
X146936811Y-77628572D01*
X146936810Y-77628572D01*
X146929130Y-77626600D01*
X146908876Y-77626600D01*
X146889165Y-77625049D01*
X146876986Y-77623120D01*
X146869157Y-77621880D01*
X146839886Y-77624647D01*
X146825139Y-77626041D01*
X146813281Y-77626600D01*
X144559968Y-77626600D01*
X144548785Y-77626073D01*
X144541292Y-77624398D01*
X144533366Y-77624647D01*
X144533365Y-77624647D01*
X144473202Y-77626538D01*
X144469244Y-77626600D01*
X144441344Y-77626600D01*
X144437354Y-77627104D01*
X144425520Y-77628036D01*
X144381311Y-77629426D01*
X144373695Y-77631639D01*
X144373693Y-77631639D01*
X144361852Y-77635079D01*
X144342493Y-77639088D01*
X144341183Y-77639254D01*
X144322403Y-77641626D01*
X144315037Y-77644542D01*
X144315031Y-77644544D01*
X144281298Y-77657900D01*
X144270068Y-77661745D01*
X144254028Y-77666405D01*
X144227607Y-77674081D01*
X144220784Y-77678116D01*
X144210166Y-77684395D01*
X144192413Y-77693092D01*
X144184768Y-77696119D01*
X144173583Y-77700548D01*
X144159905Y-77710486D01*
X144137812Y-77726537D01*
X144127895Y-77733051D01*
X144089838Y-77755558D01*
X144075517Y-77769879D01*
X144060484Y-77782719D01*
X144044093Y-77794628D01*
X144035417Y-77805116D01*
X144015902Y-77828705D01*
X144007912Y-77837484D01*
X142459047Y-79386348D01*
X142450761Y-79393888D01*
X142444282Y-79398000D01*
X142438857Y-79403777D01*
X142397657Y-79447651D01*
X142394902Y-79450493D01*
X142375165Y-79470230D01*
X142372685Y-79473427D01*
X142364982Y-79482447D01*
X142334714Y-79514679D01*
X142330895Y-79521625D01*
X142330893Y-79521628D01*
X142324952Y-79532434D01*
X142314101Y-79548953D01*
X142301686Y-79564959D01*
X142298541Y-79572228D01*
X142298538Y-79572232D01*
X142284126Y-79605537D01*
X142278909Y-79616187D01*
X142257605Y-79654940D01*
X142255634Y-79662615D01*
X142255634Y-79662616D01*
X142252567Y-79674562D01*
X142246163Y-79693266D01*
X142238119Y-79711855D01*
X142236880Y-79719678D01*
X142236877Y-79719688D01*
X142231201Y-79755524D01*
X142228795Y-79767144D01*
X142217800Y-79809970D01*
X142217800Y-79830224D01*
X142216249Y-79849934D01*
X142213080Y-79869943D01*
X142213826Y-79877835D01*
X142217241Y-79913961D01*
X142217800Y-79925819D01*
X142217800Y-83936764D01*
X142197798Y-84004885D01*
X142144142Y-84051378D01*
X142073868Y-84061482D01*
X142018583Y-84037740D01*
X142018303Y-84038195D01*
X142015227Y-84036299D01*
X141986782Y-84018765D01*
X141873968Y-83949225D01*
X141873966Y-83949224D01*
X141867738Y-83945385D01*
X141779093Y-83915983D01*
X141706389Y-83891868D01*
X141706387Y-83891868D01*
X141699861Y-83889703D01*
X141693025Y-83889003D01*
X141693022Y-83889002D01*
X141649969Y-83884591D01*
X141595400Y-83879000D01*
X140594600Y-83879000D01*
X140591354Y-83879337D01*
X140591350Y-83879337D01*
X140495692Y-83889262D01*
X140495688Y-83889263D01*
X140488834Y-83889974D01*
X140482298Y-83892155D01*
X140482296Y-83892155D01*
X140403682Y-83918383D01*
X140321054Y-83945950D01*
X140170652Y-84039022D01*
X140165479Y-84044204D01*
X140155543Y-84054157D01*
X140045695Y-84164197D01*
X140041855Y-84170427D01*
X140041854Y-84170428D01*
X139992221Y-84250948D01*
X139952885Y-84314762D01*
X139950581Y-84321709D01*
X139901350Y-84470137D01*
X139897203Y-84482639D01*
X139896503Y-84489475D01*
X139896502Y-84489478D01*
X139894133Y-84512599D01*
X139886500Y-84587100D01*
X139886500Y-85247905D01*
X139866498Y-85316026D01*
X139849595Y-85337000D01*
X138769500Y-86417095D01*
X138707188Y-86451121D01*
X138680405Y-86454000D01*
X138281781Y-86454000D01*
X138213660Y-86433998D01*
X138174637Y-86394303D01*
X138097332Y-86269380D01*
X138093478Y-86263152D01*
X138006891Y-86176716D01*
X137972812Y-86114434D01*
X137977815Y-86043614D01*
X138006736Y-85998525D01*
X138089134Y-85915983D01*
X138094305Y-85910803D01*
X138109597Y-85885995D01*
X138183275Y-85766468D01*
X138183276Y-85766466D01*
X138187115Y-85760238D01*
X138227410Y-85638753D01*
X138240632Y-85598889D01*
X138240632Y-85598887D01*
X138242797Y-85592361D01*
X138244082Y-85579825D01*
X138251237Y-85509983D01*
X138253500Y-85487900D01*
X138253500Y-84687100D01*
X138248335Y-84637317D01*
X138243238Y-84588192D01*
X138243237Y-84588188D01*
X138242526Y-84581334D01*
X138234697Y-84557866D01*
X138188867Y-84420499D01*
X138186550Y-84413554D01*
X138184443Y-84410150D01*
X138173864Y-84341328D01*
X138202727Y-84276463D01*
X138209655Y-84268950D01*
X139027500Y-83451105D01*
X139089812Y-83417079D01*
X139116595Y-83414200D01*
X139172487Y-83414200D01*
X139178939Y-83412828D01*
X139178944Y-83412828D01*
X139265887Y-83394347D01*
X139359288Y-83374494D01*
X139365319Y-83371809D01*
X139527722Y-83299503D01*
X139527724Y-83299502D01*
X139533752Y-83296818D01*
X139688253Y-83184566D01*
X139759961Y-83104926D01*
X139811621Y-83047552D01*
X139811622Y-83047551D01*
X139816040Y-83042644D01*
X139911527Y-82877256D01*
X139970542Y-82695628D01*
X139990504Y-82505700D01*
X139977598Y-82382905D01*
X139971232Y-82322335D01*
X139971232Y-82322333D01*
X139970542Y-82315772D01*
X139911527Y-82134144D01*
X139902260Y-82118092D01*
X139863825Y-82051522D01*
X139816040Y-81968756D01*
X139788138Y-81937767D01*
X139692675Y-81831745D01*
X139692674Y-81831744D01*
X139688253Y-81826834D01*
X139533752Y-81714582D01*
X139527724Y-81711898D01*
X139527722Y-81711897D01*
X139365319Y-81639591D01*
X139365318Y-81639591D01*
X139359288Y-81636906D01*
X139265888Y-81617053D01*
X139178944Y-81598572D01*
X139178939Y-81598572D01*
X139172487Y-81597200D01*
X138981513Y-81597200D01*
X138975061Y-81598572D01*
X138975056Y-81598572D01*
X138888112Y-81617053D01*
X138794712Y-81636906D01*
X138788682Y-81639591D01*
X138788681Y-81639591D01*
X138626278Y-81711897D01*
X138626276Y-81711898D01*
X138620248Y-81714582D01*
X138465747Y-81826834D01*
X138461326Y-81831744D01*
X138461325Y-81831745D01*
X138365863Y-81937767D01*
X138337960Y-81968756D01*
X138290175Y-82051522D01*
X138251741Y-82118092D01*
X138242473Y-82134144D01*
X138183458Y-82315772D01*
X138182768Y-82322333D01*
X138182768Y-82322335D01*
X138176402Y-82382905D01*
X138168447Y-82458599D01*
X138166093Y-82480993D01*
X138139080Y-82546650D01*
X138129878Y-82556918D01*
X136744700Y-83942095D01*
X136682388Y-83976121D01*
X136655605Y-83979000D01*
X136544600Y-83979000D01*
X136541354Y-83979337D01*
X136541350Y-83979337D01*
X136445692Y-83989262D01*
X136445688Y-83989263D01*
X136438834Y-83989974D01*
X136432298Y-83992155D01*
X136432296Y-83992155D01*
X136404385Y-84001467D01*
X136271054Y-84045950D01*
X136120652Y-84139022D01*
X135995695Y-84264197D01*
X135991855Y-84270427D01*
X135991854Y-84270428D01*
X135920474Y-84386228D01*
X135902885Y-84414762D01*
X135897977Y-84429559D01*
X135861624Y-84539162D01*
X135847203Y-84582639D01*
X135846503Y-84589475D01*
X135846502Y-84589478D01*
X135839583Y-84657009D01*
X135812742Y-84722736D01*
X135803334Y-84733261D01*
X134144500Y-86392095D01*
X134082188Y-86426121D01*
X134055405Y-86429000D01*
X133394600Y-86429000D01*
X133391354Y-86429337D01*
X133391350Y-86429337D01*
X133295692Y-86439262D01*
X133295688Y-86439263D01*
X133288834Y-86439974D01*
X133282298Y-86442155D01*
X133282296Y-86442155D01*
X133255422Y-86451121D01*
X133121054Y-86495950D01*
X132970652Y-86589022D01*
X132845695Y-86714197D01*
X132841855Y-86720427D01*
X132841854Y-86720428D01*
X132800754Y-86787105D01*
X132752885Y-86864762D01*
X132750581Y-86871709D01*
X132705257Y-87008358D01*
X132697203Y-87032639D01*
X132696503Y-87039475D01*
X132696502Y-87039478D01*
X132692841Y-87075208D01*
X132686500Y-87137100D01*
X132686500Y-87937900D01*
X132686837Y-87941146D01*
X132686837Y-87941150D01*
X132696255Y-88031919D01*
X132697474Y-88043666D01*
X132699655Y-88050202D01*
X132699655Y-88050204D01*
X132738682Y-88167181D01*
X132753450Y-88211446D01*
X132846522Y-88361848D01*
X132918521Y-88433721D01*
X132933109Y-88448284D01*
X132967188Y-88510566D01*
X132962185Y-88581386D01*
X132933264Y-88626475D01*
X132899944Y-88659853D01*
X132845695Y-88714197D01*
X132752885Y-88864762D01*
X132697663Y-89031252D01*
X132697662Y-89031254D01*
X132697230Y-89032557D01*
X132697203Y-89032639D01*
X132696956Y-89032557D01*
X132664822Y-89091828D01*
X132602612Y-89126040D01*
X132575460Y-89129000D01*
X132121731Y-89129000D01*
X132053610Y-89108998D01*
X132018518Y-89075270D01*
X131944681Y-88969819D01*
X131792681Y-88817819D01*
X131616597Y-88694524D01*
X131611619Y-88692203D01*
X131611616Y-88692201D01*
X131426759Y-88606001D01*
X131426758Y-88606000D01*
X131421777Y-88603678D01*
X131416469Y-88602256D01*
X131416467Y-88602255D01*
X131219457Y-88549466D01*
X131219455Y-88549466D01*
X131214142Y-88548042D01*
X131000000Y-88529307D01*
X130785858Y-88548042D01*
X130780545Y-88549466D01*
X130780543Y-88549466D01*
X130583533Y-88602255D01*
X130583531Y-88602256D01*
X130578223Y-88603678D01*
X130573243Y-88606000D01*
X130573241Y-88606001D01*
X130388385Y-88692201D01*
X130388382Y-88692203D01*
X130383404Y-88694524D01*
X130207319Y-88817819D01*
X130055319Y-88969819D01*
X129932024Y-89145904D01*
X129841178Y-89340723D01*
X129785542Y-89548358D01*
X129766807Y-89762500D01*
X127153193Y-89762500D01*
X127134458Y-89548358D01*
X127131221Y-89536276D01*
X127132911Y-89465300D01*
X127163833Y-89414571D01*
X128112071Y-88466333D01*
X128174383Y-88432307D01*
X128233776Y-88433721D01*
X128239996Y-88435387D01*
X128245858Y-88436958D01*
X128460000Y-88455693D01*
X128674142Y-88436958D01*
X128679455Y-88435534D01*
X128679457Y-88435534D01*
X128876467Y-88382745D01*
X128876469Y-88382744D01*
X128881777Y-88381322D01*
X128914672Y-88365983D01*
X129071616Y-88292799D01*
X129071619Y-88292797D01*
X129076597Y-88290476D01*
X129252681Y-88167181D01*
X129404681Y-88015181D01*
X129478518Y-87909730D01*
X129533975Y-87865401D01*
X129581731Y-87856000D01*
X130030533Y-87856000D01*
X130041716Y-87856527D01*
X130049209Y-87858202D01*
X130057135Y-87857953D01*
X130057136Y-87857953D01*
X130117286Y-87856062D01*
X130121245Y-87856000D01*
X130149156Y-87856000D01*
X130153091Y-87855503D01*
X130153156Y-87855495D01*
X130164993Y-87854562D01*
X130197251Y-87853548D01*
X130201270Y-87853422D01*
X130209189Y-87853173D01*
X130228643Y-87847521D01*
X130248000Y-87843513D01*
X130260230Y-87841968D01*
X130260231Y-87841968D01*
X130268097Y-87840974D01*
X130275468Y-87838055D01*
X130275470Y-87838055D01*
X130309212Y-87824696D01*
X130320442Y-87820851D01*
X130355283Y-87810729D01*
X130355284Y-87810729D01*
X130362893Y-87808518D01*
X130369712Y-87804485D01*
X130369717Y-87804483D01*
X130380328Y-87798207D01*
X130398076Y-87789512D01*
X130416917Y-87782052D01*
X130452687Y-87756064D01*
X130462607Y-87749548D01*
X130493835Y-87731080D01*
X130493838Y-87731078D01*
X130500662Y-87727042D01*
X130514983Y-87712721D01*
X130530017Y-87699880D01*
X130539994Y-87692631D01*
X130546407Y-87687972D01*
X130574598Y-87653895D01*
X130582588Y-87645116D01*
X134173547Y-84054157D01*
X134181837Y-84046613D01*
X134188318Y-84042500D01*
X134234959Y-83992832D01*
X134237713Y-83989991D01*
X134257434Y-83970270D01*
X134259912Y-83967075D01*
X134267618Y-83958053D01*
X134276406Y-83948695D01*
X134297886Y-83925821D01*
X134307646Y-83908068D01*
X134318499Y-83891545D01*
X134320270Y-83889262D01*
X134330913Y-83875541D01*
X134348476Y-83834957D01*
X134353683Y-83824327D01*
X134374995Y-83785560D01*
X134376966Y-83777883D01*
X134376968Y-83777878D01*
X134380032Y-83765942D01*
X134386438Y-83747230D01*
X134391333Y-83735919D01*
X134394481Y-83728645D01*
X134395721Y-83720817D01*
X134395723Y-83720810D01*
X134401399Y-83684976D01*
X134403805Y-83673356D01*
X134412828Y-83638211D01*
X134412828Y-83638210D01*
X134414800Y-83630530D01*
X134414800Y-83610276D01*
X134416351Y-83590565D01*
X134418280Y-83578386D01*
X134419520Y-83570557D01*
X134415359Y-83526538D01*
X134414800Y-83514681D01*
X134414800Y-82252563D01*
X134415327Y-82241379D01*
X134417001Y-82233891D01*
X134414862Y-82165832D01*
X134414800Y-82161875D01*
X134414800Y-82133944D01*
X134414294Y-82129938D01*
X134413361Y-82118092D01*
X134412222Y-82081837D01*
X134411973Y-82073910D01*
X134406322Y-82054458D01*
X134402314Y-82035106D01*
X134400768Y-82022868D01*
X134400767Y-82022866D01*
X134399774Y-82015003D01*
X134396855Y-82007631D01*
X134394884Y-81999955D01*
X134396369Y-81999574D01*
X134390700Y-81937767D01*
X134423467Y-81874784D01*
X134485083Y-81839515D01*
X134555986Y-81843157D01*
X134586603Y-81858859D01*
X134609347Y-81874784D01*
X134638251Y-81895023D01*
X134643233Y-81897346D01*
X134643238Y-81897349D01*
X134840775Y-81989461D01*
X134845757Y-81991784D01*
X134851065Y-81993206D01*
X134851067Y-81993207D01*
X135061598Y-82049619D01*
X135061600Y-82049619D01*
X135066913Y-82051043D01*
X135166480Y-82059754D01*
X135235149Y-82065762D01*
X135235156Y-82065762D01*
X135237873Y-82066000D01*
X136152127Y-82066000D01*
X136154844Y-82065762D01*
X136154851Y-82065762D01*
X136223520Y-82059754D01*
X136323087Y-82051043D01*
X136328400Y-82049619D01*
X136328402Y-82049619D01*
X136538933Y-81993207D01*
X136538935Y-81993206D01*
X136544243Y-81991784D01*
X136549225Y-81989461D01*
X136746762Y-81897349D01*
X136746767Y-81897346D01*
X136751749Y-81895023D01*
X136898625Y-81792179D01*
X136934789Y-81766857D01*
X136934792Y-81766855D01*
X136939300Y-81763698D01*
X137101198Y-81601800D01*
X137126248Y-81566026D01*
X137203679Y-81455442D01*
X137232523Y-81414249D01*
X137234846Y-81409267D01*
X137234849Y-81409262D01*
X137326961Y-81211725D01*
X137326961Y-81211724D01*
X137329284Y-81206743D01*
X137337149Y-81177393D01*
X137387119Y-80990902D01*
X137387119Y-80990900D01*
X137388543Y-80985587D01*
X137408498Y-80757500D01*
X137388543Y-80529413D01*
X137367382Y-80450438D01*
X137330707Y-80313567D01*
X137330706Y-80313565D01*
X137329284Y-80308257D01*
X137314525Y-80276605D01*
X137234849Y-80105738D01*
X137234846Y-80105733D01*
X137232523Y-80100751D01*
X137136414Y-79963494D01*
X137104357Y-79917711D01*
X137104355Y-79917708D01*
X137101198Y-79913200D01*
X136939300Y-79751302D01*
X136934792Y-79748145D01*
X136934789Y-79748143D01*
X136818350Y-79666612D01*
X136751749Y-79619977D01*
X136746767Y-79617654D01*
X136746762Y-79617651D01*
X136712543Y-79601695D01*
X136659258Y-79554778D01*
X136639797Y-79486501D01*
X136660339Y-79418541D01*
X136712543Y-79373305D01*
X136746762Y-79357349D01*
X136746767Y-79357346D01*
X136751749Y-79355023D01*
X136920800Y-79236652D01*
X136934789Y-79226857D01*
X136934792Y-79226855D01*
X136939300Y-79223698D01*
X137101198Y-79061800D01*
X137232523Y-78874249D01*
X137234846Y-78869267D01*
X137234849Y-78869262D01*
X137326961Y-78671725D01*
X137326961Y-78671724D01*
X137329284Y-78666743D01*
X137388543Y-78445587D01*
X137408498Y-78217500D01*
X137388543Y-77989413D01*
X137373393Y-77932871D01*
X137330707Y-77773567D01*
X137330706Y-77773565D01*
X137329284Y-77768257D01*
X137325978Y-77761167D01*
X137234849Y-77565738D01*
X137234846Y-77565733D01*
X137232523Y-77560751D01*
X137196123Y-77508766D01*
X141017000Y-77508766D01*
X141017337Y-77515282D01*
X141027075Y-77609132D01*
X141029968Y-77622528D01*
X141080488Y-77773953D01*
X141086653Y-77787115D01*
X141170426Y-77922492D01*
X141179460Y-77933890D01*
X141292129Y-78046363D01*
X141303540Y-78055375D01*
X141439063Y-78138912D01*
X141452241Y-78145056D01*
X141603766Y-78195315D01*
X141617132Y-78198181D01*
X141709770Y-78207672D01*
X141716185Y-78208000D01*
X141727885Y-78208000D01*
X141743124Y-78203525D01*
X141744329Y-78202135D01*
X141746000Y-78194452D01*
X141746000Y-78189885D01*
X142254000Y-78189885D01*
X142258475Y-78205124D01*
X142259865Y-78206329D01*
X142267548Y-78208000D01*
X142283766Y-78208000D01*
X142290282Y-78207663D01*
X142384132Y-78197925D01*
X142397528Y-78195032D01*
X142548953Y-78144512D01*
X142562115Y-78138347D01*
X142697492Y-78054574D01*
X142708890Y-78045540D01*
X142821363Y-77932871D01*
X142830375Y-77921460D01*
X142913912Y-77785937D01*
X142920056Y-77772759D01*
X142970315Y-77621234D01*
X142973181Y-77607868D01*
X142982672Y-77515230D01*
X142983000Y-77508815D01*
X142983000Y-77434615D01*
X142978525Y-77419376D01*
X142977135Y-77418171D01*
X142969452Y-77416500D01*
X142272115Y-77416500D01*
X142256876Y-77420975D01*
X142255671Y-77422365D01*
X142254000Y-77430048D01*
X142254000Y-78189885D01*
X141746000Y-78189885D01*
X141746000Y-77434615D01*
X141741525Y-77419376D01*
X141740135Y-77418171D01*
X141732452Y-77416500D01*
X141035115Y-77416500D01*
X141019876Y-77420975D01*
X141018671Y-77422365D01*
X141017000Y-77430048D01*
X141017000Y-77508766D01*
X137196123Y-77508766D01*
X137101198Y-77373200D01*
X136939300Y-77211302D01*
X136935679Y-77208766D01*
X147517000Y-77208766D01*
X147517337Y-77215282D01*
X147527075Y-77309132D01*
X147529968Y-77322528D01*
X147580488Y-77473953D01*
X147586653Y-77487115D01*
X147670426Y-77622492D01*
X147679460Y-77633890D01*
X147792129Y-77746363D01*
X147803540Y-77755375D01*
X147939063Y-77838912D01*
X147952241Y-77845056D01*
X148103766Y-77895315D01*
X148117132Y-77898181D01*
X148209770Y-77907672D01*
X148216185Y-77908000D01*
X148227885Y-77908000D01*
X148243124Y-77903525D01*
X148244329Y-77902135D01*
X148246000Y-77894452D01*
X148246000Y-77889885D01*
X148754000Y-77889885D01*
X148758475Y-77905124D01*
X148759865Y-77906329D01*
X148767548Y-77908000D01*
X148783766Y-77908000D01*
X148790282Y-77907663D01*
X148884132Y-77897925D01*
X148897528Y-77895032D01*
X149048953Y-77844512D01*
X149062115Y-77838347D01*
X149197492Y-77754574D01*
X149208890Y-77745540D01*
X149321363Y-77632871D01*
X149330375Y-77621460D01*
X149413912Y-77485937D01*
X149420056Y-77472759D01*
X149470315Y-77321234D01*
X149473181Y-77307868D01*
X149482672Y-77215230D01*
X149483000Y-77208815D01*
X149483000Y-77134615D01*
X149478525Y-77119376D01*
X149477135Y-77118171D01*
X149469452Y-77116500D01*
X148772115Y-77116500D01*
X148756876Y-77120975D01*
X148755671Y-77122365D01*
X148754000Y-77130048D01*
X148754000Y-77889885D01*
X148246000Y-77889885D01*
X148246000Y-77134615D01*
X148241525Y-77119376D01*
X148240135Y-77118171D01*
X148232452Y-77116500D01*
X147535115Y-77116500D01*
X147519876Y-77120975D01*
X147518671Y-77122365D01*
X147517000Y-77130048D01*
X147517000Y-77208766D01*
X136935679Y-77208766D01*
X136934792Y-77208145D01*
X136934789Y-77208143D01*
X136829780Y-77134615D01*
X136751749Y-77079977D01*
X136746767Y-77077654D01*
X136746762Y-77077651D01*
X136712543Y-77061695D01*
X136659258Y-77014778D01*
X136639797Y-76946501D01*
X136660339Y-76878541D01*
X136712543Y-76833305D01*
X136746762Y-76817349D01*
X136746767Y-76817346D01*
X136751749Y-76815023D01*
X136880452Y-76724904D01*
X136934789Y-76686857D01*
X136934792Y-76686855D01*
X136939300Y-76683698D01*
X137101198Y-76521800D01*
X137105096Y-76516234D01*
X137174122Y-76417654D01*
X137232523Y-76334249D01*
X137234846Y-76329267D01*
X137234849Y-76329262D01*
X137326961Y-76131725D01*
X137326961Y-76131724D01*
X137329284Y-76126743D01*
X137331720Y-76117654D01*
X137387119Y-75910902D01*
X137387119Y-75910900D01*
X137388543Y-75905587D01*
X137408498Y-75677500D01*
X137388543Y-75449413D01*
X137350391Y-75307030D01*
X137330707Y-75233567D01*
X137330706Y-75233565D01*
X137329284Y-75228257D01*
X137321265Y-75211059D01*
X137289971Y-75143950D01*
X137279310Y-75073758D01*
X137308290Y-75008946D01*
X137367710Y-74970089D01*
X137404166Y-74964700D01*
X137424356Y-74964700D01*
X137428291Y-74964203D01*
X137428356Y-74964195D01*
X137440193Y-74963262D01*
X137472451Y-74962248D01*
X137476470Y-74962122D01*
X137484389Y-74961873D01*
X137503843Y-74956221D01*
X137523200Y-74952213D01*
X137535430Y-74950668D01*
X137535431Y-74950668D01*
X137543297Y-74949674D01*
X137550668Y-74946755D01*
X137550670Y-74946755D01*
X137584412Y-74933396D01*
X137595642Y-74929551D01*
X137630483Y-74919429D01*
X137630484Y-74919429D01*
X137638093Y-74917218D01*
X137644912Y-74913185D01*
X137644917Y-74913183D01*
X137655528Y-74906907D01*
X137673276Y-74898212D01*
X137692117Y-74890752D01*
X137727887Y-74864764D01*
X137737807Y-74858248D01*
X137769035Y-74839780D01*
X137769038Y-74839778D01*
X137775862Y-74835742D01*
X137790183Y-74821421D01*
X137805217Y-74808580D01*
X137815194Y-74801331D01*
X137821607Y-74796672D01*
X137849798Y-74762595D01*
X137857788Y-74753816D01*
X139135499Y-73476105D01*
X139197811Y-73442079D01*
X139224594Y-73439200D01*
X139280487Y-73439200D01*
X139286939Y-73437828D01*
X139286944Y-73437828D01*
X139392334Y-73415426D01*
X139467288Y-73399494D01*
X139543445Y-73365587D01*
X139635722Y-73324503D01*
X139635724Y-73324502D01*
X139641752Y-73321818D01*
X139796253Y-73209566D01*
X139800675Y-73204655D01*
X139919621Y-73072552D01*
X139919622Y-73072551D01*
X139924040Y-73067644D01*
X140019527Y-72902256D01*
X140078542Y-72720628D01*
X140084895Y-72660188D01*
X140097814Y-72537265D01*
X140098504Y-72530700D01*
X140093778Y-72485738D01*
X140079232Y-72347335D01*
X140079232Y-72347333D01*
X140078542Y-72340772D01*
X140019527Y-72159144D01*
X140015161Y-72151581D01*
X139929454Y-72003134D01*
X139924040Y-71993756D01*
X139833333Y-71893015D01*
X139800675Y-71856745D01*
X139800674Y-71856744D01*
X139796253Y-71851834D01*
X139665046Y-71756506D01*
X139647094Y-71743463D01*
X139647093Y-71743462D01*
X139641752Y-71739582D01*
X139635724Y-71736898D01*
X139635722Y-71736897D01*
X139473319Y-71664591D01*
X139473318Y-71664591D01*
X139467288Y-71661906D01*
X139358193Y-71638717D01*
X139286944Y-71623572D01*
X139286939Y-71623572D01*
X139280487Y-71622200D01*
X139089513Y-71622200D01*
X139083061Y-71623572D01*
X139083056Y-71623572D01*
X139011807Y-71638717D01*
X138902712Y-71661906D01*
X138896682Y-71664591D01*
X138896681Y-71664591D01*
X138734278Y-71736897D01*
X138734276Y-71736898D01*
X138728248Y-71739582D01*
X138722907Y-71743462D01*
X138722906Y-71743463D01*
X138704954Y-71756506D01*
X138573747Y-71851834D01*
X138569326Y-71856744D01*
X138569325Y-71856745D01*
X138536668Y-71893015D01*
X138445960Y-71993756D01*
X138440546Y-72003134D01*
X138354840Y-72151581D01*
X138350473Y-72159144D01*
X138291458Y-72340772D01*
X138290768Y-72347333D01*
X138290768Y-72347335D01*
X138274093Y-72505993D01*
X138247080Y-72571650D01*
X138237878Y-72581918D01*
X137621591Y-73198205D01*
X137559279Y-73232231D01*
X137488464Y-73227166D01*
X137431628Y-73184619D01*
X137406975Y-73120092D01*
X137401496Y-73057470D01*
X137388543Y-72909413D01*
X137384814Y-72895497D01*
X137330707Y-72693567D01*
X137330706Y-72693565D01*
X137329284Y-72688257D01*
X137326961Y-72683275D01*
X137234849Y-72485738D01*
X137234846Y-72485733D01*
X137232523Y-72480751D01*
X137139104Y-72347335D01*
X137104357Y-72297711D01*
X137104355Y-72297708D01*
X137101198Y-72293200D01*
X136939300Y-72131302D01*
X136934792Y-72128145D01*
X136934789Y-72128143D01*
X136853329Y-72071104D01*
X136751749Y-71999977D01*
X136746767Y-71997654D01*
X136746762Y-71997651D01*
X136549225Y-71905539D01*
X136549224Y-71905539D01*
X136544243Y-71903216D01*
X136538935Y-71901794D01*
X136538933Y-71901793D01*
X136328402Y-71845381D01*
X136328400Y-71845381D01*
X136323087Y-71843957D01*
X136223520Y-71835246D01*
X136154851Y-71829238D01*
X136154844Y-71829238D01*
X136152127Y-71829000D01*
X135237873Y-71829000D01*
X135235156Y-71829238D01*
X135235149Y-71829238D01*
X135166480Y-71835246D01*
X135066913Y-71843957D01*
X135061600Y-71845381D01*
X135061598Y-71845381D01*
X134851067Y-71901793D01*
X134851065Y-71901794D01*
X134845757Y-71903216D01*
X134840776Y-71905539D01*
X134840775Y-71905539D01*
X134828348Y-71911334D01*
X134758157Y-71921995D01*
X134693344Y-71893015D01*
X134673162Y-71871200D01*
X134653265Y-71843814D01*
X134646748Y-71833893D01*
X134628280Y-71802665D01*
X134628278Y-71802662D01*
X134624242Y-71795838D01*
X134609921Y-71781517D01*
X134597080Y-71766483D01*
X134595938Y-71764911D01*
X134585172Y-71750093D01*
X134551095Y-71721902D01*
X134542316Y-71713912D01*
X133952621Y-71124217D01*
X133918595Y-71061905D01*
X133918526Y-71014866D01*
X133917974Y-71014809D01*
X133918518Y-71009498D01*
X133928500Y-70912072D01*
X133928500Y-70212928D01*
X133928163Y-70209678D01*
X133918419Y-70115765D01*
X133918418Y-70115761D01*
X133917707Y-70108907D01*
X133898065Y-70050031D01*
X133868695Y-69961999D01*
X133862654Y-69943893D01*
X133814231Y-69865642D01*
X133774969Y-69802195D01*
X133774968Y-69802194D01*
X133771116Y-69795969D01*
X133764212Y-69789077D01*
X133763411Y-69787613D01*
X133761389Y-69785062D01*
X133761826Y-69784716D01*
X133730134Y-69726796D01*
X133735137Y-69655976D01*
X133764056Y-69610890D01*
X133766757Y-69608184D01*
X133771929Y-69603003D01*
X133775770Y-69596772D01*
X133859369Y-69461150D01*
X133859370Y-69461148D01*
X133863209Y-69454920D01*
X133917974Y-69289809D01*
X133928500Y-69187072D01*
X133928500Y-68487928D01*
X133917707Y-68383907D01*
X133862654Y-68218893D01*
X133771116Y-68070969D01*
X133733890Y-68033808D01*
X133653184Y-67953242D01*
X133653179Y-67953238D01*
X133648003Y-67948071D01*
X133499920Y-67856791D01*
X133334809Y-67802026D01*
X133327973Y-67801326D01*
X133327970Y-67801325D01*
X133276474Y-67796049D01*
X133232072Y-67791500D01*
X132657928Y-67791500D01*
X132654682Y-67791837D01*
X132654678Y-67791837D01*
X132560765Y-67801581D01*
X132560761Y-67801582D01*
X132553907Y-67802293D01*
X132547371Y-67804474D01*
X132547369Y-67804474D01*
X132443817Y-67839022D01*
X132388893Y-67857346D01*
X132240969Y-67948884D01*
X132235796Y-67954066D01*
X132133518Y-68056523D01*
X132071236Y-68090602D01*
X132000416Y-68085599D01*
X131943543Y-68043102D01*
X131937216Y-68033831D01*
X131893478Y-67963152D01*
X131768303Y-67838195D01*
X131713139Y-67804191D01*
X131623968Y-67749225D01*
X131623966Y-67749224D01*
X131617738Y-67745385D01*
X131537995Y-67718936D01*
X131456389Y-67691868D01*
X131456387Y-67691868D01*
X131449861Y-67689703D01*
X131443025Y-67689003D01*
X131443022Y-67689002D01*
X131399969Y-67684591D01*
X131345400Y-67679000D01*
X130344600Y-67679000D01*
X130341354Y-67679337D01*
X130341350Y-67679337D01*
X130245692Y-67689262D01*
X130245688Y-67689263D01*
X130238834Y-67689974D01*
X130232298Y-67692155D01*
X130232296Y-67692155D01*
X130100194Y-67736228D01*
X130071054Y-67745950D01*
X129920652Y-67839022D01*
X129795695Y-67964197D01*
X129791855Y-67970427D01*
X129791854Y-67970428D01*
X129717778Y-68090602D01*
X129702885Y-68114762D01*
X129647203Y-68282639D01*
X129636500Y-68387100D01*
X129636500Y-69097905D01*
X129616498Y-69166026D01*
X129599595Y-69187000D01*
X129374747Y-69411848D01*
X129366461Y-69419388D01*
X129359982Y-69423500D01*
X129354557Y-69429277D01*
X129313357Y-69473151D01*
X129310602Y-69475993D01*
X129290865Y-69495730D01*
X129288385Y-69498927D01*
X129280682Y-69507947D01*
X129250414Y-69540179D01*
X129246595Y-69547125D01*
X129246593Y-69547128D01*
X129240652Y-69557934D01*
X129229801Y-69574453D01*
X129217386Y-69590459D01*
X129214241Y-69597728D01*
X129214238Y-69597732D01*
X129199826Y-69631037D01*
X129194609Y-69641687D01*
X129173305Y-69680440D01*
X129168299Y-69699939D01*
X129168267Y-69700062D01*
X129161863Y-69718766D01*
X129153819Y-69737355D01*
X129152580Y-69745178D01*
X129152577Y-69745188D01*
X129146901Y-69781024D01*
X129144495Y-69792644D01*
X129142043Y-69802195D01*
X129133500Y-69835470D01*
X129133500Y-69855724D01*
X129131949Y-69875434D01*
X129128780Y-69895443D01*
X129129526Y-69903335D01*
X129132941Y-69939461D01*
X129133500Y-69951319D01*
X129133500Y-71703000D01*
X129113498Y-71771121D01*
X129059842Y-71817614D01*
X129007500Y-71829000D01*
X126826866Y-71829000D01*
X126764684Y-71835755D01*
X126628295Y-71886885D01*
X126511739Y-71974239D01*
X126424385Y-72090795D01*
X126373255Y-72227184D01*
X126366500Y-72289366D01*
X126366500Y-72423134D01*
X126346498Y-72491255D01*
X126292842Y-72537748D01*
X126279434Y-72542967D01*
X126227825Y-72559736D01*
X126221129Y-72563986D01*
X126221128Y-72563986D01*
X126220869Y-72564150D01*
X126199742Y-72574915D01*
X126199454Y-72575029D01*
X126199449Y-72575032D01*
X126192083Y-72577948D01*
X126185675Y-72582604D01*
X126185669Y-72582607D01*
X126146648Y-72610958D01*
X126140111Y-72615401D01*
X126092682Y-72645500D01*
X126087256Y-72651278D01*
X126087255Y-72651279D01*
X126087041Y-72651507D01*
X126069254Y-72667188D01*
X126069009Y-72667366D01*
X126069007Y-72667368D01*
X126062593Y-72672028D01*
X126057539Y-72678137D01*
X126057538Y-72678138D01*
X126026797Y-72715296D01*
X126021566Y-72721230D01*
X125988542Y-72756398D01*
X125988540Y-72756401D01*
X125983114Y-72762179D01*
X125979145Y-72769399D01*
X125965819Y-72789006D01*
X125965620Y-72789246D01*
X125965616Y-72789253D01*
X125960567Y-72795356D01*
X125957193Y-72802527D01*
X125936653Y-72846176D01*
X125933071Y-72853208D01*
X125906005Y-72902440D01*
X125904035Y-72910115D01*
X125904032Y-72910121D01*
X125903956Y-72910419D01*
X125895924Y-72932728D01*
X125895794Y-72933003D01*
X125895791Y-72933011D01*
X125892417Y-72940182D01*
X125890931Y-72947974D01*
X125881895Y-72995343D01*
X125880171Y-73003058D01*
X125866200Y-73057470D01*
X125866200Y-73065707D01*
X125863968Y-73089316D01*
X125862425Y-73097406D01*
X125865951Y-73153451D01*
X125866200Y-73161362D01*
X125866200Y-81165533D01*
X125865673Y-81176716D01*
X125863998Y-81184209D01*
X125864247Y-81192135D01*
X125864247Y-81192136D01*
X125866138Y-81252286D01*
X125866200Y-81256245D01*
X125866200Y-81284156D01*
X125866697Y-81288090D01*
X125866697Y-81288091D01*
X125866705Y-81288156D01*
X125867638Y-81299993D01*
X125869027Y-81344189D01*
X125874678Y-81363639D01*
X125878687Y-81383000D01*
X125881226Y-81403097D01*
X125884145Y-81410468D01*
X125884145Y-81410470D01*
X125897504Y-81444212D01*
X125901349Y-81455442D01*
X125913682Y-81497893D01*
X125917715Y-81504712D01*
X125917717Y-81504717D01*
X125923993Y-81515328D01*
X125932688Y-81533076D01*
X125940148Y-81551917D01*
X125944810Y-81558333D01*
X125944810Y-81558334D01*
X125966136Y-81587687D01*
X125972652Y-81597607D01*
X125990469Y-81627733D01*
X125995158Y-81635662D01*
X126009479Y-81649983D01*
X126022319Y-81665016D01*
X126034228Y-81681407D01*
X126040334Y-81686458D01*
X126068305Y-81709598D01*
X126077084Y-81717588D01*
X127764243Y-83404747D01*
X127771787Y-83413037D01*
X127775900Y-83419518D01*
X127781677Y-83424943D01*
X127825567Y-83466158D01*
X127828409Y-83468913D01*
X127848130Y-83488634D01*
X127851325Y-83491112D01*
X127860347Y-83498818D01*
X127892579Y-83529086D01*
X127899528Y-83532906D01*
X127910332Y-83538846D01*
X127926856Y-83549699D01*
X127942859Y-83562113D01*
X127983443Y-83579676D01*
X127994073Y-83584883D01*
X128032840Y-83606195D01*
X128040517Y-83608166D01*
X128040522Y-83608168D01*
X128052458Y-83611232D01*
X128071166Y-83617637D01*
X128089755Y-83625681D01*
X128097580Y-83626920D01*
X128097582Y-83626921D01*
X128133419Y-83632597D01*
X128145040Y-83635004D01*
X128180189Y-83644028D01*
X128187870Y-83646000D01*
X128208131Y-83646000D01*
X128227840Y-83647551D01*
X128247843Y-83650719D01*
X128255735Y-83649973D01*
X128260962Y-83649479D01*
X128291854Y-83646559D01*
X128303711Y-83646000D01*
X129524143Y-83646000D01*
X129592264Y-83666002D01*
X129638757Y-83719658D01*
X129643666Y-83732122D01*
X129651130Y-83754495D01*
X129651133Y-83754502D01*
X129653450Y-83761446D01*
X129746522Y-83911848D01*
X129751704Y-83917021D01*
X129780683Y-83945950D01*
X129871697Y-84036805D01*
X129877927Y-84040645D01*
X129877928Y-84040646D01*
X130015090Y-84125194D01*
X130022262Y-84129615D01*
X130102005Y-84156064D01*
X130183611Y-84183132D01*
X130183613Y-84183132D01*
X130190139Y-84185297D01*
X130196975Y-84185997D01*
X130196978Y-84185998D01*
X130240031Y-84190409D01*
X130294600Y-84196000D01*
X131295400Y-84196000D01*
X131298646Y-84195663D01*
X131298650Y-84195663D01*
X131394308Y-84185738D01*
X131394312Y-84185737D01*
X131401166Y-84185026D01*
X131407702Y-84182845D01*
X131407704Y-84182845D01*
X131550608Y-84135168D01*
X131568946Y-84129050D01*
X131719348Y-84035978D01*
X131844305Y-83910803D01*
X131896571Y-83826012D01*
X131949343Y-83778519D01*
X132019415Y-83767095D01*
X132084539Y-83795369D01*
X132092848Y-83802954D01*
X132158274Y-83868265D01*
X132191997Y-83901929D01*
X132198227Y-83905769D01*
X132198228Y-83905770D01*
X132213899Y-83915430D01*
X132267867Y-83948696D01*
X132315359Y-84001467D01*
X132326783Y-84071538D01*
X132298509Y-84136662D01*
X132290845Y-84145050D01*
X129883800Y-86552095D01*
X129821488Y-86586121D01*
X129794705Y-86589000D01*
X129581731Y-86589000D01*
X129513610Y-86568998D01*
X129478518Y-86535270D01*
X129404681Y-86429819D01*
X129252681Y-86277819D01*
X129076597Y-86154524D01*
X129071619Y-86152203D01*
X129071616Y-86152201D01*
X128886759Y-86066001D01*
X128886758Y-86066000D01*
X128881777Y-86063678D01*
X128876469Y-86062256D01*
X128876467Y-86062255D01*
X128679457Y-86009466D01*
X128679455Y-86009466D01*
X128674142Y-86008042D01*
X128460000Y-85989307D01*
X128245858Y-86008042D01*
X128240545Y-86009466D01*
X128240543Y-86009466D01*
X128043533Y-86062255D01*
X128043531Y-86062256D01*
X128038223Y-86063678D01*
X128033243Y-86066000D01*
X128033241Y-86066001D01*
X127848385Y-86152201D01*
X127848382Y-86152203D01*
X127843404Y-86154524D01*
X127667319Y-86277819D01*
X127515319Y-86429819D01*
X127392024Y-86605904D01*
X127389703Y-86610882D01*
X127389701Y-86610885D01*
X127327742Y-86743756D01*
X127301178Y-86800723D01*
X127299756Y-86806031D01*
X127299755Y-86806033D01*
X127279141Y-86882966D01*
X127245542Y-87008358D01*
X127226807Y-87222500D01*
X127245542Y-87436642D01*
X127246967Y-87441959D01*
X127248780Y-87448727D01*
X127247087Y-87519703D01*
X127216167Y-87570428D01*
X126267928Y-88518667D01*
X126205616Y-88552693D01*
X126146227Y-88551280D01*
X126143182Y-88550464D01*
X126134142Y-88548042D01*
X125920000Y-88529307D01*
X125705858Y-88548042D01*
X125700545Y-88549466D01*
X125700543Y-88549466D01*
X125503533Y-88602255D01*
X125503531Y-88602256D01*
X125498223Y-88603678D01*
X125493243Y-88606000D01*
X125493241Y-88606001D01*
X125308385Y-88692201D01*
X125308382Y-88692203D01*
X125303404Y-88694524D01*
X125127319Y-88817819D01*
X124975319Y-88969819D01*
X124852024Y-89145904D01*
X124761178Y-89340723D01*
X124705542Y-89548358D01*
X124686807Y-89762500D01*
X124705542Y-89976642D01*
X124706966Y-89981955D01*
X124706966Y-89981957D01*
X124724901Y-90048889D01*
X124761178Y-90184277D01*
X124763500Y-90189257D01*
X124763501Y-90189259D01*
X124845407Y-90364905D01*
X124852024Y-90379096D01*
X124975319Y-90555181D01*
X125127319Y-90707181D01*
X125232770Y-90781018D01*
X125277099Y-90836475D01*
X125286500Y-90884231D01*
X125286500Y-95645106D01*
X125266498Y-95713227D01*
X125249595Y-95734201D01*
X120107747Y-100876048D01*
X120099461Y-100883588D01*
X120092982Y-100887700D01*
X120087557Y-100893477D01*
X120046357Y-100937351D01*
X120043602Y-100940193D01*
X120023865Y-100959930D01*
X120021385Y-100963127D01*
X120013682Y-100972147D01*
X119983414Y-101004379D01*
X119979595Y-101011325D01*
X119979593Y-101011328D01*
X119973652Y-101022134D01*
X119962801Y-101038653D01*
X119950386Y-101054659D01*
X119947241Y-101061928D01*
X119947238Y-101061932D01*
X119932826Y-101095237D01*
X119927609Y-101105887D01*
X119906305Y-101144640D01*
X119904334Y-101152316D01*
X119901416Y-101159687D01*
X119900094Y-101159164D01*
X119868148Y-101212837D01*
X119804617Y-101244529D01*
X119782417Y-101246500D01*
X119601866Y-101246500D01*
X119539684Y-101253255D01*
X119403295Y-101304385D01*
X119286739Y-101391739D01*
X119199385Y-101508295D01*
X119148255Y-101644684D01*
X119141500Y-101706866D01*
X119141500Y-103503134D01*
X111692193Y-103503134D01*
X111616007Y-103341230D01*
X111612195Y-103334297D01*
X111454091Y-103085165D01*
X111449437Y-103078759D01*
X111384479Y-103000239D01*
X111371960Y-102991783D01*
X111361222Y-102997989D01*
X109872020Y-104487190D01*
X109864408Y-104501131D01*
X109134357Y-104501131D01*
X109135592Y-104498869D01*
X109135461Y-104497034D01*
X109131210Y-104490420D01*
X107639881Y-102999092D01*
X107626619Y-102991850D01*
X107616515Y-102999038D01*
X107550563Y-103078759D01*
X107545909Y-103085165D01*
X107387805Y-103334297D01*
X107383993Y-103341230D01*
X107258361Y-103608213D01*
X107255446Y-103615576D01*
X107164267Y-103896195D01*
X107162296Y-103903872D01*
X107107008Y-104193703D01*
X107106015Y-104201564D01*
X107087488Y-104496042D01*
X107087488Y-104503958D01*
X106508500Y-104503958D01*
X106508500Y-102625179D01*
X107990347Y-102625179D01*
X107997251Y-102638040D01*
X109487190Y-104127980D01*
X109501131Y-104135592D01*
X109502966Y-104135461D01*
X109509580Y-104131210D01*
X111003073Y-102637716D01*
X111009686Y-102625606D01*
X111000857Y-102613986D01*
X110796030Y-102465170D01*
X110789350Y-102460930D01*
X110530766Y-102318772D01*
X110523631Y-102315415D01*
X110249254Y-102206781D01*
X110241763Y-102204347D01*
X109955941Y-102130961D01*
X109948170Y-102129479D01*
X109655430Y-102092497D01*
X109647540Y-102092000D01*
X109352460Y-102092000D01*
X109344570Y-102092497D01*
X109051830Y-102129479D01*
X109044059Y-102130961D01*
X108758237Y-102204347D01*
X108750746Y-102206781D01*
X108476369Y-102315415D01*
X108469234Y-102318772D01*
X108210650Y-102460930D01*
X108203970Y-102465170D01*
X107998770Y-102614256D01*
X107990347Y-102625179D01*
X106508500Y-102625179D01*
X106508500Y-93888856D01*
X115296601Y-93888856D01*
X115303059Y-93898216D01*
X115319361Y-93912512D01*
X115325901Y-93917530D01*
X115565144Y-94077387D01*
X115572281Y-94081508D01*
X115830349Y-94208772D01*
X115837953Y-94211922D01*
X116110420Y-94304412D01*
X116118383Y-94306546D01*
X116400600Y-94362683D01*
X116408751Y-94363756D01*
X116695881Y-94382575D01*
X116704119Y-94382575D01*
X116991249Y-94363756D01*
X116999400Y-94362683D01*
X117281617Y-94306546D01*
X117289580Y-94304412D01*
X117562047Y-94211922D01*
X117569651Y-94208772D01*
X117827719Y-94081508D01*
X117834856Y-94077387D01*
X118074099Y-93917530D01*
X118080639Y-93912512D01*
X118095074Y-93899853D01*
X118103472Y-93886614D01*
X118097638Y-93876849D01*
X116712810Y-92492020D01*
X116698869Y-92484408D01*
X116697034Y-92484539D01*
X116690420Y-92488790D01*
X115304116Y-93875095D01*
X115296601Y-93888856D01*
X106508500Y-93888856D01*
X106508500Y-92124119D01*
X114437425Y-92124119D01*
X114456244Y-92411249D01*
X114457317Y-92419400D01*
X114513454Y-92701617D01*
X114515588Y-92709580D01*
X114608078Y-92982047D01*
X114611228Y-92989651D01*
X114738492Y-93247718D01*
X114742613Y-93254855D01*
X114902470Y-93494099D01*
X114907488Y-93500639D01*
X114920147Y-93515074D01*
X114933386Y-93523472D01*
X114943151Y-93517638D01*
X116327980Y-92132810D01*
X116334357Y-92121131D01*
X117064408Y-92121131D01*
X117064539Y-92122966D01*
X117068790Y-92129580D01*
X118455095Y-93515884D01*
X118468856Y-93523399D01*
X118478216Y-93516941D01*
X118492512Y-93500639D01*
X118497530Y-93494099D01*
X118657387Y-93254855D01*
X118661508Y-93247718D01*
X118788772Y-92989651D01*
X118791922Y-92982047D01*
X118884412Y-92709580D01*
X118886546Y-92701617D01*
X118942683Y-92419400D01*
X118943756Y-92411249D01*
X118962575Y-92124119D01*
X118962575Y-92115881D01*
X118943756Y-91828751D01*
X118942683Y-91820600D01*
X118886546Y-91538383D01*
X118884412Y-91530420D01*
X118791922Y-91257953D01*
X118788772Y-91250349D01*
X118661508Y-90992282D01*
X118657387Y-90985145D01*
X118497530Y-90745901D01*
X118492512Y-90739361D01*
X118479853Y-90724926D01*
X118466614Y-90716528D01*
X118456849Y-90722362D01*
X117072020Y-92107190D01*
X117064408Y-92121131D01*
X116334357Y-92121131D01*
X116335592Y-92118869D01*
X116335461Y-92117034D01*
X116331210Y-92110420D01*
X114944905Y-90724116D01*
X114931144Y-90716601D01*
X114921784Y-90723059D01*
X114907488Y-90739361D01*
X114902470Y-90745901D01*
X114742613Y-90985145D01*
X114738492Y-90992282D01*
X114611228Y-91250349D01*
X114608078Y-91257953D01*
X114515588Y-91530420D01*
X114513454Y-91538383D01*
X114457317Y-91820600D01*
X114456244Y-91828751D01*
X114437425Y-92115881D01*
X114437425Y-92124119D01*
X106508500Y-92124119D01*
X106508500Y-90353386D01*
X115296528Y-90353386D01*
X115302362Y-90363151D01*
X116687190Y-91747980D01*
X116701131Y-91755592D01*
X116702966Y-91755461D01*
X116709580Y-91751210D01*
X118095884Y-90364905D01*
X118103399Y-90351144D01*
X118096941Y-90341784D01*
X118080639Y-90327488D01*
X118074099Y-90322470D01*
X117834856Y-90162613D01*
X117827719Y-90158492D01*
X117569651Y-90031228D01*
X117562047Y-90028078D01*
X117289580Y-89935588D01*
X117281617Y-89933454D01*
X116999400Y-89877317D01*
X116991249Y-89876244D01*
X116704119Y-89857425D01*
X116695881Y-89857425D01*
X116408751Y-89876244D01*
X116400600Y-89877317D01*
X116118383Y-89933454D01*
X116110420Y-89935588D01*
X115837953Y-90028078D01*
X115830349Y-90031228D01*
X115572282Y-90158492D01*
X115565145Y-90162613D01*
X115325901Y-90322470D01*
X115319361Y-90327488D01*
X115304926Y-90340147D01*
X115296528Y-90353386D01*
X106508500Y-90353386D01*
X106508500Y-86268856D01*
X115296601Y-86268856D01*
X115303059Y-86278216D01*
X115319361Y-86292512D01*
X115325901Y-86297530D01*
X115565144Y-86457387D01*
X115572281Y-86461508D01*
X115830349Y-86588772D01*
X115837953Y-86591922D01*
X116110420Y-86684412D01*
X116118383Y-86686546D01*
X116400600Y-86742683D01*
X116408751Y-86743756D01*
X116695881Y-86762575D01*
X116704119Y-86762575D01*
X116991249Y-86743756D01*
X116999400Y-86742683D01*
X117281617Y-86686546D01*
X117289580Y-86684412D01*
X117562047Y-86591922D01*
X117569651Y-86588772D01*
X117827719Y-86461508D01*
X117834856Y-86457387D01*
X118074099Y-86297530D01*
X118080639Y-86292512D01*
X118095074Y-86279853D01*
X118103472Y-86266614D01*
X118097638Y-86256849D01*
X116712810Y-84872020D01*
X116698869Y-84864408D01*
X116697034Y-84864539D01*
X116690420Y-84868790D01*
X115304116Y-86255095D01*
X115296601Y-86268856D01*
X106508500Y-86268856D01*
X106508500Y-84504119D01*
X114437425Y-84504119D01*
X114456244Y-84791249D01*
X114457317Y-84799400D01*
X114513454Y-85081617D01*
X114515588Y-85089580D01*
X114608078Y-85362047D01*
X114611228Y-85369651D01*
X114738492Y-85627718D01*
X114742613Y-85634855D01*
X114902470Y-85874099D01*
X114907488Y-85880639D01*
X114920147Y-85895074D01*
X114933386Y-85903472D01*
X114943151Y-85897638D01*
X116327980Y-84512810D01*
X116334357Y-84501131D01*
X117064408Y-84501131D01*
X117064539Y-84502966D01*
X117068790Y-84509580D01*
X118455095Y-85895884D01*
X118468856Y-85903399D01*
X118478216Y-85896941D01*
X118492512Y-85880639D01*
X118497530Y-85874099D01*
X118657387Y-85634855D01*
X118661508Y-85627718D01*
X118788772Y-85369651D01*
X118791922Y-85362047D01*
X118884412Y-85089580D01*
X118886546Y-85081617D01*
X118942683Y-84799400D01*
X118943756Y-84791249D01*
X118962575Y-84504119D01*
X118962575Y-84495881D01*
X118943756Y-84208751D01*
X118942683Y-84200600D01*
X118886546Y-83918383D01*
X118884412Y-83910420D01*
X118791922Y-83637953D01*
X118788772Y-83630349D01*
X118661508Y-83372282D01*
X118657387Y-83365145D01*
X118497530Y-83125901D01*
X118492512Y-83119361D01*
X118479853Y-83104926D01*
X118466614Y-83096528D01*
X118456849Y-83102362D01*
X117072020Y-84487190D01*
X117064408Y-84501131D01*
X116334357Y-84501131D01*
X116335592Y-84498869D01*
X116335461Y-84497034D01*
X116331210Y-84490420D01*
X114944905Y-83104116D01*
X114931144Y-83096601D01*
X114921784Y-83103059D01*
X114907488Y-83119361D01*
X114902470Y-83125901D01*
X114742613Y-83365145D01*
X114738492Y-83372282D01*
X114611228Y-83630349D01*
X114608078Y-83637953D01*
X114515588Y-83910420D01*
X114513454Y-83918383D01*
X114457317Y-84200600D01*
X114456244Y-84208751D01*
X114437425Y-84495881D01*
X114437425Y-84504119D01*
X106508500Y-84504119D01*
X106508500Y-82733386D01*
X115296528Y-82733386D01*
X115302362Y-82743151D01*
X116687190Y-84127980D01*
X116701131Y-84135592D01*
X116702966Y-84135461D01*
X116709580Y-84131210D01*
X118095884Y-82744905D01*
X118103399Y-82731144D01*
X118096941Y-82721784D01*
X118080639Y-82707488D01*
X118074099Y-82702470D01*
X117834856Y-82542613D01*
X117827719Y-82538492D01*
X117569651Y-82411228D01*
X117562047Y-82408078D01*
X117289580Y-82315588D01*
X117281617Y-82313454D01*
X116999400Y-82257317D01*
X116991249Y-82256244D01*
X116704119Y-82237425D01*
X116695881Y-82237425D01*
X116408751Y-82256244D01*
X116400600Y-82257317D01*
X116118383Y-82313454D01*
X116110420Y-82315588D01*
X115837953Y-82408078D01*
X115830349Y-82411228D01*
X115572282Y-82538492D01*
X115565145Y-82542613D01*
X115325901Y-82702470D01*
X115319361Y-82707488D01*
X115304926Y-82720147D01*
X115296528Y-82733386D01*
X106508500Y-82733386D01*
X106508500Y-73120000D01*
X114436654Y-73120000D01*
X114436924Y-73124119D01*
X114455712Y-73410765D01*
X114456017Y-73415426D01*
X114456819Y-73419459D01*
X114456820Y-73419465D01*
X114481230Y-73542179D01*
X114513776Y-73705797D01*
X114608941Y-73986145D01*
X114634609Y-74038195D01*
X114736215Y-74244230D01*
X114739885Y-74251673D01*
X114742179Y-74255106D01*
X114820306Y-74372031D01*
X114904367Y-74497838D01*
X114907081Y-74500932D01*
X114907085Y-74500938D01*
X115067546Y-74683907D01*
X115099573Y-74720427D01*
X115102662Y-74723136D01*
X115319062Y-74912915D01*
X115319068Y-74912919D01*
X115322162Y-74915633D01*
X115325588Y-74917922D01*
X115325593Y-74917926D01*
X115416496Y-74978665D01*
X115568327Y-75080115D01*
X115572026Y-75081939D01*
X115572031Y-75081942D01*
X115697771Y-75143950D01*
X115833855Y-75211059D01*
X115837760Y-75212384D01*
X115837761Y-75212385D01*
X116110290Y-75304896D01*
X116110294Y-75304897D01*
X116114203Y-75306224D01*
X116118247Y-75307028D01*
X116118253Y-75307030D01*
X116400535Y-75363180D01*
X116400541Y-75363181D01*
X116404574Y-75363983D01*
X116408679Y-75364252D01*
X116408686Y-75364253D01*
X116695881Y-75383076D01*
X116700000Y-75383346D01*
X116704119Y-75383076D01*
X116991314Y-75364253D01*
X116991321Y-75364252D01*
X116995426Y-75363983D01*
X116999459Y-75363181D01*
X116999465Y-75363180D01*
X117281747Y-75307030D01*
X117281753Y-75307028D01*
X117285797Y-75306224D01*
X117289706Y-75304897D01*
X117289710Y-75304896D01*
X117562239Y-75212385D01*
X117562240Y-75212384D01*
X117566145Y-75211059D01*
X117702229Y-75143950D01*
X117827969Y-75081942D01*
X117827974Y-75081939D01*
X117831673Y-75080115D01*
X117983504Y-74978665D01*
X118074407Y-74917926D01*
X118074412Y-74917922D01*
X118077838Y-74915633D01*
X118080932Y-74912919D01*
X118080938Y-74912915D01*
X118297338Y-74723136D01*
X118300427Y-74720427D01*
X118332454Y-74683907D01*
X118492915Y-74500938D01*
X118492919Y-74500932D01*
X118495633Y-74497838D01*
X118579695Y-74372031D01*
X118657821Y-74255106D01*
X118660115Y-74251673D01*
X118663786Y-74244230D01*
X118765391Y-74038195D01*
X118791059Y-73986145D01*
X118886224Y-73705797D01*
X118918770Y-73542179D01*
X118943180Y-73419465D01*
X118943181Y-73419459D01*
X118943983Y-73415426D01*
X118944289Y-73410765D01*
X118963076Y-73124119D01*
X118963346Y-73120000D01*
X118960236Y-73072552D01*
X118944253Y-72828686D01*
X118944252Y-72828679D01*
X118943983Y-72824574D01*
X118938172Y-72795356D01*
X118887030Y-72538253D01*
X118887028Y-72538247D01*
X118886224Y-72534203D01*
X118882807Y-72524135D01*
X118792385Y-72257761D01*
X118792384Y-72257760D01*
X118791059Y-72253855D01*
X118714793Y-72099203D01*
X118661942Y-71992031D01*
X118661939Y-71992026D01*
X118660115Y-71988327D01*
X118581853Y-71871200D01*
X118497926Y-71745593D01*
X118497922Y-71745588D01*
X118495633Y-71742162D01*
X118492919Y-71739068D01*
X118492915Y-71739062D01*
X118303136Y-71522662D01*
X118300427Y-71519573D01*
X118256311Y-71480884D01*
X118080938Y-71327085D01*
X118080932Y-71327081D01*
X118077838Y-71324367D01*
X118074412Y-71322078D01*
X118074407Y-71322074D01*
X117835106Y-71162179D01*
X117831673Y-71159885D01*
X117827974Y-71158061D01*
X117827969Y-71158058D01*
X117632989Y-71061905D01*
X117566145Y-71028941D01*
X117506529Y-71008704D01*
X117418999Y-70978992D01*
X117360923Y-70938155D01*
X117334144Y-70872402D01*
X117333500Y-70859679D01*
X117333500Y-67760321D01*
X117353502Y-67692200D01*
X117407158Y-67645707D01*
X117418999Y-67641008D01*
X117562239Y-67592385D01*
X117562240Y-67592384D01*
X117566145Y-67591059D01*
X117691687Y-67529148D01*
X117827969Y-67461942D01*
X117827974Y-67461939D01*
X117831673Y-67460115D01*
X117890595Y-67420744D01*
X118074407Y-67297926D01*
X118074412Y-67297922D01*
X118077838Y-67295633D01*
X118080932Y-67292919D01*
X118080938Y-67292915D01*
X118297338Y-67103136D01*
X118300427Y-67100427D01*
X118303136Y-67097338D01*
X118492915Y-66880938D01*
X118492919Y-66880932D01*
X118495633Y-66877838D01*
X118579695Y-66752031D01*
X118657821Y-66635106D01*
X118660115Y-66631673D01*
X118791059Y-66366145D01*
X118842991Y-66213158D01*
X118884896Y-66089710D01*
X118884897Y-66089706D01*
X118886224Y-66085797D01*
X118915692Y-65937655D01*
X118943180Y-65799465D01*
X118943181Y-65799459D01*
X118943983Y-65795426D01*
X118944289Y-65790765D01*
X118963076Y-65504119D01*
X118963346Y-65500000D01*
X118947820Y-65263111D01*
X118944253Y-65208686D01*
X118944252Y-65208679D01*
X118943983Y-65204574D01*
X118943074Y-65200000D01*
X118887030Y-64918253D01*
X118887028Y-64918247D01*
X118886224Y-64914203D01*
X118875747Y-64883337D01*
X118792385Y-64637761D01*
X118792384Y-64637760D01*
X118791059Y-64633855D01*
X118701844Y-64452945D01*
X118661942Y-64372031D01*
X118661939Y-64372026D01*
X118660115Y-64368327D01*
X118495633Y-64122162D01*
X118492919Y-64119068D01*
X118492915Y-64119062D01*
X118303136Y-63902662D01*
X118300427Y-63899573D01*
X118297338Y-63896864D01*
X118080938Y-63707085D01*
X118080932Y-63707081D01*
X118077838Y-63704367D01*
X118074412Y-63702078D01*
X118074407Y-63702074D01*
X117835106Y-63542179D01*
X117831673Y-63539885D01*
X117827974Y-63538061D01*
X117827969Y-63538058D01*
X117691687Y-63470852D01*
X117566145Y-63408941D01*
X117562239Y-63407615D01*
X117289710Y-63315104D01*
X117289706Y-63315103D01*
X117285797Y-63313776D01*
X117281753Y-63312972D01*
X117281747Y-63312970D01*
X116999465Y-63256820D01*
X116999459Y-63256819D01*
X116995426Y-63256017D01*
X116991321Y-63255748D01*
X116991314Y-63255747D01*
X116704119Y-63236924D01*
X116700000Y-63236654D01*
X116695881Y-63236924D01*
X116408686Y-63255747D01*
X116408679Y-63255748D01*
X116404574Y-63256017D01*
X116400541Y-63256819D01*
X116400535Y-63256820D01*
X116118253Y-63312970D01*
X116118247Y-63312972D01*
X116114203Y-63313776D01*
X116110294Y-63315103D01*
X116110290Y-63315104D01*
X115837761Y-63407615D01*
X115833855Y-63408941D01*
X115708313Y-63470852D01*
X115572031Y-63538058D01*
X115572026Y-63538061D01*
X115568327Y-63539885D01*
X115564894Y-63542179D01*
X115325593Y-63702074D01*
X115325588Y-63702078D01*
X115322162Y-63704367D01*
X115319068Y-63707081D01*
X115319062Y-63707085D01*
X115102662Y-63896864D01*
X115099573Y-63899573D01*
X115096864Y-63902662D01*
X114907085Y-64119062D01*
X114907081Y-64119068D01*
X114904367Y-64122162D01*
X114739885Y-64368327D01*
X114738061Y-64372026D01*
X114738058Y-64372031D01*
X114698156Y-64452945D01*
X114608941Y-64633855D01*
X114607616Y-64637760D01*
X114607615Y-64637761D01*
X114524254Y-64883337D01*
X114513776Y-64914203D01*
X114512972Y-64918247D01*
X114512970Y-64918253D01*
X114456927Y-65200000D01*
X114456017Y-65204574D01*
X114455748Y-65208679D01*
X114455747Y-65208686D01*
X114452180Y-65263111D01*
X114436654Y-65500000D01*
X114436924Y-65504119D01*
X114455712Y-65790765D01*
X114456017Y-65795426D01*
X114456819Y-65799459D01*
X114456820Y-65799465D01*
X114484308Y-65937655D01*
X114513776Y-66085797D01*
X114515103Y-66089706D01*
X114515104Y-66089710D01*
X114557009Y-66213158D01*
X114608941Y-66366145D01*
X114739885Y-66631673D01*
X114742179Y-66635106D01*
X114820306Y-66752031D01*
X114904367Y-66877838D01*
X114907081Y-66880932D01*
X114907085Y-66880938D01*
X115096864Y-67097338D01*
X115099573Y-67100427D01*
X115102662Y-67103136D01*
X115319062Y-67292915D01*
X115319068Y-67292919D01*
X115322162Y-67295633D01*
X115325588Y-67297922D01*
X115325593Y-67297926D01*
X115509405Y-67420744D01*
X115568327Y-67460115D01*
X115572026Y-67461939D01*
X115572031Y-67461942D01*
X115708313Y-67529148D01*
X115833855Y-67591059D01*
X115837760Y-67592384D01*
X115837761Y-67592385D01*
X115981001Y-67641008D01*
X116039077Y-67681845D01*
X116065856Y-67747598D01*
X116066500Y-67760321D01*
X116066500Y-70859679D01*
X116046498Y-70927800D01*
X115992842Y-70974293D01*
X115981001Y-70978992D01*
X115893472Y-71008704D01*
X115833855Y-71028941D01*
X115767011Y-71061905D01*
X115572031Y-71158058D01*
X115572026Y-71158061D01*
X115568327Y-71159885D01*
X115564894Y-71162179D01*
X115325593Y-71322074D01*
X115325588Y-71322078D01*
X115322162Y-71324367D01*
X115319068Y-71327081D01*
X115319062Y-71327085D01*
X115143689Y-71480884D01*
X115099573Y-71519573D01*
X115096864Y-71522662D01*
X114907085Y-71739062D01*
X114907081Y-71739068D01*
X114904367Y-71742162D01*
X114902078Y-71745588D01*
X114902074Y-71745593D01*
X114818147Y-71871200D01*
X114739885Y-71988327D01*
X114738061Y-71992026D01*
X114738058Y-71992031D01*
X114685207Y-72099203D01*
X114608941Y-72253855D01*
X114607616Y-72257760D01*
X114607615Y-72257761D01*
X114517194Y-72524135D01*
X114513776Y-72534203D01*
X114512972Y-72538247D01*
X114512970Y-72538253D01*
X114461829Y-72795356D01*
X114456017Y-72824574D01*
X114455748Y-72828679D01*
X114455747Y-72828686D01*
X114439764Y-73072552D01*
X114436654Y-73120000D01*
X106508500Y-73120000D01*
X106508500Y-58374394D01*
X107990314Y-58374394D01*
X107999143Y-58386014D01*
X108203970Y-58534830D01*
X108210650Y-58539070D01*
X108469234Y-58681228D01*
X108476369Y-58684585D01*
X108750746Y-58793219D01*
X108758237Y-58795653D01*
X109044059Y-58869039D01*
X109051830Y-58870521D01*
X109344570Y-58907503D01*
X109352460Y-58908000D01*
X109647540Y-58908000D01*
X109655430Y-58907503D01*
X109948170Y-58870521D01*
X109955941Y-58869039D01*
X110241763Y-58795653D01*
X110249254Y-58793219D01*
X110523631Y-58684585D01*
X110530766Y-58681228D01*
X110771548Y-58548857D01*
X129611500Y-58548857D01*
X129611501Y-59551142D01*
X129622463Y-59656801D01*
X129678380Y-59824404D01*
X129771353Y-59974648D01*
X129896397Y-60099473D01*
X129902627Y-60103313D01*
X129902628Y-60103314D01*
X129933492Y-60122339D01*
X130046802Y-60192184D01*
X130053750Y-60194489D01*
X130053751Y-60194489D01*
X130207971Y-60245642D01*
X130207973Y-60245642D01*
X130214502Y-60247808D01*
X130221347Y-60248509D01*
X130221355Y-60248511D01*
X130223346Y-60248715D01*
X130224495Y-60249184D01*
X130228072Y-60249951D01*
X130227935Y-60250589D01*
X130289073Y-60275558D01*
X130329853Y-60333674D01*
X130336500Y-60374058D01*
X130336500Y-60699933D01*
X130335973Y-60711116D01*
X130334298Y-60718609D01*
X130334547Y-60726535D01*
X130334547Y-60726536D01*
X130336438Y-60786686D01*
X130336500Y-60790645D01*
X130336500Y-60818556D01*
X130336997Y-60822490D01*
X130336997Y-60822491D01*
X130337005Y-60822556D01*
X130337938Y-60834393D01*
X130339327Y-60878589D01*
X130344978Y-60898039D01*
X130348987Y-60917400D01*
X130351526Y-60937497D01*
X130354445Y-60944868D01*
X130354445Y-60944870D01*
X130367804Y-60978612D01*
X130371649Y-60989842D01*
X130383982Y-61032293D01*
X130388015Y-61039112D01*
X130388017Y-61039117D01*
X130394293Y-61049728D01*
X130402988Y-61067476D01*
X130410448Y-61086317D01*
X130415110Y-61092733D01*
X130415110Y-61092734D01*
X130436436Y-61122087D01*
X130442952Y-61132007D01*
X130465458Y-61170062D01*
X130479779Y-61184383D01*
X130492619Y-61199416D01*
X130504528Y-61215807D01*
X130510634Y-61220858D01*
X130538605Y-61243998D01*
X130547384Y-61251988D01*
X141329595Y-72034199D01*
X141363621Y-72096511D01*
X141366500Y-72123294D01*
X141366500Y-74435036D01*
X141346498Y-74503157D01*
X141306804Y-74542179D01*
X141295969Y-74548884D01*
X141290796Y-74554066D01*
X141178242Y-74666816D01*
X141178238Y-74666821D01*
X141173071Y-74671997D01*
X141169231Y-74678227D01*
X141169230Y-74678228D01*
X141086364Y-74812662D01*
X141081791Y-74820080D01*
X141027026Y-74985191D01*
X141016500Y-75087928D01*
X141016500Y-75787072D01*
X141016837Y-75790318D01*
X141016837Y-75790322D01*
X141019500Y-75815983D01*
X141027293Y-75891093D01*
X141029474Y-75897629D01*
X141029474Y-75897631D01*
X141042268Y-75935978D01*
X141082346Y-76056107D01*
X141173884Y-76204031D01*
X141179065Y-76209203D01*
X141181139Y-76211273D01*
X141182105Y-76213038D01*
X141183613Y-76214941D01*
X141183287Y-76215199D01*
X141215219Y-76273554D01*
X141210218Y-76344375D01*
X141181292Y-76389470D01*
X141178636Y-76392131D01*
X141169625Y-76403540D01*
X141086088Y-76539063D01*
X141079944Y-76552241D01*
X141029685Y-76703766D01*
X141026819Y-76717132D01*
X141017328Y-76809770D01*
X141017000Y-76816185D01*
X141017000Y-76890385D01*
X141021475Y-76905624D01*
X141022865Y-76906829D01*
X141030548Y-76908500D01*
X142964885Y-76908500D01*
X142980124Y-76904025D01*
X142981329Y-76902635D01*
X142983000Y-76894952D01*
X142983000Y-76816234D01*
X142982663Y-76809718D01*
X142972925Y-76715868D01*
X142970032Y-76702472D01*
X142919512Y-76551047D01*
X142913347Y-76537885D01*
X142829574Y-76402508D01*
X142820536Y-76391106D01*
X142818861Y-76389433D01*
X142818081Y-76388007D01*
X142815993Y-76385373D01*
X142816444Y-76385016D01*
X142784781Y-76327151D01*
X142789784Y-76256331D01*
X142818701Y-76211246D01*
X142821756Y-76208185D01*
X142826929Y-76203003D01*
X142852696Y-76161202D01*
X142914369Y-76061150D01*
X142914370Y-76061148D01*
X142918209Y-76054920D01*
X142972974Y-75889809D01*
X142983500Y-75787072D01*
X142983500Y-75087928D01*
X142982879Y-75081942D01*
X142973419Y-74990765D01*
X142973418Y-74990761D01*
X142972707Y-74983907D01*
X142965820Y-74963262D01*
X142919972Y-74825841D01*
X142917654Y-74818893D01*
X142826116Y-74670969D01*
X142785233Y-74630157D01*
X142708184Y-74553242D01*
X142708179Y-74553238D01*
X142703003Y-74548071D01*
X142693386Y-74542143D01*
X142691559Y-74540114D01*
X142691027Y-74539693D01*
X142691099Y-74539602D01*
X142645892Y-74489372D01*
X142633500Y-74434882D01*
X142633500Y-71887468D01*
X142634027Y-71876285D01*
X142635702Y-71868792D01*
X142635324Y-71856745D01*
X142633562Y-71800702D01*
X142633500Y-71796744D01*
X142633500Y-71768844D01*
X142632996Y-71764853D01*
X142632063Y-71753011D01*
X142631972Y-71750093D01*
X142630674Y-71708811D01*
X142625021Y-71689352D01*
X142621012Y-71669993D01*
X142620846Y-71668683D01*
X142618474Y-71649903D01*
X142615558Y-71642537D01*
X142615556Y-71642531D01*
X142602200Y-71608798D01*
X142598355Y-71597568D01*
X142588230Y-71562717D01*
X142588230Y-71562716D01*
X142586019Y-71555107D01*
X142575705Y-71537666D01*
X142567008Y-71519913D01*
X142562472Y-71508458D01*
X142559552Y-71501083D01*
X142533563Y-71465312D01*
X142527047Y-71455392D01*
X142508578Y-71424163D01*
X142504542Y-71417338D01*
X142490221Y-71403017D01*
X142477380Y-71387983D01*
X142470131Y-71378006D01*
X142465472Y-71371593D01*
X142431395Y-71343402D01*
X142422616Y-71335412D01*
X139829443Y-68742239D01*
X137513961Y-66426756D01*
X137479936Y-66364446D01*
X137485001Y-66293631D01*
X137527548Y-66236795D01*
X137593390Y-66212034D01*
X137769830Y-66198457D01*
X137769834Y-66198456D01*
X137775972Y-66197984D01*
X137966463Y-66144798D01*
X137971967Y-66142018D01*
X137971969Y-66142017D01*
X138137495Y-66058404D01*
X138137497Y-66058403D01*
X138142996Y-66055625D01*
X138298847Y-65933861D01*
X138422364Y-65790765D01*
X138424049Y-65788813D01*
X138424050Y-65788811D01*
X138428078Y-65784145D01*
X138525769Y-65612179D01*
X138588197Y-65424513D01*
X138612985Y-65228295D01*
X138613380Y-65200000D01*
X138594080Y-65003167D01*
X138582666Y-64965360D01*
X138538697Y-64819731D01*
X138536916Y-64813831D01*
X138444066Y-64639204D01*
X138357562Y-64533140D01*
X138322960Y-64490713D01*
X138322957Y-64490710D01*
X138319065Y-64485938D01*
X138312724Y-64480692D01*
X138279184Y-64452945D01*
X138239446Y-64394111D01*
X138233500Y-64355861D01*
X138233500Y-60334500D01*
X138253502Y-60266379D01*
X138307158Y-60219886D01*
X138359500Y-60208500D01*
X139147445Y-60208499D01*
X139171142Y-60208499D01*
X139174386Y-60208162D01*
X139174394Y-60208162D01*
X139221293Y-60203296D01*
X139276801Y-60197537D01*
X139444404Y-60141620D01*
X139594648Y-60048647D01*
X139719473Y-59923603D01*
X139812184Y-59773198D01*
X139816909Y-59758954D01*
X139865642Y-59612029D01*
X139865642Y-59612027D01*
X139867808Y-59605498D01*
X139878500Y-59501143D01*
X139878500Y-59038113D01*
X142237214Y-59038113D01*
X142237889Y-59043691D01*
X142243265Y-59088113D01*
X142263130Y-59252277D01*
X142264777Y-59257631D01*
X142264778Y-59257635D01*
X142302905Y-59381566D01*
X142326563Y-59458466D01*
X142425505Y-59650164D01*
X142467286Y-59704614D01*
X142553415Y-59816860D01*
X142553419Y-59816864D01*
X142556831Y-59821311D01*
X142560980Y-59825086D01*
X142712242Y-59962724D01*
X142712245Y-59962726D01*
X142716389Y-59966497D01*
X142899135Y-60081134D01*
X142903331Y-60082821D01*
X142954694Y-60131331D01*
X142969229Y-60172067D01*
X142969327Y-60175189D01*
X142974773Y-60193935D01*
X142974978Y-60194639D01*
X142978987Y-60214000D01*
X142981526Y-60234097D01*
X142984445Y-60241468D01*
X142984445Y-60241470D01*
X142997804Y-60275212D01*
X143001649Y-60286442D01*
X143011771Y-60321283D01*
X143013982Y-60328893D01*
X143018015Y-60335712D01*
X143018017Y-60335717D01*
X143024293Y-60346328D01*
X143032988Y-60364076D01*
X143040448Y-60382917D01*
X143045110Y-60389333D01*
X143045110Y-60389334D01*
X143066436Y-60418687D01*
X143072952Y-60428607D01*
X143095458Y-60466662D01*
X143109779Y-60480983D01*
X143122619Y-60496016D01*
X143134528Y-60512407D01*
X143140634Y-60517458D01*
X143168605Y-60540598D01*
X143177384Y-60548588D01*
X147829595Y-65200799D01*
X147863621Y-65263111D01*
X147866500Y-65289894D01*
X147866500Y-74135036D01*
X147846498Y-74203157D01*
X147806804Y-74242179D01*
X147795969Y-74248884D01*
X147790796Y-74254066D01*
X147678242Y-74366816D01*
X147678238Y-74366821D01*
X147673071Y-74371997D01*
X147669231Y-74378227D01*
X147669230Y-74378228D01*
X147586364Y-74512662D01*
X147581791Y-74520080D01*
X147527026Y-74685191D01*
X147516500Y-74787928D01*
X147516500Y-75487072D01*
X147527293Y-75591093D01*
X147529474Y-75597629D01*
X147529474Y-75597631D01*
X147552649Y-75667095D01*
X147582346Y-75756107D01*
X147673884Y-75904031D01*
X147679065Y-75909203D01*
X147681139Y-75911273D01*
X147682105Y-75913038D01*
X147683613Y-75914941D01*
X147683287Y-75915199D01*
X147715219Y-75973554D01*
X147710218Y-76044375D01*
X147681292Y-76089470D01*
X147678636Y-76092131D01*
X147669625Y-76103540D01*
X147586088Y-76239063D01*
X147579944Y-76252241D01*
X147529685Y-76403766D01*
X147526819Y-76417132D01*
X147517328Y-76509770D01*
X147517000Y-76516185D01*
X147517000Y-76590385D01*
X147521475Y-76605624D01*
X147522865Y-76606829D01*
X147530548Y-76608500D01*
X149464885Y-76608500D01*
X149480124Y-76604025D01*
X149481329Y-76602635D01*
X149483000Y-76594952D01*
X149483000Y-76516234D01*
X149482663Y-76509718D01*
X149472925Y-76415868D01*
X149470032Y-76402472D01*
X149419512Y-76251047D01*
X149413347Y-76237885D01*
X149329574Y-76102508D01*
X149320536Y-76091106D01*
X149318861Y-76089433D01*
X149318081Y-76088007D01*
X149315993Y-76085373D01*
X149316444Y-76085016D01*
X149284781Y-76027151D01*
X149289784Y-75956331D01*
X149318701Y-75911246D01*
X149321756Y-75908185D01*
X149326929Y-75903003D01*
X149332966Y-75893209D01*
X149414369Y-75761150D01*
X149414370Y-75761148D01*
X149418209Y-75754920D01*
X149472974Y-75589809D01*
X149483500Y-75487072D01*
X149483500Y-74787928D01*
X149479961Y-74753816D01*
X149473419Y-74690765D01*
X149473418Y-74690761D01*
X149472707Y-74683907D01*
X149470469Y-74677197D01*
X149419972Y-74525841D01*
X149417654Y-74518893D01*
X149326116Y-74370969D01*
X149268601Y-74313554D01*
X149208184Y-74253242D01*
X149208179Y-74253238D01*
X149203003Y-74248071D01*
X149193386Y-74242143D01*
X149191559Y-74240114D01*
X149191027Y-74239693D01*
X149191099Y-74239602D01*
X149145892Y-74189372D01*
X149133500Y-74134882D01*
X149133500Y-65054063D01*
X149134027Y-65042879D01*
X149135701Y-65035391D01*
X149133562Y-64967332D01*
X149133500Y-64963375D01*
X149133500Y-64935444D01*
X149132994Y-64931438D01*
X149132061Y-64919592D01*
X149130922Y-64883337D01*
X149130673Y-64875410D01*
X149125022Y-64855958D01*
X149121014Y-64836606D01*
X149119468Y-64824368D01*
X149119467Y-64824366D01*
X149118474Y-64816503D01*
X149102194Y-64775386D01*
X149098359Y-64764185D01*
X149086018Y-64721706D01*
X149081985Y-64714887D01*
X149081983Y-64714882D01*
X149075707Y-64704271D01*
X149067010Y-64686521D01*
X149059552Y-64667683D01*
X149033571Y-64631923D01*
X149027053Y-64622001D01*
X149008578Y-64590760D01*
X149008574Y-64590755D01*
X149004542Y-64583937D01*
X148990218Y-64569613D01*
X148977376Y-64554578D01*
X148965472Y-64538193D01*
X148931406Y-64510011D01*
X148922627Y-64502022D01*
X144529035Y-60108430D01*
X144495009Y-60046118D01*
X144500074Y-59975303D01*
X144535801Y-59923952D01*
X144538291Y-59921803D01*
X144542851Y-59918526D01*
X144641964Y-59816249D01*
X144689074Y-59767636D01*
X144689076Y-59767633D01*
X144692977Y-59763608D01*
X144813297Y-59584553D01*
X144827964Y-59551142D01*
X144897751Y-59392161D01*
X144900008Y-59387020D01*
X144950368Y-59177255D01*
X144962786Y-58961887D01*
X144942670Y-58795653D01*
X144937544Y-58753292D01*
X144937544Y-58753291D01*
X144936870Y-58747723D01*
X144873437Y-58541534D01*
X144787170Y-58374394D01*
X162990314Y-58374394D01*
X162999143Y-58386014D01*
X163203970Y-58534830D01*
X163210650Y-58539070D01*
X163469234Y-58681228D01*
X163476369Y-58684585D01*
X163750746Y-58793219D01*
X163758237Y-58795653D01*
X164044059Y-58869039D01*
X164051830Y-58870521D01*
X164344570Y-58907503D01*
X164352460Y-58908000D01*
X164647540Y-58908000D01*
X164655430Y-58907503D01*
X164948170Y-58870521D01*
X164955941Y-58869039D01*
X165241763Y-58795653D01*
X165249254Y-58793219D01*
X165523631Y-58684585D01*
X165530766Y-58681228D01*
X165789350Y-58539070D01*
X165796030Y-58534830D01*
X166001230Y-58385744D01*
X166009653Y-58374821D01*
X166002749Y-58361960D01*
X164512810Y-56872020D01*
X164498869Y-56864408D01*
X164497034Y-56864539D01*
X164490420Y-56868790D01*
X162996927Y-58362284D01*
X162990314Y-58374394D01*
X144787170Y-58374394D01*
X144774495Y-58349836D01*
X144712756Y-58269376D01*
X144646585Y-58183140D01*
X144646581Y-58183136D01*
X144643169Y-58178689D01*
X144537602Y-58082631D01*
X144487758Y-58037276D01*
X144487755Y-58037274D01*
X144483611Y-58033503D01*
X144440614Y-58006531D01*
X144305621Y-57921849D01*
X144305617Y-57921847D01*
X144300865Y-57918866D01*
X144100707Y-57838403D01*
X143889463Y-57794656D01*
X143884852Y-57794390D01*
X143884851Y-57794390D01*
X143836548Y-57791605D01*
X143836544Y-57791605D01*
X143834725Y-57791500D01*
X143395265Y-57791500D01*
X143392478Y-57791749D01*
X143392472Y-57791749D01*
X143325760Y-57797703D01*
X143235128Y-57805792D01*
X143120085Y-57837264D01*
X143032464Y-57861234D01*
X143032460Y-57861235D01*
X143027048Y-57862716D01*
X142832337Y-57955589D01*
X142657149Y-58081474D01*
X142619637Y-58120183D01*
X142514488Y-58228689D01*
X142507023Y-58236392D01*
X142386703Y-58415447D01*
X142384444Y-58420593D01*
X142384443Y-58420595D01*
X142362495Y-58470595D01*
X142299992Y-58612980D01*
X142249632Y-58822745D01*
X142237214Y-59038113D01*
X139878500Y-59038113D01*
X139878499Y-58498858D01*
X139867537Y-58393199D01*
X139811620Y-58225596D01*
X139718647Y-58075352D01*
X139593603Y-57950527D01*
X139443198Y-57857816D01*
X139436249Y-57855511D01*
X139282029Y-57804358D01*
X139282027Y-57804358D01*
X139275498Y-57802192D01*
X139171143Y-57791500D01*
X138525022Y-57791500D01*
X137868858Y-57791501D01*
X137865614Y-57791838D01*
X137865606Y-57791838D01*
X137818707Y-57796704D01*
X137763199Y-57802463D01*
X137595596Y-57858380D01*
X137445352Y-57951353D01*
X137320527Y-58076397D01*
X137316685Y-58082629D01*
X137316684Y-58082631D01*
X137258395Y-58177194D01*
X137205623Y-58224688D01*
X137135552Y-58236112D01*
X137066336Y-58204273D01*
X136937758Y-58087276D01*
X136937755Y-58087274D01*
X136933611Y-58083503D01*
X136912377Y-58070183D01*
X136755621Y-57971849D01*
X136755617Y-57971847D01*
X136750865Y-57968866D01*
X136550707Y-57888403D01*
X136339463Y-57844656D01*
X136334852Y-57844390D01*
X136334851Y-57844390D01*
X136286548Y-57841605D01*
X136286544Y-57841605D01*
X136284725Y-57841500D01*
X135845265Y-57841500D01*
X135842478Y-57841749D01*
X135842472Y-57841749D01*
X135775760Y-57847703D01*
X135685128Y-57855792D01*
X135570085Y-57887264D01*
X135482464Y-57911234D01*
X135482460Y-57911235D01*
X135477048Y-57912716D01*
X135282337Y-58005589D01*
X135107149Y-58131474D01*
X135057081Y-58183140D01*
X134972356Y-58270570D01*
X134957023Y-58286392D01*
X134836703Y-58465447D01*
X134834444Y-58470593D01*
X134834443Y-58470595D01*
X134820602Y-58502125D01*
X134749992Y-58662980D01*
X134699632Y-58872745D01*
X134687214Y-59088113D01*
X134713130Y-59302277D01*
X134776563Y-59508466D01*
X134875505Y-59700164D01*
X134878920Y-59704614D01*
X135003415Y-59866860D01*
X135003419Y-59866864D01*
X135006831Y-59871311D01*
X135010980Y-59875086D01*
X135162242Y-60012724D01*
X135162245Y-60012726D01*
X135166389Y-60016497D01*
X135171141Y-60019478D01*
X135344379Y-60128151D01*
X135344383Y-60128153D01*
X135349135Y-60131134D01*
X135549293Y-60211597D01*
X135760537Y-60255344D01*
X135765148Y-60255610D01*
X135765149Y-60255610D01*
X135813452Y-60258395D01*
X135813456Y-60258395D01*
X135815275Y-60258500D01*
X136254735Y-60258500D01*
X136257522Y-60258251D01*
X136257528Y-60258251D01*
X136324240Y-60252297D01*
X136414872Y-60244208D01*
X136561260Y-60204161D01*
X136617536Y-60188766D01*
X136617540Y-60188765D01*
X136622952Y-60187284D01*
X136750320Y-60126532D01*
X136786255Y-60109392D01*
X136856351Y-60098119D01*
X136921414Y-60126532D01*
X136960788Y-60185610D01*
X136966500Y-60223118D01*
X136966500Y-64354876D01*
X136946498Y-64422997D01*
X136919456Y-64453069D01*
X136890975Y-64475968D01*
X136763846Y-64627474D01*
X136760879Y-64632872D01*
X136760875Y-64632877D01*
X136715793Y-64714882D01*
X136668567Y-64800787D01*
X136666706Y-64806654D01*
X136666705Y-64806656D01*
X136647311Y-64867793D01*
X136608765Y-64989306D01*
X136586719Y-65185851D01*
X136587235Y-65191997D01*
X136587158Y-65197532D01*
X136566209Y-65265367D01*
X136511910Y-65311108D01*
X136441502Y-65320232D01*
X136377339Y-65289842D01*
X136372075Y-65284871D01*
X131640405Y-60553200D01*
X131606379Y-60490888D01*
X131603500Y-60464105D01*
X131603500Y-60373933D01*
X131623502Y-60305812D01*
X131677158Y-60259319D01*
X131716498Y-60248606D01*
X131719943Y-60248249D01*
X131719947Y-60248248D01*
X131726801Y-60247537D01*
X131894404Y-60191620D01*
X132044648Y-60098647D01*
X132169473Y-59973603D01*
X132262184Y-59823198D01*
X132276701Y-59779430D01*
X132315642Y-59662029D01*
X132315642Y-59662027D01*
X132317808Y-59655498D01*
X132328500Y-59551143D01*
X132328499Y-58548858D01*
X132327740Y-58541534D01*
X132319845Y-58465447D01*
X132317537Y-58443199D01*
X132261620Y-58275596D01*
X132168647Y-58125352D01*
X132043603Y-58000527D01*
X131893198Y-57907816D01*
X131886249Y-57905511D01*
X131732029Y-57854358D01*
X131732027Y-57854358D01*
X131725498Y-57852192D01*
X131621143Y-57841500D01*
X130975022Y-57841500D01*
X130318858Y-57841501D01*
X130315614Y-57841838D01*
X130315606Y-57841838D01*
X130268707Y-57846704D01*
X130213199Y-57852463D01*
X130045596Y-57908380D01*
X129895352Y-58001353D01*
X129770527Y-58126397D01*
X129677816Y-58276802D01*
X129675511Y-58283750D01*
X129675511Y-58283751D01*
X129630122Y-58420595D01*
X129622192Y-58444502D01*
X129611500Y-58548857D01*
X110771548Y-58548857D01*
X110789350Y-58539070D01*
X110796030Y-58534830D01*
X111001230Y-58385744D01*
X111009653Y-58374821D01*
X111002749Y-58361960D01*
X109512810Y-56872020D01*
X109498869Y-56864408D01*
X109497034Y-56864539D01*
X109490420Y-56868790D01*
X107996927Y-58362284D01*
X107990314Y-58374394D01*
X106508500Y-58374394D01*
X106508500Y-56503958D01*
X107087488Y-56503958D01*
X107106015Y-56798436D01*
X107107008Y-56806297D01*
X107162296Y-57096128D01*
X107164267Y-57103805D01*
X107255446Y-57384424D01*
X107258361Y-57391787D01*
X107383993Y-57658770D01*
X107387805Y-57665703D01*
X107545909Y-57914835D01*
X107550563Y-57921241D01*
X107615521Y-57999761D01*
X107628040Y-58008217D01*
X107638778Y-58002011D01*
X109127980Y-56512810D01*
X109134357Y-56501131D01*
X109864408Y-56501131D01*
X109864539Y-56502966D01*
X109868790Y-56509580D01*
X111360119Y-58000908D01*
X111373381Y-58008150D01*
X111383485Y-58000962D01*
X111449437Y-57921241D01*
X111454091Y-57914835D01*
X111612195Y-57665703D01*
X111616007Y-57658770D01*
X111741639Y-57391787D01*
X111744554Y-57384424D01*
X111835733Y-57103805D01*
X111837704Y-57096128D01*
X111892992Y-56806297D01*
X111893985Y-56798436D01*
X111912512Y-56503958D01*
X162087488Y-56503958D01*
X162106015Y-56798436D01*
X162107008Y-56806297D01*
X162162296Y-57096128D01*
X162164267Y-57103805D01*
X162255446Y-57384424D01*
X162258361Y-57391787D01*
X162383993Y-57658770D01*
X162387805Y-57665703D01*
X162545909Y-57914835D01*
X162550563Y-57921241D01*
X162615521Y-57999761D01*
X162628040Y-58008217D01*
X162638778Y-58002011D01*
X164127980Y-56512810D01*
X164134357Y-56501131D01*
X164864408Y-56501131D01*
X164864539Y-56502966D01*
X164868790Y-56509580D01*
X166360119Y-58000908D01*
X166373381Y-58008150D01*
X166383485Y-58000962D01*
X166449437Y-57921241D01*
X166454091Y-57914835D01*
X166612195Y-57665703D01*
X166616007Y-57658770D01*
X166741639Y-57391787D01*
X166744554Y-57384424D01*
X166835733Y-57103805D01*
X166837704Y-57096128D01*
X166892992Y-56806297D01*
X166893985Y-56798436D01*
X166912512Y-56503958D01*
X166912512Y-56496042D01*
X166893985Y-56201564D01*
X166892992Y-56193703D01*
X166837704Y-55903872D01*
X166835733Y-55896195D01*
X166744554Y-55615576D01*
X166741639Y-55608213D01*
X166616007Y-55341230D01*
X166612195Y-55334297D01*
X166454091Y-55085165D01*
X166449437Y-55078759D01*
X166384479Y-55000239D01*
X166371960Y-54991783D01*
X166361222Y-54997989D01*
X164872020Y-56487190D01*
X164864408Y-56501131D01*
X164134357Y-56501131D01*
X164135592Y-56498869D01*
X164135461Y-56497034D01*
X164131210Y-56490420D01*
X162639881Y-54999092D01*
X162626619Y-54991850D01*
X162616515Y-54999038D01*
X162550563Y-55078759D01*
X162545909Y-55085165D01*
X162387805Y-55334297D01*
X162383993Y-55341230D01*
X162258361Y-55608213D01*
X162255446Y-55615576D01*
X162164267Y-55896195D01*
X162162296Y-55903872D01*
X162107008Y-56193703D01*
X162106015Y-56201564D01*
X162087488Y-56496042D01*
X162087488Y-56503958D01*
X111912512Y-56503958D01*
X111912512Y-56496042D01*
X111893985Y-56201564D01*
X111892992Y-56193703D01*
X111837704Y-55903872D01*
X111835733Y-55896195D01*
X111744554Y-55615576D01*
X111741639Y-55608213D01*
X111616007Y-55341230D01*
X111612195Y-55334297D01*
X111454091Y-55085165D01*
X111449437Y-55078759D01*
X111384479Y-55000239D01*
X111371960Y-54991783D01*
X111361222Y-54997989D01*
X109872020Y-56487190D01*
X109864408Y-56501131D01*
X109134357Y-56501131D01*
X109135592Y-56498869D01*
X109135461Y-56497034D01*
X109131210Y-56490420D01*
X107639881Y-54999092D01*
X107626619Y-54991850D01*
X107616515Y-54999038D01*
X107550563Y-55078759D01*
X107545909Y-55085165D01*
X107387805Y-55334297D01*
X107383993Y-55341230D01*
X107258361Y-55608213D01*
X107255446Y-55615576D01*
X107164267Y-55896195D01*
X107162296Y-55903872D01*
X107107008Y-56193703D01*
X107106015Y-56201564D01*
X107087488Y-56496042D01*
X107087488Y-56503958D01*
X106508500Y-56503958D01*
X106508500Y-54625179D01*
X107990347Y-54625179D01*
X107997251Y-54638040D01*
X109487190Y-56127980D01*
X109501131Y-56135592D01*
X109502966Y-56135461D01*
X109509580Y-56131210D01*
X111003073Y-54637716D01*
X111009686Y-54625606D01*
X111009362Y-54625179D01*
X162990347Y-54625179D01*
X162997251Y-54638040D01*
X164487190Y-56127980D01*
X164501131Y-56135592D01*
X164502966Y-56135461D01*
X164509580Y-56131210D01*
X166003073Y-54637716D01*
X166009686Y-54625606D01*
X166000857Y-54613986D01*
X165796030Y-54465170D01*
X165789350Y-54460930D01*
X165530766Y-54318772D01*
X165523631Y-54315415D01*
X165249254Y-54206781D01*
X165241763Y-54204347D01*
X164955941Y-54130961D01*
X164948170Y-54129479D01*
X164655430Y-54092497D01*
X164647540Y-54092000D01*
X164352460Y-54092000D01*
X164344570Y-54092497D01*
X164051830Y-54129479D01*
X164044059Y-54130961D01*
X163758237Y-54204347D01*
X163750746Y-54206781D01*
X163476369Y-54315415D01*
X163469234Y-54318772D01*
X163210650Y-54460930D01*
X163203970Y-54465170D01*
X162998770Y-54614256D01*
X162990347Y-54625179D01*
X111009362Y-54625179D01*
X111000857Y-54613986D01*
X110796030Y-54465170D01*
X110789350Y-54460930D01*
X110530766Y-54318772D01*
X110523631Y-54315415D01*
X110249254Y-54206781D01*
X110241763Y-54204347D01*
X109955941Y-54130961D01*
X109948170Y-54129479D01*
X109655430Y-54092497D01*
X109647540Y-54092000D01*
X109352460Y-54092000D01*
X109344570Y-54092497D01*
X109051830Y-54129479D01*
X109044059Y-54130961D01*
X108758237Y-54204347D01*
X108750746Y-54206781D01*
X108476369Y-54315415D01*
X108469234Y-54318772D01*
X108210650Y-54460930D01*
X108203970Y-54465170D01*
X107998770Y-54614256D01*
X107990347Y-54625179D01*
X106508500Y-54625179D01*
X106508500Y-53784500D01*
X106528502Y-53716379D01*
X106582158Y-53669886D01*
X106634500Y-53658500D01*
X167615500Y-53658500D01*
X167683621Y-53678502D01*
G37*
%TD.AperFunction*%
%TD*%
M02*
