%TF.GenerationSoftware,KiCad,Pcbnew,(6.0.11)*%
%TF.CreationDate,2023-02-15T13:18:50+01:00*%
%TF.ProjectId,FringeLocker,4672696e-6765-44c6-9f63-6b65722e6b69,0.1*%
%TF.SameCoordinates,Original*%
%TF.FileFunction,Legend,Top*%
%TF.FilePolarity,Positive*%
%FSLAX46Y46*%
G04 Gerber Fmt 4.6, Leading zero omitted, Abs format (unit mm)*
G04 Created by KiCad (PCBNEW (6.0.11)) date 2023-02-15 13:18:50*
%MOMM*%
%LPD*%
G01*
G04 APERTURE LIST*
%ADD10C,0.150000*%
%ADD11C,0.120000*%
%ADD12C,0.100000*%
G04 APERTURE END LIST*
D10*
X114738095Y-100142857D02*
X116261904Y-100142857D01*
X115500000Y-100904761D02*
X115500000Y-99380952D01*
X115738095Y-58642857D02*
X117261904Y-58642857D01*
X161238095Y-100142857D02*
X162761904Y-100142857D01*
X157738095Y-59142857D02*
X159261904Y-59142857D01*
X158500000Y-59904761D02*
X158500000Y-58380952D01*
X133366666Y-95752380D02*
X133557142Y-95752380D01*
X133652380Y-95800000D01*
X133747619Y-95895238D01*
X133795238Y-96085714D01*
X133795238Y-96419047D01*
X133747619Y-96609523D01*
X133652380Y-96704761D01*
X133557142Y-96752380D01*
X133366666Y-96752380D01*
X133271428Y-96704761D01*
X133176190Y-96609523D01*
X133128571Y-96419047D01*
X133128571Y-96085714D01*
X133176190Y-95895238D01*
X133271428Y-95800000D01*
X133366666Y-95752380D01*
X134652380Y-96085714D02*
X134652380Y-96752380D01*
X134223809Y-96085714D02*
X134223809Y-96609523D01*
X134271428Y-96704761D01*
X134366666Y-96752380D01*
X134509523Y-96752380D01*
X134604761Y-96704761D01*
X134652380Y-96657142D01*
X134985714Y-96085714D02*
X135366666Y-96085714D01*
X135128571Y-95752380D02*
X135128571Y-96609523D01*
X135176190Y-96704761D01*
X135271428Y-96752380D01*
X135366666Y-96752380D01*
X149647619Y-100552380D02*
X149980952Y-101552380D01*
X150314285Y-100552380D01*
X150647619Y-101171428D02*
X151409523Y-101171428D01*
X151028571Y-101552380D02*
X151028571Y-100790476D01*
X114714285Y-103647380D02*
X115285714Y-103647380D01*
X115000000Y-104647380D02*
X115000000Y-103647380D01*
X115619047Y-104647380D02*
X115619047Y-103647380D01*
X116000000Y-103647380D01*
X116095238Y-103695000D01*
X116142857Y-103742619D01*
X116190476Y-103837857D01*
X116190476Y-103980714D01*
X116142857Y-104075952D01*
X116095238Y-104123571D01*
X116000000Y-104171190D01*
X115619047Y-104171190D01*
X113333333Y-106209761D02*
X113476190Y-106257380D01*
X113714285Y-106257380D01*
X113809523Y-106209761D01*
X113857142Y-106162142D01*
X113904761Y-106066904D01*
X113904761Y-105971666D01*
X113857142Y-105876428D01*
X113809523Y-105828809D01*
X113714285Y-105781190D01*
X113523809Y-105733571D01*
X113428571Y-105685952D01*
X113380952Y-105638333D01*
X113333333Y-105543095D01*
X113333333Y-105447857D01*
X113380952Y-105352619D01*
X113428571Y-105305000D01*
X113523809Y-105257380D01*
X113761904Y-105257380D01*
X113904761Y-105305000D01*
X114761904Y-106209761D02*
X114666666Y-106257380D01*
X114476190Y-106257380D01*
X114380952Y-106209761D01*
X114333333Y-106162142D01*
X114285714Y-106066904D01*
X114285714Y-105781190D01*
X114333333Y-105685952D01*
X114380952Y-105638333D01*
X114476190Y-105590714D01*
X114666666Y-105590714D01*
X114761904Y-105638333D01*
X115619047Y-106257380D02*
X115619047Y-105733571D01*
X115571428Y-105638333D01*
X115476190Y-105590714D01*
X115285714Y-105590714D01*
X115190476Y-105638333D01*
X115619047Y-106209761D02*
X115523809Y-106257380D01*
X115285714Y-106257380D01*
X115190476Y-106209761D01*
X115142857Y-106114523D01*
X115142857Y-106019285D01*
X115190476Y-105924047D01*
X115285714Y-105876428D01*
X115523809Y-105876428D01*
X115619047Y-105828809D01*
X116238095Y-106257380D02*
X116142857Y-106209761D01*
X116095238Y-106114523D01*
X116095238Y-105257380D01*
X117000000Y-106209761D02*
X116904761Y-106257380D01*
X116714285Y-106257380D01*
X116619047Y-106209761D01*
X116571428Y-106114523D01*
X116571428Y-105733571D01*
X116619047Y-105638333D01*
X116714285Y-105590714D01*
X116904761Y-105590714D01*
X117000000Y-105638333D01*
X117047619Y-105733571D01*
X117047619Y-105828809D01*
X116571428Y-105924047D01*
X117476190Y-106257380D02*
X117476190Y-105590714D01*
X117476190Y-105781190D02*
X117523809Y-105685952D01*
X117571428Y-105638333D01*
X117666666Y-105590714D01*
X117761904Y-105590714D01*
X127464047Y-93337500D02*
X127368809Y-93289880D01*
X127225952Y-93289880D01*
X127083095Y-93337500D01*
X126987857Y-93432738D01*
X126940238Y-93527976D01*
X126892619Y-93718452D01*
X126892619Y-93861309D01*
X126940238Y-94051785D01*
X126987857Y-94147023D01*
X127083095Y-94242261D01*
X127225952Y-94289880D01*
X127321190Y-94289880D01*
X127464047Y-94242261D01*
X127511666Y-94194642D01*
X127511666Y-93861309D01*
X127321190Y-93861309D01*
X128368809Y-94289880D02*
X128368809Y-93766071D01*
X128321190Y-93670833D01*
X128225952Y-93623214D01*
X128035476Y-93623214D01*
X127940238Y-93670833D01*
X128368809Y-94242261D02*
X128273571Y-94289880D01*
X128035476Y-94289880D01*
X127940238Y-94242261D01*
X127892619Y-94147023D01*
X127892619Y-94051785D01*
X127940238Y-93956547D01*
X128035476Y-93908928D01*
X128273571Y-93908928D01*
X128368809Y-93861309D01*
X128845000Y-94289880D02*
X128845000Y-93623214D01*
X128845000Y-93289880D02*
X128797380Y-93337500D01*
X128845000Y-93385119D01*
X128892619Y-93337500D01*
X128845000Y-93289880D01*
X128845000Y-93385119D01*
X129321190Y-93623214D02*
X129321190Y-94289880D01*
X129321190Y-93718452D02*
X129368809Y-93670833D01*
X129464047Y-93623214D01*
X129606904Y-93623214D01*
X129702142Y-93670833D01*
X129749761Y-93766071D01*
X129749761Y-94289880D01*
X149647619Y-105552380D02*
X149980952Y-106552380D01*
X150314285Y-105552380D01*
X150647619Y-106171428D02*
X151409523Y-106171428D01*
X150238095Y-103200000D02*
X150142857Y-103152380D01*
X150000000Y-103152380D01*
X149857142Y-103200000D01*
X149761904Y-103295238D01*
X149714285Y-103390476D01*
X149666666Y-103580952D01*
X149666666Y-103723809D01*
X149714285Y-103914285D01*
X149761904Y-104009523D01*
X149857142Y-104104761D01*
X150000000Y-104152380D01*
X150095238Y-104152380D01*
X150238095Y-104104761D01*
X150285714Y-104057142D01*
X150285714Y-103723809D01*
X150095238Y-103723809D01*
X150714285Y-104152380D02*
X150714285Y-103152380D01*
X151285714Y-104152380D01*
X151285714Y-103152380D01*
X151761904Y-104152380D02*
X151761904Y-103152380D01*
X152000000Y-103152380D01*
X152142857Y-103200000D01*
X152238095Y-103295238D01*
X152285714Y-103390476D01*
X152333333Y-103580952D01*
X152333333Y-103723809D01*
X152285714Y-103914285D01*
X152238095Y-104009523D01*
X152142857Y-104104761D01*
X152000000Y-104152380D01*
X151761904Y-104152380D01*
X140376190Y-97028571D02*
X140519047Y-97076190D01*
X140566666Y-97123809D01*
X140614285Y-97219047D01*
X140614285Y-97361904D01*
X140566666Y-97457142D01*
X140519047Y-97504761D01*
X140423809Y-97552380D01*
X140042857Y-97552380D01*
X140042857Y-96552380D01*
X140376190Y-96552380D01*
X140471428Y-96600000D01*
X140519047Y-96647619D01*
X140566666Y-96742857D01*
X140566666Y-96838095D01*
X140519047Y-96933333D01*
X140471428Y-96980952D01*
X140376190Y-97028571D01*
X140042857Y-97028571D01*
X141042857Y-97552380D02*
X141042857Y-96885714D01*
X141042857Y-96552380D02*
X140995238Y-96600000D01*
X141042857Y-96647619D01*
X141090476Y-96600000D01*
X141042857Y-96552380D01*
X141042857Y-96647619D01*
X141947619Y-97552380D02*
X141947619Y-97028571D01*
X141900000Y-96933333D01*
X141804761Y-96885714D01*
X141614285Y-96885714D01*
X141519047Y-96933333D01*
X141947619Y-97504761D02*
X141852380Y-97552380D01*
X141614285Y-97552380D01*
X141519047Y-97504761D01*
X141471428Y-97409523D01*
X141471428Y-97314285D01*
X141519047Y-97219047D01*
X141614285Y-97171428D01*
X141852380Y-97171428D01*
X141947619Y-97123809D01*
X142376190Y-97504761D02*
X142471428Y-97552380D01*
X142661904Y-97552380D01*
X142757142Y-97504761D01*
X142804761Y-97409523D01*
X142804761Y-97361904D01*
X142757142Y-97266666D01*
X142661904Y-97219047D01*
X142519047Y-97219047D01*
X142423809Y-97171428D01*
X142376190Y-97076190D01*
X142376190Y-97028571D01*
X142423809Y-96933333D01*
X142519047Y-96885714D01*
X142661904Y-96885714D01*
X142757142Y-96933333D01*
X157476190Y-103628571D02*
X157619047Y-103676190D01*
X157666666Y-103723809D01*
X157714285Y-103819047D01*
X157714285Y-103961904D01*
X157666666Y-104057142D01*
X157619047Y-104104761D01*
X157523809Y-104152380D01*
X157142857Y-104152380D01*
X157142857Y-103152380D01*
X157476190Y-103152380D01*
X157571428Y-103200000D01*
X157619047Y-103247619D01*
X157666666Y-103342857D01*
X157666666Y-103438095D01*
X157619047Y-103533333D01*
X157571428Y-103580952D01*
X157476190Y-103628571D01*
X157142857Y-103628571D01*
X158142857Y-104152380D02*
X158142857Y-103485714D01*
X158142857Y-103152380D02*
X158095238Y-103200000D01*
X158142857Y-103247619D01*
X158190476Y-103200000D01*
X158142857Y-103152380D01*
X158142857Y-103247619D01*
X159047619Y-104152380D02*
X159047619Y-103628571D01*
X159000000Y-103533333D01*
X158904761Y-103485714D01*
X158714285Y-103485714D01*
X158619047Y-103533333D01*
X159047619Y-104104761D02*
X158952380Y-104152380D01*
X158714285Y-104152380D01*
X158619047Y-104104761D01*
X158571428Y-104009523D01*
X158571428Y-103914285D01*
X158619047Y-103819047D01*
X158714285Y-103771428D01*
X158952380Y-103771428D01*
X159047619Y-103723809D01*
X159476190Y-104104761D02*
X159571428Y-104152380D01*
X159761904Y-104152380D01*
X159857142Y-104104761D01*
X159904761Y-104009523D01*
X159904761Y-103961904D01*
X159857142Y-103866666D01*
X159761904Y-103819047D01*
X159619047Y-103819047D01*
X159523809Y-103771428D01*
X159476190Y-103676190D01*
X159476190Y-103628571D01*
X159523809Y-103533333D01*
X159619047Y-103485714D01*
X159761904Y-103485714D01*
X159857142Y-103533333D01*
X136633333Y-67752380D02*
X136633333Y-66752380D01*
X137014285Y-66752380D01*
X137109523Y-66800000D01*
X137157142Y-66847619D01*
X137204761Y-66942857D01*
X137204761Y-67085714D01*
X137157142Y-67180952D01*
X137109523Y-67228571D01*
X137014285Y-67276190D01*
X136633333Y-67276190D01*
X137633333Y-67752380D02*
X137633333Y-66752380D01*
X137871428Y-66752380D01*
X138014285Y-66800000D01*
X138109523Y-66895238D01*
X138157142Y-66990476D01*
X138204761Y-67180952D01*
X138204761Y-67323809D01*
X138157142Y-67514285D01*
X138109523Y-67609523D01*
X138014285Y-67704761D01*
X137871428Y-67752380D01*
X137633333Y-67752380D01*
X138585714Y-67704761D02*
X138680952Y-67752380D01*
X138871428Y-67752380D01*
X138966666Y-67704761D01*
X139014285Y-67609523D01*
X139014285Y-67561904D01*
X138966666Y-67466666D01*
X138871428Y-67419047D01*
X138728571Y-67419047D01*
X138633333Y-67371428D01*
X138585714Y-67276190D01*
X138585714Y-67228571D01*
X138633333Y-67133333D01*
X138728571Y-67085714D01*
X138871428Y-67085714D01*
X138966666Y-67133333D01*
%TO.C,TP2*%
X157138095Y-99504380D02*
X157709523Y-99504380D01*
X157423809Y-100504380D02*
X157423809Y-99504380D01*
X158042857Y-100504380D02*
X158042857Y-99504380D01*
X158423809Y-99504380D01*
X158519047Y-99552000D01*
X158566666Y-99599619D01*
X158614285Y-99694857D01*
X158614285Y-99837714D01*
X158566666Y-99932952D01*
X158519047Y-99980571D01*
X158423809Y-100028190D01*
X158042857Y-100028190D01*
X158995238Y-99599619D02*
X159042857Y-99552000D01*
X159138095Y-99504380D01*
X159376190Y-99504380D01*
X159471428Y-99552000D01*
X159519047Y-99599619D01*
X159566666Y-99694857D01*
X159566666Y-99790095D01*
X159519047Y-99932952D01*
X158947619Y-100504380D01*
X159566666Y-100504380D01*
%TO.C,RV2*%
X140589761Y-96159880D02*
X140256428Y-95683690D01*
X140018333Y-96159880D02*
X140018333Y-95159880D01*
X140399285Y-95159880D01*
X140494523Y-95207500D01*
X140542142Y-95255119D01*
X140589761Y-95350357D01*
X140589761Y-95493214D01*
X140542142Y-95588452D01*
X140494523Y-95636071D01*
X140399285Y-95683690D01*
X140018333Y-95683690D01*
X140875476Y-95159880D02*
X141208809Y-96159880D01*
X141542142Y-95159880D01*
X141827857Y-95255119D02*
X141875476Y-95207500D01*
X141970714Y-95159880D01*
X142208809Y-95159880D01*
X142304047Y-95207500D01*
X142351666Y-95255119D01*
X142399285Y-95350357D01*
X142399285Y-95445595D01*
X142351666Y-95588452D01*
X141780238Y-96159880D01*
X142399285Y-96159880D01*
%TO.C,J1*%
X147611666Y-87334880D02*
X147611666Y-88049166D01*
X147564047Y-88192023D01*
X147468809Y-88287261D01*
X147325952Y-88334880D01*
X147230714Y-88334880D01*
X148611666Y-88334880D02*
X148040238Y-88334880D01*
X148325952Y-88334880D02*
X148325952Y-87334880D01*
X148230714Y-87477738D01*
X148135476Y-87572976D01*
X148040238Y-87620595D01*
%TO.C,BH1*%
X157921428Y-64428571D02*
X158064285Y-64476190D01*
X158111904Y-64523809D01*
X158159523Y-64619047D01*
X158159523Y-64761904D01*
X158111904Y-64857142D01*
X158064285Y-64904761D01*
X157969047Y-64952380D01*
X157588095Y-64952380D01*
X157588095Y-63952380D01*
X157921428Y-63952380D01*
X158016666Y-64000000D01*
X158064285Y-64047619D01*
X158111904Y-64142857D01*
X158111904Y-64238095D01*
X158064285Y-64333333D01*
X158016666Y-64380952D01*
X157921428Y-64428571D01*
X157588095Y-64428571D01*
X158588095Y-64952380D02*
X158588095Y-63952380D01*
X158588095Y-64428571D02*
X159159523Y-64428571D01*
X159159523Y-64952380D02*
X159159523Y-63952380D01*
X160159523Y-64952380D02*
X159588095Y-64952380D01*
X159873809Y-64952380D02*
X159873809Y-63952380D01*
X159778571Y-64095238D01*
X159683333Y-64190476D01*
X159588095Y-64238095D01*
X163469047Y-87571428D02*
X164230952Y-87571428D01*
X163469047Y-68571428D02*
X164230952Y-68571428D01*
X163850000Y-68952380D02*
X163850000Y-68190476D01*
%TO.C,J3*%
X147066666Y-98042380D02*
X147066666Y-98756666D01*
X147019047Y-98899523D01*
X146923809Y-98994761D01*
X146780952Y-99042380D01*
X146685714Y-99042380D01*
X147447619Y-98042380D02*
X148066666Y-98042380D01*
X147733333Y-98423333D01*
X147876190Y-98423333D01*
X147971428Y-98470952D01*
X148019047Y-98518571D01*
X148066666Y-98613809D01*
X148066666Y-98851904D01*
X148019047Y-98947142D01*
X147971428Y-98994761D01*
X147876190Y-99042380D01*
X147590476Y-99042380D01*
X147495238Y-98994761D01*
X147447619Y-98947142D01*
%TO.C,RV1*%
X127864761Y-92484880D02*
X127531428Y-92008690D01*
X127293333Y-92484880D02*
X127293333Y-91484880D01*
X127674285Y-91484880D01*
X127769523Y-91532500D01*
X127817142Y-91580119D01*
X127864761Y-91675357D01*
X127864761Y-91818214D01*
X127817142Y-91913452D01*
X127769523Y-91961071D01*
X127674285Y-92008690D01*
X127293333Y-92008690D01*
X128150476Y-91484880D02*
X128483809Y-92484880D01*
X128817142Y-91484880D01*
X129674285Y-92484880D02*
X129102857Y-92484880D01*
X129388571Y-92484880D02*
X129388571Y-91484880D01*
X129293333Y-91627738D01*
X129198095Y-91722976D01*
X129102857Y-91770595D01*
%TO.C,TP1*%
X133038095Y-92204380D02*
X133609523Y-92204380D01*
X133323809Y-93204380D02*
X133323809Y-92204380D01*
X133942857Y-93204380D02*
X133942857Y-92204380D01*
X134323809Y-92204380D01*
X134419047Y-92252000D01*
X134466666Y-92299619D01*
X134514285Y-92394857D01*
X134514285Y-92537714D01*
X134466666Y-92632952D01*
X134419047Y-92680571D01*
X134323809Y-92728190D01*
X133942857Y-92728190D01*
X135466666Y-93204380D02*
X134895238Y-93204380D01*
X135180952Y-93204380D02*
X135180952Y-92204380D01*
X135085714Y-92347238D01*
X134990476Y-92442476D01*
X134895238Y-92490095D01*
%TO.C,D3*%
X140882380Y-103510595D02*
X139882380Y-103510595D01*
X139882380Y-103272500D01*
X139930000Y-103129642D01*
X140025238Y-103034404D01*
X140120476Y-102986785D01*
X140310952Y-102939166D01*
X140453809Y-102939166D01*
X140644285Y-102986785D01*
X140739523Y-103034404D01*
X140834761Y-103129642D01*
X140882380Y-103272500D01*
X140882380Y-103510595D01*
X139882380Y-102605833D02*
X139882380Y-101986785D01*
X140263333Y-102320119D01*
X140263333Y-102177261D01*
X140310952Y-102082023D01*
X140358571Y-102034404D01*
X140453809Y-101986785D01*
X140691904Y-101986785D01*
X140787142Y-102034404D01*
X140834761Y-102082023D01*
X140882380Y-102177261D01*
X140882380Y-102462976D01*
X140834761Y-102558214D01*
X140787142Y-102605833D01*
%TO.C,SW1*%
X130551666Y-71212261D02*
X130694523Y-71259880D01*
X130932619Y-71259880D01*
X131027857Y-71212261D01*
X131075476Y-71164642D01*
X131123095Y-71069404D01*
X131123095Y-70974166D01*
X131075476Y-70878928D01*
X131027857Y-70831309D01*
X130932619Y-70783690D01*
X130742142Y-70736071D01*
X130646904Y-70688452D01*
X130599285Y-70640833D01*
X130551666Y-70545595D01*
X130551666Y-70450357D01*
X130599285Y-70355119D01*
X130646904Y-70307500D01*
X130742142Y-70259880D01*
X130980238Y-70259880D01*
X131123095Y-70307500D01*
X131456428Y-70259880D02*
X131694523Y-71259880D01*
X131885000Y-70545595D01*
X132075476Y-71259880D01*
X132313571Y-70259880D01*
X133218333Y-71259880D02*
X132646904Y-71259880D01*
X132932619Y-71259880D02*
X132932619Y-70259880D01*
X132837380Y-70402738D01*
X132742142Y-70497976D01*
X132646904Y-70545595D01*
X138360714Y-73589880D02*
X137789285Y-73589880D01*
X138075000Y-73589880D02*
X138075000Y-72589880D01*
X137979761Y-72732738D01*
X137884523Y-72827976D01*
X137789285Y-72875595D01*
X126265476Y-80089880D02*
X126075000Y-80089880D01*
X125979761Y-80137500D01*
X125932142Y-80185119D01*
X125836904Y-80327976D01*
X125789285Y-80518452D01*
X125789285Y-80899404D01*
X125836904Y-80994642D01*
X125884523Y-81042261D01*
X125979761Y-81089880D01*
X126170238Y-81089880D01*
X126265476Y-81042261D01*
X126313095Y-80994642D01*
X126360714Y-80899404D01*
X126360714Y-80661309D01*
X126313095Y-80566071D01*
X126265476Y-80518452D01*
X126170238Y-80470833D01*
X125979761Y-80470833D01*
X125884523Y-80518452D01*
X125836904Y-80566071D01*
X125789285Y-80661309D01*
X137741666Y-80089880D02*
X138360714Y-80089880D01*
X138027380Y-80470833D01*
X138170238Y-80470833D01*
X138265476Y-80518452D01*
X138313095Y-80566071D01*
X138360714Y-80661309D01*
X138360714Y-80899404D01*
X138313095Y-80994642D01*
X138265476Y-81042261D01*
X138170238Y-81089880D01*
X137884523Y-81089880D01*
X137789285Y-81042261D01*
X137741666Y-80994642D01*
X138384523Y-75994642D02*
X138336904Y-76042261D01*
X138194047Y-76089880D01*
X138098809Y-76089880D01*
X137955952Y-76042261D01*
X137860714Y-75947023D01*
X137813095Y-75851785D01*
X137765476Y-75661309D01*
X137765476Y-75518452D01*
X137813095Y-75327976D01*
X137860714Y-75232738D01*
X137955952Y-75137500D01*
X138098809Y-75089880D01*
X138194047Y-75089880D01*
X138336904Y-75137500D01*
X138384523Y-75185119D01*
X137789285Y-77685119D02*
X137836904Y-77637500D01*
X137932142Y-77589880D01*
X138170238Y-77589880D01*
X138265476Y-77637500D01*
X138313095Y-77685119D01*
X138360714Y-77780357D01*
X138360714Y-77875595D01*
X138313095Y-78018452D01*
X137741666Y-78589880D01*
X138360714Y-78589880D01*
X126384523Y-78494642D02*
X126336904Y-78542261D01*
X126194047Y-78589880D01*
X126098809Y-78589880D01*
X125955952Y-78542261D01*
X125860714Y-78447023D01*
X125813095Y-78351785D01*
X125765476Y-78161309D01*
X125765476Y-78018452D01*
X125813095Y-77827976D01*
X125860714Y-77732738D01*
X125955952Y-77637500D01*
X126098809Y-77589880D01*
X126194047Y-77589880D01*
X126336904Y-77637500D01*
X126384523Y-77685119D01*
X126265476Y-72923214D02*
X126265476Y-73589880D01*
X126027380Y-72542261D02*
X125789285Y-73256547D01*
X126408333Y-73256547D01*
X126313095Y-75089880D02*
X125836904Y-75089880D01*
X125789285Y-75566071D01*
X125836904Y-75518452D01*
X125932142Y-75470833D01*
X126170238Y-75470833D01*
X126265476Y-75518452D01*
X126313095Y-75566071D01*
X126360714Y-75661309D01*
X126360714Y-75899404D01*
X126313095Y-75994642D01*
X126265476Y-76042261D01*
X126170238Y-76089880D01*
X125932142Y-76089880D01*
X125836904Y-76042261D01*
X125789285Y-75994642D01*
%TO.C,J2*%
X120166666Y-99727380D02*
X120166666Y-100441666D01*
X120119047Y-100584523D01*
X120023809Y-100679761D01*
X119880952Y-100727380D01*
X119785714Y-100727380D01*
X120595238Y-99822619D02*
X120642857Y-99775000D01*
X120738095Y-99727380D01*
X120976190Y-99727380D01*
X121071428Y-99775000D01*
X121119047Y-99822619D01*
X121166666Y-99917857D01*
X121166666Y-100013095D01*
X121119047Y-100155952D01*
X120547619Y-100727380D01*
X121166666Y-100727380D01*
%TO.C,TP3*%
X136338095Y-63204380D02*
X136909523Y-63204380D01*
X136623809Y-64204380D02*
X136623809Y-63204380D01*
X137242857Y-64204380D02*
X137242857Y-63204380D01*
X137623809Y-63204380D01*
X137719047Y-63252000D01*
X137766666Y-63299619D01*
X137814285Y-63394857D01*
X137814285Y-63537714D01*
X137766666Y-63632952D01*
X137719047Y-63680571D01*
X137623809Y-63728190D01*
X137242857Y-63728190D01*
X138147619Y-63204380D02*
X138766666Y-63204380D01*
X138433333Y-63585333D01*
X138576190Y-63585333D01*
X138671428Y-63632952D01*
X138719047Y-63680571D01*
X138766666Y-63775809D01*
X138766666Y-64013904D01*
X138719047Y-64109142D01*
X138671428Y-64156761D01*
X138576190Y-64204380D01*
X138290476Y-64204380D01*
X138195238Y-64156761D01*
X138147619Y-64109142D01*
%TO.C,SW2*%
X130316666Y-98974761D02*
X130459523Y-99022380D01*
X130697619Y-99022380D01*
X130792857Y-98974761D01*
X130840476Y-98927142D01*
X130888095Y-98831904D01*
X130888095Y-98736666D01*
X130840476Y-98641428D01*
X130792857Y-98593809D01*
X130697619Y-98546190D01*
X130507142Y-98498571D01*
X130411904Y-98450952D01*
X130364285Y-98403333D01*
X130316666Y-98308095D01*
X130316666Y-98212857D01*
X130364285Y-98117619D01*
X130411904Y-98070000D01*
X130507142Y-98022380D01*
X130745238Y-98022380D01*
X130888095Y-98070000D01*
X131221428Y-98022380D02*
X131459523Y-99022380D01*
X131650000Y-98308095D01*
X131840476Y-99022380D01*
X132078571Y-98022380D01*
X132411904Y-98117619D02*
X132459523Y-98070000D01*
X132554761Y-98022380D01*
X132792857Y-98022380D01*
X132888095Y-98070000D01*
X132935714Y-98117619D01*
X132983333Y-98212857D01*
X132983333Y-98308095D01*
X132935714Y-98450952D01*
X132364285Y-99022380D01*
X132983333Y-99022380D01*
%TO.C,U1*%
X144333095Y-69739880D02*
X144333095Y-70549404D01*
X144380714Y-70644642D01*
X144428333Y-70692261D01*
X144523571Y-70739880D01*
X144714047Y-70739880D01*
X144809285Y-70692261D01*
X144856904Y-70644642D01*
X144904523Y-70549404D01*
X144904523Y-69739880D01*
X145904523Y-70739880D02*
X145333095Y-70739880D01*
X145618809Y-70739880D02*
X145618809Y-69739880D01*
X145523571Y-69882738D01*
X145428333Y-69977976D01*
X145333095Y-70025595D01*
%TO.C,BH2*%
X117628571Y-95571428D02*
X117485714Y-95523809D01*
X117438095Y-95476190D01*
X117390476Y-95380952D01*
X117390476Y-95238095D01*
X117438095Y-95142857D01*
X117485714Y-95095238D01*
X117580952Y-95047619D01*
X117961904Y-95047619D01*
X117961904Y-96047619D01*
X117628571Y-96047619D01*
X117533333Y-96000000D01*
X117485714Y-95952380D01*
X117438095Y-95857142D01*
X117438095Y-95761904D01*
X117485714Y-95666666D01*
X117533333Y-95619047D01*
X117628571Y-95571428D01*
X117961904Y-95571428D01*
X116961904Y-95047619D02*
X116961904Y-96047619D01*
X116961904Y-95571428D02*
X116390476Y-95571428D01*
X116390476Y-95047619D02*
X116390476Y-96047619D01*
X115961904Y-95952380D02*
X115914285Y-96000000D01*
X115819047Y-96047619D01*
X115580952Y-96047619D01*
X115485714Y-96000000D01*
X115438095Y-95952380D01*
X115390476Y-95857142D01*
X115390476Y-95761904D01*
X115438095Y-95619047D01*
X116009523Y-95047619D01*
X115390476Y-95047619D01*
X112080952Y-91428571D02*
X111319047Y-91428571D01*
X111700000Y-91047619D02*
X111700000Y-91809523D01*
X112080952Y-72428571D02*
X111319047Y-72428571D01*
D11*
%TO.C,TP2*%
X159100000Y-101500000D02*
G75*
G03*
X159100000Y-101500000I-700000J0D01*
G01*
%TO.C,RV2*%
X137710000Y-94577500D02*
X137710000Y-93932500D01*
X137710000Y-92942500D02*
X137710000Y-89837500D01*
X144660000Y-92942500D02*
X144660000Y-89837500D01*
X144660000Y-94577500D02*
X137710000Y-94577500D01*
X144660000Y-89837500D02*
X137710000Y-89837500D01*
X144660000Y-94577500D02*
X144660000Y-93932500D01*
%TO.C,J1*%
X146615000Y-88882500D02*
X147945000Y-88882500D01*
X146615000Y-90212500D02*
X146615000Y-88882500D01*
X146615000Y-91482500D02*
X149275000Y-91482500D01*
X146615000Y-94082500D02*
X149275000Y-94082500D01*
X149275000Y-91482500D02*
X149275000Y-94082500D01*
X146615000Y-91482500D02*
X146615000Y-94082500D01*
%TO.C,BH1*%
X154850000Y-84500000D02*
X154850000Y-86500000D01*
X162850000Y-84500000D02*
X162850000Y-86500000D01*
X154850000Y-77500000D02*
X154850000Y-67500000D01*
X162850000Y-65500000D02*
X162850000Y-67500000D01*
X154850000Y-65500000D02*
X154850000Y-67500000D01*
X162850000Y-96500000D02*
X154850000Y-96500000D01*
X162850000Y-86500000D02*
X162850000Y-96500000D01*
X162850000Y-67500000D02*
X162850000Y-77500000D01*
X154850000Y-65500000D02*
X162850000Y-65500000D01*
X154850000Y-84500000D02*
X162850000Y-84500000D01*
X154850000Y-96500000D02*
X154850000Y-86500000D01*
X162850000Y-77500000D02*
X154850000Y-77500000D01*
%TO.C,J3*%
X146070000Y-100920000D02*
X146070000Y-99590000D01*
X146070000Y-99590000D02*
X147400000Y-99590000D01*
X146070000Y-107330000D02*
X148730000Y-107330000D01*
X146070000Y-102190000D02*
X146070000Y-107330000D01*
X148730000Y-102190000D02*
X148730000Y-107330000D01*
X146070000Y-102190000D02*
X148730000Y-102190000D01*
%TO.C,RV1*%
X131935000Y-90902500D02*
X131935000Y-90257500D01*
X131935000Y-86162500D02*
X124985000Y-86162500D01*
X131935000Y-89267500D02*
X131935000Y-86162500D01*
X124985000Y-90902500D02*
X124985000Y-90257500D01*
X131935000Y-90902500D02*
X124985000Y-90902500D01*
X124985000Y-89267500D02*
X124985000Y-86162500D01*
%TO.C,TP1*%
X135000000Y-94200000D02*
G75*
G03*
X135000000Y-94200000I-700000J0D01*
G01*
D12*
%TO.C,D3*%
X141650000Y-104037500D02*
G75*
G03*
X141650000Y-104037500I-50000J0D01*
G01*
D11*
%TO.C,SW1*%
X134135000Y-71807500D02*
X132885000Y-71807500D01*
X134135000Y-82087500D02*
X134135000Y-71807500D01*
X130885000Y-71807500D02*
X129635000Y-71807500D01*
X129635000Y-71807500D02*
X129635000Y-82087500D01*
X129635000Y-82087500D02*
X134135000Y-82087500D01*
X130885000Y-71807500D02*
G75*
G03*
X132885000Y-71807500I1000000J0D01*
G01*
%TO.C,J2*%
X119170000Y-101275000D02*
X120500000Y-101275000D01*
X119170000Y-102605000D02*
X119170000Y-101275000D01*
X119170000Y-106475000D02*
X121830000Y-106475000D01*
X121830000Y-103875000D02*
X121830000Y-106475000D01*
X119170000Y-103875000D02*
X121830000Y-103875000D01*
X119170000Y-103875000D02*
X119170000Y-106475000D01*
%TO.C,TP3*%
X138300000Y-65200000D02*
G75*
G03*
X138300000Y-65200000I-700000J0D01*
G01*
%TO.C,SW2*%
X135120000Y-99355000D02*
X128150000Y-99355000D01*
X128180000Y-107175000D02*
X135120000Y-107175000D01*
X135120000Y-107175000D02*
X135120000Y-106655000D01*
X128150000Y-99375000D02*
X126650000Y-99375000D01*
X135120000Y-100115000D02*
X135120000Y-99355000D01*
X128180000Y-106655000D02*
X128180000Y-107175000D01*
X128150000Y-99355000D02*
X128150000Y-99375000D01*
%TO.C,U1*%
X145095000Y-81547500D02*
X142335000Y-81547500D01*
X145095000Y-81547500D02*
X147855000Y-81547500D01*
X145095000Y-71127500D02*
X142335000Y-71127500D01*
X145095000Y-71127500D02*
X147855000Y-71127500D01*
X142335000Y-71127500D02*
X142335000Y-71967500D01*
X147855000Y-81547500D02*
X147855000Y-80707500D01*
X142335000Y-71967500D02*
X140645000Y-71967500D01*
X147855000Y-71127500D02*
X147855000Y-71967500D01*
X142335000Y-81547500D02*
X142335000Y-80707500D01*
%TO.C,BH2*%
X112700000Y-92500000D02*
X112700000Y-82500000D01*
X120700000Y-94500000D02*
X120700000Y-92500000D01*
X112700000Y-73500000D02*
X112700000Y-63500000D01*
X112700000Y-75500000D02*
X112700000Y-73500000D01*
X112700000Y-63500000D02*
X120700000Y-63500000D01*
X120700000Y-82500000D02*
X120700000Y-92500000D01*
X120700000Y-63500000D02*
X120700000Y-73500000D01*
X112700000Y-82500000D02*
X120700000Y-82500000D01*
X112700000Y-94500000D02*
X112700000Y-92500000D01*
X120700000Y-94500000D02*
X112700000Y-94500000D01*
X120700000Y-75500000D02*
X120700000Y-73500000D01*
X120700000Y-75500000D02*
X112700000Y-75500000D01*
%TD*%
M02*
